M48
; DRILL file {KiCad 9.0.7} date 2026-02-07T16:10:57+0100
; FORMAT={-:-/ absolute / metric / decimal}
; #@! TF.CreationDate,2026-02-07T16:10:57+01:00
; #@! TF.GenerationSoftware,Kicad,Pcbnew,9.0.7
; #@! TF.FileFunction,NonPlated,1,2,NPTH
FMAT,2
METRIC
; #@! TA.AperFunction,NonPlated,NPTH,ComponentDrill
T1C1.700
; #@! TA.AperFunction,NonPlated,NPTH,ComponentDrill
T2C4.000
%
G90
G05
T1
X124.42Y-52.25
X124.42Y-71.25
X124.42Y-90.5
X134.58Y-52.25
X134.58Y-71.25
X134.58Y-90.5
X143.42Y-52.25
X143.42Y-71.25
X143.42Y-90.5
X153.58Y-52.25
X153.58Y-71.25
X153.58Y-90.5
X162.38Y-52.25
X162.38Y-71.25
X162.38Y-90.5
X172.54Y-52.25
X172.54Y-71.25
X172.54Y-90.5
T2
X129.5Y-52.25
X129.5Y-71.25
X129.5Y-90.5
X148.5Y-52.25
X148.5Y-71.25
X148.5Y-90.5
X167.46Y-52.25
X167.46Y-71.25
X167.46Y-90.5
M30
