G04 #@! TF.GenerationSoftware,KiCad,Pcbnew,9.0.7*
G04 #@! TF.CreationDate,2026-02-07T16:10:57+01:00*
G04 #@! TF.ProjectId,keyboard,6b657962-6f61-4726-942e-6b696361645f,rev?*
G04 #@! TF.SameCoordinates,Original*
G04 #@! TF.FileFunction,Soldermask,Bot*
G04 #@! TF.FilePolarity,Negative*
%FSLAX46Y46*%
G04 Gerber Fmt 4.6, Leading zero omitted, Abs format (unit mm)*
G04 Created by KiCad (PCBNEW 9.0.7) date 2026-02-07 16:10:57*
%MOMM*%
%LPD*%
G01*
G04 APERTURE LIST*
%ADD10R,2.000000X2.000000*%
%ADD11C,2.000000*%
%ADD12R,3.200000X2.000000*%
%ADD13C,1.700000*%
%ADD14C,4.000000*%
%ADD15C,2.200000*%
%ADD16R,1.700000X1.700000*%
%ADD17O,1.700000X1.700000*%
%ADD18C,1.524000*%
%ADD19R,1.600000X1.600000*%
%ADD20O,1.600000X1.600000*%
G04 APERTURE END LIST*
D10*
G04 #@! TO.C,SW11*
X181250000Y-79500000D03*
D11*
X181250000Y-84500000D03*
X181250000Y-82000000D03*
D12*
X188750000Y-76400000D03*
X188750000Y-87600000D03*
D11*
X195750000Y-84500000D03*
X195750000Y-79500000D03*
G04 #@! TD*
D13*
G04 #@! TO.C,SW4*
X124420000Y-90500000D03*
D14*
X129500000Y-90500000D03*
D13*
X134580000Y-90500000D03*
D15*
X132040000Y-85420000D03*
X125690000Y-87960000D03*
G04 #@! TD*
D13*
G04 #@! TO.C,SW9*
X162380000Y-71250000D03*
D14*
X167460000Y-71250000D03*
D13*
X172540000Y-71250000D03*
D15*
X170000000Y-66170000D03*
X163650000Y-68710000D03*
G04 #@! TD*
D16*
G04 #@! TO.C,J1*
X128000000Y-28880000D03*
D17*
X128000000Y-31420000D03*
X128000000Y-33960000D03*
X128000000Y-36500000D03*
G04 #@! TD*
D18*
G04 #@! TO.C,U1*
X182500000Y-27510000D03*
X182500000Y-30050000D03*
X182500000Y-32590000D03*
X182500000Y-35130000D03*
X182500000Y-37670000D03*
X182500000Y-40210000D03*
X182500000Y-42750000D03*
X197740000Y-42750000D03*
X197740000Y-40210000D03*
X197740000Y-37670000D03*
X197740000Y-35130000D03*
X197740000Y-32590000D03*
X197740000Y-30050000D03*
X197740000Y-27510000D03*
G04 #@! TD*
D13*
G04 #@! TO.C,SW2*
X124420000Y-52250000D03*
D14*
X129500000Y-52250000D03*
D13*
X134580000Y-52250000D03*
D15*
X132040000Y-47170000D03*
X125690000Y-49710000D03*
G04 #@! TD*
D13*
G04 #@! TO.C,SW3*
X124420000Y-71250000D03*
D14*
X129500000Y-71250000D03*
D13*
X134580000Y-71250000D03*
D15*
X132040000Y-66170000D03*
X125690000Y-68710000D03*
G04 #@! TD*
D13*
G04 #@! TO.C,SW10*
X162380000Y-90500000D03*
D14*
X167460000Y-90500000D03*
D13*
X172540000Y-90500000D03*
D15*
X170000000Y-85420000D03*
X163650000Y-87960000D03*
G04 #@! TD*
D10*
G04 #@! TO.C,SW1*
X181250000Y-54150000D03*
D11*
X181250000Y-59150000D03*
X181250000Y-56650000D03*
D12*
X188750000Y-51050000D03*
X188750000Y-62250000D03*
D11*
X195750000Y-59150000D03*
X195750000Y-54150000D03*
G04 #@! TD*
D13*
G04 #@! TO.C,SW8*
X162380000Y-52250000D03*
D14*
X167460000Y-52250000D03*
D13*
X172540000Y-52250000D03*
D15*
X170000000Y-47170000D03*
X163650000Y-49710000D03*
G04 #@! TD*
D13*
G04 #@! TO.C,SW7*
X143420000Y-90500000D03*
D14*
X148500000Y-90500000D03*
D13*
X153580000Y-90500000D03*
D15*
X151040000Y-85420000D03*
X144690000Y-87960000D03*
G04 #@! TD*
D13*
G04 #@! TO.C,SW6*
X143420000Y-71250000D03*
D14*
X148500000Y-71250000D03*
D13*
X153580000Y-71250000D03*
D15*
X151040000Y-66170000D03*
X144690000Y-68710000D03*
G04 #@! TD*
D13*
G04 #@! TO.C,SW5*
X143420000Y-52250000D03*
D14*
X148500000Y-52250000D03*
D13*
X153580000Y-52250000D03*
D15*
X151040000Y-47170000D03*
X144690000Y-49710000D03*
G04 #@! TD*
D19*
G04 #@! TO.C,D1*
X133500000Y-76250000D03*
D20*
X125880000Y-76250000D03*
G04 #@! TD*
D19*
G04 #@! TO.C,D15*
X185130000Y-73250000D03*
D20*
X192750000Y-73250000D03*
G04 #@! TD*
D19*
G04 #@! TO.C,D6*
X171370000Y-57000000D03*
D20*
X163750000Y-57000000D03*
G04 #@! TD*
D19*
G04 #@! TO.C,D2*
X133620000Y-95250000D03*
D20*
X126000000Y-95250000D03*
G04 #@! TD*
D19*
G04 #@! TO.C,D5*
X171250000Y-76000000D03*
D20*
X163630000Y-76000000D03*
G04 #@! TD*
D19*
G04 #@! TO.C,D14*
X185630000Y-93250000D03*
D20*
X193250000Y-93250000D03*
G04 #@! TD*
D19*
G04 #@! TO.C,D10*
X192620000Y-65250000D03*
D20*
X185000000Y-65250000D03*
G04 #@! TD*
D19*
G04 #@! TO.C,D12*
X199500000Y-47130000D03*
D20*
X199500000Y-54750000D03*
G04 #@! TD*
D19*
G04 #@! TO.C,D4*
X171310000Y-95250000D03*
D20*
X163690000Y-95250000D03*
G04 #@! TD*
D19*
G04 #@! TO.C,D7*
X152370000Y-57000000D03*
D20*
X144750000Y-57000000D03*
G04 #@! TD*
D19*
G04 #@! TO.C,D9*
X133620000Y-57000000D03*
D20*
X126000000Y-57000000D03*
G04 #@! TD*
D19*
G04 #@! TO.C,D13*
X193120000Y-90500000D03*
D20*
X185500000Y-90500000D03*
G04 #@! TD*
D19*
G04 #@! TO.C,D8*
X152250000Y-76000000D03*
D20*
X144630000Y-76000000D03*
G04 #@! TD*
D19*
G04 #@! TO.C,D3*
X152500000Y-95250000D03*
D20*
X144880000Y-95250000D03*
G04 #@! TD*
D19*
G04 #@! TO.C,D11*
X192631546Y-67971381D03*
D20*
X185011546Y-67971381D03*
G04 #@! TD*
M02*
