G04 #@! TF.GenerationSoftware,KiCad,Pcbnew,9.0.7*
G04 #@! TF.CreationDate,2026-02-07T16:10:57+01:00*
G04 #@! TF.ProjectId,keyboard,6b657962-6f61-4726-942e-6b696361645f,rev?*
G04 #@! TF.SameCoordinates,Original*
G04 #@! TF.FileFunction,Copper,L1,Top*
G04 #@! TF.FilePolarity,Positive*
%FSLAX46Y46*%
G04 Gerber Fmt 4.6, Leading zero omitted, Abs format (unit mm)*
G04 Created by KiCad (PCBNEW 9.0.7) date 2026-02-07 16:10:57*
%MOMM*%
%LPD*%
G01*
G04 APERTURE LIST*
G04 Aperture macros list*
%AMRoundRect*
0 Rectangle with rounded corners*
0 $1 Rounding radius*
0 $2 $3 $4 $5 $6 $7 $8 $9 X,Y pos of 4 corners*
0 Add a 4 corners polygon primitive as box body*
4,1,4,$2,$3,$4,$5,$6,$7,$8,$9,$2,$3,0*
0 Add four circle primitives for the rounded corners*
1,1,$1+$1,$2,$3*
1,1,$1+$1,$4,$5*
1,1,$1+$1,$6,$7*
1,1,$1+$1,$8,$9*
0 Add four rect primitives between the rounded corners*
20,1,$1+$1,$2,$3,$4,$5,0*
20,1,$1+$1,$4,$5,$6,$7,0*
20,1,$1+$1,$6,$7,$8,$9,0*
20,1,$1+$1,$8,$9,$2,$3,0*%
G04 Aperture macros list end*
G04 #@! TA.AperFunction,ComponentPad*
%ADD10R,2.000000X2.000000*%
G04 #@! TD*
G04 #@! TA.AperFunction,ComponentPad*
%ADD11C,2.000000*%
G04 #@! TD*
G04 #@! TA.AperFunction,ComponentPad*
%ADD12R,3.200000X2.000000*%
G04 #@! TD*
G04 #@! TA.AperFunction,ComponentPad*
%ADD13C,2.200000*%
G04 #@! TD*
G04 #@! TA.AperFunction,SMDPad,CuDef*
%ADD14R,0.850000X1.600000*%
G04 #@! TD*
G04 #@! TA.AperFunction,ComponentPad*
%ADD15R,1.700000X1.700000*%
G04 #@! TD*
G04 #@! TA.AperFunction,ComponentPad*
%ADD16O,1.700000X1.700000*%
G04 #@! TD*
G04 #@! TA.AperFunction,SMDPad,CuDef*
%ADD17R,1.600000X0.850000*%
G04 #@! TD*
G04 #@! TA.AperFunction,SMDPad,CuDef*
%ADD18RoundRect,0.152400X1.063600X0.609600X-1.063600X0.609600X-1.063600X-0.609600X1.063600X-0.609600X0*%
G04 #@! TD*
G04 #@! TA.AperFunction,ComponentPad*
%ADD19C,1.524000*%
G04 #@! TD*
G04 #@! TA.AperFunction,SMDPad,CuDef*
%ADD20RoundRect,0.152400X-1.063600X-0.609600X1.063600X-0.609600X1.063600X0.609600X-1.063600X0.609600X0*%
G04 #@! TD*
G04 #@! TA.AperFunction,ComponentPad*
%ADD21R,1.600000X1.600000*%
G04 #@! TD*
G04 #@! TA.AperFunction,ComponentPad*
%ADD22O,1.600000X1.600000*%
G04 #@! TD*
G04 #@! TA.AperFunction,ViaPad*
%ADD23C,0.600000*%
G04 #@! TD*
G04 #@! TA.AperFunction,Conductor*
%ADD24C,0.200000*%
G04 #@! TD*
G04 APERTURE END LIST*
D10*
G04 #@! TO.P,SW11,A,A*
G04 #@! TO.N,Net-(D13-A)*
X181250000Y-79500000D03*
D11*
G04 #@! TO.P,SW11,B,B*
G04 #@! TO.N,Net-(D14-A)*
X181250000Y-84500000D03*
G04 #@! TO.P,SW11,C,C*
G04 #@! TO.N,C4*
X181250000Y-82000000D03*
D12*
G04 #@! TO.P,SW11,MP*
G04 #@! TO.N,N/C*
X188750000Y-76400000D03*
X188750000Y-87600000D03*
D11*
G04 #@! TO.P,SW11,S1,S1*
G04 #@! TO.N,C2*
X195750000Y-84500000D03*
G04 #@! TO.P,SW11,S2,S2*
G04 #@! TO.N,Net-(D15-A)*
X195750000Y-79500000D03*
G04 #@! TD*
D13*
G04 #@! TO.P,SW4,1,1*
G04 #@! TO.N,Net-(D2-A)*
X132040000Y-85420000D03*
G04 #@! TO.P,SW4,2,2*
G04 #@! TO.N,C3*
X125690000Y-87960000D03*
G04 #@! TD*
G04 #@! TO.P,SW9,1,1*
G04 #@! TO.N,Net-(D5-A)*
X170000000Y-66170000D03*
G04 #@! TO.P,SW9,2,2*
G04 #@! TO.N,C2*
X163650000Y-68710000D03*
G04 #@! TD*
D14*
G04 #@! TO.P,D17,1,DOUT*
G04 #@! TO.N,Net-(D17-DOUT)*
X200500000Y-68250000D03*
G04 #@! TO.P,D17,2,VSS*
G04 #@! TO.N,GND*
X198750000Y-68250000D03*
G04 #@! TO.P,D17,3,DIN*
G04 #@! TO.N,Net-(D16-DOUT)*
X198750000Y-71750000D03*
G04 #@! TO.P,D17,4,VDD*
G04 #@! TO.N,5V*
X200500000Y-71750000D03*
G04 #@! TD*
D15*
G04 #@! TO.P,J1,1,Pin_1*
G04 #@! TO.N,SDA*
X128000000Y-28880000D03*
D16*
G04 #@! TO.P,J1,2,Pin_2*
G04 #@! TO.N,SCL*
X128000000Y-31420000D03*
G04 #@! TO.P,J1,3,Pin_3*
G04 #@! TO.N,3V3*
X128000000Y-33960000D03*
G04 #@! TO.P,J1,4,Pin_4*
G04 #@! TO.N,GND*
X128000000Y-36500000D03*
G04 #@! TD*
D17*
G04 #@! TO.P,D20,1,DOUT*
G04 #@! TO.N,unconnected-(D20-DOUT-Pad1)*
X191250000Y-98875000D03*
G04 #@! TO.P,D20,2,VSS*
G04 #@! TO.N,GND*
X191250000Y-97125000D03*
G04 #@! TO.P,D20,3,DIN*
G04 #@! TO.N,Net-(D19-DOUT)*
X187750000Y-97125000D03*
G04 #@! TO.P,D20,4,VDD*
G04 #@! TO.N,5V*
X187750000Y-98875000D03*
G04 #@! TD*
D18*
G04 #@! TO.P,U1,1,GPIO26/ADC0/A0*
G04 #@! TO.N,C1*
X181665000Y-27510000D03*
D19*
X182500000Y-27510000D03*
D18*
G04 #@! TO.P,U1,2,GPIO27/ADC1/A1*
G04 #@! TO.N,C2*
X181665000Y-30050000D03*
D19*
X182500000Y-30050000D03*
D18*
G04 #@! TO.P,U1,3,GPIO28/ADC2/A2*
G04 #@! TO.N,C3*
X181665000Y-32590000D03*
D19*
X182500000Y-32590000D03*
D18*
G04 #@! TO.P,U1,4,GPIO29/ADC3/A3*
G04 #@! TO.N,C4*
X181665000Y-35130000D03*
D19*
X182500000Y-35130000D03*
D18*
G04 #@! TO.P,U1,5,GPIO6/SDA*
G04 #@! TO.N,SDA*
X181665000Y-37670000D03*
D19*
X182500000Y-37670000D03*
D18*
G04 #@! TO.P,U1,6,GPIO7/SCL*
G04 #@! TO.N,SCL*
X181665000Y-40210000D03*
D19*
X182500000Y-40210000D03*
D18*
G04 #@! TO.P,U1,7,GPIO0/TX*
G04 #@! TO.N,R3*
X181665000Y-42750000D03*
D19*
X182500000Y-42750000D03*
G04 #@! TO.P,U1,8,GPIO1/RX*
G04 #@! TO.N,R4*
X197740000Y-42750000D03*
D20*
X198575000Y-42750000D03*
D19*
G04 #@! TO.P,U1,9,GPIO2/SCK*
G04 #@! TO.N,SCK*
X197740000Y-40210000D03*
D20*
X198575000Y-40210000D03*
D19*
G04 #@! TO.P,U1,10,GPIO4/MISO*
G04 #@! TO.N,R2*
X197740000Y-37670000D03*
D20*
X198575000Y-37670000D03*
D19*
G04 #@! TO.P,U1,11,GPIO3/MOSI*
G04 #@! TO.N,R1*
X197740000Y-35130000D03*
D20*
X198575000Y-35130000D03*
D19*
G04 #@! TO.P,U1,12,3V3*
G04 #@! TO.N,3V3*
X197740000Y-32590000D03*
D20*
X198575000Y-32590000D03*
D19*
G04 #@! TO.P,U1,13,GND*
G04 #@! TO.N,GND*
X197740000Y-30050000D03*
D20*
X198575000Y-30050000D03*
D19*
G04 #@! TO.P,U1,14,VBUS*
G04 #@! TO.N,5V*
X197740000Y-27510000D03*
D20*
X198575000Y-27510000D03*
G04 #@! TD*
D13*
G04 #@! TO.P,SW2,1,1*
G04 #@! TO.N,Net-(D9-A)*
X132040000Y-47170000D03*
G04 #@! TO.P,SW2,2,2*
G04 #@! TO.N,C1*
X125690000Y-49710000D03*
G04 #@! TD*
D14*
G04 #@! TO.P,D19,1,DOUT*
G04 #@! TO.N,Net-(D19-DOUT)*
X200750000Y-92000000D03*
G04 #@! TO.P,D19,2,VSS*
G04 #@! TO.N,GND*
X199000000Y-92000000D03*
G04 #@! TO.P,D19,3,DIN*
G04 #@! TO.N,Net-(D18-DOUT)*
X199000000Y-95500000D03*
G04 #@! TO.P,D19,4,VDD*
G04 #@! TO.N,5V*
X200750000Y-95500000D03*
G04 #@! TD*
D13*
G04 #@! TO.P,SW3,1,1*
G04 #@! TO.N,Net-(D1-A)*
X132040000Y-66170000D03*
G04 #@! TO.P,SW3,2,2*
G04 #@! TO.N,C2*
X125690000Y-68710000D03*
G04 #@! TD*
D14*
G04 #@! TO.P,D16,1,DOUT*
G04 #@! TO.N,Net-(D16-DOUT)*
X200500000Y-58000000D03*
G04 #@! TO.P,D16,2,VSS*
G04 #@! TO.N,GND*
X198750000Y-58000000D03*
G04 #@! TO.P,D16,3,DIN*
G04 #@! TO.N,SCK*
X198750000Y-61500000D03*
G04 #@! TO.P,D16,4,VDD*
G04 #@! TO.N,5V*
X200500000Y-61500000D03*
G04 #@! TD*
D13*
G04 #@! TO.P,SW10,1,1*
G04 #@! TO.N,Net-(D4-A)*
X170000000Y-85420000D03*
G04 #@! TO.P,SW10,2,2*
G04 #@! TO.N,C3*
X163650000Y-87960000D03*
G04 #@! TD*
D10*
G04 #@! TO.P,SW1,A,A*
G04 #@! TO.N,Net-(D10-A)*
X181250000Y-54150000D03*
D11*
G04 #@! TO.P,SW1,B,B*
G04 #@! TO.N,Net-(D11-A)*
X181250000Y-59150000D03*
G04 #@! TO.P,SW1,C,C*
G04 #@! TO.N,C4*
X181250000Y-56650000D03*
D12*
G04 #@! TO.P,SW1,MP*
G04 #@! TO.N,N/C*
X188750000Y-51050000D03*
X188750000Y-62250000D03*
D11*
G04 #@! TO.P,SW1,S1,S1*
G04 #@! TO.N,C1*
X195750000Y-59150000D03*
G04 #@! TO.P,SW1,S2,S2*
G04 #@! TO.N,Net-(D12-A)*
X195750000Y-54150000D03*
G04 #@! TD*
D13*
G04 #@! TO.P,SW8,1,1*
G04 #@! TO.N,Net-(D6-A)*
X170000000Y-47170000D03*
G04 #@! TO.P,SW8,2,2*
G04 #@! TO.N,C1*
X163650000Y-49710000D03*
G04 #@! TD*
G04 #@! TO.P,SW7,1,1*
G04 #@! TO.N,Net-(D3-A)*
X151040000Y-85420000D03*
G04 #@! TO.P,SW7,2,2*
G04 #@! TO.N,C3*
X144690000Y-87960000D03*
G04 #@! TD*
D14*
G04 #@! TO.P,D18,1,DOUT*
G04 #@! TO.N,Net-(D18-DOUT)*
X200625000Y-80500000D03*
G04 #@! TO.P,D18,2,VSS*
G04 #@! TO.N,GND*
X198875000Y-80500000D03*
G04 #@! TO.P,D18,3,DIN*
G04 #@! TO.N,Net-(D17-DOUT)*
X198875000Y-84000000D03*
G04 #@! TO.P,D18,4,VDD*
G04 #@! TO.N,5V*
X200625000Y-84000000D03*
G04 #@! TD*
D13*
G04 #@! TO.P,SW6,1,1*
G04 #@! TO.N,Net-(D8-A)*
X151040000Y-66170000D03*
G04 #@! TO.P,SW6,2,2*
G04 #@! TO.N,C2*
X144690000Y-68710000D03*
G04 #@! TD*
G04 #@! TO.P,SW5,1,1*
G04 #@! TO.N,Net-(D7-A)*
X151040000Y-47170000D03*
G04 #@! TO.P,SW5,2,2*
G04 #@! TO.N,C1*
X144690000Y-49710000D03*
G04 #@! TD*
D21*
G04 #@! TO.P,D1,1,K*
G04 #@! TO.N,R1*
X133500000Y-76250000D03*
D22*
G04 #@! TO.P,D1,2,A*
G04 #@! TO.N,Net-(D1-A)*
X125880000Y-76250000D03*
G04 #@! TD*
D21*
G04 #@! TO.P,D15,1,K*
G04 #@! TO.N,R4*
X185130000Y-73250000D03*
D22*
G04 #@! TO.P,D15,2,A*
G04 #@! TO.N,Net-(D15-A)*
X192750000Y-73250000D03*
G04 #@! TD*
D21*
G04 #@! TO.P,D6,1,K*
G04 #@! TO.N,R3*
X171370000Y-57000000D03*
D22*
G04 #@! TO.P,D6,2,A*
G04 #@! TO.N,Net-(D6-A)*
X163750000Y-57000000D03*
G04 #@! TD*
D21*
G04 #@! TO.P,D2,1,K*
G04 #@! TO.N,R1*
X133620000Y-95250000D03*
D22*
G04 #@! TO.P,D2,2,A*
G04 #@! TO.N,Net-(D2-A)*
X126000000Y-95250000D03*
G04 #@! TD*
D21*
G04 #@! TO.P,D5,1,K*
G04 #@! TO.N,R3*
X171250000Y-76000000D03*
D22*
G04 #@! TO.P,D5,2,A*
G04 #@! TO.N,Net-(D5-A)*
X163630000Y-76000000D03*
G04 #@! TD*
D21*
G04 #@! TO.P,D14,1,K*
G04 #@! TO.N,R3*
X185630000Y-93250000D03*
D22*
G04 #@! TO.P,D14,2,A*
G04 #@! TO.N,Net-(D14-A)*
X193250000Y-93250000D03*
G04 #@! TD*
D21*
G04 #@! TO.P,D10,1,K*
G04 #@! TO.N,R1*
X192620000Y-65250000D03*
D22*
G04 #@! TO.P,D10,2,A*
G04 #@! TO.N,Net-(D10-A)*
X185000000Y-65250000D03*
G04 #@! TD*
D21*
G04 #@! TO.P,D12,1,K*
G04 #@! TO.N,R4*
X199500000Y-47130000D03*
D22*
G04 #@! TO.P,D12,2,A*
G04 #@! TO.N,Net-(D12-A)*
X199500000Y-54750000D03*
G04 #@! TD*
D21*
G04 #@! TO.P,D4,1,K*
G04 #@! TO.N,R3*
X171310000Y-95250000D03*
D22*
G04 #@! TO.P,D4,2,A*
G04 #@! TO.N,Net-(D4-A)*
X163690000Y-95250000D03*
G04 #@! TD*
D21*
G04 #@! TO.P,D7,1,K*
G04 #@! TO.N,R2*
X152370000Y-57000000D03*
D22*
G04 #@! TO.P,D7,2,A*
G04 #@! TO.N,Net-(D7-A)*
X144750000Y-57000000D03*
G04 #@! TD*
D21*
G04 #@! TO.P,D9,1,K*
G04 #@! TO.N,R1*
X133620000Y-57000000D03*
D22*
G04 #@! TO.P,D9,2,A*
G04 #@! TO.N,Net-(D9-A)*
X126000000Y-57000000D03*
G04 #@! TD*
D21*
G04 #@! TO.P,D13,1,K*
G04 #@! TO.N,R4*
X193120000Y-90500000D03*
D22*
G04 #@! TO.P,D13,2,A*
G04 #@! TO.N,Net-(D13-A)*
X185500000Y-90500000D03*
G04 #@! TD*
D21*
G04 #@! TO.P,D8,1,K*
G04 #@! TO.N,R2*
X152250000Y-76000000D03*
D22*
G04 #@! TO.P,D8,2,A*
G04 #@! TO.N,Net-(D8-A)*
X144630000Y-76000000D03*
G04 #@! TD*
D21*
G04 #@! TO.P,D3,1,K*
G04 #@! TO.N,R2*
X152500000Y-95250000D03*
D22*
G04 #@! TO.P,D3,2,A*
G04 #@! TO.N,Net-(D3-A)*
X144880000Y-95250000D03*
G04 #@! TD*
D21*
G04 #@! TO.P,D11,1,K*
G04 #@! TO.N,R2*
X192631546Y-67971381D03*
D22*
G04 #@! TO.P,D11,2,A*
G04 #@! TO.N,Net-(D11-A)*
X185011546Y-67971381D03*
G04 #@! TD*
D23*
G04 #@! TO.N,R1*
X171000000Y-37250000D03*
X167500000Y-37250000D03*
X192620000Y-40630000D03*
G04 #@! TO.N,R2*
X193750000Y-51500000D03*
G04 #@! TO.N,Net-(D16-DOUT)*
X198750000Y-70000000D03*
X200500000Y-59500000D03*
G04 #@! TO.N,GND*
X198750000Y-56500000D03*
G04 #@! TO.N,Net-(D18-DOUT)*
X199000000Y-94000000D03*
X200625000Y-82125000D03*
G04 #@! TO.N,Net-(D19-DOUT)*
X193250000Y-98000000D03*
X189375000Y-97125000D03*
G04 #@! TO.N,SCL*
X185750000Y-33500000D03*
G04 #@! TO.N,C4*
X180000000Y-46000000D03*
G04 #@! TO.N,C1*
X173750000Y-44000000D03*
G04 #@! TO.N,C3*
X178149052Y-32899052D03*
G04 #@! TD*
D24*
G04 #@! TO.N,Net-(D1-A)*
X131256598Y-66170000D02*
X132040000Y-66170000D01*
X125880000Y-76250000D02*
X125880000Y-71546598D01*
X125880000Y-71546598D02*
X131256598Y-66170000D01*
G04 #@! TO.N,R1*
X136500000Y-92370000D02*
X136500000Y-79250000D01*
X192750000Y-38732000D02*
X194138000Y-38732000D01*
X153370000Y-37250000D02*
X167500000Y-37250000D01*
X134500000Y-68000000D02*
X133000000Y-69500000D01*
X133620000Y-57000000D02*
X153370000Y-37250000D01*
X133620000Y-57000000D02*
X134500000Y-57880000D01*
X133620000Y-95250000D02*
X136500000Y-92370000D01*
X133000000Y-75750000D02*
X133500000Y-76250000D01*
X134500000Y-57880000D02*
X134500000Y-68000000D01*
X136500000Y-79250000D02*
X133500000Y-76250000D01*
X192620000Y-65250000D02*
X192620000Y-40630000D01*
X194138000Y-38732000D02*
X197740000Y-35130000D01*
X172482000Y-38732000D02*
X192750000Y-38732000D01*
X133000000Y-69500000D02*
X133000000Y-75750000D01*
X171000000Y-37250000D02*
X172482000Y-38732000D01*
G04 #@! TO.N,Net-(D2-A)*
X126000000Y-90000000D02*
X126000000Y-95250000D01*
X130580000Y-85420000D02*
X126000000Y-90000000D01*
X132040000Y-85420000D02*
X130580000Y-85420000D01*
G04 #@! TO.N,Net-(D3-A)*
X150256598Y-85420000D02*
X144880000Y-90796598D01*
X144880000Y-90796598D02*
X144880000Y-95250000D01*
X151040000Y-85420000D02*
X150256598Y-85420000D01*
G04 #@! TO.N,R2*
X155250000Y-79000000D02*
X152250000Y-76000000D01*
X193750000Y-66852927D02*
X193750000Y-51500000D01*
X153250000Y-68250000D02*
X153250000Y-57880000D01*
X192648000Y-39148000D02*
X193750000Y-40250000D01*
X152370000Y-57000000D02*
X152370000Y-51380000D01*
X161915686Y-45150000D02*
X167917686Y-39148000D01*
X167917686Y-39148000D02*
X192648000Y-39148000D01*
X152500000Y-95250000D02*
X155250000Y-92500000D01*
X155250000Y-92500000D02*
X155250000Y-79000000D01*
X152370000Y-51380000D02*
X158600000Y-45150000D01*
X192631546Y-67971381D02*
X193750000Y-66852927D01*
X193750000Y-40250000D02*
X193750000Y-41660000D01*
X153250000Y-57880000D02*
X152370000Y-57000000D01*
X158600000Y-45150000D02*
X161915686Y-45150000D01*
X196330000Y-37670000D02*
X193750000Y-40250000D01*
X152250000Y-69250000D02*
X153250000Y-68250000D01*
X197740000Y-37670000D02*
X196330000Y-37670000D01*
X152250000Y-76000000D02*
X152250000Y-69250000D01*
X193750000Y-41660000D02*
X193750000Y-51500000D01*
G04 #@! TO.N,Net-(D4-A)*
X163690000Y-90946598D02*
X163690000Y-95250000D01*
X170000000Y-85420000D02*
X169216598Y-85420000D01*
X169216598Y-85420000D02*
X163690000Y-90946598D01*
G04 #@! TO.N,R3*
X171370000Y-57000000D02*
X176000000Y-52370000D01*
X176000000Y-52370000D02*
X176000000Y-48415000D01*
X176000000Y-48415000D02*
X181665000Y-42750000D01*
X171250000Y-76000000D02*
X173740000Y-78490000D01*
X170500000Y-69500000D02*
X171750000Y-68250000D01*
X170500000Y-75250000D02*
X170500000Y-69500000D01*
X173740000Y-78490000D02*
X173740000Y-92820000D01*
X171750000Y-68250000D02*
X171750000Y-57380000D01*
X171750000Y-57380000D02*
X171370000Y-57000000D01*
X171250000Y-76000000D02*
X170500000Y-75250000D01*
X173740000Y-92820000D02*
X171310000Y-95250000D01*
G04 #@! TO.N,Net-(D5-A)*
X163630000Y-71756598D02*
X163630000Y-76000000D01*
X169216598Y-66170000D02*
X163630000Y-71756598D01*
X170000000Y-66170000D02*
X169216598Y-66170000D01*
G04 #@! TO.N,Net-(D6-A)*
X163750000Y-52636598D02*
X163750000Y-57000000D01*
X170000000Y-47170000D02*
X169216598Y-47170000D01*
X169216598Y-47170000D02*
X163750000Y-52636598D01*
G04 #@! TO.N,Net-(D7-A)*
X150256598Y-47170000D02*
X144750000Y-52676598D01*
X144750000Y-52676598D02*
X144750000Y-57000000D01*
X151040000Y-47170000D02*
X150256598Y-47170000D01*
G04 #@! TO.N,Net-(D8-A)*
X144630000Y-76000000D02*
X144630000Y-71796598D01*
X150256598Y-66170000D02*
X151040000Y-66170000D01*
X144630000Y-71796598D02*
X150256598Y-66170000D01*
G04 #@! TO.N,Net-(D9-A)*
X132040000Y-47170000D02*
X131256598Y-47170000D01*
X126000000Y-52426598D02*
X126000000Y-57000000D01*
X131256598Y-47170000D02*
X126000000Y-52426598D01*
G04 #@! TO.N,Net-(D10-A)*
X185000000Y-57900000D02*
X185000000Y-65250000D01*
X181250000Y-54150000D02*
X185000000Y-57900000D01*
G04 #@! TO.N,Net-(D11-A)*
X181250000Y-64209835D02*
X185011546Y-67971381D01*
X181250000Y-59150000D02*
X181250000Y-64209835D01*
G04 #@! TO.N,Net-(D12-A)*
X199500000Y-54750000D02*
X196350000Y-54750000D01*
X196350000Y-54750000D02*
X195750000Y-54150000D01*
G04 #@! TO.N,R4*
X189552927Y-73250000D02*
X194297808Y-68505119D01*
X194297808Y-68505119D02*
X194297808Y-52332192D01*
X197740000Y-45370000D02*
X199500000Y-47130000D01*
X194297808Y-52332192D02*
X199500000Y-47130000D01*
X197740000Y-42750000D02*
X197740000Y-45370000D01*
X185130000Y-73250000D02*
X189552927Y-73250000D01*
G04 #@! TO.N,Net-(D13-A)*
X181250000Y-79500000D02*
X185500000Y-83750000D01*
X185500000Y-83750000D02*
X185500000Y-90500000D01*
G04 #@! TO.N,5V*
X201750000Y-85125000D02*
X200625000Y-84000000D01*
X201225000Y-71025000D02*
X200500000Y-71750000D01*
X200500000Y-61500000D02*
X201250000Y-60750000D01*
X200500000Y-61500000D02*
X201225000Y-62225000D01*
X200750000Y-95500000D02*
X196250000Y-100000000D01*
X188875000Y-100000000D02*
X187750000Y-98875000D01*
X201350000Y-83275000D02*
X201350000Y-72600000D01*
X201750000Y-94500000D02*
X201750000Y-85125000D01*
X200625000Y-84000000D02*
X201350000Y-83275000D01*
X196250000Y-100000000D02*
X188875000Y-100000000D01*
X201250000Y-60750000D02*
X201250000Y-30185000D01*
X200750000Y-95500000D02*
X201750000Y-94500000D01*
X201225000Y-62225000D02*
X201225000Y-71025000D01*
X201350000Y-72600000D02*
X200500000Y-71750000D01*
X201250000Y-30185000D02*
X198575000Y-27510000D01*
G04 #@! TO.N,Net-(D16-DOUT)*
X200500000Y-58000000D02*
X200500000Y-59500000D01*
X198750000Y-71750000D02*
X198750000Y-70000000D01*
G04 #@! TO.N,GND*
X198875000Y-80500000D02*
X198025000Y-79650000D01*
X198150000Y-91150000D02*
X198150000Y-81225000D01*
X198025000Y-79650000D02*
X198025000Y-68975000D01*
X198025000Y-58713478D02*
X198025000Y-67525000D01*
X198750000Y-58000000D02*
X198750000Y-56500000D01*
X198025000Y-67525000D02*
X198750000Y-68250000D01*
X198150000Y-81225000D02*
X198875000Y-80500000D01*
X199000000Y-92000000D02*
X198150000Y-91150000D01*
X198738478Y-58000000D02*
X198025000Y-58713478D01*
X198750000Y-58000000D02*
X198738478Y-58000000D01*
X198025000Y-68975000D02*
X198750000Y-68250000D01*
X193875000Y-97125000D02*
X199000000Y-92000000D01*
X191250000Y-97125000D02*
X193875000Y-97125000D01*
G04 #@! TO.N,SCK*
X199475000Y-60775000D02*
X199475000Y-56330635D01*
X200750000Y-55055635D02*
X200750000Y-42385000D01*
X200750000Y-42385000D02*
X198575000Y-40210000D01*
X198750000Y-61500000D02*
X199475000Y-60775000D01*
X199475000Y-56330635D02*
X200750000Y-55055635D01*
G04 #@! TO.N,Net-(D17-DOUT)*
X199663544Y-69086456D02*
X199663544Y-79336456D01*
X199663544Y-79336456D02*
X199600000Y-79400000D01*
X199600000Y-79400000D02*
X199600000Y-83275000D01*
X199600000Y-83275000D02*
X198875000Y-84000000D01*
X200500000Y-68250000D02*
X199663544Y-69086456D01*
G04 #@! TO.N,Net-(D18-DOUT)*
X199000000Y-94000000D02*
X199000000Y-95500000D01*
X200625000Y-80500000D02*
X200625000Y-82125000D01*
G04 #@! TO.N,Net-(D19-DOUT)*
X189375000Y-97125000D02*
X187750000Y-97125000D01*
X193950000Y-98000000D02*
X193250000Y-98000000D01*
X199428595Y-93321405D02*
X198628595Y-93321405D01*
X200750000Y-92000000D02*
X199428595Y-93321405D01*
X198628595Y-93321405D02*
X193950000Y-98000000D01*
G04 #@! TO.N,SCL*
X185750000Y-27500000D02*
X184250000Y-26000000D01*
X131370000Y-31420000D02*
X128000000Y-31420000D01*
X136790000Y-26000000D02*
X131370000Y-31420000D01*
X184250000Y-26000000D02*
X136790000Y-26000000D01*
X185750000Y-33500000D02*
X185750000Y-27500000D01*
G04 #@! TO.N,SDA*
X186250000Y-25250000D02*
X187750000Y-26750000D01*
X187750000Y-32420000D02*
X182500000Y-37670000D01*
X135000000Y-25250000D02*
X186250000Y-25250000D01*
X181245000Y-37250000D02*
X181665000Y-37670000D01*
X187750000Y-26750000D02*
X187750000Y-32420000D01*
X128000000Y-28880000D02*
X131370000Y-28880000D01*
X131370000Y-28880000D02*
X135000000Y-25250000D01*
G04 #@! TO.N,C4*
X178750000Y-79500000D02*
X178750000Y-59150000D01*
X181250000Y-56650000D02*
X179250000Y-54650000D01*
X181250000Y-82000000D02*
X178750000Y-79500000D01*
X178750000Y-59150000D02*
X181250000Y-56650000D01*
X179250000Y-46750000D02*
X180000000Y-46000000D01*
X180000000Y-46000000D02*
X179950000Y-46050000D01*
X179250000Y-54650000D02*
X179250000Y-46750000D01*
G04 #@! TO.N,C1*
X149650000Y-44750000D02*
X144690000Y-49710000D01*
X182500000Y-27510000D02*
X178990000Y-27510000D01*
X163650000Y-49710000D02*
X169360000Y-44000000D01*
X178990000Y-27510000D02*
X161750000Y-44750000D01*
X161750000Y-44750000D02*
X149650000Y-44750000D01*
X169360000Y-44000000D02*
X173750000Y-44000000D01*
G04 #@! TO.N,C3*
X178458104Y-32590000D02*
X178149052Y-32899052D01*
X181665000Y-32590000D02*
X178458104Y-32590000D01*
G04 #@! TD*
M02*
