M48
; DRILL file {KiCad 9.0.7} date 2026-02-07T16:10:57+0100
; FORMAT={-:-/ absolute / metric / decimal}
; #@! TF.CreationDate,2026-02-07T16:10:57+01:00
; #@! TF.GenerationSoftware,Kicad,Pcbnew,9.0.7
; #@! TF.FileFunction,Plated,1,2,PTH
FMAT,2
METRIC
; #@! TA.AperFunction,Plated,PTH,ViaDrill
T1C0.300
; #@! TA.AperFunction,Plated,PTH,ComponentDrill
T2C0.800
; #@! TA.AperFunction,Plated,PTH,ComponentDrill
T3C0.889
; #@! TA.AperFunction,Plated,PTH,ComponentDrill
T4C1.000
; #@! TA.AperFunction,Plated,PTH,ComponentDrill
T5C1.500
%
G90
G05
T1
X167.5Y-37.25
X171.0Y-37.25
X173.75Y-44.0
X178.149Y-32.899
X180.0Y-46.0
X185.75Y-33.5
X189.375Y-97.125
X192.62Y-40.63
X193.25Y-98.0
X193.75Y-51.5
X198.75Y-56.5
X198.75Y-70.0
X199.0Y-94.0
X200.5Y-59.5
X200.625Y-82.125
T2
X125.88Y-76.25
X126.0Y-57.0
X126.0Y-95.25
X133.5Y-76.25
X133.62Y-57.0
X133.62Y-95.25
X144.63Y-76.0
X144.75Y-57.0
X144.88Y-95.25
X152.25Y-76.0
X152.37Y-57.0
X152.5Y-95.25
X163.63Y-76.0
X163.69Y-95.25
X163.75Y-57.0
X171.25Y-76.0
X171.31Y-95.25
X171.37Y-57.0
X185.0Y-65.25
X185.012Y-67.971
X185.13Y-73.25
X185.5Y-90.5
X185.63Y-93.25
X192.62Y-65.25
X192.632Y-67.971
X192.75Y-73.25
X193.12Y-90.5
X193.25Y-93.25
X199.5Y-47.13
X199.5Y-54.75
T3
X182.5Y-27.51
X182.5Y-30.05
X182.5Y-32.59
X182.5Y-35.13
X182.5Y-37.67
X182.5Y-40.21
X182.5Y-42.75
X197.74Y-27.51
X197.74Y-30.05
X197.74Y-32.59
X197.74Y-35.13
X197.74Y-37.67
X197.74Y-40.21
X197.74Y-42.75
T4
X128.0Y-28.88
X128.0Y-31.42
X128.0Y-33.96
X128.0Y-36.5
X181.25Y-54.15
X181.25Y-56.65
X181.25Y-59.15
X181.25Y-79.5
X181.25Y-82.0
X181.25Y-84.5
X195.75Y-54.15
X195.75Y-59.15
X195.75Y-79.5
X195.75Y-84.5
T5
X125.69Y-49.71
X125.69Y-68.71
X125.69Y-87.96
X132.04Y-47.17
X132.04Y-66.17
X132.04Y-85.42
X144.69Y-49.71
X144.69Y-68.71
X144.69Y-87.96
X151.04Y-47.17
X151.04Y-66.17
X151.04Y-85.42
X163.65Y-49.71
X163.65Y-68.71
X163.65Y-87.96
X170.0Y-47.17
X170.0Y-66.17
X170.0Y-85.42
T5
G00X188.1Y-51.05
M15
G01X189.4Y-51.05
M16
G05
G00X188.1Y-62.25
M15
G01X189.4Y-62.25
M16
G05
G00X188.1Y-76.4
M15
G01X189.4Y-76.4
M16
G05
G00X188.1Y-87.6
M15
G01X189.4Y-87.6
M16
G05
M30
