G04 #@! TF.GenerationSoftware,KiCad,Pcbnew,9.0.7*
G04 #@! TF.CreationDate,2026-02-07T16:10:57+01:00*
G04 #@! TF.ProjectId,keyboard,6b657962-6f61-4726-942e-6b696361645f,rev?*
G04 #@! TF.SameCoordinates,Original*
G04 #@! TF.FileFunction,Copper,L2,Bot*
G04 #@! TF.FilePolarity,Positive*
%FSLAX46Y46*%
G04 Gerber Fmt 4.6, Leading zero omitted, Abs format (unit mm)*
G04 Created by KiCad (PCBNEW 9.0.7) date 2026-02-07 16:10:57*
%MOMM*%
%LPD*%
G01*
G04 APERTURE LIST*
G04 #@! TA.AperFunction,ComponentPad*
%ADD10R,2.000000X2.000000*%
G04 #@! TD*
G04 #@! TA.AperFunction,ComponentPad*
%ADD11C,2.000000*%
G04 #@! TD*
G04 #@! TA.AperFunction,ComponentPad*
%ADD12R,3.200000X2.000000*%
G04 #@! TD*
G04 #@! TA.AperFunction,ComponentPad*
%ADD13C,2.200000*%
G04 #@! TD*
G04 #@! TA.AperFunction,ComponentPad*
%ADD14R,1.700000X1.700000*%
G04 #@! TD*
G04 #@! TA.AperFunction,ComponentPad*
%ADD15O,1.700000X1.700000*%
G04 #@! TD*
G04 #@! TA.AperFunction,ComponentPad*
%ADD16C,1.524000*%
G04 #@! TD*
G04 #@! TA.AperFunction,ComponentPad*
%ADD17R,1.600000X1.600000*%
G04 #@! TD*
G04 #@! TA.AperFunction,ComponentPad*
%ADD18O,1.600000X1.600000*%
G04 #@! TD*
G04 #@! TA.AperFunction,ViaPad*
%ADD19C,0.600000*%
G04 #@! TD*
G04 #@! TA.AperFunction,Conductor*
%ADD20C,0.200000*%
G04 #@! TD*
G04 APERTURE END LIST*
D10*
G04 #@! TO.P,SW11,A,A*
G04 #@! TO.N,Net-(D13-A)*
X181250000Y-79500000D03*
D11*
G04 #@! TO.P,SW11,B,B*
G04 #@! TO.N,Net-(D14-A)*
X181250000Y-84500000D03*
G04 #@! TO.P,SW11,C,C*
G04 #@! TO.N,C4*
X181250000Y-82000000D03*
D12*
G04 #@! TO.P,SW11,MP*
G04 #@! TO.N,N/C*
X188750000Y-76400000D03*
X188750000Y-87600000D03*
D11*
G04 #@! TO.P,SW11,S1,S1*
G04 #@! TO.N,C2*
X195750000Y-84500000D03*
G04 #@! TO.P,SW11,S2,S2*
G04 #@! TO.N,Net-(D15-A)*
X195750000Y-79500000D03*
G04 #@! TD*
D13*
G04 #@! TO.P,SW4,1,1*
G04 #@! TO.N,Net-(D2-A)*
X132040000Y-85420000D03*
G04 #@! TO.P,SW4,2,2*
G04 #@! TO.N,C3*
X125690000Y-87960000D03*
G04 #@! TD*
G04 #@! TO.P,SW9,1,1*
G04 #@! TO.N,Net-(D5-A)*
X170000000Y-66170000D03*
G04 #@! TO.P,SW9,2,2*
G04 #@! TO.N,C2*
X163650000Y-68710000D03*
G04 #@! TD*
D14*
G04 #@! TO.P,J1,1,Pin_1*
G04 #@! TO.N,SDA*
X128000000Y-28880000D03*
D15*
G04 #@! TO.P,J1,2,Pin_2*
G04 #@! TO.N,SCL*
X128000000Y-31420000D03*
G04 #@! TO.P,J1,3,Pin_3*
G04 #@! TO.N,3V3*
X128000000Y-33960000D03*
G04 #@! TO.P,J1,4,Pin_4*
G04 #@! TO.N,GND*
X128000000Y-36500000D03*
G04 #@! TD*
D16*
G04 #@! TO.P,U1,1,GPIO26/ADC0/A0*
G04 #@! TO.N,C1*
X182500000Y-27510000D03*
G04 #@! TO.P,U1,2,GPIO27/ADC1/A1*
G04 #@! TO.N,C2*
X182500000Y-30050000D03*
G04 #@! TO.P,U1,3,GPIO28/ADC2/A2*
G04 #@! TO.N,C3*
X182500000Y-32590000D03*
G04 #@! TO.P,U1,4,GPIO29/ADC3/A3*
G04 #@! TO.N,C4*
X182500000Y-35130000D03*
G04 #@! TO.P,U1,5,GPIO6/SDA*
G04 #@! TO.N,SDA*
X182500000Y-37670000D03*
G04 #@! TO.P,U1,6,GPIO7/SCL*
G04 #@! TO.N,SCL*
X182500000Y-40210000D03*
G04 #@! TO.P,U1,7,GPIO0/TX*
G04 #@! TO.N,R3*
X182500000Y-42750000D03*
G04 #@! TO.P,U1,8,GPIO1/RX*
G04 #@! TO.N,R4*
X197740000Y-42750000D03*
G04 #@! TO.P,U1,9,GPIO2/SCK*
G04 #@! TO.N,SCK*
X197740000Y-40210000D03*
G04 #@! TO.P,U1,10,GPIO4/MISO*
G04 #@! TO.N,R2*
X197740000Y-37670000D03*
G04 #@! TO.P,U1,11,GPIO3/MOSI*
G04 #@! TO.N,R1*
X197740000Y-35130000D03*
G04 #@! TO.P,U1,12,3V3*
G04 #@! TO.N,3V3*
X197740000Y-32590000D03*
G04 #@! TO.P,U1,13,GND*
G04 #@! TO.N,GND*
X197740000Y-30050000D03*
G04 #@! TO.P,U1,14,VBUS*
G04 #@! TO.N,5V*
X197740000Y-27510000D03*
G04 #@! TD*
D13*
G04 #@! TO.P,SW2,1,1*
G04 #@! TO.N,Net-(D9-A)*
X132040000Y-47170000D03*
G04 #@! TO.P,SW2,2,2*
G04 #@! TO.N,C1*
X125690000Y-49710000D03*
G04 #@! TD*
G04 #@! TO.P,SW3,1,1*
G04 #@! TO.N,Net-(D1-A)*
X132040000Y-66170000D03*
G04 #@! TO.P,SW3,2,2*
G04 #@! TO.N,C2*
X125690000Y-68710000D03*
G04 #@! TD*
G04 #@! TO.P,SW10,1,1*
G04 #@! TO.N,Net-(D4-A)*
X170000000Y-85420000D03*
G04 #@! TO.P,SW10,2,2*
G04 #@! TO.N,C3*
X163650000Y-87960000D03*
G04 #@! TD*
D10*
G04 #@! TO.P,SW1,A,A*
G04 #@! TO.N,Net-(D10-A)*
X181250000Y-54150000D03*
D11*
G04 #@! TO.P,SW1,B,B*
G04 #@! TO.N,Net-(D11-A)*
X181250000Y-59150000D03*
G04 #@! TO.P,SW1,C,C*
G04 #@! TO.N,C4*
X181250000Y-56650000D03*
D12*
G04 #@! TO.P,SW1,MP*
G04 #@! TO.N,N/C*
X188750000Y-51050000D03*
X188750000Y-62250000D03*
D11*
G04 #@! TO.P,SW1,S1,S1*
G04 #@! TO.N,C1*
X195750000Y-59150000D03*
G04 #@! TO.P,SW1,S2,S2*
G04 #@! TO.N,Net-(D12-A)*
X195750000Y-54150000D03*
G04 #@! TD*
D13*
G04 #@! TO.P,SW8,1,1*
G04 #@! TO.N,Net-(D6-A)*
X170000000Y-47170000D03*
G04 #@! TO.P,SW8,2,2*
G04 #@! TO.N,C1*
X163650000Y-49710000D03*
G04 #@! TD*
G04 #@! TO.P,SW7,1,1*
G04 #@! TO.N,Net-(D3-A)*
X151040000Y-85420000D03*
G04 #@! TO.P,SW7,2,2*
G04 #@! TO.N,C3*
X144690000Y-87960000D03*
G04 #@! TD*
G04 #@! TO.P,SW6,1,1*
G04 #@! TO.N,Net-(D8-A)*
X151040000Y-66170000D03*
G04 #@! TO.P,SW6,2,2*
G04 #@! TO.N,C2*
X144690000Y-68710000D03*
G04 #@! TD*
G04 #@! TO.P,SW5,1,1*
G04 #@! TO.N,Net-(D7-A)*
X151040000Y-47170000D03*
G04 #@! TO.P,SW5,2,2*
G04 #@! TO.N,C1*
X144690000Y-49710000D03*
G04 #@! TD*
D17*
G04 #@! TO.P,D1,1,K*
G04 #@! TO.N,R1*
X133500000Y-76250000D03*
D18*
G04 #@! TO.P,D1,2,A*
G04 #@! TO.N,Net-(D1-A)*
X125880000Y-76250000D03*
G04 #@! TD*
D17*
G04 #@! TO.P,D15,1,K*
G04 #@! TO.N,R4*
X185130000Y-73250000D03*
D18*
G04 #@! TO.P,D15,2,A*
G04 #@! TO.N,Net-(D15-A)*
X192750000Y-73250000D03*
G04 #@! TD*
D17*
G04 #@! TO.P,D6,1,K*
G04 #@! TO.N,R3*
X171370000Y-57000000D03*
D18*
G04 #@! TO.P,D6,2,A*
G04 #@! TO.N,Net-(D6-A)*
X163750000Y-57000000D03*
G04 #@! TD*
D17*
G04 #@! TO.P,D2,1,K*
G04 #@! TO.N,R1*
X133620000Y-95250000D03*
D18*
G04 #@! TO.P,D2,2,A*
G04 #@! TO.N,Net-(D2-A)*
X126000000Y-95250000D03*
G04 #@! TD*
D17*
G04 #@! TO.P,D5,1,K*
G04 #@! TO.N,R3*
X171250000Y-76000000D03*
D18*
G04 #@! TO.P,D5,2,A*
G04 #@! TO.N,Net-(D5-A)*
X163630000Y-76000000D03*
G04 #@! TD*
D17*
G04 #@! TO.P,D14,1,K*
G04 #@! TO.N,R3*
X185630000Y-93250000D03*
D18*
G04 #@! TO.P,D14,2,A*
G04 #@! TO.N,Net-(D14-A)*
X193250000Y-93250000D03*
G04 #@! TD*
D17*
G04 #@! TO.P,D10,1,K*
G04 #@! TO.N,R1*
X192620000Y-65250000D03*
D18*
G04 #@! TO.P,D10,2,A*
G04 #@! TO.N,Net-(D10-A)*
X185000000Y-65250000D03*
G04 #@! TD*
D17*
G04 #@! TO.P,D12,1,K*
G04 #@! TO.N,R4*
X199500000Y-47130000D03*
D18*
G04 #@! TO.P,D12,2,A*
G04 #@! TO.N,Net-(D12-A)*
X199500000Y-54750000D03*
G04 #@! TD*
D17*
G04 #@! TO.P,D4,1,K*
G04 #@! TO.N,R3*
X171310000Y-95250000D03*
D18*
G04 #@! TO.P,D4,2,A*
G04 #@! TO.N,Net-(D4-A)*
X163690000Y-95250000D03*
G04 #@! TD*
D17*
G04 #@! TO.P,D7,1,K*
G04 #@! TO.N,R2*
X152370000Y-57000000D03*
D18*
G04 #@! TO.P,D7,2,A*
G04 #@! TO.N,Net-(D7-A)*
X144750000Y-57000000D03*
G04 #@! TD*
D17*
G04 #@! TO.P,D9,1,K*
G04 #@! TO.N,R1*
X133620000Y-57000000D03*
D18*
G04 #@! TO.P,D9,2,A*
G04 #@! TO.N,Net-(D9-A)*
X126000000Y-57000000D03*
G04 #@! TD*
D17*
G04 #@! TO.P,D13,1,K*
G04 #@! TO.N,R4*
X193120000Y-90500000D03*
D18*
G04 #@! TO.P,D13,2,A*
G04 #@! TO.N,Net-(D13-A)*
X185500000Y-90500000D03*
G04 #@! TD*
D17*
G04 #@! TO.P,D8,1,K*
G04 #@! TO.N,R2*
X152250000Y-76000000D03*
D18*
G04 #@! TO.P,D8,2,A*
G04 #@! TO.N,Net-(D8-A)*
X144630000Y-76000000D03*
G04 #@! TD*
D17*
G04 #@! TO.P,D3,1,K*
G04 #@! TO.N,R2*
X152500000Y-95250000D03*
D18*
G04 #@! TO.P,D3,2,A*
G04 #@! TO.N,Net-(D3-A)*
X144880000Y-95250000D03*
G04 #@! TD*
D17*
G04 #@! TO.P,D11,1,K*
G04 #@! TO.N,R2*
X192631546Y-67971381D03*
D18*
G04 #@! TO.P,D11,2,A*
G04 #@! TO.N,Net-(D11-A)*
X185011546Y-67971381D03*
G04 #@! TD*
D19*
G04 #@! TO.N,R1*
X171000000Y-37250000D03*
X167500000Y-37250000D03*
X192620000Y-40630000D03*
G04 #@! TO.N,R2*
X193750000Y-51500000D03*
G04 #@! TO.N,Net-(D16-DOUT)*
X198750000Y-70000000D03*
X200500000Y-59500000D03*
G04 #@! TO.N,GND*
X198750000Y-56500000D03*
G04 #@! TO.N,Net-(D18-DOUT)*
X199000000Y-94000000D03*
X200625000Y-82125000D03*
G04 #@! TO.N,Net-(D19-DOUT)*
X193250000Y-98000000D03*
X189375000Y-97125000D03*
G04 #@! TO.N,SCL*
X185750000Y-33500000D03*
G04 #@! TO.N,C4*
X180000000Y-46000000D03*
G04 #@! TO.N,C1*
X173750000Y-44000000D03*
G04 #@! TO.N,C3*
X178149052Y-32899052D03*
G04 #@! TD*
D20*
G04 #@! TO.N,R1*
X192620000Y-40630000D02*
X192620000Y-40250000D01*
X192620000Y-40250000D02*
X197740000Y-35130000D01*
X167500000Y-37250000D02*
X171000000Y-37250000D01*
G04 #@! TO.N,R2*
X193750000Y-51500000D02*
X193750000Y-51460000D01*
G04 #@! TO.N,R3*
X185630000Y-93250000D02*
X184130000Y-94750000D01*
X184130000Y-94750000D02*
X171810000Y-94750000D01*
X171810000Y-94750000D02*
X171310000Y-95250000D01*
G04 #@! TO.N,R4*
X193120000Y-90500000D02*
X193120000Y-83970000D01*
X193120000Y-83970000D02*
X185130000Y-75980000D01*
X185130000Y-75980000D02*
X185130000Y-73250000D01*
G04 #@! TO.N,Net-(D14-A)*
X193250000Y-93250000D02*
X191200000Y-93250000D01*
X182450000Y-84500000D02*
X181250000Y-84500000D01*
X191200000Y-93250000D02*
X182450000Y-84500000D01*
G04 #@! TO.N,Net-(D15-A)*
X192750000Y-73250000D02*
X192750000Y-76500000D01*
X192750000Y-76500000D02*
X195750000Y-79500000D01*
G04 #@! TO.N,Net-(D16-DOUT)*
X198750000Y-70000000D02*
X198750000Y-61250000D01*
X198750000Y-61250000D02*
X200500000Y-59500000D01*
G04 #@! TO.N,Net-(D18-DOUT)*
X200625000Y-92375000D02*
X199000000Y-94000000D01*
X200625000Y-82125000D02*
X200625000Y-92375000D01*
G04 #@! TO.N,Net-(D19-DOUT)*
X189375000Y-97125000D02*
X190250000Y-98000000D01*
X190250000Y-98000000D02*
X193250000Y-98000000D01*
G04 #@! TO.N,SCL*
X185750000Y-36960000D02*
X182500000Y-40210000D01*
X185750000Y-33500000D02*
X185750000Y-36960000D01*
G04 #@! TO.N,3V3*
X191150000Y-26000000D02*
X139330000Y-26000000D01*
X197740000Y-32590000D02*
X191150000Y-26000000D01*
X139330000Y-26000000D02*
X131370000Y-33960000D01*
X131370000Y-33960000D02*
X128000000Y-33960000D01*
G04 #@! TO.N,C4*
X182500000Y-35130000D02*
X180000000Y-37630000D01*
X180000000Y-37630000D02*
X180000000Y-46000000D01*
G04 #@! TO.N,C1*
X125690000Y-49710000D02*
X163650000Y-49710000D01*
X189450000Y-52850000D02*
X184350000Y-52850000D01*
X175500000Y-44000000D02*
X173750000Y-44000000D01*
X184350000Y-52850000D02*
X175500000Y-44000000D01*
X195750000Y-59150000D02*
X189450000Y-52850000D01*
G04 #@! TO.N,C2*
X125690000Y-68710000D02*
X163650000Y-68710000D01*
X194450000Y-79050000D02*
X194450000Y-83200000D01*
X163650000Y-68710000D02*
X184110000Y-68710000D01*
X168500000Y-63860000D02*
X168500000Y-56500000D01*
X172250000Y-40300000D02*
X182500000Y-30050000D01*
X172250000Y-48750000D02*
X172250000Y-40300000D01*
X184110000Y-68710000D02*
X194450000Y-79050000D01*
X168500000Y-56500000D02*
X170750000Y-54250000D01*
X163650000Y-68710000D02*
X168500000Y-63860000D01*
X194450000Y-83200000D02*
X195750000Y-84500000D01*
X170750000Y-50250000D02*
X172250000Y-48750000D01*
X170750000Y-54250000D02*
X170750000Y-50250000D01*
G04 #@! TO.N,C3*
X122500000Y-48500000D02*
X126500000Y-44500000D01*
X125690000Y-87960000D02*
X122500000Y-84770000D01*
X178149052Y-32899053D02*
X178149052Y-32899052D01*
X126500000Y-44500000D02*
X166548105Y-44500000D01*
X125690000Y-87960000D02*
X163650000Y-87960000D01*
X122500000Y-84770000D02*
X122500000Y-48500000D01*
X178149053Y-32899052D02*
X178250000Y-32798105D01*
X178149052Y-32899052D02*
X178149053Y-32899052D01*
X166548105Y-44500000D02*
X178149052Y-32899053D01*
G04 #@! TD*
G04 #@! TA.AperFunction,Conductor*
G04 #@! TO.N,GND*
G36*
X123715447Y-25012659D02*
G01*
X138423408Y-25056827D01*
X138490385Y-25076711D01*
X138505414Y-25088146D01*
X138876819Y-25418284D01*
X138883544Y-25429046D01*
X138893704Y-25436651D01*
X138901708Y-25458112D01*
X138913847Y-25477535D01*
X138913686Y-25490223D01*
X138918122Y-25502115D01*
X138913253Y-25524496D01*
X138912964Y-25547399D01*
X138905616Y-25559607D01*
X138903271Y-25570388D01*
X138882121Y-25598643D01*
X138849480Y-25631284D01*
X138849478Y-25631286D01*
X131157584Y-33323181D01*
X131096261Y-33356666D01*
X131069903Y-33359500D01*
X129285719Y-33359500D01*
X129218680Y-33339815D01*
X129175235Y-33291795D01*
X129155052Y-33252185D01*
X129155051Y-33252184D01*
X129030109Y-33080213D01*
X128879786Y-32929890D01*
X128707820Y-32804951D01*
X128707115Y-32804591D01*
X128699054Y-32800485D01*
X128648259Y-32752512D01*
X128631463Y-32684692D01*
X128653999Y-32618556D01*
X128699054Y-32579515D01*
X128707816Y-32575051D01*
X128729789Y-32559086D01*
X128879786Y-32450109D01*
X128879788Y-32450106D01*
X128879792Y-32450104D01*
X129030104Y-32299792D01*
X129030106Y-32299788D01*
X129030109Y-32299786D01*
X129155048Y-32127820D01*
X129155047Y-32127820D01*
X129155051Y-32127816D01*
X129251557Y-31938412D01*
X129317246Y-31736243D01*
X129350500Y-31526287D01*
X129350500Y-31313713D01*
X129317246Y-31103757D01*
X129251557Y-30901588D01*
X129155051Y-30712184D01*
X129155049Y-30712181D01*
X129155048Y-30712179D01*
X129030109Y-30540213D01*
X128916569Y-30426673D01*
X128883084Y-30365350D01*
X128888068Y-30295658D01*
X128929940Y-30239725D01*
X128960915Y-30222810D01*
X129092331Y-30173796D01*
X129207546Y-30087546D01*
X129293796Y-29972331D01*
X129344091Y-29837483D01*
X129350500Y-29777873D01*
X129350499Y-27982128D01*
X129344091Y-27922517D01*
X129300497Y-27805636D01*
X129293797Y-27787671D01*
X129293793Y-27787664D01*
X129207547Y-27672455D01*
X129207544Y-27672452D01*
X129092335Y-27586206D01*
X129092328Y-27586202D01*
X128957482Y-27535908D01*
X128957483Y-27535908D01*
X128897883Y-27529501D01*
X128897881Y-27529500D01*
X128897873Y-27529500D01*
X128897864Y-27529500D01*
X127102129Y-27529500D01*
X127102123Y-27529501D01*
X127042516Y-27535908D01*
X126907671Y-27586202D01*
X126907664Y-27586206D01*
X126792455Y-27672452D01*
X126792452Y-27672455D01*
X126706206Y-27787664D01*
X126706202Y-27787671D01*
X126655908Y-27922517D01*
X126649501Y-27982116D01*
X126649501Y-27982123D01*
X126649500Y-27982135D01*
X126649500Y-29777870D01*
X126649501Y-29777876D01*
X126655908Y-29837483D01*
X126706202Y-29972328D01*
X126706206Y-29972335D01*
X126792452Y-30087544D01*
X126792455Y-30087547D01*
X126907664Y-30173793D01*
X126907671Y-30173797D01*
X127039082Y-30222810D01*
X127095016Y-30264681D01*
X127119433Y-30330145D01*
X127104582Y-30398418D01*
X127083431Y-30426673D01*
X126969889Y-30540215D01*
X126844951Y-30712179D01*
X126748444Y-30901585D01*
X126682753Y-31103760D01*
X126678698Y-31129364D01*
X126649500Y-31313713D01*
X126649500Y-31526287D01*
X126682754Y-31736243D01*
X126745159Y-31928306D01*
X126748444Y-31938414D01*
X126844951Y-32127820D01*
X126969890Y-32299786D01*
X127120213Y-32450109D01*
X127292182Y-32575050D01*
X127300946Y-32579516D01*
X127351742Y-32627491D01*
X127368536Y-32695312D01*
X127345998Y-32761447D01*
X127300946Y-32800484D01*
X127292182Y-32804949D01*
X127120213Y-32929890D01*
X126969890Y-33080213D01*
X126844951Y-33252179D01*
X126748444Y-33441585D01*
X126682753Y-33643760D01*
X126668540Y-33733497D01*
X126649500Y-33853713D01*
X126649500Y-34066287D01*
X126682754Y-34276243D01*
X126745159Y-34468306D01*
X126748444Y-34478414D01*
X126844951Y-34667820D01*
X126969890Y-34839786D01*
X127120213Y-34990109D01*
X127292179Y-35115048D01*
X127292181Y-35115049D01*
X127292184Y-35115051D01*
X127301493Y-35119794D01*
X127352290Y-35167766D01*
X127369087Y-35235587D01*
X127346552Y-35301722D01*
X127301502Y-35340762D01*
X127292443Y-35345378D01*
X127120540Y-35470272D01*
X127120535Y-35470276D01*
X126970276Y-35620535D01*
X126970272Y-35620540D01*
X126845379Y-35792442D01*
X126748904Y-35981782D01*
X126683242Y-36183870D01*
X126683242Y-36183873D01*
X126672769Y-36250000D01*
X127566988Y-36250000D01*
X127534075Y-36307007D01*
X127500000Y-36434174D01*
X127500000Y-36565826D01*
X127534075Y-36692993D01*
X127566988Y-36750000D01*
X126672769Y-36750000D01*
X126683242Y-36816126D01*
X126683242Y-36816129D01*
X126748904Y-37018217D01*
X126845379Y-37207557D01*
X126970272Y-37379459D01*
X126970276Y-37379464D01*
X127120535Y-37529723D01*
X127120540Y-37529727D01*
X127292442Y-37654620D01*
X127481782Y-37751095D01*
X127683871Y-37816757D01*
X127750000Y-37827231D01*
X127750000Y-36933012D01*
X127807007Y-36965925D01*
X127934174Y-37000000D01*
X128065826Y-37000000D01*
X128192993Y-36965925D01*
X128250000Y-36933012D01*
X128250000Y-37827230D01*
X128316126Y-37816757D01*
X128316129Y-37816757D01*
X128518217Y-37751095D01*
X128707557Y-37654620D01*
X128879459Y-37529727D01*
X128879464Y-37529723D01*
X129029723Y-37379464D01*
X129029727Y-37379459D01*
X129154620Y-37207557D01*
X129173170Y-37171153D01*
X166699500Y-37171153D01*
X166699500Y-37328846D01*
X166730261Y-37483489D01*
X166730264Y-37483501D01*
X166790602Y-37629172D01*
X166790609Y-37629185D01*
X166878210Y-37760288D01*
X166878213Y-37760292D01*
X166989707Y-37871786D01*
X166989711Y-37871789D01*
X167120814Y-37959390D01*
X167120827Y-37959397D01*
X167266498Y-38019735D01*
X167266503Y-38019737D01*
X167421153Y-38050499D01*
X167421156Y-38050500D01*
X167421158Y-38050500D01*
X167578844Y-38050500D01*
X167578845Y-38050499D01*
X167733497Y-38019737D01*
X167879179Y-37959394D01*
X167939922Y-37918807D01*
X168010875Y-37871398D01*
X168077553Y-37850520D01*
X168079766Y-37850500D01*
X170420234Y-37850500D01*
X170487273Y-37870185D01*
X170489125Y-37871398D01*
X170620814Y-37959390D01*
X170620827Y-37959397D01*
X170766498Y-38019735D01*
X170766503Y-38019737D01*
X170921153Y-38050499D01*
X170921156Y-38050500D01*
X170921158Y-38050500D01*
X171078844Y-38050500D01*
X171078845Y-38050499D01*
X171233497Y-38019737D01*
X171379179Y-37959394D01*
X171510289Y-37871789D01*
X171621789Y-37760289D01*
X171709394Y-37629179D01*
X171769737Y-37483497D01*
X171800500Y-37328842D01*
X171800500Y-37171158D01*
X171800500Y-37171155D01*
X171800499Y-37171153D01*
X171796188Y-37149480D01*
X171769737Y-37016503D01*
X171748787Y-36965925D01*
X171709397Y-36870827D01*
X171709390Y-36870814D01*
X171621789Y-36739711D01*
X171621786Y-36739707D01*
X171510292Y-36628213D01*
X171510288Y-36628210D01*
X171379185Y-36540609D01*
X171379172Y-36540602D01*
X171233501Y-36480264D01*
X171233489Y-36480261D01*
X171078845Y-36449500D01*
X171078842Y-36449500D01*
X170921158Y-36449500D01*
X170921155Y-36449500D01*
X170766510Y-36480261D01*
X170766498Y-36480264D01*
X170620827Y-36540602D01*
X170620814Y-36540609D01*
X170489125Y-36628602D01*
X170422447Y-36649480D01*
X170420234Y-36649500D01*
X168079766Y-36649500D01*
X168012727Y-36629815D01*
X168010875Y-36628602D01*
X167879185Y-36540609D01*
X167879172Y-36540602D01*
X167733501Y-36480264D01*
X167733489Y-36480261D01*
X167578845Y-36449500D01*
X167578842Y-36449500D01*
X167421158Y-36449500D01*
X167421155Y-36449500D01*
X167266510Y-36480261D01*
X167266498Y-36480264D01*
X167120827Y-36540602D01*
X167120814Y-36540609D01*
X166989711Y-36628210D01*
X166989707Y-36628213D01*
X166878213Y-36739707D01*
X166878210Y-36739711D01*
X166790609Y-36870814D01*
X166790602Y-36870827D01*
X166730264Y-37016498D01*
X166730261Y-37016510D01*
X166699500Y-37171153D01*
X129173170Y-37171153D01*
X129204956Y-37108771D01*
X129251095Y-37018217D01*
X129316757Y-36816129D01*
X129316757Y-36816126D01*
X129327231Y-36750000D01*
X128433012Y-36750000D01*
X128465925Y-36692993D01*
X128500000Y-36565826D01*
X128500000Y-36434174D01*
X128465925Y-36307007D01*
X128433012Y-36250000D01*
X129327231Y-36250000D01*
X129316757Y-36183873D01*
X129316757Y-36183870D01*
X129251095Y-35981782D01*
X129154620Y-35792442D01*
X129029727Y-35620540D01*
X129029723Y-35620535D01*
X128879464Y-35470276D01*
X128879459Y-35470272D01*
X128707555Y-35345377D01*
X128698500Y-35340763D01*
X128647706Y-35292788D01*
X128630912Y-35224966D01*
X128653451Y-35158832D01*
X128698508Y-35119793D01*
X128707816Y-35115051D01*
X128824000Y-35030639D01*
X128879786Y-34990109D01*
X128879788Y-34990106D01*
X128879792Y-34990104D01*
X129030104Y-34839792D01*
X129030106Y-34839788D01*
X129030109Y-34839786D01*
X129088661Y-34759193D01*
X129155051Y-34667816D01*
X129166489Y-34645368D01*
X129175235Y-34628205D01*
X129223209Y-34577409D01*
X129285719Y-34560500D01*
X131283331Y-34560500D01*
X131283347Y-34560501D01*
X131290943Y-34560501D01*
X131449054Y-34560501D01*
X131449057Y-34560501D01*
X131601785Y-34519577D01*
X131651904Y-34490639D01*
X131738716Y-34440520D01*
X131850520Y-34328716D01*
X131850520Y-34328714D01*
X131860728Y-34318507D01*
X131860729Y-34318504D01*
X139542416Y-26636819D01*
X139603739Y-26603334D01*
X139630097Y-26600500D01*
X181356891Y-26600500D01*
X181423930Y-26620185D01*
X181469685Y-26672989D01*
X181479629Y-26742147D01*
X181457209Y-26797384D01*
X181441584Y-26818891D01*
X181420213Y-26848305D01*
X181329994Y-27025367D01*
X181329993Y-27025370D01*
X181268587Y-27214362D01*
X181237500Y-27410639D01*
X181237500Y-27609360D01*
X181268587Y-27805637D01*
X181329993Y-27994629D01*
X181329994Y-27994632D01*
X181420213Y-28171694D01*
X181537019Y-28332464D01*
X181677536Y-28472981D01*
X181838306Y-28589787D01*
X181956832Y-28650179D01*
X181994780Y-28669515D01*
X182045576Y-28717490D01*
X182062371Y-28785311D01*
X182039833Y-28851446D01*
X181994780Y-28890485D01*
X181838305Y-28970213D01*
X181677533Y-29087021D01*
X181537021Y-29227533D01*
X181420213Y-29388305D01*
X181329994Y-29565367D01*
X181329993Y-29565370D01*
X181268587Y-29754362D01*
X181237500Y-29950639D01*
X181237500Y-30149360D01*
X181268586Y-30345636D01*
X181269131Y-30347903D01*
X181269086Y-30348790D01*
X181269349Y-30350448D01*
X181269000Y-30350503D01*
X181265638Y-30417685D01*
X181236237Y-30464526D01*
X179084111Y-32616652D01*
X179022788Y-32650137D01*
X178953096Y-32645153D01*
X178897163Y-32603281D01*
X178881872Y-32576429D01*
X178858446Y-32519873D01*
X178858442Y-32519866D01*
X178770841Y-32388763D01*
X178770838Y-32388759D01*
X178659344Y-32277265D01*
X178659340Y-32277262D01*
X178528237Y-32189661D01*
X178528224Y-32189654D01*
X178382553Y-32129316D01*
X178382541Y-32129313D01*
X178227897Y-32098552D01*
X178227894Y-32098552D01*
X178070210Y-32098552D01*
X178070207Y-32098552D01*
X177915562Y-32129313D01*
X177915550Y-32129316D01*
X177769879Y-32189654D01*
X177769866Y-32189661D01*
X177638763Y-32277262D01*
X177638759Y-32277265D01*
X177527265Y-32388759D01*
X177527262Y-32388763D01*
X177439661Y-32519866D01*
X177439654Y-32519879D01*
X177379316Y-32665550D01*
X177379313Y-32665560D01*
X177348413Y-32820902D01*
X177316028Y-32882813D01*
X177314477Y-32884391D01*
X166335689Y-43863181D01*
X166274366Y-43896666D01*
X166248008Y-43899500D01*
X126579057Y-43899500D01*
X126420942Y-43899500D01*
X126268215Y-43940423D01*
X126268214Y-43940423D01*
X126268212Y-43940424D01*
X126268209Y-43940425D01*
X126218096Y-43969359D01*
X126218095Y-43969360D01*
X126174689Y-43994420D01*
X126131285Y-44019479D01*
X126131282Y-44019481D01*
X122019479Y-48131284D01*
X122002822Y-48160135D01*
X121995782Y-48172331D01*
X121940423Y-48268215D01*
X121899499Y-48420943D01*
X121899499Y-48420945D01*
X121899499Y-48589046D01*
X121899500Y-48589059D01*
X121899500Y-84683330D01*
X121899499Y-84683348D01*
X121899499Y-84849054D01*
X121899498Y-84849054D01*
X121940423Y-85001785D01*
X121965496Y-85045211D01*
X121965497Y-85045215D01*
X121965498Y-85045215D01*
X122019479Y-85138714D01*
X122019481Y-85138717D01*
X122138349Y-85257585D01*
X122138355Y-85257590D01*
X124157841Y-87277076D01*
X124191326Y-87338399D01*
X124188091Y-87403076D01*
X124128910Y-87585214D01*
X124089500Y-87834038D01*
X124089500Y-88085961D01*
X124128910Y-88334785D01*
X124206760Y-88574383D01*
X124271860Y-88702147D01*
X124312993Y-88782876D01*
X124321132Y-88798848D01*
X124469201Y-89002649D01*
X124469205Y-89002654D01*
X124469207Y-89002656D01*
X124647344Y-89180793D01*
X124647345Y-89180794D01*
X124647344Y-89180794D01*
X124653661Y-89185383D01*
X124696327Y-89240714D01*
X124702305Y-89310327D01*
X124669699Y-89372122D01*
X124608860Y-89406479D01*
X124561378Y-89408174D01*
X124506611Y-89399500D01*
X124333389Y-89399500D01*
X124293728Y-89405781D01*
X124162302Y-89426597D01*
X123997552Y-89480128D01*
X123843211Y-89558768D01*
X123786289Y-89600125D01*
X123703072Y-89660586D01*
X123703070Y-89660588D01*
X123703069Y-89660588D01*
X123580588Y-89783069D01*
X123580588Y-89783070D01*
X123580586Y-89783072D01*
X123554929Y-89818386D01*
X123478768Y-89923211D01*
X123400128Y-90077552D01*
X123346597Y-90242302D01*
X123321993Y-90397648D01*
X123319500Y-90413389D01*
X123319500Y-90586611D01*
X123346598Y-90757701D01*
X123400127Y-90922445D01*
X123478768Y-91076788D01*
X123580586Y-91216928D01*
X123703072Y-91339414D01*
X123843212Y-91441232D01*
X123997555Y-91519873D01*
X124162299Y-91573402D01*
X124333389Y-91600500D01*
X124333390Y-91600500D01*
X124506610Y-91600500D01*
X124506611Y-91600500D01*
X124677701Y-91573402D01*
X124842445Y-91519873D01*
X124996788Y-91441232D01*
X125136928Y-91339414D01*
X125259414Y-91216928D01*
X125361232Y-91076788D01*
X125439873Y-90922445D01*
X125493402Y-90757701D01*
X125520500Y-90586611D01*
X125520500Y-90413389D01*
X125493402Y-90242299D01*
X125439873Y-90077555D01*
X125361232Y-89923212D01*
X125259414Y-89783072D01*
X125207482Y-89731140D01*
X125173997Y-89669817D01*
X125178981Y-89600125D01*
X125220853Y-89544192D01*
X125286317Y-89519775D01*
X125314561Y-89520986D01*
X125315212Y-89521089D01*
X125315215Y-89521090D01*
X125564038Y-89560500D01*
X125564039Y-89560500D01*
X125815961Y-89560500D01*
X125815962Y-89560500D01*
X126064785Y-89521090D01*
X126304379Y-89443241D01*
X126528845Y-89328870D01*
X126732656Y-89180793D01*
X126910793Y-89002656D01*
X127058870Y-88798845D01*
X127145815Y-88628204D01*
X127193789Y-88577409D01*
X127256300Y-88560500D01*
X127965462Y-88560500D01*
X128032501Y-88580185D01*
X128078256Y-88632989D01*
X128088200Y-88702147D01*
X128059175Y-88765703D01*
X128040948Y-88782876D01*
X128012959Y-88804352D01*
X128012952Y-88804358D01*
X127804358Y-89012952D01*
X127804352Y-89012959D01*
X127624761Y-89247006D01*
X127477258Y-89502489D01*
X127477254Y-89502499D01*
X127364364Y-89775038D01*
X127364361Y-89775048D01*
X127303877Y-90000781D01*
X127288008Y-90060004D01*
X127288006Y-90060015D01*
X127249500Y-90352486D01*
X127249500Y-90647513D01*
X127270173Y-90804534D01*
X127288007Y-90939993D01*
X127362212Y-91216930D01*
X127364361Y-91224951D01*
X127364364Y-91224961D01*
X127477254Y-91497500D01*
X127477258Y-91497510D01*
X127624761Y-91752993D01*
X127804352Y-91987040D01*
X127804358Y-91987047D01*
X128012952Y-92195641D01*
X128012959Y-92195647D01*
X128247006Y-92375238D01*
X128502489Y-92522741D01*
X128502490Y-92522741D01*
X128502493Y-92522743D01*
X128612683Y-92568385D01*
X128760987Y-92629815D01*
X128775048Y-92635639D01*
X129060007Y-92711993D01*
X129352494Y-92750500D01*
X129352501Y-92750500D01*
X129647499Y-92750500D01*
X129647506Y-92750500D01*
X129939993Y-92711993D01*
X130224952Y-92635639D01*
X130497507Y-92522743D01*
X130752994Y-92375238D01*
X130987042Y-92195646D01*
X131195646Y-91987042D01*
X131375238Y-91752994D01*
X131522743Y-91497507D01*
X131635639Y-91224952D01*
X131711993Y-90939993D01*
X131750500Y-90647506D01*
X131750500Y-90413389D01*
X133479500Y-90413389D01*
X133479500Y-90586611D01*
X133506598Y-90757701D01*
X133560127Y-90922445D01*
X133638768Y-91076788D01*
X133740586Y-91216928D01*
X133863072Y-91339414D01*
X134003212Y-91441232D01*
X134157555Y-91519873D01*
X134322299Y-91573402D01*
X134493389Y-91600500D01*
X134493390Y-91600500D01*
X134666610Y-91600500D01*
X134666611Y-91600500D01*
X134837701Y-91573402D01*
X135002445Y-91519873D01*
X135156788Y-91441232D01*
X135296928Y-91339414D01*
X135419414Y-91216928D01*
X135521232Y-91076788D01*
X135599873Y-90922445D01*
X135653402Y-90757701D01*
X135680500Y-90586611D01*
X135680500Y-90413389D01*
X135653402Y-90242299D01*
X135599873Y-90077555D01*
X135521232Y-89923212D01*
X135419414Y-89783072D01*
X135296928Y-89660586D01*
X135156788Y-89558768D01*
X135002445Y-89480127D01*
X134837701Y-89426598D01*
X134837699Y-89426597D01*
X134837698Y-89426597D01*
X134706271Y-89405781D01*
X134666611Y-89399500D01*
X134493389Y-89399500D01*
X134453728Y-89405781D01*
X134322302Y-89426597D01*
X134157552Y-89480128D01*
X134003211Y-89558768D01*
X133946289Y-89600125D01*
X133863072Y-89660586D01*
X133863070Y-89660588D01*
X133863069Y-89660588D01*
X133740588Y-89783069D01*
X133740588Y-89783070D01*
X133740586Y-89783072D01*
X133714929Y-89818386D01*
X133638768Y-89923211D01*
X133560128Y-90077552D01*
X133506597Y-90242302D01*
X133481993Y-90397648D01*
X133479500Y-90413389D01*
X131750500Y-90413389D01*
X131750500Y-90352494D01*
X131711993Y-90060007D01*
X131635639Y-89775048D01*
X131522743Y-89502493D01*
X131467309Y-89406479D01*
X131375238Y-89247006D01*
X131195647Y-89012959D01*
X131195641Y-89012952D01*
X130987047Y-88804358D01*
X130987040Y-88804352D01*
X130959052Y-88782876D01*
X130917849Y-88726448D01*
X130913694Y-88656702D01*
X130947906Y-88595782D01*
X131009624Y-88563029D01*
X131034538Y-88560500D01*
X143123700Y-88560500D01*
X143190739Y-88580185D01*
X143234184Y-88628204D01*
X143312993Y-88782876D01*
X143321132Y-88798848D01*
X143469201Y-89002649D01*
X143469205Y-89002654D01*
X143469207Y-89002656D01*
X143647344Y-89180793D01*
X143647345Y-89180794D01*
X143647344Y-89180794D01*
X143653661Y-89185383D01*
X143696327Y-89240714D01*
X143702305Y-89310327D01*
X143669699Y-89372122D01*
X143608860Y-89406479D01*
X143561378Y-89408174D01*
X143506611Y-89399500D01*
X143333389Y-89399500D01*
X143293728Y-89405781D01*
X143162302Y-89426597D01*
X142997552Y-89480128D01*
X142843211Y-89558768D01*
X142786289Y-89600125D01*
X142703072Y-89660586D01*
X142703070Y-89660588D01*
X142703069Y-89660588D01*
X142580588Y-89783069D01*
X142580588Y-89783070D01*
X142580586Y-89783072D01*
X142554929Y-89818386D01*
X142478768Y-89923211D01*
X142400128Y-90077552D01*
X142346597Y-90242302D01*
X142321993Y-90397648D01*
X142319500Y-90413389D01*
X142319500Y-90586611D01*
X142346598Y-90757701D01*
X142400127Y-90922445D01*
X142478768Y-91076788D01*
X142580586Y-91216928D01*
X142703072Y-91339414D01*
X142843212Y-91441232D01*
X142997555Y-91519873D01*
X143162299Y-91573402D01*
X143333389Y-91600500D01*
X143333390Y-91600500D01*
X143506610Y-91600500D01*
X143506611Y-91600500D01*
X143677701Y-91573402D01*
X143842445Y-91519873D01*
X143996788Y-91441232D01*
X144136928Y-91339414D01*
X144259414Y-91216928D01*
X144361232Y-91076788D01*
X144439873Y-90922445D01*
X144493402Y-90757701D01*
X144520500Y-90586611D01*
X144520500Y-90413389D01*
X144493402Y-90242299D01*
X144439873Y-90077555D01*
X144361232Y-89923212D01*
X144259414Y-89783072D01*
X144207482Y-89731140D01*
X144173997Y-89669817D01*
X144178981Y-89600125D01*
X144220853Y-89544192D01*
X144286317Y-89519775D01*
X144314561Y-89520986D01*
X144315212Y-89521089D01*
X144315215Y-89521090D01*
X144564038Y-89560500D01*
X144564039Y-89560500D01*
X144815961Y-89560500D01*
X144815962Y-89560500D01*
X145064785Y-89521090D01*
X145304379Y-89443241D01*
X145528845Y-89328870D01*
X145732656Y-89180793D01*
X145910793Y-89002656D01*
X146058870Y-88798845D01*
X146145815Y-88628204D01*
X146193789Y-88577409D01*
X146256300Y-88560500D01*
X146965462Y-88560500D01*
X147032501Y-88580185D01*
X147078256Y-88632989D01*
X147088200Y-88702147D01*
X147059175Y-88765703D01*
X147040948Y-88782876D01*
X147012959Y-88804352D01*
X147012952Y-88804358D01*
X146804358Y-89012952D01*
X146804352Y-89012959D01*
X146624761Y-89247006D01*
X146477258Y-89502489D01*
X146477254Y-89502499D01*
X146364364Y-89775038D01*
X146364361Y-89775048D01*
X146303877Y-90000781D01*
X146288008Y-90060004D01*
X146288006Y-90060015D01*
X146249500Y-90352486D01*
X146249500Y-90647513D01*
X146270173Y-90804534D01*
X146288007Y-90939993D01*
X146362212Y-91216930D01*
X146364361Y-91224951D01*
X146364364Y-91224961D01*
X146477254Y-91497500D01*
X146477258Y-91497510D01*
X146624761Y-91752993D01*
X146804352Y-91987040D01*
X146804358Y-91987047D01*
X147012952Y-92195641D01*
X147012959Y-92195647D01*
X147247006Y-92375238D01*
X147502489Y-92522741D01*
X147502490Y-92522741D01*
X147502493Y-92522743D01*
X147612683Y-92568385D01*
X147760987Y-92629815D01*
X147775048Y-92635639D01*
X148060007Y-92711993D01*
X148352494Y-92750500D01*
X148352501Y-92750500D01*
X148647499Y-92750500D01*
X148647506Y-92750500D01*
X148939993Y-92711993D01*
X149224952Y-92635639D01*
X149497507Y-92522743D01*
X149752994Y-92375238D01*
X149987042Y-92195646D01*
X150195646Y-91987042D01*
X150375238Y-91752994D01*
X150522743Y-91497507D01*
X150635639Y-91224952D01*
X150711993Y-90939993D01*
X150750500Y-90647506D01*
X150750500Y-90413389D01*
X152479500Y-90413389D01*
X152479500Y-90586611D01*
X152506598Y-90757701D01*
X152560127Y-90922445D01*
X152638768Y-91076788D01*
X152740586Y-91216928D01*
X152863072Y-91339414D01*
X153003212Y-91441232D01*
X153157555Y-91519873D01*
X153322299Y-91573402D01*
X153493389Y-91600500D01*
X153493390Y-91600500D01*
X153666610Y-91600500D01*
X153666611Y-91600500D01*
X153837701Y-91573402D01*
X154002445Y-91519873D01*
X154156788Y-91441232D01*
X154296928Y-91339414D01*
X154419414Y-91216928D01*
X154521232Y-91076788D01*
X154599873Y-90922445D01*
X154653402Y-90757701D01*
X154680500Y-90586611D01*
X154680500Y-90413389D01*
X154653402Y-90242299D01*
X154599873Y-90077555D01*
X154521232Y-89923212D01*
X154419414Y-89783072D01*
X154296928Y-89660586D01*
X154156788Y-89558768D01*
X154002445Y-89480127D01*
X153837701Y-89426598D01*
X153837699Y-89426597D01*
X153837698Y-89426597D01*
X153706271Y-89405781D01*
X153666611Y-89399500D01*
X153493389Y-89399500D01*
X153453728Y-89405781D01*
X153322302Y-89426597D01*
X153157552Y-89480128D01*
X153003211Y-89558768D01*
X152946289Y-89600125D01*
X152863072Y-89660586D01*
X152863070Y-89660588D01*
X152863069Y-89660588D01*
X152740588Y-89783069D01*
X152740588Y-89783070D01*
X152740586Y-89783072D01*
X152714929Y-89818386D01*
X152638768Y-89923211D01*
X152560128Y-90077552D01*
X152506597Y-90242302D01*
X152481993Y-90397648D01*
X152479500Y-90413389D01*
X150750500Y-90413389D01*
X150750500Y-90352494D01*
X150711993Y-90060007D01*
X150635639Y-89775048D01*
X150522743Y-89502493D01*
X150467309Y-89406479D01*
X150375238Y-89247006D01*
X150195647Y-89012959D01*
X150195641Y-89012952D01*
X149987047Y-88804358D01*
X149987040Y-88804352D01*
X149959052Y-88782876D01*
X149917849Y-88726448D01*
X149913694Y-88656702D01*
X149947906Y-88595782D01*
X150009624Y-88563029D01*
X150034538Y-88560500D01*
X162083700Y-88560500D01*
X162150739Y-88580185D01*
X162194184Y-88628204D01*
X162272993Y-88782876D01*
X162281132Y-88798848D01*
X162429201Y-89002649D01*
X162429205Y-89002654D01*
X162429207Y-89002656D01*
X162607344Y-89180793D01*
X162607345Y-89180794D01*
X162607344Y-89180794D01*
X162613661Y-89185383D01*
X162656327Y-89240714D01*
X162662305Y-89310327D01*
X162629699Y-89372122D01*
X162568860Y-89406479D01*
X162521378Y-89408174D01*
X162466611Y-89399500D01*
X162293389Y-89399500D01*
X162253728Y-89405781D01*
X162122302Y-89426597D01*
X161957552Y-89480128D01*
X161803211Y-89558768D01*
X161746289Y-89600125D01*
X161663072Y-89660586D01*
X161663070Y-89660588D01*
X161663069Y-89660588D01*
X161540588Y-89783069D01*
X161540588Y-89783070D01*
X161540586Y-89783072D01*
X161514929Y-89818386D01*
X161438768Y-89923211D01*
X161360128Y-90077552D01*
X161306597Y-90242302D01*
X161281993Y-90397648D01*
X161279500Y-90413389D01*
X161279500Y-90586611D01*
X161306598Y-90757701D01*
X161360127Y-90922445D01*
X161438768Y-91076788D01*
X161540586Y-91216928D01*
X161663072Y-91339414D01*
X161803212Y-91441232D01*
X161957555Y-91519873D01*
X162122299Y-91573402D01*
X162293389Y-91600500D01*
X162293390Y-91600500D01*
X162466610Y-91600500D01*
X162466611Y-91600500D01*
X162637701Y-91573402D01*
X162802445Y-91519873D01*
X162956788Y-91441232D01*
X163096928Y-91339414D01*
X163219414Y-91216928D01*
X163321232Y-91076788D01*
X163399873Y-90922445D01*
X163453402Y-90757701D01*
X163480500Y-90586611D01*
X163480500Y-90413389D01*
X163470854Y-90352486D01*
X165209500Y-90352486D01*
X165209500Y-90647513D01*
X165230173Y-90804534D01*
X165248007Y-90939993D01*
X165322212Y-91216930D01*
X165324361Y-91224951D01*
X165324364Y-91224961D01*
X165437254Y-91497500D01*
X165437258Y-91497510D01*
X165584761Y-91752993D01*
X165764352Y-91987040D01*
X165764358Y-91987047D01*
X165972952Y-92195641D01*
X165972959Y-92195647D01*
X166207006Y-92375238D01*
X166462489Y-92522741D01*
X166462490Y-92522741D01*
X166462493Y-92522743D01*
X166572683Y-92568385D01*
X166720987Y-92629815D01*
X166735048Y-92635639D01*
X167020007Y-92711993D01*
X167312494Y-92750500D01*
X167312501Y-92750500D01*
X167607499Y-92750500D01*
X167607506Y-92750500D01*
X167899993Y-92711993D01*
X168184952Y-92635639D01*
X168457507Y-92522743D01*
X168712994Y-92375238D01*
X168947042Y-92195646D01*
X169155646Y-91987042D01*
X169335238Y-91752994D01*
X169482743Y-91497507D01*
X169595639Y-91224952D01*
X169671993Y-90939993D01*
X169710500Y-90647506D01*
X169710500Y-90413389D01*
X171439500Y-90413389D01*
X171439500Y-90586611D01*
X171466598Y-90757701D01*
X171520127Y-90922445D01*
X171598768Y-91076788D01*
X171700586Y-91216928D01*
X171823072Y-91339414D01*
X171963212Y-91441232D01*
X172117555Y-91519873D01*
X172282299Y-91573402D01*
X172453389Y-91600500D01*
X172453390Y-91600500D01*
X172626610Y-91600500D01*
X172626611Y-91600500D01*
X172797701Y-91573402D01*
X172962445Y-91519873D01*
X173116788Y-91441232D01*
X173256928Y-91339414D01*
X173379414Y-91216928D01*
X173481232Y-91076788D01*
X173559873Y-90922445D01*
X173613402Y-90757701D01*
X173640500Y-90586611D01*
X173640500Y-90413389D01*
X173613402Y-90242299D01*
X173559873Y-90077555D01*
X173481232Y-89923212D01*
X173379414Y-89783072D01*
X173256928Y-89660586D01*
X173116788Y-89558768D01*
X172962445Y-89480127D01*
X172797701Y-89426598D01*
X172797699Y-89426597D01*
X172797698Y-89426597D01*
X172666271Y-89405781D01*
X172626611Y-89399500D01*
X172453389Y-89399500D01*
X172413728Y-89405781D01*
X172282302Y-89426597D01*
X172117552Y-89480128D01*
X171963211Y-89558768D01*
X171906289Y-89600125D01*
X171823072Y-89660586D01*
X171823070Y-89660588D01*
X171823069Y-89660588D01*
X171700588Y-89783069D01*
X171700588Y-89783070D01*
X171700586Y-89783072D01*
X171674929Y-89818386D01*
X171598768Y-89923211D01*
X171520128Y-90077552D01*
X171466597Y-90242302D01*
X171441993Y-90397648D01*
X171439500Y-90413389D01*
X169710500Y-90413389D01*
X169710500Y-90352494D01*
X169671993Y-90060007D01*
X169595639Y-89775048D01*
X169482743Y-89502493D01*
X169427309Y-89406479D01*
X169335238Y-89247006D01*
X169155647Y-89012959D01*
X169155641Y-89012952D01*
X168947047Y-88804358D01*
X168947040Y-88804352D01*
X168712993Y-88624761D01*
X168457510Y-88477258D01*
X168457500Y-88477254D01*
X168184961Y-88364364D01*
X168184954Y-88364362D01*
X168184952Y-88364361D01*
X167899993Y-88288007D01*
X167851113Y-88281571D01*
X167607513Y-88249500D01*
X167607506Y-88249500D01*
X167312494Y-88249500D01*
X167312486Y-88249500D01*
X167034085Y-88286153D01*
X167020007Y-88288007D01*
X166845428Y-88334785D01*
X166735048Y-88364361D01*
X166735038Y-88364364D01*
X166462499Y-88477254D01*
X166462489Y-88477258D01*
X166207006Y-88624761D01*
X165972959Y-88804352D01*
X165972952Y-88804358D01*
X165764358Y-89012952D01*
X165764352Y-89012959D01*
X165584761Y-89247006D01*
X165437258Y-89502489D01*
X165437254Y-89502499D01*
X165324364Y-89775038D01*
X165324361Y-89775048D01*
X165263877Y-90000781D01*
X165248008Y-90060004D01*
X165248006Y-90060015D01*
X165209500Y-90352486D01*
X163470854Y-90352486D01*
X163453402Y-90242299D01*
X163399873Y-90077555D01*
X163321232Y-89923212D01*
X163219414Y-89783072D01*
X163167482Y-89731140D01*
X163133997Y-89669817D01*
X163138981Y-89600125D01*
X163180853Y-89544192D01*
X163246317Y-89519775D01*
X163274561Y-89520986D01*
X163275212Y-89521089D01*
X163275215Y-89521090D01*
X163524038Y-89560500D01*
X163524039Y-89560500D01*
X163775961Y-89560500D01*
X163775962Y-89560500D01*
X164024785Y-89521090D01*
X164264379Y-89443241D01*
X164488845Y-89328870D01*
X164692656Y-89180793D01*
X164870793Y-89002656D01*
X165018870Y-88798845D01*
X165133241Y-88574379D01*
X165211090Y-88334785D01*
X165250500Y-88085962D01*
X165250500Y-87834038D01*
X165211090Y-87585215D01*
X165133241Y-87345621D01*
X165133239Y-87345618D01*
X165133239Y-87345616D01*
X165091747Y-87264184D01*
X165018870Y-87121155D01*
X164917107Y-86981090D01*
X164870798Y-86917350D01*
X164870794Y-86917345D01*
X164692654Y-86739205D01*
X164692649Y-86739201D01*
X164488848Y-86591132D01*
X164488847Y-86591131D01*
X164488845Y-86591130D01*
X164412276Y-86552116D01*
X164264383Y-86476760D01*
X164024785Y-86398910D01*
X163775962Y-86359500D01*
X163524038Y-86359500D01*
X163399626Y-86379205D01*
X163275214Y-86398910D01*
X163035616Y-86476760D01*
X162811151Y-86591132D01*
X162607350Y-86739201D01*
X162607345Y-86739205D01*
X162429205Y-86917345D01*
X162429201Y-86917350D01*
X162281132Y-87121151D01*
X162281130Y-87121155D01*
X162201685Y-87277076D01*
X162194185Y-87291795D01*
X162146211Y-87342591D01*
X162083700Y-87359500D01*
X146256300Y-87359500D01*
X146189261Y-87339815D01*
X146145815Y-87291795D01*
X146058870Y-87121155D01*
X145957107Y-86981090D01*
X145910798Y-86917350D01*
X145910794Y-86917345D01*
X145732654Y-86739205D01*
X145732649Y-86739201D01*
X145528848Y-86591132D01*
X145528847Y-86591131D01*
X145528845Y-86591130D01*
X145452276Y-86552116D01*
X145304383Y-86476760D01*
X145064785Y-86398910D01*
X144815962Y-86359500D01*
X144564038Y-86359500D01*
X144439626Y-86379205D01*
X144315214Y-86398910D01*
X144075616Y-86476760D01*
X143851151Y-86591132D01*
X143647350Y-86739201D01*
X143647345Y-86739205D01*
X143469205Y-86917345D01*
X143469201Y-86917350D01*
X143321132Y-87121151D01*
X143321130Y-87121155D01*
X143241685Y-87277076D01*
X143234185Y-87291795D01*
X143186211Y-87342591D01*
X143123700Y-87359500D01*
X127256300Y-87359500D01*
X127189261Y-87339815D01*
X127145815Y-87291795D01*
X127058870Y-87121155D01*
X126957107Y-86981090D01*
X126910798Y-86917350D01*
X126910794Y-86917345D01*
X126732654Y-86739205D01*
X126732649Y-86739201D01*
X126528848Y-86591132D01*
X126528847Y-86591131D01*
X126528845Y-86591130D01*
X126452276Y-86552116D01*
X126304383Y-86476760D01*
X126064785Y-86398910D01*
X125815962Y-86359500D01*
X125564038Y-86359500D01*
X125439626Y-86379205D01*
X125315214Y-86398910D01*
X125226175Y-86427841D01*
X125133074Y-86458091D01*
X125063234Y-86460086D01*
X125007076Y-86427841D01*
X123873273Y-85294038D01*
X130439500Y-85294038D01*
X130439500Y-85545961D01*
X130478910Y-85794785D01*
X130556760Y-86034383D01*
X130593205Y-86105909D01*
X130662778Y-86242454D01*
X130671132Y-86258848D01*
X130819201Y-86462649D01*
X130819205Y-86462654D01*
X130997345Y-86640794D01*
X130997350Y-86640798D01*
X131175117Y-86769952D01*
X131201155Y-86788870D01*
X131344184Y-86861747D01*
X131425616Y-86903239D01*
X131425618Y-86903239D01*
X131425621Y-86903241D01*
X131665215Y-86981090D01*
X131914038Y-87020500D01*
X131914039Y-87020500D01*
X132165961Y-87020500D01*
X132165962Y-87020500D01*
X132414785Y-86981090D01*
X132654379Y-86903241D01*
X132878845Y-86788870D01*
X133082656Y-86640793D01*
X133260793Y-86462656D01*
X133408870Y-86258845D01*
X133523241Y-86034379D01*
X133601090Y-85794785D01*
X133640500Y-85545962D01*
X133640500Y-85294038D01*
X149439500Y-85294038D01*
X149439500Y-85545961D01*
X149478910Y-85794785D01*
X149556760Y-86034383D01*
X149593205Y-86105909D01*
X149662778Y-86242454D01*
X149671132Y-86258848D01*
X149819201Y-86462649D01*
X149819205Y-86462654D01*
X149997345Y-86640794D01*
X149997350Y-86640798D01*
X150175117Y-86769952D01*
X150201155Y-86788870D01*
X150344184Y-86861747D01*
X150425616Y-86903239D01*
X150425618Y-86903239D01*
X150425621Y-86903241D01*
X150665215Y-86981090D01*
X150914038Y-87020500D01*
X150914039Y-87020500D01*
X151165961Y-87020500D01*
X151165962Y-87020500D01*
X151414785Y-86981090D01*
X151654379Y-86903241D01*
X151878845Y-86788870D01*
X152082656Y-86640793D01*
X152260793Y-86462656D01*
X152408870Y-86258845D01*
X152523241Y-86034379D01*
X152601090Y-85794785D01*
X152640500Y-85545962D01*
X152640500Y-85294038D01*
X168399500Y-85294038D01*
X168399500Y-85545961D01*
X168438910Y-85794785D01*
X168516760Y-86034383D01*
X168553205Y-86105909D01*
X168622778Y-86242454D01*
X168631132Y-86258848D01*
X168779201Y-86462649D01*
X168779205Y-86462654D01*
X168957345Y-86640794D01*
X168957350Y-86640798D01*
X169135117Y-86769952D01*
X169161155Y-86788870D01*
X169304184Y-86861747D01*
X169385616Y-86903239D01*
X169385618Y-86903239D01*
X169385621Y-86903241D01*
X169625215Y-86981090D01*
X169874038Y-87020500D01*
X169874039Y-87020500D01*
X170125961Y-87020500D01*
X170125962Y-87020500D01*
X170374785Y-86981090D01*
X170614379Y-86903241D01*
X170838845Y-86788870D01*
X171042656Y-86640793D01*
X171220793Y-86462656D01*
X171368870Y-86258845D01*
X171483241Y-86034379D01*
X171561090Y-85794785D01*
X171600500Y-85545962D01*
X171600500Y-85294038D01*
X171561090Y-85045215D01*
X171483241Y-84805621D01*
X171483239Y-84805618D01*
X171483239Y-84805616D01*
X171441747Y-84724184D01*
X171368870Y-84581155D01*
X171349952Y-84555117D01*
X171220798Y-84377350D01*
X171220794Y-84377345D01*
X171042654Y-84199205D01*
X171042649Y-84199201D01*
X170838848Y-84051132D01*
X170838847Y-84051131D01*
X170838845Y-84051130D01*
X170768747Y-84015413D01*
X170614383Y-83936760D01*
X170374785Y-83858910D01*
X170125962Y-83819500D01*
X169874038Y-83819500D01*
X169749626Y-83839205D01*
X169625214Y-83858910D01*
X169385616Y-83936760D01*
X169161151Y-84051132D01*
X168957350Y-84199201D01*
X168957345Y-84199205D01*
X168779205Y-84377345D01*
X168779201Y-84377350D01*
X168631132Y-84581151D01*
X168516760Y-84805616D01*
X168438911Y-85045211D01*
X168438910Y-85045213D01*
X168399500Y-85294038D01*
X152640500Y-85294038D01*
X152601090Y-85045215D01*
X152523241Y-84805621D01*
X152523239Y-84805618D01*
X152523239Y-84805616D01*
X152481747Y-84724184D01*
X152408870Y-84581155D01*
X152389952Y-84555117D01*
X152260798Y-84377350D01*
X152260794Y-84377345D01*
X152082654Y-84199205D01*
X152082649Y-84199201D01*
X151878848Y-84051132D01*
X151878847Y-84051131D01*
X151878845Y-84051130D01*
X151808747Y-84015413D01*
X151654383Y-83936760D01*
X151414785Y-83858910D01*
X151165962Y-83819500D01*
X150914038Y-83819500D01*
X150789626Y-83839205D01*
X150665214Y-83858910D01*
X150425616Y-83936760D01*
X150201151Y-84051132D01*
X149997350Y-84199201D01*
X149997345Y-84199205D01*
X149819205Y-84377345D01*
X149819201Y-84377350D01*
X149671132Y-84581151D01*
X149556760Y-84805616D01*
X149478911Y-85045211D01*
X149478910Y-85045213D01*
X149439500Y-85294038D01*
X133640500Y-85294038D01*
X133601090Y-85045215D01*
X133523241Y-84805621D01*
X133523239Y-84805618D01*
X133523239Y-84805616D01*
X133481747Y-84724184D01*
X133408870Y-84581155D01*
X133389952Y-84555117D01*
X133260798Y-84377350D01*
X133260794Y-84377345D01*
X133082654Y-84199205D01*
X133082649Y-84199201D01*
X132878848Y-84051132D01*
X132878847Y-84051131D01*
X132878845Y-84051130D01*
X132808747Y-84015413D01*
X132654383Y-83936760D01*
X132414785Y-83858910D01*
X132165962Y-83819500D01*
X131914038Y-83819500D01*
X131789626Y-83839205D01*
X131665214Y-83858910D01*
X131425616Y-83936760D01*
X131201151Y-84051132D01*
X130997350Y-84199201D01*
X130997345Y-84199205D01*
X130819205Y-84377345D01*
X130819201Y-84377350D01*
X130671132Y-84581151D01*
X130556760Y-84805616D01*
X130478911Y-85045211D01*
X130478910Y-85045213D01*
X130439500Y-85294038D01*
X123873273Y-85294038D01*
X123136819Y-84557584D01*
X123103334Y-84496261D01*
X123100500Y-84469903D01*
X123100500Y-76147648D01*
X124579500Y-76147648D01*
X124579500Y-76352351D01*
X124611522Y-76554534D01*
X124674781Y-76749223D01*
X124767715Y-76931613D01*
X124888028Y-77097213D01*
X125032786Y-77241971D01*
X125187749Y-77354556D01*
X125198390Y-77362287D01*
X125287212Y-77407544D01*
X125380776Y-77455218D01*
X125380778Y-77455218D01*
X125380781Y-77455220D01*
X125485137Y-77489127D01*
X125575465Y-77518477D01*
X125676557Y-77534488D01*
X125777648Y-77550500D01*
X125777649Y-77550500D01*
X125982351Y-77550500D01*
X125982352Y-77550500D01*
X126184534Y-77518477D01*
X126379219Y-77455220D01*
X126561610Y-77362287D01*
X126657901Y-77292328D01*
X126727213Y-77241971D01*
X126727215Y-77241968D01*
X126727219Y-77241966D01*
X126871966Y-77097219D01*
X126871968Y-77097215D01*
X126871971Y-77097213D01*
X126924732Y-77024590D01*
X126992287Y-76931610D01*
X127085220Y-76749219D01*
X127148477Y-76554534D01*
X127180500Y-76352352D01*
X127180500Y-76147648D01*
X127148477Y-75945466D01*
X127085220Y-75750781D01*
X127085218Y-75750778D01*
X127085218Y-75750776D01*
X126992287Y-75568390D01*
X126922032Y-75471691D01*
X126922031Y-75471688D01*
X126871971Y-75402787D01*
X126871967Y-75402782D01*
X126871320Y-75402135D01*
X132199500Y-75402135D01*
X132199500Y-77097870D01*
X132199501Y-77097876D01*
X132205908Y-77157483D01*
X132256202Y-77292328D01*
X132256206Y-77292335D01*
X132342452Y-77407544D01*
X132342455Y-77407547D01*
X132457664Y-77493793D01*
X132457671Y-77493797D01*
X132592517Y-77544091D01*
X132592516Y-77544091D01*
X132599444Y-77544835D01*
X132652127Y-77550500D01*
X134347872Y-77550499D01*
X134407483Y-77544091D01*
X134542331Y-77493796D01*
X134657546Y-77407546D01*
X134743796Y-77292331D01*
X134794091Y-77157483D01*
X134800500Y-77097873D01*
X134800499Y-75897648D01*
X143329500Y-75897648D01*
X143329500Y-76102351D01*
X143361522Y-76304534D01*
X143424781Y-76499223D01*
X143517715Y-76681613D01*
X143638028Y-76847213D01*
X143782786Y-76991971D01*
X143928549Y-77097872D01*
X143948390Y-77112287D01*
X144037090Y-77157482D01*
X144130776Y-77205218D01*
X144130778Y-77205218D01*
X144130781Y-77205220D01*
X144235137Y-77239127D01*
X144325465Y-77268477D01*
X144426557Y-77284488D01*
X144527648Y-77300500D01*
X144527649Y-77300500D01*
X144732351Y-77300500D01*
X144732352Y-77300500D01*
X144934534Y-77268477D01*
X145129219Y-77205220D01*
X145311610Y-77112287D01*
X145407901Y-77042328D01*
X145477213Y-76991971D01*
X145477215Y-76991968D01*
X145477219Y-76991966D01*
X145621966Y-76847219D01*
X145621968Y-76847215D01*
X145621971Y-76847213D01*
X145674732Y-76774590D01*
X145742287Y-76681610D01*
X145835220Y-76499219D01*
X145898477Y-76304534D01*
X145930500Y-76102352D01*
X145930500Y-75897648D01*
X145898477Y-75695466D01*
X145893420Y-75679903D01*
X145835218Y-75500776D01*
X145742287Y-75318390D01*
X145672032Y-75221691D01*
X145672031Y-75221688D01*
X145621971Y-75152787D01*
X145621967Y-75152782D01*
X145621320Y-75152135D01*
X150949500Y-75152135D01*
X150949500Y-76847870D01*
X150949501Y-76847876D01*
X150955908Y-76907483D01*
X151006202Y-77042328D01*
X151006206Y-77042335D01*
X151092452Y-77157544D01*
X151092455Y-77157547D01*
X151207664Y-77243793D01*
X151207671Y-77243797D01*
X151342517Y-77294091D01*
X151342516Y-77294091D01*
X151349444Y-77294835D01*
X151402127Y-77300500D01*
X153097872Y-77300499D01*
X153157483Y-77294091D01*
X153292331Y-77243796D01*
X153407546Y-77157546D01*
X153493796Y-77042331D01*
X153544091Y-76907483D01*
X153550500Y-76847873D01*
X153550499Y-75897648D01*
X162329500Y-75897648D01*
X162329500Y-76102351D01*
X162361522Y-76304534D01*
X162424781Y-76499223D01*
X162517715Y-76681613D01*
X162638028Y-76847213D01*
X162782786Y-76991971D01*
X162928549Y-77097872D01*
X162948390Y-77112287D01*
X163037090Y-77157482D01*
X163130776Y-77205218D01*
X163130778Y-77205218D01*
X163130781Y-77205220D01*
X163235137Y-77239127D01*
X163325465Y-77268477D01*
X163426557Y-77284488D01*
X163527648Y-77300500D01*
X163527649Y-77300500D01*
X163732351Y-77300500D01*
X163732352Y-77300500D01*
X163934534Y-77268477D01*
X164129219Y-77205220D01*
X164311610Y-77112287D01*
X164407901Y-77042328D01*
X164477213Y-76991971D01*
X164477215Y-76991968D01*
X164477219Y-76991966D01*
X164621966Y-76847219D01*
X164621968Y-76847215D01*
X164621971Y-76847213D01*
X164674732Y-76774590D01*
X164742287Y-76681610D01*
X164835220Y-76499219D01*
X164898477Y-76304534D01*
X164930500Y-76102352D01*
X164930500Y-75897648D01*
X164898477Y-75695466D01*
X164893420Y-75679903D01*
X164835218Y-75500776D01*
X164742287Y-75318390D01*
X164672032Y-75221691D01*
X164672031Y-75221688D01*
X164621971Y-75152787D01*
X164621967Y-75152782D01*
X164621320Y-75152135D01*
X169949500Y-75152135D01*
X169949500Y-76847870D01*
X169949501Y-76847876D01*
X169955908Y-76907483D01*
X170006202Y-77042328D01*
X170006206Y-77042335D01*
X170092452Y-77157544D01*
X170092455Y-77157547D01*
X170207664Y-77243793D01*
X170207671Y-77243797D01*
X170342517Y-77294091D01*
X170342516Y-77294091D01*
X170349444Y-77294835D01*
X170402127Y-77300500D01*
X172097872Y-77300499D01*
X172157483Y-77294091D01*
X172292331Y-77243796D01*
X172407546Y-77157546D01*
X172493796Y-77042331D01*
X172544091Y-76907483D01*
X172550500Y-76847873D01*
X172550499Y-75152128D01*
X172544091Y-75092517D01*
X172526286Y-75044780D01*
X172493797Y-74957671D01*
X172493793Y-74957664D01*
X172407547Y-74842455D01*
X172407544Y-74842452D01*
X172292335Y-74756206D01*
X172292328Y-74756202D01*
X172157482Y-74705908D01*
X172157483Y-74705908D01*
X172097883Y-74699501D01*
X172097881Y-74699500D01*
X172097873Y-74699500D01*
X172097864Y-74699500D01*
X170402129Y-74699500D01*
X170402123Y-74699501D01*
X170342516Y-74705908D01*
X170207671Y-74756202D01*
X170207664Y-74756206D01*
X170092455Y-74842452D01*
X170092452Y-74842455D01*
X170006206Y-74957664D01*
X170006202Y-74957671D01*
X169955908Y-75092517D01*
X169949501Y-75152116D01*
X169949501Y-75152123D01*
X169949500Y-75152135D01*
X164621320Y-75152135D01*
X164477213Y-75008028D01*
X164311613Y-74887715D01*
X164311612Y-74887714D01*
X164311610Y-74887713D01*
X164254653Y-74858691D01*
X164129223Y-74794781D01*
X163934534Y-74731522D01*
X163759995Y-74703878D01*
X163732352Y-74699500D01*
X163527648Y-74699500D01*
X163503329Y-74703351D01*
X163325465Y-74731522D01*
X163130776Y-74794781D01*
X162948386Y-74887715D01*
X162782786Y-75008028D01*
X162638028Y-75152786D01*
X162517715Y-75318386D01*
X162424781Y-75500776D01*
X162361522Y-75695465D01*
X162329500Y-75897648D01*
X153550499Y-75897648D01*
X153550499Y-75152128D01*
X153544091Y-75092517D01*
X153526286Y-75044780D01*
X153493797Y-74957671D01*
X153493793Y-74957664D01*
X153407547Y-74842455D01*
X153407544Y-74842452D01*
X153292335Y-74756206D01*
X153292328Y-74756202D01*
X153157482Y-74705908D01*
X153157483Y-74705908D01*
X153097883Y-74699501D01*
X153097881Y-74699500D01*
X153097873Y-74699500D01*
X153097864Y-74699500D01*
X151402129Y-74699500D01*
X151402123Y-74699501D01*
X151342516Y-74705908D01*
X151207671Y-74756202D01*
X151207664Y-74756206D01*
X151092455Y-74842452D01*
X151092452Y-74842455D01*
X151006206Y-74957664D01*
X151006202Y-74957671D01*
X150955908Y-75092517D01*
X150949501Y-75152116D01*
X150949501Y-75152123D01*
X150949500Y-75152135D01*
X145621320Y-75152135D01*
X145477213Y-75008028D01*
X145311613Y-74887715D01*
X145311612Y-74887714D01*
X145311610Y-74887713D01*
X145254653Y-74858691D01*
X145129223Y-74794781D01*
X144934534Y-74731522D01*
X144759995Y-74703878D01*
X144732352Y-74699500D01*
X144527648Y-74699500D01*
X144503329Y-74703351D01*
X144325465Y-74731522D01*
X144130776Y-74794781D01*
X143948386Y-74887715D01*
X143782786Y-75008028D01*
X143638028Y-75152786D01*
X143517715Y-75318386D01*
X143424781Y-75500776D01*
X143361522Y-75695465D01*
X143329500Y-75897648D01*
X134800499Y-75897648D01*
X134800499Y-75402128D01*
X134794091Y-75342517D01*
X134785092Y-75318390D01*
X134743797Y-75207671D01*
X134743793Y-75207664D01*
X134657547Y-75092455D01*
X134657544Y-75092452D01*
X134542335Y-75006206D01*
X134542328Y-75006202D01*
X134407482Y-74955908D01*
X134407483Y-74955908D01*
X134347883Y-74949501D01*
X134347881Y-74949500D01*
X134347873Y-74949500D01*
X134347864Y-74949500D01*
X132652129Y-74949500D01*
X132652123Y-74949501D01*
X132592516Y-74955908D01*
X132457671Y-75006202D01*
X132457664Y-75006206D01*
X132342455Y-75092452D01*
X132342452Y-75092455D01*
X132256206Y-75207664D01*
X132256202Y-75207671D01*
X132205908Y-75342517D01*
X132199501Y-75402116D01*
X132199501Y-75402123D01*
X132199500Y-75402135D01*
X126871320Y-75402135D01*
X126727213Y-75258028D01*
X126561613Y-75137715D01*
X126561612Y-75137714D01*
X126561610Y-75137713D01*
X126504653Y-75108691D01*
X126379223Y-75044781D01*
X126184534Y-74981522D01*
X126009995Y-74953878D01*
X125982352Y-74949500D01*
X125777648Y-74949500D01*
X125753329Y-74953351D01*
X125575465Y-74981522D01*
X125380776Y-75044781D01*
X125198386Y-75137715D01*
X125032786Y-75258028D01*
X124888028Y-75402786D01*
X124767715Y-75568386D01*
X124674781Y-75750776D01*
X124611522Y-75945465D01*
X124579500Y-76147648D01*
X123100500Y-76147648D01*
X123100500Y-71529467D01*
X123120185Y-71462428D01*
X123172989Y-71416673D01*
X123242147Y-71406729D01*
X123305703Y-71435754D01*
X123343477Y-71494532D01*
X123345377Y-71502980D01*
X123345460Y-71502961D01*
X123346597Y-71507697D01*
X123346598Y-71507701D01*
X123400127Y-71672445D01*
X123478768Y-71826788D01*
X123580586Y-71966928D01*
X123703072Y-72089414D01*
X123843212Y-72191232D01*
X123997555Y-72269873D01*
X124162299Y-72323402D01*
X124333389Y-72350500D01*
X124333390Y-72350500D01*
X124506610Y-72350500D01*
X124506611Y-72350500D01*
X124677701Y-72323402D01*
X124842445Y-72269873D01*
X124996788Y-72191232D01*
X125136928Y-72089414D01*
X125259414Y-71966928D01*
X125361232Y-71826788D01*
X125439873Y-71672445D01*
X125493402Y-71507701D01*
X125520500Y-71336611D01*
X125520500Y-71163389D01*
X125493402Y-70992299D01*
X125439873Y-70827555D01*
X125361232Y-70673212D01*
X125259414Y-70533072D01*
X125207482Y-70481140D01*
X125173997Y-70419817D01*
X125178981Y-70350125D01*
X125220853Y-70294192D01*
X125286317Y-70269775D01*
X125314561Y-70270986D01*
X125315212Y-70271089D01*
X125315215Y-70271090D01*
X125564038Y-70310500D01*
X125564039Y-70310500D01*
X125815961Y-70310500D01*
X125815962Y-70310500D01*
X126064785Y-70271090D01*
X126304379Y-70193241D01*
X126528845Y-70078870D01*
X126732656Y-69930793D01*
X126910793Y-69752656D01*
X127058870Y-69548845D01*
X127145815Y-69378204D01*
X127193789Y-69327409D01*
X127256300Y-69310500D01*
X127965462Y-69310500D01*
X128032501Y-69330185D01*
X128078256Y-69382989D01*
X128088200Y-69452147D01*
X128059175Y-69515703D01*
X128040948Y-69532876D01*
X128012959Y-69554352D01*
X128012952Y-69554358D01*
X127804358Y-69762952D01*
X127804352Y-69762959D01*
X127624761Y-69997006D01*
X127477258Y-70252489D01*
X127477254Y-70252499D01*
X127364364Y-70525038D01*
X127364361Y-70525048D01*
X127290555Y-70800500D01*
X127288008Y-70810004D01*
X127288006Y-70810015D01*
X127249500Y-71102486D01*
X127249500Y-71397513D01*
X127266873Y-71529467D01*
X127288007Y-71689993D01*
X127362212Y-71966930D01*
X127364361Y-71974951D01*
X127364364Y-71974961D01*
X127477254Y-72247500D01*
X127477258Y-72247510D01*
X127624761Y-72502993D01*
X127804352Y-72737040D01*
X127804358Y-72737047D01*
X128012952Y-72945641D01*
X128012959Y-72945647D01*
X128247006Y-73125238D01*
X128502489Y-73272741D01*
X128502490Y-73272741D01*
X128502493Y-73272743D01*
X128775048Y-73385639D01*
X129060007Y-73461993D01*
X129352494Y-73500500D01*
X129352501Y-73500500D01*
X129647499Y-73500500D01*
X129647506Y-73500500D01*
X129939993Y-73461993D01*
X130224952Y-73385639D01*
X130497507Y-73272743D01*
X130752994Y-73125238D01*
X130987042Y-72945646D01*
X131195646Y-72737042D01*
X131375238Y-72502994D01*
X131522743Y-72247507D01*
X131635639Y-71974952D01*
X131711993Y-71689993D01*
X131750500Y-71397506D01*
X131750500Y-71163389D01*
X133479500Y-71163389D01*
X133479500Y-71336610D01*
X133492180Y-71416673D01*
X133506598Y-71507701D01*
X133560127Y-71672445D01*
X133638768Y-71826788D01*
X133740586Y-71966928D01*
X133863072Y-72089414D01*
X134003212Y-72191232D01*
X134157555Y-72269873D01*
X134322299Y-72323402D01*
X134493389Y-72350500D01*
X134493390Y-72350500D01*
X134666610Y-72350500D01*
X134666611Y-72350500D01*
X134837701Y-72323402D01*
X135002445Y-72269873D01*
X135156788Y-72191232D01*
X135296928Y-72089414D01*
X135419414Y-71966928D01*
X135521232Y-71826788D01*
X135599873Y-71672445D01*
X135653402Y-71507701D01*
X135680500Y-71336611D01*
X135680500Y-71163389D01*
X135653402Y-70992299D01*
X135599873Y-70827555D01*
X135521232Y-70673212D01*
X135419414Y-70533072D01*
X135296928Y-70410586D01*
X135156788Y-70308768D01*
X135002445Y-70230127D01*
X134837701Y-70176598D01*
X134837699Y-70176597D01*
X134837698Y-70176597D01*
X134706271Y-70155781D01*
X134666611Y-70149500D01*
X134493389Y-70149500D01*
X134453728Y-70155781D01*
X134322302Y-70176597D01*
X134157552Y-70230128D01*
X134003211Y-70308768D01*
X133946289Y-70350125D01*
X133863072Y-70410586D01*
X133863070Y-70410588D01*
X133863069Y-70410588D01*
X133740588Y-70533069D01*
X133740588Y-70533070D01*
X133740586Y-70533072D01*
X133696859Y-70593256D01*
X133638768Y-70673211D01*
X133560128Y-70827552D01*
X133506597Y-70992302D01*
X133479500Y-71163389D01*
X131750500Y-71163389D01*
X131750500Y-71102494D01*
X131711993Y-70810007D01*
X131635639Y-70525048D01*
X131522743Y-70252493D01*
X131467309Y-70156479D01*
X131375238Y-69997006D01*
X131195647Y-69762959D01*
X131195641Y-69762952D01*
X130987047Y-69554358D01*
X130987040Y-69554352D01*
X130959052Y-69532876D01*
X130917849Y-69476448D01*
X130913694Y-69406702D01*
X130947906Y-69345782D01*
X131009624Y-69313029D01*
X131034538Y-69310500D01*
X143123700Y-69310500D01*
X143190739Y-69330185D01*
X143234184Y-69378204D01*
X143312993Y-69532876D01*
X143321132Y-69548848D01*
X143469201Y-69752649D01*
X143469205Y-69752654D01*
X143469207Y-69752656D01*
X143647344Y-69930793D01*
X143647345Y-69930794D01*
X143647344Y-69930794D01*
X143653661Y-69935383D01*
X143696327Y-69990714D01*
X143702305Y-70060327D01*
X143669699Y-70122122D01*
X143608860Y-70156479D01*
X143561378Y-70158174D01*
X143506611Y-70149500D01*
X143333389Y-70149500D01*
X143293728Y-70155781D01*
X143162302Y-70176597D01*
X142997552Y-70230128D01*
X142843211Y-70308768D01*
X142786289Y-70350125D01*
X142703072Y-70410586D01*
X142703070Y-70410588D01*
X142703069Y-70410588D01*
X142580588Y-70533069D01*
X142580588Y-70533070D01*
X142580586Y-70533072D01*
X142536859Y-70593256D01*
X142478768Y-70673211D01*
X142400128Y-70827552D01*
X142346597Y-70992302D01*
X142319500Y-71163389D01*
X142319500Y-71336610D01*
X142332180Y-71416673D01*
X142346598Y-71507701D01*
X142400127Y-71672445D01*
X142478768Y-71826788D01*
X142580586Y-71966928D01*
X142703072Y-72089414D01*
X142843212Y-72191232D01*
X142997555Y-72269873D01*
X143162299Y-72323402D01*
X143333389Y-72350500D01*
X143333390Y-72350500D01*
X143506610Y-72350500D01*
X143506611Y-72350500D01*
X143677701Y-72323402D01*
X143842445Y-72269873D01*
X143996788Y-72191232D01*
X144136928Y-72089414D01*
X144259414Y-71966928D01*
X144361232Y-71826788D01*
X144439873Y-71672445D01*
X144493402Y-71507701D01*
X144520500Y-71336611D01*
X144520500Y-71163389D01*
X144493402Y-70992299D01*
X144439873Y-70827555D01*
X144361232Y-70673212D01*
X144259414Y-70533072D01*
X144207482Y-70481140D01*
X144173997Y-70419817D01*
X144178981Y-70350125D01*
X144220853Y-70294192D01*
X144286317Y-70269775D01*
X144314561Y-70270986D01*
X144315212Y-70271089D01*
X144315215Y-70271090D01*
X144564038Y-70310500D01*
X144564039Y-70310500D01*
X144815961Y-70310500D01*
X144815962Y-70310500D01*
X145064785Y-70271090D01*
X145304379Y-70193241D01*
X145528845Y-70078870D01*
X145732656Y-69930793D01*
X145910793Y-69752656D01*
X146058870Y-69548845D01*
X146145815Y-69378204D01*
X146193789Y-69327409D01*
X146256300Y-69310500D01*
X146965462Y-69310500D01*
X147032501Y-69330185D01*
X147078256Y-69382989D01*
X147088200Y-69452147D01*
X147059175Y-69515703D01*
X147040948Y-69532876D01*
X147012959Y-69554352D01*
X147012952Y-69554358D01*
X146804358Y-69762952D01*
X146804352Y-69762959D01*
X146624761Y-69997006D01*
X146477258Y-70252489D01*
X146477254Y-70252499D01*
X146364364Y-70525038D01*
X146364361Y-70525048D01*
X146290555Y-70800500D01*
X146288008Y-70810004D01*
X146288006Y-70810015D01*
X146249500Y-71102486D01*
X146249500Y-71397513D01*
X146266873Y-71529467D01*
X146288007Y-71689993D01*
X146362212Y-71966930D01*
X146364361Y-71974951D01*
X146364364Y-71974961D01*
X146477254Y-72247500D01*
X146477258Y-72247510D01*
X146624761Y-72502993D01*
X146804352Y-72737040D01*
X146804358Y-72737047D01*
X147012952Y-72945641D01*
X147012959Y-72945647D01*
X147247006Y-73125238D01*
X147502489Y-73272741D01*
X147502490Y-73272741D01*
X147502493Y-73272743D01*
X147775048Y-73385639D01*
X148060007Y-73461993D01*
X148352494Y-73500500D01*
X148352501Y-73500500D01*
X148647499Y-73500500D01*
X148647506Y-73500500D01*
X148939993Y-73461993D01*
X149224952Y-73385639D01*
X149497507Y-73272743D01*
X149752994Y-73125238D01*
X149987042Y-72945646D01*
X150195646Y-72737042D01*
X150375238Y-72502994D01*
X150522743Y-72247507D01*
X150635639Y-71974952D01*
X150711993Y-71689993D01*
X150750500Y-71397506D01*
X150750500Y-71163389D01*
X152479500Y-71163389D01*
X152479500Y-71336610D01*
X152492180Y-71416673D01*
X152506598Y-71507701D01*
X152560127Y-71672445D01*
X152638768Y-71826788D01*
X152740586Y-71966928D01*
X152863072Y-72089414D01*
X153003212Y-72191232D01*
X153157555Y-72269873D01*
X153322299Y-72323402D01*
X153493389Y-72350500D01*
X153493390Y-72350500D01*
X153666610Y-72350500D01*
X153666611Y-72350500D01*
X153837701Y-72323402D01*
X154002445Y-72269873D01*
X154156788Y-72191232D01*
X154296928Y-72089414D01*
X154419414Y-71966928D01*
X154521232Y-71826788D01*
X154599873Y-71672445D01*
X154653402Y-71507701D01*
X154680500Y-71336611D01*
X154680500Y-71163389D01*
X154653402Y-70992299D01*
X154599873Y-70827555D01*
X154521232Y-70673212D01*
X154419414Y-70533072D01*
X154296928Y-70410586D01*
X154156788Y-70308768D01*
X154002445Y-70230127D01*
X153837701Y-70176598D01*
X153837699Y-70176597D01*
X153837698Y-70176597D01*
X153706271Y-70155781D01*
X153666611Y-70149500D01*
X153493389Y-70149500D01*
X153453728Y-70155781D01*
X153322302Y-70176597D01*
X153157552Y-70230128D01*
X153003211Y-70308768D01*
X152946289Y-70350125D01*
X152863072Y-70410586D01*
X152863070Y-70410588D01*
X152863069Y-70410588D01*
X152740588Y-70533069D01*
X152740588Y-70533070D01*
X152740586Y-70533072D01*
X152696859Y-70593256D01*
X152638768Y-70673211D01*
X152560128Y-70827552D01*
X152506597Y-70992302D01*
X152479500Y-71163389D01*
X150750500Y-71163389D01*
X150750500Y-71102494D01*
X150711993Y-70810007D01*
X150635639Y-70525048D01*
X150522743Y-70252493D01*
X150467309Y-70156479D01*
X150375238Y-69997006D01*
X150195647Y-69762959D01*
X150195641Y-69762952D01*
X149987047Y-69554358D01*
X149987040Y-69554352D01*
X149959052Y-69532876D01*
X149917849Y-69476448D01*
X149913694Y-69406702D01*
X149947906Y-69345782D01*
X150009624Y-69313029D01*
X150034538Y-69310500D01*
X162083700Y-69310500D01*
X162150739Y-69330185D01*
X162194184Y-69378204D01*
X162272993Y-69532876D01*
X162281132Y-69548848D01*
X162429201Y-69752649D01*
X162429205Y-69752654D01*
X162429207Y-69752656D01*
X162607344Y-69930793D01*
X162607345Y-69930794D01*
X162607344Y-69930794D01*
X162613661Y-69935383D01*
X162656327Y-69990714D01*
X162662305Y-70060327D01*
X162629699Y-70122122D01*
X162568860Y-70156479D01*
X162521378Y-70158174D01*
X162466611Y-70149500D01*
X162293389Y-70149500D01*
X162253728Y-70155781D01*
X162122302Y-70176597D01*
X161957552Y-70230128D01*
X161803211Y-70308768D01*
X161746289Y-70350125D01*
X161663072Y-70410586D01*
X161663070Y-70410588D01*
X161663069Y-70410588D01*
X161540588Y-70533069D01*
X161540588Y-70533070D01*
X161540586Y-70533072D01*
X161496859Y-70593256D01*
X161438768Y-70673211D01*
X161360128Y-70827552D01*
X161306597Y-70992302D01*
X161279500Y-71163389D01*
X161279500Y-71336610D01*
X161292180Y-71416673D01*
X161306598Y-71507701D01*
X161360127Y-71672445D01*
X161438768Y-71826788D01*
X161540586Y-71966928D01*
X161663072Y-72089414D01*
X161803212Y-72191232D01*
X161957555Y-72269873D01*
X162122299Y-72323402D01*
X162293389Y-72350500D01*
X162293390Y-72350500D01*
X162466610Y-72350500D01*
X162466611Y-72350500D01*
X162637701Y-72323402D01*
X162802445Y-72269873D01*
X162956788Y-72191232D01*
X163096928Y-72089414D01*
X163219414Y-71966928D01*
X163321232Y-71826788D01*
X163399873Y-71672445D01*
X163453402Y-71507701D01*
X163480500Y-71336611D01*
X163480500Y-71163389D01*
X163453402Y-70992299D01*
X163399873Y-70827555D01*
X163321232Y-70673212D01*
X163219414Y-70533072D01*
X163167482Y-70481140D01*
X163133997Y-70419817D01*
X163138981Y-70350125D01*
X163180853Y-70294192D01*
X163246317Y-70269775D01*
X163274561Y-70270986D01*
X163275212Y-70271089D01*
X163275215Y-70271090D01*
X163524038Y-70310500D01*
X163524039Y-70310500D01*
X163775961Y-70310500D01*
X163775962Y-70310500D01*
X164024785Y-70271090D01*
X164264379Y-70193241D01*
X164488845Y-70078870D01*
X164692656Y-69930793D01*
X164870793Y-69752656D01*
X165018870Y-69548845D01*
X165105815Y-69378204D01*
X165153789Y-69327409D01*
X165216300Y-69310500D01*
X165925462Y-69310500D01*
X165992501Y-69330185D01*
X166038256Y-69382989D01*
X166048200Y-69452147D01*
X166019175Y-69515703D01*
X166000948Y-69532876D01*
X165972959Y-69554352D01*
X165972952Y-69554358D01*
X165764358Y-69762952D01*
X165764352Y-69762959D01*
X165584761Y-69997006D01*
X165437258Y-70252489D01*
X165437254Y-70252499D01*
X165324364Y-70525038D01*
X165324361Y-70525048D01*
X165250555Y-70800500D01*
X165248008Y-70810004D01*
X165248006Y-70810015D01*
X165209500Y-71102486D01*
X165209500Y-71397513D01*
X165226873Y-71529467D01*
X165248007Y-71689993D01*
X165322212Y-71966930D01*
X165324361Y-71974951D01*
X165324364Y-71974961D01*
X165437254Y-72247500D01*
X165437258Y-72247510D01*
X165584761Y-72502993D01*
X165764352Y-72737040D01*
X165764358Y-72737047D01*
X165972952Y-72945641D01*
X165972959Y-72945647D01*
X166207006Y-73125238D01*
X166462489Y-73272741D01*
X166462490Y-73272741D01*
X166462493Y-73272743D01*
X166735048Y-73385639D01*
X167020007Y-73461993D01*
X167312494Y-73500500D01*
X167312501Y-73500500D01*
X167607499Y-73500500D01*
X167607506Y-73500500D01*
X167899993Y-73461993D01*
X168184952Y-73385639D01*
X168457507Y-73272743D01*
X168712994Y-73125238D01*
X168947042Y-72945646D01*
X169155646Y-72737042D01*
X169335238Y-72502994D01*
X169482743Y-72247507D01*
X169595639Y-71974952D01*
X169671993Y-71689993D01*
X169710500Y-71397506D01*
X169710500Y-71163389D01*
X171439500Y-71163389D01*
X171439500Y-71336610D01*
X171452180Y-71416673D01*
X171466598Y-71507701D01*
X171520127Y-71672445D01*
X171598768Y-71826788D01*
X171700586Y-71966928D01*
X171823072Y-72089414D01*
X171963212Y-72191232D01*
X172117555Y-72269873D01*
X172282299Y-72323402D01*
X172453389Y-72350500D01*
X172453390Y-72350500D01*
X172626610Y-72350500D01*
X172626611Y-72350500D01*
X172797701Y-72323402D01*
X172962445Y-72269873D01*
X173116788Y-72191232D01*
X173256928Y-72089414D01*
X173379414Y-71966928D01*
X173481232Y-71826788D01*
X173559873Y-71672445D01*
X173613402Y-71507701D01*
X173640500Y-71336611D01*
X173640500Y-71163389D01*
X173613402Y-70992299D01*
X173559873Y-70827555D01*
X173481232Y-70673212D01*
X173379414Y-70533072D01*
X173256928Y-70410586D01*
X173116788Y-70308768D01*
X172962445Y-70230127D01*
X172797701Y-70176598D01*
X172797699Y-70176597D01*
X172797698Y-70176597D01*
X172666271Y-70155781D01*
X172626611Y-70149500D01*
X172453389Y-70149500D01*
X172413728Y-70155781D01*
X172282302Y-70176597D01*
X172117552Y-70230128D01*
X171963211Y-70308768D01*
X171906289Y-70350125D01*
X171823072Y-70410586D01*
X171823070Y-70410588D01*
X171823069Y-70410588D01*
X171700588Y-70533069D01*
X171700588Y-70533070D01*
X171700586Y-70533072D01*
X171656859Y-70593256D01*
X171598768Y-70673211D01*
X171520128Y-70827552D01*
X171466597Y-70992302D01*
X171439500Y-71163389D01*
X169710500Y-71163389D01*
X169710500Y-71102494D01*
X169671993Y-70810007D01*
X169595639Y-70525048D01*
X169482743Y-70252493D01*
X169427309Y-70156479D01*
X169335238Y-69997006D01*
X169155647Y-69762959D01*
X169155641Y-69762952D01*
X168947047Y-69554358D01*
X168947040Y-69554352D01*
X168919052Y-69532876D01*
X168877849Y-69476448D01*
X168873694Y-69406702D01*
X168907906Y-69345782D01*
X168969624Y-69313029D01*
X168994538Y-69310500D01*
X183809903Y-69310500D01*
X183876942Y-69330185D01*
X183897584Y-69346819D01*
X189238584Y-74687819D01*
X189272069Y-74749142D01*
X189267085Y-74818834D01*
X189225213Y-74874767D01*
X189159749Y-74899184D01*
X189150903Y-74899500D01*
X187102129Y-74899500D01*
X187102123Y-74899501D01*
X187042516Y-74905908D01*
X186907671Y-74956202D01*
X186907664Y-74956206D01*
X186792455Y-75042452D01*
X186792452Y-75042455D01*
X186706206Y-75157664D01*
X186706202Y-75157671D01*
X186655908Y-75292517D01*
X186649501Y-75352116D01*
X186649500Y-75352135D01*
X186649500Y-76350903D01*
X186629815Y-76417942D01*
X186577011Y-76463697D01*
X186507853Y-76473641D01*
X186444297Y-76444616D01*
X186437819Y-76438584D01*
X185766819Y-75767584D01*
X185733334Y-75706261D01*
X185730500Y-75679903D01*
X185730500Y-74674499D01*
X185750185Y-74607460D01*
X185802989Y-74561705D01*
X185854500Y-74550499D01*
X185977871Y-74550499D01*
X185977872Y-74550499D01*
X186037483Y-74544091D01*
X186172331Y-74493796D01*
X186287546Y-74407546D01*
X186373796Y-74292331D01*
X186424091Y-74157483D01*
X186430500Y-74097873D01*
X186430499Y-72402128D01*
X186424091Y-72342517D01*
X186373796Y-72207669D01*
X186373795Y-72207668D01*
X186373793Y-72207664D01*
X186287547Y-72092455D01*
X186287544Y-72092452D01*
X186172335Y-72006206D01*
X186172328Y-72006202D01*
X186037482Y-71955908D01*
X186037483Y-71955908D01*
X185977883Y-71949501D01*
X185977881Y-71949500D01*
X185977873Y-71949500D01*
X185977864Y-71949500D01*
X184282129Y-71949500D01*
X184282123Y-71949501D01*
X184222516Y-71955908D01*
X184087671Y-72006202D01*
X184087664Y-72006206D01*
X183972455Y-72092452D01*
X183972452Y-72092455D01*
X183886206Y-72207664D01*
X183886202Y-72207671D01*
X183835908Y-72342517D01*
X183829501Y-72402116D01*
X183829501Y-72402123D01*
X183829500Y-72402135D01*
X183829500Y-74097870D01*
X183829501Y-74097876D01*
X183835908Y-74157483D01*
X183886202Y-74292328D01*
X183886206Y-74292335D01*
X183972452Y-74407544D01*
X183972455Y-74407547D01*
X184087664Y-74493793D01*
X184087671Y-74493797D01*
X184132618Y-74510561D01*
X184222517Y-74544091D01*
X184282127Y-74550500D01*
X184405500Y-74550499D01*
X184472539Y-74570183D01*
X184518294Y-74622987D01*
X184529500Y-74674499D01*
X184529500Y-75893330D01*
X184529499Y-75893348D01*
X184529499Y-76059054D01*
X184529498Y-76059054D01*
X184570423Y-76211785D01*
X184599358Y-76261900D01*
X184599359Y-76261904D01*
X184599360Y-76261904D01*
X184649479Y-76348714D01*
X184649481Y-76348717D01*
X184768349Y-76467585D01*
X184768355Y-76467590D01*
X192483181Y-84182416D01*
X192516666Y-84243739D01*
X192519500Y-84270097D01*
X192519500Y-89075500D01*
X192499815Y-89142539D01*
X192447011Y-89188294D01*
X192395501Y-89199500D01*
X192272130Y-89199500D01*
X192272123Y-89199501D01*
X192212516Y-89205908D01*
X192077671Y-89256202D01*
X192077664Y-89256206D01*
X191962455Y-89342452D01*
X191962452Y-89342455D01*
X191876206Y-89457664D01*
X191876202Y-89457671D01*
X191825908Y-89592517D01*
X191819501Y-89652116D01*
X191819501Y-89652123D01*
X191819500Y-89652135D01*
X191819500Y-91347870D01*
X191819501Y-91347876D01*
X191825908Y-91407483D01*
X191876202Y-91542328D01*
X191876206Y-91542335D01*
X191962452Y-91657544D01*
X191962455Y-91657547D01*
X192077664Y-91743793D01*
X192077671Y-91743797D01*
X192212517Y-91794091D01*
X192212516Y-91794091D01*
X192219444Y-91794835D01*
X192272127Y-91800500D01*
X192719696Y-91800499D01*
X192786733Y-91820183D01*
X192832488Y-91872987D01*
X192842432Y-91942146D01*
X192813407Y-92005702D01*
X192758020Y-92042428D01*
X192750776Y-92044781D01*
X192568386Y-92137715D01*
X192402786Y-92258028D01*
X192258028Y-92402786D01*
X192137715Y-92568385D01*
X192130883Y-92581795D01*
X192082909Y-92632591D01*
X192020398Y-92649500D01*
X191500098Y-92649500D01*
X191433059Y-92629815D01*
X191412417Y-92613181D01*
X188111416Y-89312180D01*
X188077931Y-89250857D01*
X188082915Y-89181165D01*
X188124787Y-89125232D01*
X188190251Y-89100815D01*
X188199097Y-89100499D01*
X190397871Y-89100499D01*
X190397872Y-89100499D01*
X190457483Y-89094091D01*
X190592331Y-89043796D01*
X190707546Y-88957546D01*
X190793796Y-88842331D01*
X190844091Y-88707483D01*
X190850500Y-88647873D01*
X190850499Y-86552128D01*
X190844091Y-86492517D01*
X190840684Y-86483383D01*
X190793797Y-86357671D01*
X190793793Y-86357664D01*
X190707547Y-86242455D01*
X190707544Y-86242452D01*
X190592335Y-86156206D01*
X190592328Y-86156202D01*
X190457482Y-86105908D01*
X190457483Y-86105908D01*
X190397883Y-86099501D01*
X190397881Y-86099500D01*
X190397873Y-86099500D01*
X190397864Y-86099500D01*
X187102129Y-86099500D01*
X187102123Y-86099501D01*
X187042516Y-86105908D01*
X186907671Y-86156202D01*
X186907664Y-86156206D01*
X186792455Y-86242452D01*
X186792452Y-86242455D01*
X186706206Y-86357664D01*
X186706202Y-86357671D01*
X186655908Y-86492517D01*
X186649501Y-86552116D01*
X186649501Y-86552123D01*
X186649500Y-86552135D01*
X186649500Y-87550903D01*
X186629815Y-87617942D01*
X186577011Y-87663697D01*
X186507853Y-87673641D01*
X186444297Y-87644616D01*
X186437819Y-87638584D01*
X182937590Y-84138355D01*
X182937588Y-84138352D01*
X182818717Y-84019481D01*
X182818716Y-84019480D01*
X182731904Y-83969360D01*
X182681785Y-83940423D01*
X182678728Y-83939603D01*
X182669288Y-83934319D01*
X182649749Y-83914363D01*
X182628005Y-83896841D01*
X182620798Y-83884795D01*
X182620407Y-83884395D01*
X182620326Y-83884005D01*
X182619375Y-83882415D01*
X182607399Y-83858910D01*
X182533343Y-83713567D01*
X182394517Y-83522490D01*
X182227510Y-83355483D01*
X182220401Y-83350318D01*
X182177735Y-83294988D01*
X182171756Y-83225375D01*
X182204362Y-83163580D01*
X182220401Y-83149682D01*
X182220500Y-83149609D01*
X182227510Y-83144517D01*
X182394517Y-82977510D01*
X182533343Y-82786433D01*
X182640568Y-82575992D01*
X182713553Y-82351368D01*
X182750500Y-82118097D01*
X182750500Y-81881902D01*
X182713553Y-81648631D01*
X182640566Y-81424003D01*
X182533342Y-81213566D01*
X182463794Y-81117842D01*
X182440314Y-81052036D01*
X182456139Y-80983982D01*
X182489801Y-80945689D01*
X182492328Y-80943796D01*
X182492331Y-80943796D01*
X182607546Y-80857546D01*
X182693796Y-80742331D01*
X182744091Y-80607483D01*
X182750500Y-80547873D01*
X182750499Y-78452128D01*
X182744091Y-78392517D01*
X182730278Y-78355483D01*
X182693797Y-78257671D01*
X182693793Y-78257664D01*
X182607547Y-78142455D01*
X182607544Y-78142452D01*
X182492335Y-78056206D01*
X182492328Y-78056202D01*
X182357482Y-78005908D01*
X182357483Y-78005908D01*
X182297883Y-77999501D01*
X182297881Y-77999500D01*
X182297873Y-77999500D01*
X182297864Y-77999500D01*
X180202129Y-77999500D01*
X180202123Y-77999501D01*
X180142516Y-78005908D01*
X180007671Y-78056202D01*
X180007664Y-78056206D01*
X179892455Y-78142452D01*
X179892452Y-78142455D01*
X179806206Y-78257664D01*
X179806202Y-78257671D01*
X179755908Y-78392517D01*
X179749501Y-78452116D01*
X179749501Y-78452123D01*
X179749500Y-78452135D01*
X179749500Y-80547870D01*
X179749501Y-80547876D01*
X179755908Y-80607483D01*
X179806202Y-80742328D01*
X179806206Y-80742335D01*
X179892452Y-80857544D01*
X179892455Y-80857547D01*
X180010198Y-80945690D01*
X180052069Y-81001623D01*
X180057053Y-81071315D01*
X180036205Y-81117841D01*
X179966659Y-81213563D01*
X179859433Y-81424003D01*
X179786446Y-81648631D01*
X179749500Y-81881902D01*
X179749500Y-82118097D01*
X179786446Y-82351368D01*
X179859433Y-82575996D01*
X179923917Y-82702551D01*
X179966657Y-82786433D01*
X180105483Y-82977510D01*
X180105485Y-82977512D01*
X180272490Y-83144517D01*
X180279603Y-83149685D01*
X180322266Y-83205017D01*
X180328242Y-83274630D01*
X180295634Y-83336424D01*
X180279603Y-83350315D01*
X180272490Y-83355482D01*
X180105485Y-83522487D01*
X180105485Y-83522488D01*
X180105483Y-83522490D01*
X180071899Y-83568714D01*
X179966657Y-83713566D01*
X179859433Y-83924003D01*
X179786446Y-84148631D01*
X179749500Y-84381902D01*
X179749500Y-84618097D01*
X179786446Y-84851368D01*
X179859433Y-85075996D01*
X179948358Y-85250520D01*
X179966657Y-85286433D01*
X180105483Y-85477510D01*
X180272490Y-85644517D01*
X180463567Y-85783343D01*
X180562991Y-85834002D01*
X180674003Y-85890566D01*
X180674005Y-85890566D01*
X180674008Y-85890568D01*
X180794412Y-85929689D01*
X180898631Y-85963553D01*
X181131903Y-86000500D01*
X181131908Y-86000500D01*
X181368097Y-86000500D01*
X181601368Y-85963553D01*
X181825992Y-85890568D01*
X182036433Y-85783343D01*
X182227510Y-85644517D01*
X182394517Y-85477510D01*
X182394517Y-85477509D01*
X182397962Y-85474065D01*
X182399477Y-85475580D01*
X182450437Y-85442243D01*
X182520304Y-85441676D01*
X182574017Y-85473252D01*
X186253666Y-89152902D01*
X186287151Y-89214225D01*
X186282167Y-89283917D01*
X186240295Y-89339850D01*
X186174831Y-89364267D01*
X186109690Y-89351068D01*
X185999223Y-89294781D01*
X185804534Y-89231522D01*
X185629995Y-89203878D01*
X185602352Y-89199500D01*
X185397648Y-89199500D01*
X185373329Y-89203351D01*
X185195465Y-89231522D01*
X185000776Y-89294781D01*
X184818386Y-89387715D01*
X184652786Y-89508028D01*
X184508028Y-89652786D01*
X184387715Y-89818386D01*
X184294781Y-90000776D01*
X184231522Y-90195465D01*
X184199500Y-90397648D01*
X184199500Y-90602351D01*
X184231522Y-90804534D01*
X184294781Y-90999223D01*
X184387715Y-91181613D01*
X184508028Y-91347213D01*
X184652786Y-91491971D01*
X184802166Y-91600500D01*
X184818390Y-91612287D01*
X185000781Y-91705220D01*
X185008009Y-91707568D01*
X185065685Y-91747000D01*
X185092887Y-91811357D01*
X185080977Y-91880204D01*
X185033736Y-91931683D01*
X184969697Y-91949500D01*
X184782130Y-91949500D01*
X184782123Y-91949501D01*
X184722516Y-91955908D01*
X184587671Y-92006202D01*
X184587664Y-92006206D01*
X184472455Y-92092452D01*
X184472452Y-92092455D01*
X184386206Y-92207664D01*
X184386202Y-92207671D01*
X184335908Y-92342517D01*
X184329501Y-92402116D01*
X184329501Y-92402123D01*
X184329500Y-92402135D01*
X184329500Y-93649902D01*
X184309815Y-93716941D01*
X184293181Y-93737583D01*
X183917584Y-94113181D01*
X183856261Y-94146666D01*
X183829903Y-94149500D01*
X172572320Y-94149500D01*
X172505281Y-94129815D01*
X172473052Y-94099809D01*
X172467548Y-94092457D01*
X172467546Y-94092454D01*
X172449363Y-94078842D01*
X172352335Y-94006206D01*
X172352328Y-94006202D01*
X172217482Y-93955908D01*
X172217483Y-93955908D01*
X172157883Y-93949501D01*
X172157881Y-93949500D01*
X172157873Y-93949500D01*
X172157864Y-93949500D01*
X170462129Y-93949500D01*
X170462123Y-93949501D01*
X170402516Y-93955908D01*
X170267671Y-94006202D01*
X170267664Y-94006206D01*
X170152455Y-94092452D01*
X170152452Y-94092455D01*
X170066206Y-94207664D01*
X170066202Y-94207671D01*
X170015908Y-94342517D01*
X170009501Y-94402116D01*
X170009501Y-94402123D01*
X170009500Y-94402135D01*
X170009500Y-96097870D01*
X170009501Y-96097876D01*
X170015908Y-96157483D01*
X170066202Y-96292328D01*
X170066206Y-96292335D01*
X170152452Y-96407544D01*
X170152455Y-96407547D01*
X170267664Y-96493793D01*
X170267671Y-96493797D01*
X170402517Y-96544091D01*
X170402516Y-96544091D01*
X170409444Y-96544835D01*
X170462127Y-96550500D01*
X172157872Y-96550499D01*
X172217483Y-96544091D01*
X172352331Y-96493796D01*
X172467546Y-96407546D01*
X172553796Y-96292331D01*
X172604091Y-96157483D01*
X172610500Y-96097873D01*
X172610500Y-95474500D01*
X172630185Y-95407461D01*
X172682989Y-95361706D01*
X172734500Y-95350500D01*
X184043331Y-95350500D01*
X184043347Y-95350501D01*
X184050943Y-95350501D01*
X184209054Y-95350501D01*
X184209057Y-95350501D01*
X184361785Y-95309577D01*
X184411904Y-95280639D01*
X184498716Y-95230520D01*
X184610520Y-95118716D01*
X184610520Y-95118714D01*
X184620728Y-95108507D01*
X184620730Y-95108504D01*
X185142416Y-94586818D01*
X185203739Y-94553333D01*
X185230097Y-94550499D01*
X186477871Y-94550499D01*
X186477872Y-94550499D01*
X186537483Y-94544091D01*
X186672331Y-94493796D01*
X186787546Y-94407546D01*
X186873796Y-94292331D01*
X186924091Y-94157483D01*
X186930500Y-94097873D01*
X186930499Y-92402128D01*
X186924091Y-92342517D01*
X186903887Y-92288348D01*
X186873797Y-92207671D01*
X186873793Y-92207664D01*
X186787547Y-92092455D01*
X186787544Y-92092452D01*
X186672335Y-92006206D01*
X186672328Y-92006202D01*
X186537482Y-91955908D01*
X186537483Y-91955908D01*
X186477883Y-91949501D01*
X186477881Y-91949500D01*
X186477873Y-91949500D01*
X186477865Y-91949500D01*
X186030305Y-91949500D01*
X185963266Y-91929815D01*
X185917511Y-91877011D01*
X185907567Y-91807853D01*
X185936592Y-91744297D01*
X185991989Y-91707569D01*
X185999219Y-91705220D01*
X186181610Y-91612287D01*
X186308811Y-91519871D01*
X186347213Y-91491971D01*
X186347215Y-91491968D01*
X186347219Y-91491966D01*
X186491966Y-91347219D01*
X186491968Y-91347215D01*
X186491971Y-91347213D01*
X186544732Y-91274590D01*
X186612287Y-91181610D01*
X186705220Y-90999219D01*
X186768477Y-90804534D01*
X186800500Y-90602352D01*
X186800500Y-90397648D01*
X186768477Y-90195466D01*
X186705220Y-90000781D01*
X186705217Y-90000776D01*
X186705216Y-90000771D01*
X186648932Y-89890309D01*
X186636035Y-89821640D01*
X186662311Y-89756900D01*
X186719417Y-89716642D01*
X186789223Y-89713650D01*
X186847098Y-89746333D01*
X190831284Y-93730520D01*
X190831286Y-93730521D01*
X190831290Y-93730524D01*
X190893621Y-93766510D01*
X190968216Y-93809577D01*
X191120943Y-93850501D01*
X191120945Y-93850501D01*
X191286654Y-93850501D01*
X191286670Y-93850500D01*
X192020398Y-93850500D01*
X192087437Y-93870185D01*
X192130882Y-93918204D01*
X192136821Y-93929859D01*
X192137715Y-93931614D01*
X192258028Y-94097213D01*
X192402786Y-94241971D01*
X192541177Y-94342516D01*
X192568390Y-94362287D01*
X192647864Y-94402781D01*
X192750776Y-94455218D01*
X192750778Y-94455218D01*
X192750781Y-94455220D01*
X192801474Y-94471691D01*
X192945465Y-94518477D01*
X193046557Y-94534488D01*
X193147648Y-94550500D01*
X193147649Y-94550500D01*
X193352351Y-94550500D01*
X193352352Y-94550500D01*
X193554534Y-94518477D01*
X193749219Y-94455220D01*
X193931610Y-94362287D01*
X194027901Y-94292328D01*
X194097213Y-94241971D01*
X194097215Y-94241968D01*
X194097219Y-94241966D01*
X194241966Y-94097219D01*
X194241968Y-94097215D01*
X194241971Y-94097213D01*
X194362284Y-93931614D01*
X194362283Y-93931614D01*
X194362287Y-93931610D01*
X194367615Y-93921153D01*
X198199500Y-93921153D01*
X198199500Y-94078846D01*
X198230261Y-94233489D01*
X198230264Y-94233501D01*
X198290602Y-94379172D01*
X198290609Y-94379185D01*
X198378210Y-94510288D01*
X198378213Y-94510292D01*
X198489707Y-94621786D01*
X198489711Y-94621789D01*
X198620814Y-94709390D01*
X198620827Y-94709397D01*
X198766498Y-94769735D01*
X198766503Y-94769737D01*
X198921153Y-94800499D01*
X198921156Y-94800500D01*
X198921158Y-94800500D01*
X199078844Y-94800500D01*
X199078845Y-94800499D01*
X199233497Y-94769737D01*
X199379179Y-94709394D01*
X199510289Y-94621789D01*
X199621789Y-94510289D01*
X199709394Y-94379179D01*
X199769737Y-94233497D01*
X199793670Y-94113181D01*
X199800638Y-94078150D01*
X199833023Y-94016239D01*
X199834520Y-94014714D01*
X200983506Y-92865727D01*
X200983511Y-92865724D01*
X200993714Y-92855520D01*
X200993716Y-92855520D01*
X201105520Y-92743716D01*
X201167918Y-92635639D01*
X201184577Y-92606785D01*
X201225501Y-92454057D01*
X201225501Y-92295943D01*
X201225501Y-92288348D01*
X201225500Y-92288330D01*
X201225500Y-82704765D01*
X201245185Y-82637726D01*
X201246398Y-82635874D01*
X201334390Y-82504185D01*
X201334390Y-82504184D01*
X201334394Y-82504179D01*
X201394737Y-82358497D01*
X201425500Y-82203842D01*
X201425500Y-82046158D01*
X201425500Y-82046155D01*
X201425499Y-82046153D01*
X201394738Y-81891510D01*
X201394737Y-81891503D01*
X201390760Y-81881902D01*
X201334397Y-81745827D01*
X201334390Y-81745814D01*
X201246789Y-81614711D01*
X201246786Y-81614707D01*
X201135292Y-81503213D01*
X201135288Y-81503210D01*
X201004185Y-81415609D01*
X201004172Y-81415602D01*
X200858501Y-81355264D01*
X200858489Y-81355261D01*
X200703845Y-81324500D01*
X200703842Y-81324500D01*
X200546158Y-81324500D01*
X200546155Y-81324500D01*
X200391510Y-81355261D01*
X200391498Y-81355264D01*
X200245827Y-81415602D01*
X200245814Y-81415609D01*
X200114711Y-81503210D01*
X200114707Y-81503213D01*
X200003213Y-81614707D01*
X200003210Y-81614711D01*
X199915609Y-81745814D01*
X199915602Y-81745827D01*
X199855264Y-81891498D01*
X199855261Y-81891510D01*
X199824500Y-82046153D01*
X199824500Y-82203846D01*
X199855261Y-82358489D01*
X199855264Y-82358501D01*
X199915602Y-82504172D01*
X199915609Y-82504185D01*
X200003602Y-82635874D01*
X200024480Y-82702551D01*
X200024500Y-82704765D01*
X200024500Y-92074903D01*
X200004815Y-92141942D01*
X199988181Y-92162584D01*
X198985339Y-93165425D01*
X198924016Y-93198910D01*
X198921850Y-93199361D01*
X198766508Y-93230261D01*
X198766498Y-93230264D01*
X198620827Y-93290602D01*
X198620814Y-93290609D01*
X198489711Y-93378210D01*
X198489707Y-93378213D01*
X198378213Y-93489707D01*
X198378210Y-93489711D01*
X198290609Y-93620814D01*
X198290602Y-93620827D01*
X198230264Y-93766498D01*
X198230261Y-93766510D01*
X198199500Y-93921153D01*
X194367615Y-93921153D01*
X194455220Y-93749219D01*
X194518477Y-93554534D01*
X194550500Y-93352352D01*
X194550500Y-93147648D01*
X194518477Y-92945466D01*
X194455220Y-92750781D01*
X194455218Y-92750778D01*
X194455218Y-92750776D01*
X194421503Y-92684607D01*
X194362287Y-92568390D01*
X194354556Y-92557749D01*
X194241971Y-92402786D01*
X194097213Y-92258028D01*
X193931613Y-92137715D01*
X193931612Y-92137714D01*
X193931610Y-92137713D01*
X193808339Y-92074903D01*
X193749220Y-92044780D01*
X193741986Y-92042430D01*
X193684310Y-92002994D01*
X193657111Y-91938635D01*
X193669025Y-91869789D01*
X193716269Y-91818312D01*
X193780302Y-91800499D01*
X193967872Y-91800499D01*
X194027483Y-91794091D01*
X194162331Y-91743796D01*
X194277546Y-91657546D01*
X194363796Y-91542331D01*
X194414091Y-91407483D01*
X194420500Y-91347873D01*
X194420499Y-89652128D01*
X194414091Y-89592517D01*
X194402149Y-89560500D01*
X194363797Y-89457671D01*
X194363793Y-89457664D01*
X194277547Y-89342455D01*
X194277544Y-89342452D01*
X194162335Y-89256206D01*
X194162328Y-89256202D01*
X194027482Y-89205908D01*
X194027483Y-89205908D01*
X193967883Y-89199501D01*
X193967881Y-89199500D01*
X193967873Y-89199500D01*
X193967865Y-89199500D01*
X193844500Y-89199500D01*
X193777461Y-89179815D01*
X193731706Y-89127011D01*
X193720500Y-89075500D01*
X193720500Y-83890945D01*
X193720500Y-83890943D01*
X193679577Y-83738216D01*
X193665346Y-83713567D01*
X193600524Y-83601290D01*
X193600521Y-83601286D01*
X193600520Y-83601284D01*
X193488716Y-83489480D01*
X193488715Y-83489479D01*
X193484385Y-83485149D01*
X193484374Y-83485139D01*
X188111415Y-78112180D01*
X188077930Y-78050857D01*
X188082914Y-77981165D01*
X188124786Y-77925232D01*
X188190250Y-77900815D01*
X188199096Y-77900499D01*
X190397871Y-77900499D01*
X190397872Y-77900499D01*
X190457483Y-77894091D01*
X190592331Y-77843796D01*
X190707546Y-77757546D01*
X190793796Y-77642331D01*
X190844091Y-77507483D01*
X190850500Y-77447873D01*
X190850499Y-76599095D01*
X190870183Y-76532057D01*
X190922987Y-76486302D01*
X190992146Y-76476358D01*
X191055702Y-76505383D01*
X191062180Y-76511415D01*
X193813181Y-79262416D01*
X193846666Y-79323739D01*
X193849500Y-79350097D01*
X193849500Y-83113330D01*
X193849499Y-83113348D01*
X193849499Y-83279054D01*
X193849498Y-83279054D01*
X193890423Y-83431785D01*
X193919358Y-83481900D01*
X193919359Y-83481904D01*
X193919360Y-83481904D01*
X193969479Y-83568714D01*
X193969481Y-83568717D01*
X194088349Y-83687585D01*
X194088355Y-83687590D01*
X194297200Y-83896435D01*
X194330685Y-83957758D01*
X194327450Y-84022433D01*
X194286447Y-84148628D01*
X194249500Y-84381902D01*
X194249500Y-84618097D01*
X194286446Y-84851368D01*
X194359433Y-85075996D01*
X194448358Y-85250520D01*
X194466657Y-85286433D01*
X194605483Y-85477510D01*
X194772490Y-85644517D01*
X194963567Y-85783343D01*
X195062991Y-85834002D01*
X195174003Y-85890566D01*
X195174005Y-85890566D01*
X195174008Y-85890568D01*
X195294412Y-85929689D01*
X195398631Y-85963553D01*
X195631903Y-86000500D01*
X195631908Y-86000500D01*
X195868097Y-86000500D01*
X196101368Y-85963553D01*
X196325992Y-85890568D01*
X196536433Y-85783343D01*
X196727510Y-85644517D01*
X196894517Y-85477510D01*
X197033343Y-85286433D01*
X197140568Y-85075992D01*
X197213553Y-84851368D01*
X197213919Y-84849057D01*
X197250500Y-84618097D01*
X197250500Y-84381902D01*
X197213553Y-84148631D01*
X197171589Y-84019480D01*
X197140568Y-83924008D01*
X197140566Y-83924005D01*
X197140566Y-83924003D01*
X197045902Y-83738216D01*
X197033343Y-83713567D01*
X196894517Y-83522490D01*
X196727510Y-83355483D01*
X196536433Y-83216657D01*
X196513588Y-83205017D01*
X196325996Y-83109433D01*
X196101368Y-83036446D01*
X195868097Y-82999500D01*
X195868092Y-82999500D01*
X195631908Y-82999500D01*
X195631903Y-82999500D01*
X195398630Y-83036447D01*
X195272435Y-83077450D01*
X195257222Y-83077884D01*
X195242962Y-83083203D01*
X195223006Y-83078861D01*
X195202593Y-83079445D01*
X195188506Y-83071356D01*
X195174689Y-83068351D01*
X195146435Y-83047200D01*
X195086818Y-82987582D01*
X195053334Y-82926258D01*
X195050500Y-82899901D01*
X195050500Y-81021109D01*
X195070185Y-80954070D01*
X195122989Y-80908315D01*
X195192147Y-80898371D01*
X195212813Y-80903176D01*
X195325396Y-80939757D01*
X195398631Y-80963553D01*
X195631903Y-81000500D01*
X195631908Y-81000500D01*
X195868097Y-81000500D01*
X196101368Y-80963553D01*
X196325992Y-80890568D01*
X196536433Y-80783343D01*
X196727510Y-80644517D01*
X196894517Y-80477510D01*
X197033343Y-80286433D01*
X197140568Y-80075992D01*
X197213553Y-79851368D01*
X197250500Y-79618097D01*
X197250500Y-79381902D01*
X197213553Y-79148631D01*
X197140566Y-78924003D01*
X197033342Y-78713566D01*
X196894517Y-78522490D01*
X196727510Y-78355483D01*
X196536433Y-78216657D01*
X196325996Y-78109433D01*
X196101368Y-78036446D01*
X195868097Y-77999500D01*
X195868092Y-77999500D01*
X195631908Y-77999500D01*
X195631903Y-77999500D01*
X195398628Y-78036447D01*
X195272433Y-78077450D01*
X195202592Y-78079445D01*
X195146435Y-78047200D01*
X193386819Y-76287583D01*
X193353334Y-76226260D01*
X193350500Y-76199902D01*
X193350500Y-74479601D01*
X193370185Y-74412562D01*
X193418206Y-74369116D01*
X193431610Y-74362287D01*
X193597219Y-74241966D01*
X193741966Y-74097219D01*
X193741968Y-74097215D01*
X193741971Y-74097213D01*
X193794732Y-74024590D01*
X193862287Y-73931610D01*
X193955220Y-73749219D01*
X194018477Y-73554534D01*
X194050500Y-73352352D01*
X194050500Y-73147648D01*
X194018477Y-72945466D01*
X193955220Y-72750781D01*
X193955218Y-72750778D01*
X193955218Y-72750776D01*
X193921503Y-72684607D01*
X193862287Y-72568390D01*
X193854556Y-72557749D01*
X193741971Y-72402786D01*
X193597213Y-72258028D01*
X193431613Y-72137715D01*
X193431612Y-72137714D01*
X193431610Y-72137713D01*
X193374653Y-72108691D01*
X193249223Y-72044781D01*
X193054534Y-71981522D01*
X192879995Y-71953878D01*
X192852352Y-71949500D01*
X192647648Y-71949500D01*
X192623329Y-71953351D01*
X192445465Y-71981522D01*
X192250776Y-72044781D01*
X192068386Y-72137715D01*
X191902786Y-72258028D01*
X191758028Y-72402786D01*
X191637715Y-72568386D01*
X191544781Y-72750776D01*
X191481522Y-72945465D01*
X191449500Y-73147648D01*
X191449500Y-73352351D01*
X191481522Y-73554534D01*
X191544781Y-73749223D01*
X191637715Y-73931613D01*
X191758028Y-74097213D01*
X191758034Y-74097219D01*
X191902781Y-74241966D01*
X192068390Y-74362287D01*
X192081793Y-74369116D01*
X192132589Y-74417088D01*
X192149500Y-74479601D01*
X192149500Y-75600903D01*
X192129815Y-75667942D01*
X192077011Y-75713697D01*
X192007853Y-75723641D01*
X191944297Y-75694616D01*
X191937819Y-75688584D01*
X186170388Y-69921153D01*
X197949500Y-69921153D01*
X197949500Y-70078846D01*
X197980261Y-70233489D01*
X197980264Y-70233501D01*
X198040602Y-70379172D01*
X198040609Y-70379185D01*
X198128210Y-70510288D01*
X198128213Y-70510292D01*
X198239707Y-70621786D01*
X198239711Y-70621789D01*
X198370814Y-70709390D01*
X198370827Y-70709397D01*
X198516498Y-70769735D01*
X198516503Y-70769737D01*
X198671153Y-70800499D01*
X198671156Y-70800500D01*
X198671158Y-70800500D01*
X198828844Y-70800500D01*
X198828845Y-70800499D01*
X198983497Y-70769737D01*
X199129179Y-70709394D01*
X199260289Y-70621789D01*
X199371789Y-70510289D01*
X199459394Y-70379179D01*
X199519737Y-70233497D01*
X199550500Y-70078842D01*
X199550500Y-69921158D01*
X199550500Y-69921155D01*
X199550499Y-69921153D01*
X199519738Y-69766510D01*
X199519737Y-69766503D01*
X199518266Y-69762952D01*
X199459397Y-69620827D01*
X199459390Y-69620814D01*
X199371398Y-69489125D01*
X199350520Y-69422447D01*
X199350500Y-69420234D01*
X199350500Y-61550097D01*
X199370185Y-61483058D01*
X199386819Y-61462416D01*
X199881141Y-60968094D01*
X200514664Y-60334571D01*
X200575985Y-60301088D01*
X200578152Y-60300637D01*
X200578841Y-60300500D01*
X200578842Y-60300500D01*
X200733497Y-60269737D01*
X200879179Y-60209394D01*
X201010289Y-60121789D01*
X201121789Y-60010289D01*
X201209394Y-59879179D01*
X201269737Y-59733497D01*
X201300500Y-59578842D01*
X201300500Y-59421158D01*
X201300500Y-59421155D01*
X201300499Y-59421153D01*
X201269738Y-59266510D01*
X201269738Y-59266508D01*
X201269737Y-59266503D01*
X201269735Y-59266498D01*
X201209397Y-59120827D01*
X201209390Y-59120814D01*
X201121789Y-58989711D01*
X201121786Y-58989707D01*
X201010292Y-58878213D01*
X201010288Y-58878210D01*
X200879185Y-58790609D01*
X200879172Y-58790602D01*
X200733501Y-58730264D01*
X200733489Y-58730261D01*
X200578845Y-58699500D01*
X200578842Y-58699500D01*
X200421158Y-58699500D01*
X200421155Y-58699500D01*
X200266510Y-58730261D01*
X200266498Y-58730264D01*
X200120827Y-58790602D01*
X200120814Y-58790609D01*
X199989711Y-58878210D01*
X199989707Y-58878213D01*
X199878213Y-58989707D01*
X199878210Y-58989711D01*
X199790609Y-59120814D01*
X199790602Y-59120827D01*
X199730264Y-59266498D01*
X199730261Y-59266508D01*
X199699362Y-59421848D01*
X199666977Y-59483759D01*
X199665426Y-59485337D01*
X198381286Y-60769478D01*
X198269481Y-60881282D01*
X198269479Y-60881285D01*
X198219361Y-60968094D01*
X198219359Y-60968096D01*
X198190425Y-61018209D01*
X198190424Y-61018210D01*
X198190423Y-61018215D01*
X198149499Y-61170943D01*
X198149499Y-61170945D01*
X198149499Y-61339046D01*
X198149500Y-61339059D01*
X198149500Y-69420234D01*
X198129815Y-69487273D01*
X198128602Y-69489125D01*
X198040609Y-69620814D01*
X198040602Y-69620827D01*
X197980264Y-69766498D01*
X197980261Y-69766510D01*
X197949500Y-69921153D01*
X186170388Y-69921153D01*
X185575185Y-69325950D01*
X185541700Y-69264627D01*
X185546684Y-69194935D01*
X185588556Y-69139002D01*
X185606564Y-69127788D01*
X185693156Y-69083668D01*
X185742690Y-69047679D01*
X185858759Y-68963352D01*
X185858761Y-68963349D01*
X185858765Y-68963347D01*
X186003512Y-68818600D01*
X186003514Y-68818596D01*
X186003517Y-68818594D01*
X186056278Y-68745971D01*
X186123833Y-68652991D01*
X186216766Y-68470600D01*
X186280023Y-68275915D01*
X186312046Y-68073733D01*
X186312046Y-67869029D01*
X186280023Y-67666847D01*
X186275601Y-67653239D01*
X186222304Y-67489207D01*
X186216766Y-67472162D01*
X186216764Y-67472159D01*
X186216764Y-67472157D01*
X186175306Y-67390793D01*
X186123833Y-67289771D01*
X186082865Y-67233383D01*
X186003517Y-67124167D01*
X185858759Y-66979409D01*
X185693159Y-66859096D01*
X185693158Y-66859095D01*
X185693156Y-66859094D01*
X185636199Y-66830072D01*
X185510769Y-66766162D01*
X185389457Y-66726745D01*
X185331782Y-66687307D01*
X185304584Y-66622948D01*
X185316499Y-66554102D01*
X185363744Y-66502626D01*
X185389454Y-66490884D01*
X185499219Y-66455220D01*
X185681610Y-66362287D01*
X185777901Y-66292328D01*
X185847213Y-66241971D01*
X185847215Y-66241968D01*
X185847219Y-66241966D01*
X185991966Y-66097219D01*
X185991968Y-66097215D01*
X185991971Y-66097213D01*
X186044732Y-66024590D01*
X186112287Y-65931610D01*
X186205220Y-65749219D01*
X186268477Y-65554534D01*
X186300500Y-65352352D01*
X186300500Y-65147648D01*
X186268477Y-64945466D01*
X186205220Y-64750781D01*
X186205218Y-64750778D01*
X186205218Y-64750776D01*
X186112287Y-64568390D01*
X186042032Y-64471691D01*
X186042031Y-64471688D01*
X185991971Y-64402787D01*
X185991967Y-64402782D01*
X185991320Y-64402135D01*
X191319500Y-64402135D01*
X191319500Y-66097870D01*
X191319501Y-66097876D01*
X191325908Y-66157483D01*
X191376202Y-66292328D01*
X191376206Y-66292335D01*
X191462452Y-66407544D01*
X191462455Y-66407547D01*
X191577664Y-66493793D01*
X191577666Y-66493794D01*
X191577669Y-66493796D01*
X191577672Y-66493797D01*
X191585347Y-66496660D01*
X191641282Y-66538529D01*
X191665702Y-66603992D01*
X191650853Y-66672266D01*
X191601449Y-66721673D01*
X191592838Y-66725606D01*
X191589210Y-66727587D01*
X191474001Y-66813833D01*
X191473998Y-66813836D01*
X191387752Y-66929045D01*
X191387748Y-66929052D01*
X191337454Y-67063898D01*
X191332552Y-67109500D01*
X191331047Y-67123504D01*
X191331046Y-67123516D01*
X191331046Y-68819251D01*
X191331047Y-68819257D01*
X191337454Y-68878864D01*
X191387748Y-69013709D01*
X191387752Y-69013716D01*
X191473998Y-69128925D01*
X191474001Y-69128928D01*
X191589210Y-69215174D01*
X191589217Y-69215178D01*
X191724063Y-69265472D01*
X191724062Y-69265472D01*
X191730990Y-69266216D01*
X191783673Y-69271881D01*
X193479418Y-69271880D01*
X193539029Y-69265472D01*
X193673877Y-69215177D01*
X193789092Y-69128927D01*
X193875342Y-69013712D01*
X193925637Y-68878864D01*
X193932046Y-68819254D01*
X193932045Y-67123509D01*
X193925637Y-67063898D01*
X193875342Y-66929050D01*
X193875341Y-66929049D01*
X193875339Y-66929045D01*
X193789093Y-66813836D01*
X193789090Y-66813833D01*
X193673881Y-66727587D01*
X193673874Y-66727583D01*
X193666194Y-66724719D01*
X193610260Y-66682848D01*
X193585843Y-66617384D01*
X193600695Y-66549111D01*
X193650100Y-66499705D01*
X193658705Y-66495775D01*
X193662326Y-66493797D01*
X193662331Y-66493796D01*
X193777546Y-66407546D01*
X193863796Y-66292331D01*
X193914091Y-66157483D01*
X193920500Y-66097873D01*
X193920499Y-64402128D01*
X193914091Y-64342517D01*
X193871646Y-64228717D01*
X193863797Y-64207671D01*
X193863793Y-64207664D01*
X193777547Y-64092455D01*
X193777544Y-64092452D01*
X193662335Y-64006206D01*
X193662328Y-64006202D01*
X193527482Y-63955908D01*
X193527483Y-63955908D01*
X193467883Y-63949501D01*
X193467881Y-63949500D01*
X193467873Y-63949500D01*
X193467864Y-63949500D01*
X191772129Y-63949500D01*
X191772123Y-63949501D01*
X191712516Y-63955908D01*
X191577671Y-64006202D01*
X191577664Y-64006206D01*
X191462455Y-64092452D01*
X191462452Y-64092455D01*
X191376206Y-64207664D01*
X191376202Y-64207671D01*
X191325908Y-64342517D01*
X191319501Y-64402116D01*
X191319501Y-64402123D01*
X191319500Y-64402135D01*
X185991320Y-64402135D01*
X185847213Y-64258028D01*
X185681613Y-64137715D01*
X185681612Y-64137714D01*
X185681610Y-64137713D01*
X185624653Y-64108691D01*
X185499223Y-64044781D01*
X185304534Y-63981522D01*
X185129995Y-63953878D01*
X185102352Y-63949500D01*
X184897648Y-63949500D01*
X184873329Y-63953351D01*
X184695465Y-63981522D01*
X184500776Y-64044781D01*
X184318386Y-64137715D01*
X184152786Y-64258028D01*
X184008028Y-64402786D01*
X183887715Y-64568386D01*
X183794781Y-64750776D01*
X183731522Y-64945465D01*
X183699500Y-65147648D01*
X183699500Y-65352351D01*
X183731522Y-65554534D01*
X183794781Y-65749223D01*
X183887715Y-65931613D01*
X184008028Y-66097213D01*
X184152786Y-66241971D01*
X184307749Y-66354556D01*
X184318390Y-66362287D01*
X184407212Y-66407544D01*
X184500776Y-66455218D01*
X184500778Y-66455218D01*
X184500781Y-66455220D01*
X184619506Y-66493796D01*
X184622088Y-66494635D01*
X184679763Y-66534073D01*
X184706961Y-66598432D01*
X184695046Y-66667278D01*
X184647802Y-66718754D01*
X184622088Y-66730497D01*
X184512322Y-66766162D01*
X184329932Y-66859096D01*
X184164332Y-66979409D01*
X184019574Y-67124167D01*
X183899261Y-67289767D01*
X183806327Y-67472157D01*
X183743068Y-67666846D01*
X183711046Y-67869029D01*
X183711046Y-67985500D01*
X183691361Y-68052539D01*
X183638557Y-68098294D01*
X183587046Y-68109500D01*
X165399097Y-68109500D01*
X165332058Y-68089815D01*
X165286303Y-68037011D01*
X165276359Y-67967853D01*
X165305384Y-67904297D01*
X165311416Y-67897819D01*
X167165198Y-66044038D01*
X168399500Y-66044038D01*
X168399500Y-66295962D01*
X168424724Y-66455218D01*
X168438910Y-66544785D01*
X168516760Y-66784383D01*
X168631132Y-67008848D01*
X168779201Y-67212649D01*
X168779205Y-67212654D01*
X168957345Y-67390794D01*
X168957350Y-67390798D01*
X169135117Y-67519952D01*
X169161155Y-67538870D01*
X169304184Y-67611747D01*
X169385616Y-67653239D01*
X169385618Y-67653239D01*
X169385621Y-67653241D01*
X169625215Y-67731090D01*
X169874038Y-67770500D01*
X169874039Y-67770500D01*
X170125961Y-67770500D01*
X170125962Y-67770500D01*
X170374785Y-67731090D01*
X170614379Y-67653241D01*
X170838845Y-67538870D01*
X171042656Y-67390793D01*
X171220793Y-67212656D01*
X171368870Y-67008845D01*
X171483241Y-66784379D01*
X171561090Y-66544785D01*
X171600500Y-66295962D01*
X171600500Y-66044038D01*
X171561090Y-65795215D01*
X171483241Y-65555621D01*
X171483239Y-65555618D01*
X171483239Y-65555616D01*
X171379670Y-65352352D01*
X171368870Y-65331155D01*
X171235545Y-65147648D01*
X171220798Y-65127350D01*
X171220794Y-65127345D01*
X171042654Y-64949205D01*
X171042649Y-64949201D01*
X170838848Y-64801132D01*
X170838847Y-64801131D01*
X170838845Y-64801130D01*
X170768747Y-64765413D01*
X170614383Y-64686760D01*
X170374785Y-64608910D01*
X170125962Y-64569500D01*
X169874038Y-64569500D01*
X169749626Y-64589205D01*
X169625214Y-64608910D01*
X169385616Y-64686760D01*
X169161151Y-64801132D01*
X168957350Y-64949201D01*
X168957345Y-64949205D01*
X168779205Y-65127345D01*
X168779201Y-65127350D01*
X168631132Y-65331151D01*
X168516760Y-65555616D01*
X168438910Y-65795214D01*
X168414159Y-65951485D01*
X168399500Y-66044038D01*
X167165198Y-66044038D01*
X167257751Y-65951485D01*
X168081892Y-65127344D01*
X168980520Y-64228716D01*
X169059577Y-64091784D01*
X169100501Y-63939057D01*
X169100501Y-63780942D01*
X169100501Y-63773347D01*
X169100500Y-63773329D01*
X169100500Y-61202135D01*
X186649500Y-61202135D01*
X186649500Y-63297870D01*
X186649501Y-63297876D01*
X186655908Y-63357483D01*
X186706202Y-63492328D01*
X186706206Y-63492335D01*
X186792452Y-63607544D01*
X186792455Y-63607547D01*
X186907664Y-63693793D01*
X186907671Y-63693797D01*
X187042517Y-63744091D01*
X187042516Y-63744091D01*
X187049444Y-63744835D01*
X187102127Y-63750500D01*
X190397872Y-63750499D01*
X190457483Y-63744091D01*
X190592331Y-63693796D01*
X190707546Y-63607546D01*
X190793796Y-63492331D01*
X190844091Y-63357483D01*
X190850500Y-63297873D01*
X190850499Y-61202128D01*
X190844091Y-61142517D01*
X190797729Y-61018215D01*
X190793797Y-61007671D01*
X190793793Y-61007664D01*
X190707547Y-60892455D01*
X190707544Y-60892452D01*
X190592335Y-60806206D01*
X190592328Y-60806202D01*
X190457482Y-60755908D01*
X190457483Y-60755908D01*
X190397883Y-60749501D01*
X190397881Y-60749500D01*
X190397873Y-60749500D01*
X190397864Y-60749500D01*
X187102129Y-60749500D01*
X187102123Y-60749501D01*
X187042516Y-60755908D01*
X186907671Y-60806202D01*
X186907664Y-60806206D01*
X186792455Y-60892452D01*
X186792452Y-60892455D01*
X186706206Y-61007664D01*
X186706202Y-61007671D01*
X186655908Y-61142517D01*
X186649501Y-61202116D01*
X186649501Y-61202123D01*
X186649500Y-61202135D01*
X169100500Y-61202135D01*
X169100500Y-56800097D01*
X169120185Y-56733058D01*
X169136819Y-56712416D01*
X169428292Y-56420943D01*
X169865893Y-55983341D01*
X169927214Y-55949858D01*
X169996905Y-55954842D01*
X170052839Y-55996714D01*
X170077256Y-56062178D01*
X170075467Y-56084667D01*
X170076738Y-56084804D01*
X170075909Y-56092516D01*
X170075909Y-56092517D01*
X170069501Y-56152123D01*
X170069500Y-56152135D01*
X170069500Y-57847870D01*
X170069501Y-57847876D01*
X170075908Y-57907483D01*
X170126202Y-58042328D01*
X170126206Y-58042335D01*
X170212452Y-58157544D01*
X170212455Y-58157547D01*
X170327664Y-58243793D01*
X170327671Y-58243797D01*
X170462517Y-58294091D01*
X170462516Y-58294091D01*
X170469444Y-58294835D01*
X170522127Y-58300500D01*
X172217872Y-58300499D01*
X172277483Y-58294091D01*
X172412331Y-58243796D01*
X172527546Y-58157546D01*
X172613796Y-58042331D01*
X172664091Y-57907483D01*
X172670500Y-57847873D01*
X172670499Y-56152128D01*
X172664091Y-56092517D01*
X172661214Y-56084804D01*
X172613797Y-55957671D01*
X172613793Y-55957664D01*
X172527547Y-55842455D01*
X172527544Y-55842452D01*
X172412335Y-55756206D01*
X172412328Y-55756202D01*
X172277482Y-55705908D01*
X172277483Y-55705908D01*
X172217883Y-55699501D01*
X172217881Y-55699500D01*
X172217873Y-55699500D01*
X172217864Y-55699500D01*
X170522129Y-55699500D01*
X170522123Y-55699501D01*
X170454804Y-55706738D01*
X170454450Y-55703450D01*
X170399710Y-55700487D01*
X170343059Y-55659590D01*
X170317513Y-55594558D01*
X170331180Y-55526038D01*
X170353342Y-55495893D01*
X171230520Y-54618716D01*
X171309577Y-54481784D01*
X171350501Y-54329057D01*
X171350501Y-54170942D01*
X171350501Y-54163347D01*
X171350500Y-54163329D01*
X171350500Y-52856031D01*
X171370185Y-52788992D01*
X171422989Y-52743237D01*
X171492147Y-52733293D01*
X171555703Y-52762318D01*
X171584984Y-52799736D01*
X171598768Y-52826788D01*
X171700586Y-52966928D01*
X171823072Y-53089414D01*
X171963212Y-53191232D01*
X172117555Y-53269873D01*
X172282299Y-53323402D01*
X172453389Y-53350500D01*
X172453390Y-53350500D01*
X172626610Y-53350500D01*
X172626611Y-53350500D01*
X172797701Y-53323402D01*
X172962445Y-53269873D01*
X173116788Y-53191232D01*
X173239419Y-53102135D01*
X179749500Y-53102135D01*
X179749500Y-55197870D01*
X179749501Y-55197876D01*
X179755908Y-55257483D01*
X179806202Y-55392328D01*
X179806206Y-55392335D01*
X179892452Y-55507544D01*
X179892455Y-55507547D01*
X180010198Y-55595690D01*
X180052069Y-55651623D01*
X180057053Y-55721315D01*
X180036205Y-55767841D01*
X179966659Y-55863563D01*
X179859433Y-56074003D01*
X179786446Y-56298631D01*
X179749500Y-56531902D01*
X179749500Y-56768097D01*
X179786446Y-57001368D01*
X179859433Y-57225996D01*
X179966657Y-57436433D01*
X180105483Y-57627510D01*
X180105485Y-57627512D01*
X180272490Y-57794517D01*
X180279603Y-57799685D01*
X180322266Y-57855017D01*
X180328242Y-57924630D01*
X180295634Y-57986424D01*
X180279603Y-58000315D01*
X180272490Y-58005482D01*
X180105485Y-58172487D01*
X180105485Y-58172488D01*
X180105483Y-58172490D01*
X180053678Y-58243793D01*
X179966657Y-58363566D01*
X179859433Y-58574003D01*
X179786446Y-58798631D01*
X179749500Y-59031902D01*
X179749500Y-59268097D01*
X179786446Y-59501368D01*
X179859433Y-59725996D01*
X179966657Y-59936433D01*
X180105483Y-60127510D01*
X180272490Y-60294517D01*
X180463567Y-60433343D01*
X180562991Y-60484002D01*
X180674003Y-60540566D01*
X180674005Y-60540566D01*
X180674008Y-60540568D01*
X180794412Y-60579689D01*
X180898631Y-60613553D01*
X181131903Y-60650500D01*
X181131908Y-60650500D01*
X181368097Y-60650500D01*
X181601368Y-60613553D01*
X181825992Y-60540568D01*
X182036433Y-60433343D01*
X182227510Y-60294517D01*
X182394517Y-60127510D01*
X182533343Y-59936433D01*
X182640568Y-59725992D01*
X182713553Y-59501368D01*
X182726257Y-59421158D01*
X182750500Y-59268097D01*
X182750500Y-59031902D01*
X182713553Y-58798631D01*
X182651534Y-58607758D01*
X182640568Y-58574008D01*
X182640566Y-58574005D01*
X182640566Y-58574003D01*
X182533342Y-58363566D01*
X182394517Y-58172490D01*
X182227510Y-58005483D01*
X182220401Y-58000318D01*
X182177735Y-57944988D01*
X182171756Y-57875375D01*
X182204362Y-57813580D01*
X182220401Y-57799682D01*
X182220500Y-57799609D01*
X182227510Y-57794517D01*
X182394517Y-57627510D01*
X182533343Y-57436433D01*
X182640568Y-57225992D01*
X182713553Y-57001368D01*
X182729981Y-56897648D01*
X182750500Y-56768097D01*
X182750500Y-56531902D01*
X182713553Y-56298631D01*
X182666165Y-56152787D01*
X182640568Y-56074008D01*
X182640566Y-56074005D01*
X182640566Y-56074003D01*
X182581288Y-55957664D01*
X182533343Y-55863567D01*
X182463793Y-55767840D01*
X182440314Y-55702036D01*
X182456139Y-55633982D01*
X182489801Y-55595689D01*
X182492328Y-55593796D01*
X182492331Y-55593796D01*
X182607546Y-55507546D01*
X182693796Y-55392331D01*
X182744091Y-55257483D01*
X182750500Y-55197873D01*
X182750499Y-53102128D01*
X182744091Y-53042517D01*
X182730278Y-53005483D01*
X182693797Y-52907671D01*
X182693793Y-52907664D01*
X182607547Y-52792455D01*
X182607544Y-52792452D01*
X182492335Y-52706206D01*
X182492328Y-52706202D01*
X182357482Y-52655908D01*
X182357483Y-52655908D01*
X182297883Y-52649501D01*
X182297881Y-52649500D01*
X182297873Y-52649500D01*
X182297864Y-52649500D01*
X180202129Y-52649500D01*
X180202123Y-52649501D01*
X180142516Y-52655908D01*
X180007671Y-52706202D01*
X180007664Y-52706206D01*
X179892455Y-52792452D01*
X179892452Y-52792455D01*
X179806206Y-52907664D01*
X179806202Y-52907671D01*
X179755908Y-53042517D01*
X179749501Y-53102116D01*
X179749501Y-53102123D01*
X179749500Y-53102135D01*
X173239419Y-53102135D01*
X173256928Y-53089414D01*
X173379414Y-52966928D01*
X173481232Y-52826788D01*
X173559873Y-52672445D01*
X173613402Y-52507701D01*
X173640500Y-52336611D01*
X173640500Y-52163389D01*
X173613402Y-51992299D01*
X173559873Y-51827555D01*
X173481232Y-51673212D01*
X173379414Y-51533072D01*
X173256928Y-51410586D01*
X173116788Y-51308768D01*
X172962445Y-51230127D01*
X172797701Y-51176598D01*
X172797699Y-51176597D01*
X172797698Y-51176597D01*
X172666271Y-51155781D01*
X172626611Y-51149500D01*
X172453389Y-51149500D01*
X172413728Y-51155781D01*
X172282302Y-51176597D01*
X172117552Y-51230128D01*
X171963211Y-51308768D01*
X171906289Y-51350125D01*
X171823072Y-51410586D01*
X171823070Y-51410588D01*
X171823069Y-51410588D01*
X171700588Y-51533069D01*
X171700588Y-51533070D01*
X171700586Y-51533072D01*
X171667332Y-51578842D01*
X171598768Y-51673211D01*
X171584985Y-51700263D01*
X171537011Y-51751059D01*
X171469190Y-51767854D01*
X171403055Y-51745317D01*
X171359603Y-51690602D01*
X171350500Y-51643968D01*
X171350500Y-50550096D01*
X171370185Y-50483057D01*
X171386814Y-50462420D01*
X172608506Y-49240727D01*
X172608511Y-49240724D01*
X172618714Y-49230520D01*
X172618716Y-49230520D01*
X172730520Y-49118716D01*
X172809577Y-48981784D01*
X172850500Y-48829057D01*
X172850500Y-44503439D01*
X172870185Y-44436400D01*
X172922989Y-44390645D01*
X172992147Y-44380701D01*
X173055703Y-44409726D01*
X173077602Y-44434548D01*
X173128210Y-44510288D01*
X173128213Y-44510292D01*
X173239707Y-44621786D01*
X173239711Y-44621789D01*
X173370814Y-44709390D01*
X173370827Y-44709397D01*
X173516498Y-44769735D01*
X173516503Y-44769737D01*
X173671153Y-44800499D01*
X173671156Y-44800500D01*
X173671158Y-44800500D01*
X173828844Y-44800500D01*
X173828845Y-44800499D01*
X173983497Y-44769737D01*
X174129179Y-44709394D01*
X174129185Y-44709390D01*
X174260875Y-44621398D01*
X174327553Y-44600520D01*
X174329766Y-44600500D01*
X175199903Y-44600500D01*
X175266942Y-44620185D01*
X175287584Y-44636819D01*
X183865139Y-53214374D01*
X183865149Y-53214385D01*
X183869479Y-53218715D01*
X183869480Y-53218716D01*
X183981284Y-53330520D01*
X184038523Y-53363566D01*
X184068095Y-53380639D01*
X184068097Y-53380641D01*
X184106151Y-53402611D01*
X184118215Y-53409577D01*
X184270943Y-53450501D01*
X184270946Y-53450501D01*
X184436653Y-53450501D01*
X184436669Y-53450500D01*
X189149903Y-53450500D01*
X189216942Y-53470185D01*
X189237584Y-53486819D01*
X194297200Y-58546435D01*
X194330685Y-58607758D01*
X194327450Y-58672433D01*
X194286447Y-58798628D01*
X194249500Y-59031902D01*
X194249500Y-59268097D01*
X194286446Y-59501368D01*
X194359433Y-59725996D01*
X194466657Y-59936433D01*
X194605483Y-60127510D01*
X194772490Y-60294517D01*
X194963567Y-60433343D01*
X195062991Y-60484002D01*
X195174003Y-60540566D01*
X195174005Y-60540566D01*
X195174008Y-60540568D01*
X195294412Y-60579689D01*
X195398631Y-60613553D01*
X195631903Y-60650500D01*
X195631908Y-60650500D01*
X195868097Y-60650500D01*
X196101368Y-60613553D01*
X196325992Y-60540568D01*
X196536433Y-60433343D01*
X196727510Y-60294517D01*
X196894517Y-60127510D01*
X197033343Y-59936433D01*
X197140568Y-59725992D01*
X197213553Y-59501368D01*
X197226257Y-59421158D01*
X197250500Y-59268097D01*
X197250500Y-59031902D01*
X197213553Y-58798631D01*
X197151534Y-58607758D01*
X197140568Y-58574008D01*
X197140566Y-58574005D01*
X197140566Y-58574003D01*
X197033342Y-58363566D01*
X196894517Y-58172490D01*
X196727510Y-58005483D01*
X196536433Y-57866657D01*
X196499587Y-57847883D01*
X196325996Y-57759433D01*
X196101368Y-57686446D01*
X195868097Y-57649500D01*
X195868092Y-57649500D01*
X195631908Y-57649500D01*
X195631903Y-57649500D01*
X195398628Y-57686447D01*
X195272433Y-57727450D01*
X195202592Y-57729445D01*
X195146435Y-57697200D01*
X191481137Y-54031902D01*
X194249500Y-54031902D01*
X194249500Y-54268097D01*
X194286446Y-54501368D01*
X194359433Y-54725996D01*
X194466657Y-54936433D01*
X194605483Y-55127510D01*
X194772490Y-55294517D01*
X194963567Y-55433343D01*
X195062991Y-55484002D01*
X195174003Y-55540566D01*
X195174005Y-55540566D01*
X195174008Y-55540568D01*
X195294412Y-55579689D01*
X195398631Y-55613553D01*
X195631903Y-55650500D01*
X195631908Y-55650500D01*
X195868097Y-55650500D01*
X196101368Y-55613553D01*
X196325992Y-55540568D01*
X196536433Y-55433343D01*
X196727510Y-55294517D01*
X196894517Y-55127510D01*
X197033343Y-54936433D01*
X197140568Y-54725992D01*
X197166024Y-54647648D01*
X198199500Y-54647648D01*
X198199500Y-54852351D01*
X198231522Y-55054534D01*
X198294781Y-55249223D01*
X198358691Y-55374653D01*
X198367701Y-55392335D01*
X198387715Y-55431613D01*
X198508028Y-55597213D01*
X198652786Y-55741971D01*
X198791089Y-55842452D01*
X198818390Y-55862287D01*
X198934607Y-55921503D01*
X199000776Y-55955218D01*
X199000778Y-55955218D01*
X199000781Y-55955220D01*
X199087335Y-55983343D01*
X199195465Y-56018477D01*
X199296557Y-56034488D01*
X199397648Y-56050500D01*
X199397649Y-56050500D01*
X199602351Y-56050500D01*
X199602352Y-56050500D01*
X199804534Y-56018477D01*
X199999219Y-55955220D01*
X200181610Y-55862287D01*
X200274590Y-55794732D01*
X200347213Y-55741971D01*
X200347215Y-55741968D01*
X200347219Y-55741966D01*
X200491966Y-55597219D01*
X200491968Y-55597215D01*
X200491971Y-55597213D01*
X200557119Y-55507543D01*
X200612287Y-55431610D01*
X200705220Y-55249219D01*
X200768477Y-55054534D01*
X200800500Y-54852352D01*
X200800500Y-54647648D01*
X200774230Y-54481790D01*
X200768477Y-54445465D01*
X200730653Y-54329055D01*
X200705220Y-54250781D01*
X200705218Y-54250778D01*
X200705218Y-54250776D01*
X200660661Y-54163329D01*
X200612287Y-54068390D01*
X200589905Y-54037583D01*
X200491971Y-53902786D01*
X200347213Y-53758028D01*
X200181613Y-53637715D01*
X200181612Y-53637714D01*
X200181610Y-53637713D01*
X200124653Y-53608691D01*
X199999223Y-53544781D01*
X199804534Y-53481522D01*
X199629995Y-53453878D01*
X199602352Y-53449500D01*
X199397648Y-53449500D01*
X199373329Y-53453351D01*
X199195465Y-53481522D01*
X199000776Y-53544781D01*
X198818386Y-53637715D01*
X198652786Y-53758028D01*
X198508028Y-53902786D01*
X198387715Y-54068386D01*
X198294781Y-54250776D01*
X198231522Y-54445465D01*
X198199500Y-54647648D01*
X197166024Y-54647648D01*
X197213553Y-54501368D01*
X197231883Y-54385638D01*
X197250500Y-54268097D01*
X197250500Y-54031902D01*
X197213553Y-53798631D01*
X197140566Y-53574003D01*
X197077638Y-53450501D01*
X197033343Y-53363567D01*
X196894517Y-53172490D01*
X196727510Y-53005483D01*
X196536433Y-52866657D01*
X196458186Y-52826788D01*
X196325996Y-52759433D01*
X196101368Y-52686446D01*
X195868097Y-52649500D01*
X195868092Y-52649500D01*
X195631908Y-52649500D01*
X195631903Y-52649500D01*
X195398631Y-52686446D01*
X195174003Y-52759433D01*
X194963566Y-52866657D01*
X194907119Y-52907669D01*
X194772490Y-53005483D01*
X194772488Y-53005485D01*
X194772487Y-53005485D01*
X194605485Y-53172487D01*
X194605485Y-53172488D01*
X194605483Y-53172490D01*
X194571900Y-53218713D01*
X194466657Y-53363566D01*
X194359433Y-53574003D01*
X194286446Y-53798631D01*
X194249500Y-54031902D01*
X191481137Y-54031902D01*
X190211415Y-52762180D01*
X190177930Y-52700857D01*
X190182914Y-52631165D01*
X190224786Y-52575232D01*
X190290250Y-52550815D01*
X190299096Y-52550499D01*
X190397871Y-52550499D01*
X190397872Y-52550499D01*
X190457483Y-52544091D01*
X190592331Y-52493796D01*
X190707546Y-52407546D01*
X190793796Y-52292331D01*
X190844091Y-52157483D01*
X190850500Y-52097873D01*
X190850499Y-51421153D01*
X192949500Y-51421153D01*
X192949500Y-51578846D01*
X192980261Y-51733489D01*
X192980264Y-51733501D01*
X193040602Y-51879172D01*
X193040609Y-51879185D01*
X193128210Y-52010288D01*
X193128213Y-52010292D01*
X193239707Y-52121786D01*
X193239711Y-52121789D01*
X193370814Y-52209390D01*
X193370827Y-52209397D01*
X193425742Y-52232143D01*
X193516503Y-52269737D01*
X193671153Y-52300499D01*
X193671156Y-52300500D01*
X193671158Y-52300500D01*
X193828844Y-52300500D01*
X193828845Y-52300499D01*
X193983497Y-52269737D01*
X194129179Y-52209394D01*
X194260289Y-52121789D01*
X194371789Y-52010289D01*
X194459394Y-51879179D01*
X194519737Y-51733497D01*
X194550500Y-51578842D01*
X194550500Y-51421158D01*
X194550500Y-51421155D01*
X194550499Y-51421153D01*
X194548397Y-51410586D01*
X194519737Y-51266503D01*
X194519735Y-51266498D01*
X194459397Y-51120827D01*
X194459390Y-51120814D01*
X194371789Y-50989711D01*
X194371786Y-50989707D01*
X194260292Y-50878213D01*
X194260288Y-50878210D01*
X194129185Y-50790609D01*
X194129172Y-50790602D01*
X193983501Y-50730264D01*
X193983489Y-50730261D01*
X193828845Y-50699500D01*
X193828842Y-50699500D01*
X193671158Y-50699500D01*
X193671155Y-50699500D01*
X193516510Y-50730261D01*
X193516498Y-50730264D01*
X193370827Y-50790602D01*
X193370814Y-50790609D01*
X193239711Y-50878210D01*
X193239707Y-50878213D01*
X193128213Y-50989707D01*
X193128210Y-50989711D01*
X193040609Y-51120814D01*
X193040602Y-51120827D01*
X192980264Y-51266498D01*
X192980261Y-51266510D01*
X192949500Y-51421153D01*
X190850499Y-51421153D01*
X190850499Y-50997006D01*
X190850499Y-50002129D01*
X190850498Y-50002123D01*
X190850497Y-50002116D01*
X190844091Y-49942517D01*
X190804348Y-49835961D01*
X190793797Y-49807671D01*
X190793793Y-49807664D01*
X190707547Y-49692455D01*
X190707544Y-49692452D01*
X190592335Y-49606206D01*
X190592328Y-49606202D01*
X190457482Y-49555908D01*
X190457483Y-49555908D01*
X190397883Y-49549501D01*
X190397881Y-49549500D01*
X190397873Y-49549500D01*
X190397864Y-49549500D01*
X187102129Y-49549500D01*
X187102123Y-49549501D01*
X187042516Y-49555908D01*
X186907671Y-49606202D01*
X186907664Y-49606206D01*
X186792455Y-49692452D01*
X186792452Y-49692455D01*
X186706206Y-49807664D01*
X186706202Y-49807671D01*
X186655908Y-49942517D01*
X186649782Y-49999500D01*
X186649501Y-50002123D01*
X186649500Y-50002135D01*
X186649500Y-52097870D01*
X186649501Y-52097878D01*
X186651046Y-52112248D01*
X186638639Y-52181007D01*
X186591027Y-52232143D01*
X186527756Y-52249500D01*
X184650097Y-52249500D01*
X184583058Y-52229815D01*
X184562416Y-52213181D01*
X175987590Y-43638355D01*
X175987588Y-43638352D01*
X175868717Y-43519481D01*
X175868716Y-43519480D01*
X175781904Y-43469360D01*
X175781904Y-43469359D01*
X175781900Y-43469358D01*
X175731785Y-43440423D01*
X175579057Y-43399499D01*
X175420943Y-43399499D01*
X175413347Y-43399499D01*
X175413331Y-43399500D01*
X174329766Y-43399500D01*
X174262727Y-43379815D01*
X174260875Y-43378602D01*
X174129185Y-43290609D01*
X174129172Y-43290602D01*
X173983501Y-43230264D01*
X173983489Y-43230261D01*
X173828845Y-43199500D01*
X173828842Y-43199500D01*
X173671158Y-43199500D01*
X173671155Y-43199500D01*
X173516510Y-43230261D01*
X173516498Y-43230264D01*
X173370827Y-43290602D01*
X173370814Y-43290609D01*
X173239711Y-43378210D01*
X173239707Y-43378213D01*
X173128213Y-43489707D01*
X173128210Y-43489711D01*
X173077602Y-43565451D01*
X173023989Y-43610256D01*
X172954664Y-43618963D01*
X172891637Y-43588808D01*
X172854918Y-43529365D01*
X172850500Y-43496560D01*
X172850500Y-40600096D01*
X172870185Y-40533057D01*
X172886814Y-40512420D01*
X181029544Y-32369689D01*
X181090865Y-32336206D01*
X181160557Y-32341190D01*
X181216490Y-32383062D01*
X181240907Y-32448526D01*
X181239697Y-32476765D01*
X181237500Y-32490639D01*
X181237500Y-32689361D01*
X181247502Y-32752512D01*
X181268587Y-32885637D01*
X181329993Y-33074629D01*
X181329994Y-33074632D01*
X181420213Y-33251694D01*
X181537019Y-33412464D01*
X181677536Y-33552981D01*
X181838306Y-33669787D01*
X181956832Y-33730179D01*
X181994780Y-33749515D01*
X182045576Y-33797490D01*
X182062371Y-33865311D01*
X182039833Y-33931446D01*
X181994780Y-33970485D01*
X181838305Y-34050213D01*
X181677533Y-34167021D01*
X181537021Y-34307533D01*
X181420213Y-34468305D01*
X181329994Y-34645367D01*
X181329993Y-34645370D01*
X181268587Y-34834362D01*
X181237500Y-35030639D01*
X181237500Y-35229360D01*
X181268586Y-35425636D01*
X181269131Y-35427903D01*
X181269086Y-35428790D01*
X181269349Y-35430448D01*
X181269000Y-35430503D01*
X181265638Y-35497685D01*
X181236237Y-35544526D01*
X179631286Y-37149478D01*
X179519481Y-37261282D01*
X179519477Y-37261287D01*
X179480476Y-37328841D01*
X179480476Y-37328842D01*
X179440423Y-37398214D01*
X179440423Y-37398215D01*
X179399499Y-37550943D01*
X179399499Y-37550945D01*
X179399499Y-37719046D01*
X179399500Y-37719059D01*
X179399500Y-45420234D01*
X179379815Y-45487273D01*
X179378602Y-45489125D01*
X179290609Y-45620814D01*
X179290602Y-45620827D01*
X179230264Y-45766498D01*
X179230261Y-45766510D01*
X179199500Y-45921153D01*
X179199500Y-46078846D01*
X179230261Y-46233489D01*
X179230264Y-46233501D01*
X179290602Y-46379172D01*
X179290609Y-46379185D01*
X179378210Y-46510288D01*
X179378213Y-46510292D01*
X179489707Y-46621786D01*
X179489711Y-46621789D01*
X179620814Y-46709390D01*
X179620827Y-46709397D01*
X179766498Y-46769735D01*
X179766503Y-46769737D01*
X179894584Y-46795214D01*
X179921153Y-46800499D01*
X179921156Y-46800500D01*
X179921158Y-46800500D01*
X180078844Y-46800500D01*
X180078845Y-46800499D01*
X180233497Y-46769737D01*
X180379179Y-46709394D01*
X180510289Y-46621789D01*
X180621789Y-46510289D01*
X180709394Y-46379179D01*
X180715092Y-46365424D01*
X180749591Y-46282135D01*
X198199500Y-46282135D01*
X198199500Y-47977870D01*
X198199501Y-47977876D01*
X198205908Y-48037483D01*
X198256202Y-48172328D01*
X198256206Y-48172335D01*
X198342452Y-48287544D01*
X198342455Y-48287547D01*
X198457664Y-48373793D01*
X198457671Y-48373797D01*
X198592517Y-48424091D01*
X198592516Y-48424091D01*
X198599444Y-48424835D01*
X198652127Y-48430500D01*
X200347872Y-48430499D01*
X200407483Y-48424091D01*
X200542331Y-48373796D01*
X200657546Y-48287546D01*
X200743796Y-48172331D01*
X200794091Y-48037483D01*
X200800500Y-47977873D01*
X200800499Y-46282128D01*
X200794091Y-46222517D01*
X200743796Y-46087669D01*
X200743795Y-46087668D01*
X200743793Y-46087664D01*
X200657547Y-45972455D01*
X200657544Y-45972452D01*
X200542335Y-45886206D01*
X200542328Y-45886202D01*
X200407482Y-45835908D01*
X200407483Y-45835908D01*
X200347883Y-45829501D01*
X200347881Y-45829500D01*
X200347873Y-45829500D01*
X200347864Y-45829500D01*
X198652129Y-45829500D01*
X198652123Y-45829501D01*
X198592516Y-45835908D01*
X198457671Y-45886202D01*
X198457664Y-45886206D01*
X198342455Y-45972452D01*
X198342452Y-45972455D01*
X198256206Y-46087664D01*
X198256202Y-46087671D01*
X198205908Y-46222517D01*
X198199501Y-46282116D01*
X198199501Y-46282123D01*
X198199500Y-46282135D01*
X180749591Y-46282135D01*
X180769735Y-46233502D01*
X180769735Y-46233501D01*
X180769737Y-46233497D01*
X180800500Y-46078842D01*
X180800500Y-45921158D01*
X180800500Y-45921155D01*
X180800499Y-45921153D01*
X180769737Y-45766503D01*
X180736707Y-45686760D01*
X180709397Y-45620827D01*
X180709390Y-45620814D01*
X180621398Y-45489125D01*
X180600520Y-45422447D01*
X180600500Y-45420234D01*
X180600500Y-37930096D01*
X180620185Y-37863057D01*
X180636815Y-37842419D01*
X181029545Y-37449689D01*
X181090865Y-37416206D01*
X181160556Y-37421190D01*
X181216490Y-37463061D01*
X181240907Y-37528526D01*
X181239697Y-37556765D01*
X181237500Y-37570639D01*
X181237500Y-37769360D01*
X181268587Y-37965637D01*
X181329993Y-38154629D01*
X181329994Y-38154632D01*
X181367526Y-38228291D01*
X181420213Y-38331694D01*
X181537019Y-38492464D01*
X181677536Y-38632981D01*
X181838306Y-38749787D01*
X181941708Y-38802473D01*
X181994780Y-38829515D01*
X182045576Y-38877490D01*
X182062371Y-38945311D01*
X182039833Y-39011446D01*
X181994780Y-39050485D01*
X181838305Y-39130213D01*
X181677533Y-39247021D01*
X181537021Y-39387533D01*
X181420213Y-39548305D01*
X181329994Y-39725367D01*
X181329993Y-39725370D01*
X181268587Y-39914362D01*
X181237500Y-40110639D01*
X181237500Y-40309360D01*
X181268587Y-40505637D01*
X181329993Y-40694629D01*
X181329994Y-40694632D01*
X181337237Y-40708846D01*
X181420213Y-40871694D01*
X181537019Y-41032464D01*
X181677536Y-41172981D01*
X181838306Y-41289787D01*
X181935657Y-41339390D01*
X181994780Y-41369515D01*
X182045576Y-41417490D01*
X182062371Y-41485311D01*
X182039833Y-41551446D01*
X181994780Y-41590485D01*
X181838305Y-41670213D01*
X181677533Y-41787021D01*
X181537021Y-41927533D01*
X181420213Y-42088305D01*
X181329994Y-42265367D01*
X181329993Y-42265370D01*
X181268587Y-42454362D01*
X181237500Y-42650639D01*
X181237500Y-42849360D01*
X181268587Y-43045637D01*
X181329993Y-43234629D01*
X181329994Y-43234632D01*
X181403352Y-43378602D01*
X181420213Y-43411694D01*
X181537019Y-43572464D01*
X181677536Y-43712981D01*
X181838306Y-43829787D01*
X181903845Y-43863181D01*
X182015367Y-43920005D01*
X182015370Y-43920006D01*
X182109866Y-43950709D01*
X182204364Y-43981413D01*
X182400639Y-44012500D01*
X182400640Y-44012500D01*
X182599360Y-44012500D01*
X182599361Y-44012500D01*
X182795636Y-43981413D01*
X182984632Y-43920005D01*
X183161694Y-43829787D01*
X183322464Y-43712981D01*
X183462981Y-43572464D01*
X183579787Y-43411694D01*
X183670005Y-43234632D01*
X183731413Y-43045636D01*
X183762500Y-42849361D01*
X183762500Y-42650639D01*
X183731413Y-42454364D01*
X183670005Y-42265368D01*
X183670005Y-42265367D01*
X183579786Y-42088305D01*
X183462981Y-41927536D01*
X183322464Y-41787019D01*
X183161694Y-41670213D01*
X183005218Y-41590484D01*
X182954423Y-41542510D01*
X182937628Y-41474689D01*
X182960165Y-41408554D01*
X183005218Y-41369515D01*
X183161694Y-41289787D01*
X183322464Y-41172981D01*
X183462981Y-41032464D01*
X183579787Y-40871694D01*
X183670005Y-40694632D01*
X183731413Y-40505636D01*
X183762500Y-40309361D01*
X183762500Y-40110639D01*
X183731413Y-39914364D01*
X183731409Y-39914352D01*
X183730869Y-39912099D01*
X183730913Y-39911209D01*
X183730651Y-39909552D01*
X183730999Y-39909496D01*
X183734360Y-39842316D01*
X183763760Y-39795473D01*
X186118713Y-37440521D01*
X186118716Y-37440520D01*
X186230520Y-37328716D01*
X186280639Y-37241904D01*
X186309577Y-37191785D01*
X186350500Y-37039057D01*
X186350500Y-36880943D01*
X186350500Y-34079765D01*
X186370185Y-34012726D01*
X186371398Y-34010874D01*
X186459390Y-33879185D01*
X186459390Y-33879184D01*
X186459394Y-33879179D01*
X186519737Y-33733497D01*
X186550500Y-33578842D01*
X186550500Y-33421158D01*
X186550500Y-33421155D01*
X186550499Y-33421153D01*
X186538235Y-33359500D01*
X186519737Y-33266503D01*
X186513603Y-33251694D01*
X186459397Y-33120827D01*
X186459390Y-33120814D01*
X186371789Y-32989711D01*
X186371786Y-32989707D01*
X186260292Y-32878213D01*
X186260288Y-32878210D01*
X186129185Y-32790609D01*
X186129172Y-32790602D01*
X185983501Y-32730264D01*
X185983489Y-32730261D01*
X185828845Y-32699500D01*
X185828842Y-32699500D01*
X185671158Y-32699500D01*
X185671155Y-32699500D01*
X185516510Y-32730261D01*
X185516498Y-32730264D01*
X185370827Y-32790602D01*
X185370814Y-32790609D01*
X185239711Y-32878210D01*
X185239707Y-32878213D01*
X185128213Y-32989707D01*
X185128210Y-32989711D01*
X185040609Y-33120814D01*
X185040602Y-33120827D01*
X184980264Y-33266498D01*
X184980261Y-33266510D01*
X184949500Y-33421153D01*
X184949500Y-33578846D01*
X184980261Y-33733489D01*
X184980264Y-33733501D01*
X185040602Y-33879172D01*
X185040609Y-33879185D01*
X185128602Y-34010874D01*
X185149480Y-34077551D01*
X185149500Y-34079765D01*
X185149500Y-36659902D01*
X185129815Y-36726941D01*
X185113181Y-36747583D01*
X183970457Y-37890306D01*
X183909134Y-37923791D01*
X183839442Y-37918807D01*
X183783509Y-37876935D01*
X183759092Y-37811471D01*
X183760302Y-37783235D01*
X183762500Y-37769361D01*
X183762500Y-37570639D01*
X183731413Y-37374364D01*
X183670005Y-37185368D01*
X183670005Y-37185367D01*
X183595454Y-37039055D01*
X183579787Y-37008306D01*
X183462981Y-36847536D01*
X183322464Y-36707019D01*
X183161694Y-36590213D01*
X183005218Y-36510484D01*
X182954423Y-36462510D01*
X182937628Y-36394689D01*
X182960165Y-36328554D01*
X183005218Y-36289515D01*
X183161694Y-36209787D01*
X183322464Y-36092981D01*
X183462981Y-35952464D01*
X183579787Y-35791694D01*
X183670005Y-35614632D01*
X183731413Y-35425636D01*
X183762500Y-35229361D01*
X183762500Y-35030639D01*
X183731413Y-34834364D01*
X183677299Y-34667816D01*
X183670006Y-34645370D01*
X183670005Y-34645367D01*
X183605910Y-34519576D01*
X183579787Y-34468306D01*
X183462981Y-34307536D01*
X183322464Y-34167019D01*
X183161694Y-34050213D01*
X183005218Y-33970484D01*
X182954423Y-33922510D01*
X182937628Y-33854689D01*
X182960165Y-33788554D01*
X183005218Y-33749515D01*
X183161694Y-33669787D01*
X183322464Y-33552981D01*
X183462981Y-33412464D01*
X183579787Y-33251694D01*
X183670005Y-33074632D01*
X183731413Y-32885636D01*
X183762500Y-32689361D01*
X183762500Y-32490639D01*
X183731413Y-32294364D01*
X183670005Y-32105368D01*
X183670005Y-32105367D01*
X183579786Y-31928305D01*
X183462981Y-31767536D01*
X183322464Y-31627019D01*
X183161694Y-31510213D01*
X183005218Y-31430484D01*
X182954423Y-31382510D01*
X182937628Y-31314689D01*
X182960165Y-31248554D01*
X183005218Y-31209515D01*
X183161694Y-31129787D01*
X183322464Y-31012981D01*
X183462981Y-30872464D01*
X183579787Y-30711694D01*
X183670005Y-30534632D01*
X183731413Y-30345636D01*
X183762500Y-30149361D01*
X183762500Y-29950639D01*
X183731413Y-29754364D01*
X183670005Y-29565368D01*
X183670005Y-29565367D01*
X183624035Y-29475149D01*
X183579787Y-29388306D01*
X183462981Y-29227536D01*
X183322464Y-29087019D01*
X183161694Y-28970213D01*
X183005218Y-28890484D01*
X182954423Y-28842510D01*
X182937628Y-28774689D01*
X182960165Y-28708554D01*
X183005218Y-28669515D01*
X183161694Y-28589787D01*
X183322464Y-28472981D01*
X183462981Y-28332464D01*
X183579787Y-28171694D01*
X183670005Y-27994632D01*
X183731413Y-27805636D01*
X183762500Y-27609361D01*
X183762500Y-27410639D01*
X183731413Y-27214364D01*
X183670005Y-27025368D01*
X183670005Y-27025367D01*
X183579786Y-26848305D01*
X183542790Y-26797384D01*
X183519311Y-26731580D01*
X183535136Y-26663526D01*
X183585242Y-26614831D01*
X183643109Y-26600500D01*
X190849903Y-26600500D01*
X190916942Y-26620185D01*
X190937584Y-26636819D01*
X196476237Y-32175472D01*
X196509722Y-32236795D01*
X196509160Y-32289522D01*
X196509349Y-32289552D01*
X196509146Y-32290831D01*
X196509133Y-32292087D01*
X196508587Y-32294360D01*
X196484170Y-32448526D01*
X196477500Y-32490639D01*
X196477500Y-32689361D01*
X196487502Y-32752512D01*
X196508587Y-32885637D01*
X196569993Y-33074629D01*
X196569994Y-33074632D01*
X196660213Y-33251694D01*
X196777019Y-33412464D01*
X196917536Y-33552981D01*
X197078306Y-33669787D01*
X197196832Y-33730179D01*
X197234780Y-33749515D01*
X197285576Y-33797490D01*
X197302371Y-33865311D01*
X197279833Y-33931446D01*
X197234780Y-33970485D01*
X197078305Y-34050213D01*
X196917533Y-34167021D01*
X196777021Y-34307533D01*
X196660213Y-34468305D01*
X196569994Y-34645367D01*
X196569993Y-34645370D01*
X196508587Y-34834362D01*
X196477500Y-35030639D01*
X196477500Y-35229360D01*
X196508586Y-35425636D01*
X196509131Y-35427903D01*
X196509086Y-35428790D01*
X196509349Y-35430448D01*
X196509000Y-35430503D01*
X196505638Y-35497685D01*
X196476237Y-35544526D01*
X192251286Y-39769478D01*
X192139481Y-39881282D01*
X192139479Y-39881285D01*
X192120381Y-39914364D01*
X192089360Y-39968095D01*
X192060423Y-40018215D01*
X192051871Y-40050126D01*
X192047363Y-40059851D01*
X192034751Y-40074237D01*
X192022551Y-40095369D01*
X191998213Y-40119708D01*
X191998208Y-40119714D01*
X191910609Y-40250814D01*
X191910602Y-40250827D01*
X191850264Y-40396498D01*
X191850261Y-40396510D01*
X191819500Y-40551153D01*
X191819500Y-40708846D01*
X191850261Y-40863489D01*
X191850264Y-40863501D01*
X191910602Y-41009172D01*
X191910609Y-41009185D01*
X191998210Y-41140288D01*
X191998213Y-41140292D01*
X192109707Y-41251786D01*
X192109711Y-41251789D01*
X192240814Y-41339390D01*
X192240827Y-41339397D01*
X192338865Y-41380005D01*
X192386503Y-41399737D01*
X192541153Y-41430499D01*
X192541156Y-41430500D01*
X192541158Y-41430500D01*
X192698844Y-41430500D01*
X192698845Y-41430499D01*
X192853497Y-41399737D01*
X192999179Y-41339394D01*
X193130289Y-41251789D01*
X193241789Y-41140289D01*
X193329394Y-41009179D01*
X193389737Y-40863497D01*
X193420500Y-40708842D01*
X193420500Y-40551158D01*
X193420500Y-40551155D01*
X193402272Y-40459520D01*
X193391550Y-40405618D01*
X193397777Y-40336028D01*
X193425484Y-40293749D01*
X196269544Y-37449689D01*
X196330865Y-37416206D01*
X196400557Y-37421190D01*
X196456490Y-37463062D01*
X196480907Y-37528526D01*
X196479697Y-37556765D01*
X196477500Y-37570639D01*
X196477500Y-37769360D01*
X196508587Y-37965637D01*
X196569993Y-38154629D01*
X196569994Y-38154632D01*
X196607526Y-38228291D01*
X196660213Y-38331694D01*
X196777019Y-38492464D01*
X196917536Y-38632981D01*
X197078306Y-38749787D01*
X197181708Y-38802473D01*
X197234780Y-38829515D01*
X197285576Y-38877490D01*
X197302371Y-38945311D01*
X197279833Y-39011446D01*
X197234780Y-39050485D01*
X197078305Y-39130213D01*
X196917533Y-39247021D01*
X196777021Y-39387533D01*
X196660213Y-39548305D01*
X196569994Y-39725367D01*
X196569993Y-39725370D01*
X196508587Y-39914362D01*
X196477500Y-40110639D01*
X196477500Y-40309360D01*
X196508587Y-40505637D01*
X196569993Y-40694629D01*
X196569994Y-40694632D01*
X196577237Y-40708846D01*
X196660213Y-40871694D01*
X196777019Y-41032464D01*
X196917536Y-41172981D01*
X197078306Y-41289787D01*
X197175657Y-41339390D01*
X197234780Y-41369515D01*
X197285576Y-41417490D01*
X197302371Y-41485311D01*
X197279833Y-41551446D01*
X197234780Y-41590485D01*
X197078305Y-41670213D01*
X196917533Y-41787021D01*
X196777021Y-41927533D01*
X196660213Y-42088305D01*
X196569994Y-42265367D01*
X196569993Y-42265370D01*
X196508587Y-42454362D01*
X196477500Y-42650639D01*
X196477500Y-42849360D01*
X196508587Y-43045637D01*
X196569993Y-43234629D01*
X196569994Y-43234632D01*
X196643352Y-43378602D01*
X196660213Y-43411694D01*
X196777019Y-43572464D01*
X196917536Y-43712981D01*
X197078306Y-43829787D01*
X197143845Y-43863181D01*
X197255367Y-43920005D01*
X197255370Y-43920006D01*
X197349866Y-43950709D01*
X197444364Y-43981413D01*
X197640639Y-44012500D01*
X197640640Y-44012500D01*
X197839360Y-44012500D01*
X197839361Y-44012500D01*
X198035636Y-43981413D01*
X198224632Y-43920005D01*
X198401694Y-43829787D01*
X198562464Y-43712981D01*
X198702981Y-43572464D01*
X198819787Y-43411694D01*
X198910005Y-43234632D01*
X198971413Y-43045636D01*
X199002500Y-42849361D01*
X199002500Y-42650639D01*
X198971413Y-42454364D01*
X198910005Y-42265368D01*
X198910005Y-42265367D01*
X198819786Y-42088305D01*
X198702981Y-41927536D01*
X198562464Y-41787019D01*
X198401694Y-41670213D01*
X198245218Y-41590484D01*
X198194423Y-41542510D01*
X198177628Y-41474689D01*
X198200165Y-41408554D01*
X198245218Y-41369515D01*
X198401694Y-41289787D01*
X198562464Y-41172981D01*
X198702981Y-41032464D01*
X198819787Y-40871694D01*
X198910005Y-40694632D01*
X198971413Y-40505636D01*
X199002500Y-40309361D01*
X199002500Y-40110639D01*
X198971413Y-39914364D01*
X198910005Y-39725368D01*
X198910005Y-39725367D01*
X198819786Y-39548305D01*
X198702981Y-39387536D01*
X198562464Y-39247019D01*
X198401694Y-39130213D01*
X198245218Y-39050484D01*
X198194423Y-39002510D01*
X198177628Y-38934689D01*
X198200165Y-38868554D01*
X198245218Y-38829515D01*
X198401694Y-38749787D01*
X198562464Y-38632981D01*
X198702981Y-38492464D01*
X198819787Y-38331694D01*
X198910005Y-38154632D01*
X198971413Y-37965636D01*
X199002500Y-37769361D01*
X199002500Y-37570639D01*
X198971413Y-37374364D01*
X198910005Y-37185368D01*
X198910005Y-37185367D01*
X198835454Y-37039055D01*
X198819787Y-37008306D01*
X198702981Y-36847536D01*
X198562464Y-36707019D01*
X198401694Y-36590213D01*
X198245218Y-36510484D01*
X198194423Y-36462510D01*
X198177628Y-36394689D01*
X198200165Y-36328554D01*
X198245218Y-36289515D01*
X198401694Y-36209787D01*
X198562464Y-36092981D01*
X198702981Y-35952464D01*
X198819787Y-35791694D01*
X198910005Y-35614632D01*
X198971413Y-35425636D01*
X199002500Y-35229361D01*
X199002500Y-35030639D01*
X198971413Y-34834364D01*
X198917299Y-34667816D01*
X198910006Y-34645370D01*
X198910005Y-34645367D01*
X198845910Y-34519576D01*
X198819787Y-34468306D01*
X198702981Y-34307536D01*
X198562464Y-34167019D01*
X198401694Y-34050213D01*
X198245218Y-33970484D01*
X198194423Y-33922510D01*
X198177628Y-33854689D01*
X198200165Y-33788554D01*
X198245218Y-33749515D01*
X198401694Y-33669787D01*
X198562464Y-33552981D01*
X198702981Y-33412464D01*
X198819787Y-33251694D01*
X198910005Y-33074632D01*
X198971413Y-32885636D01*
X199002500Y-32689361D01*
X199002500Y-32490639D01*
X198971413Y-32294364D01*
X198910005Y-32105368D01*
X198910005Y-32105367D01*
X198819786Y-31928305D01*
X198702981Y-31767536D01*
X198562464Y-31627019D01*
X198401694Y-31510213D01*
X198244667Y-31430203D01*
X198193872Y-31382229D01*
X198177077Y-31314408D01*
X198199614Y-31248273D01*
X198244669Y-31209234D01*
X198401422Y-31129364D01*
X198438715Y-31102268D01*
X197824093Y-30487647D01*
X197911571Y-30464208D01*
X198012930Y-30405689D01*
X198095689Y-30322930D01*
X198154208Y-30221571D01*
X198177647Y-30134094D01*
X198792268Y-30748715D01*
X198819362Y-30711425D01*
X198909542Y-30534437D01*
X198970924Y-30345523D01*
X198970924Y-30345520D01*
X199002000Y-30149321D01*
X199002000Y-29950678D01*
X198970924Y-29754479D01*
X198970924Y-29754476D01*
X198909542Y-29565562D01*
X198819358Y-29388567D01*
X198792268Y-29351283D01*
X198177647Y-29965904D01*
X198154208Y-29878429D01*
X198095689Y-29777070D01*
X198012930Y-29694311D01*
X197911571Y-29635792D01*
X197824094Y-29612352D01*
X198438716Y-28997731D01*
X198438715Y-28997730D01*
X198401432Y-28970641D01*
X198244668Y-28890765D01*
X198193872Y-28842790D01*
X198177077Y-28774969D01*
X198199615Y-28708834D01*
X198244667Y-28669796D01*
X198401694Y-28589787D01*
X198562464Y-28472981D01*
X198702981Y-28332464D01*
X198819787Y-28171694D01*
X198910005Y-27994632D01*
X198971413Y-27805636D01*
X199002500Y-27609361D01*
X199002500Y-27410639D01*
X198971413Y-27214364D01*
X198910005Y-27025368D01*
X198910005Y-27025367D01*
X198819786Y-26848305D01*
X198702981Y-26687536D01*
X198562464Y-26547019D01*
X198401694Y-26430213D01*
X198224632Y-26339994D01*
X198224629Y-26339993D01*
X198035637Y-26278587D01*
X197937498Y-26263043D01*
X197839361Y-26247500D01*
X197640639Y-26247500D01*
X197575214Y-26257862D01*
X197444362Y-26278587D01*
X197255370Y-26339993D01*
X197255367Y-26339994D01*
X197078305Y-26430213D01*
X196917533Y-26547021D01*
X196777021Y-26687533D01*
X196660213Y-26848305D01*
X196569994Y-27025367D01*
X196569993Y-27025370D01*
X196508587Y-27214362D01*
X196477500Y-27410639D01*
X196477500Y-27609360D01*
X196508587Y-27805637D01*
X196569993Y-27994629D01*
X196569994Y-27994632D01*
X196660213Y-28171694D01*
X196777019Y-28332464D01*
X196917536Y-28472981D01*
X197078306Y-28589787D01*
X197235332Y-28669796D01*
X197286127Y-28717769D01*
X197302922Y-28785590D01*
X197280385Y-28851725D01*
X197235332Y-28890764D01*
X197078566Y-28970641D01*
X197041283Y-28997729D01*
X197041282Y-28997730D01*
X197655906Y-29612352D01*
X197568429Y-29635792D01*
X197467070Y-29694311D01*
X197384311Y-29777070D01*
X197325792Y-29878429D01*
X197302352Y-29965906D01*
X196687730Y-29351282D01*
X196687729Y-29351283D01*
X196660643Y-29388564D01*
X196570457Y-29565562D01*
X196509075Y-29754476D01*
X196509075Y-29754479D01*
X196478000Y-29950678D01*
X196478000Y-30149321D01*
X196480298Y-30163830D01*
X196471343Y-30233123D01*
X196426347Y-30286575D01*
X196359596Y-30307215D01*
X196292282Y-30288490D01*
X196270144Y-30270909D01*
X191637590Y-25638355D01*
X191637588Y-25638352D01*
X191518717Y-25519481D01*
X191518716Y-25519480D01*
X191431904Y-25469360D01*
X191431904Y-25469358D01*
X191431901Y-25469358D01*
X191393991Y-25447470D01*
X191345776Y-25396903D01*
X191332554Y-25328295D01*
X191358522Y-25263431D01*
X191415437Y-25222903D01*
X191456362Y-25216085D01*
X202626374Y-25249628D01*
X202693352Y-25269513D01*
X202738949Y-25322454D01*
X202750000Y-25373627D01*
X202750000Y-100875500D01*
X202747449Y-100884185D01*
X202748738Y-100893147D01*
X202737759Y-100917187D01*
X202730315Y-100942539D01*
X202723474Y-100948466D01*
X202719713Y-100956703D01*
X202697478Y-100970992D01*
X202677511Y-100988294D01*
X202666996Y-100990581D01*
X202660935Y-100994477D01*
X202626000Y-100999500D01*
X202583037Y-100999500D01*
X202582666Y-100999499D01*
X119374129Y-100750371D01*
X119307149Y-100730486D01*
X119261552Y-100677546D01*
X119250500Y-100626372D01*
X119250500Y-100598500D01*
X119250501Y-100598091D01*
X119256434Y-98800499D01*
X119262224Y-97046153D01*
X188574500Y-97046153D01*
X188574500Y-97203846D01*
X188605261Y-97358489D01*
X188605264Y-97358501D01*
X188665602Y-97504172D01*
X188665609Y-97504185D01*
X188753210Y-97635288D01*
X188753213Y-97635292D01*
X188864707Y-97746786D01*
X188864711Y-97746789D01*
X188995814Y-97834390D01*
X188995827Y-97834397D01*
X189141498Y-97894735D01*
X189141503Y-97894737D01*
X189206147Y-97907595D01*
X189296849Y-97925638D01*
X189358760Y-97958023D01*
X189360339Y-97959574D01*
X189765139Y-98364374D01*
X189765149Y-98364385D01*
X189769479Y-98368715D01*
X189769480Y-98368716D01*
X189881284Y-98480520D01*
X189932845Y-98510288D01*
X189968095Y-98530639D01*
X189968097Y-98530641D01*
X190006151Y-98552611D01*
X190018215Y-98559577D01*
X190170943Y-98600501D01*
X190170946Y-98600501D01*
X190336653Y-98600501D01*
X190336669Y-98600500D01*
X192670234Y-98600500D01*
X192737273Y-98620185D01*
X192739125Y-98621398D01*
X192870814Y-98709390D01*
X192870827Y-98709397D01*
X193016498Y-98769735D01*
X193016503Y-98769737D01*
X193171153Y-98800499D01*
X193171156Y-98800500D01*
X193171158Y-98800500D01*
X193328844Y-98800500D01*
X193328845Y-98800499D01*
X193483497Y-98769737D01*
X193629179Y-98709394D01*
X193760289Y-98621789D01*
X193871789Y-98510289D01*
X193959394Y-98379179D01*
X194019737Y-98233497D01*
X194050500Y-98078842D01*
X194050500Y-97921158D01*
X194050500Y-97921155D01*
X194050499Y-97921153D01*
X194045245Y-97894738D01*
X194019737Y-97766503D01*
X194011570Y-97746786D01*
X193959397Y-97620827D01*
X193959390Y-97620814D01*
X193871789Y-97489711D01*
X193871786Y-97489707D01*
X193760292Y-97378213D01*
X193760288Y-97378210D01*
X193629185Y-97290609D01*
X193629172Y-97290602D01*
X193483501Y-97230264D01*
X193483489Y-97230261D01*
X193328845Y-97199500D01*
X193328842Y-97199500D01*
X193171158Y-97199500D01*
X193171155Y-97199500D01*
X193016510Y-97230261D01*
X193016498Y-97230264D01*
X192870827Y-97290602D01*
X192870814Y-97290609D01*
X192739125Y-97378602D01*
X192672447Y-97399480D01*
X192670234Y-97399500D01*
X190550097Y-97399500D01*
X190483058Y-97379815D01*
X190462416Y-97363181D01*
X190209574Y-97110339D01*
X190176089Y-97049016D01*
X190175638Y-97046849D01*
X190144738Y-96891510D01*
X190144737Y-96891503D01*
X190144735Y-96891498D01*
X190084397Y-96745827D01*
X190084390Y-96745814D01*
X189996789Y-96614711D01*
X189996786Y-96614707D01*
X189885292Y-96503213D01*
X189885288Y-96503210D01*
X189754185Y-96415609D01*
X189754172Y-96415602D01*
X189608501Y-96355264D01*
X189608489Y-96355261D01*
X189453845Y-96324500D01*
X189453842Y-96324500D01*
X189296158Y-96324500D01*
X189296155Y-96324500D01*
X189141510Y-96355261D01*
X189141498Y-96355264D01*
X188995827Y-96415602D01*
X188995814Y-96415609D01*
X188864711Y-96503210D01*
X188864707Y-96503213D01*
X188753213Y-96614707D01*
X188753210Y-96614711D01*
X188665609Y-96745814D01*
X188665602Y-96745827D01*
X188605264Y-96891498D01*
X188605261Y-96891510D01*
X188574500Y-97046153D01*
X119262224Y-97046153D01*
X119268490Y-95147648D01*
X124699500Y-95147648D01*
X124699500Y-95352351D01*
X124731522Y-95554534D01*
X124794781Y-95749223D01*
X124887715Y-95931613D01*
X125008028Y-96097213D01*
X125152786Y-96241971D01*
X125266380Y-96324500D01*
X125318390Y-96362287D01*
X125423034Y-96415606D01*
X125500776Y-96455218D01*
X125500778Y-96455218D01*
X125500781Y-96455220D01*
X125605137Y-96489127D01*
X125695465Y-96518477D01*
X125796557Y-96534488D01*
X125897648Y-96550500D01*
X125897649Y-96550500D01*
X126102351Y-96550500D01*
X126102352Y-96550500D01*
X126304534Y-96518477D01*
X126499219Y-96455220D01*
X126681610Y-96362287D01*
X126777901Y-96292328D01*
X126847213Y-96241971D01*
X126847215Y-96241968D01*
X126847219Y-96241966D01*
X126991966Y-96097219D01*
X126991968Y-96097215D01*
X126991971Y-96097213D01*
X127044732Y-96024590D01*
X127112287Y-95931610D01*
X127205220Y-95749219D01*
X127268477Y-95554534D01*
X127300500Y-95352352D01*
X127300500Y-95147648D01*
X127268477Y-94945466D01*
X127205220Y-94750781D01*
X127205218Y-94750778D01*
X127205218Y-94750776D01*
X127112287Y-94568390D01*
X127042032Y-94471691D01*
X127042031Y-94471688D01*
X126991971Y-94402787D01*
X126991967Y-94402782D01*
X126991320Y-94402135D01*
X132319500Y-94402135D01*
X132319500Y-96097870D01*
X132319501Y-96097876D01*
X132325908Y-96157483D01*
X132376202Y-96292328D01*
X132376206Y-96292335D01*
X132462452Y-96407544D01*
X132462455Y-96407547D01*
X132577664Y-96493793D01*
X132577671Y-96493797D01*
X132712517Y-96544091D01*
X132712516Y-96544091D01*
X132719444Y-96544835D01*
X132772127Y-96550500D01*
X134467872Y-96550499D01*
X134527483Y-96544091D01*
X134662331Y-96493796D01*
X134777546Y-96407546D01*
X134863796Y-96292331D01*
X134914091Y-96157483D01*
X134920500Y-96097873D01*
X134920499Y-95147648D01*
X143579500Y-95147648D01*
X143579500Y-95352351D01*
X143611522Y-95554534D01*
X143674781Y-95749223D01*
X143767715Y-95931613D01*
X143888028Y-96097213D01*
X144032786Y-96241971D01*
X144146380Y-96324500D01*
X144198390Y-96362287D01*
X144303034Y-96415606D01*
X144380776Y-96455218D01*
X144380778Y-96455218D01*
X144380781Y-96455220D01*
X144485137Y-96489127D01*
X144575465Y-96518477D01*
X144676557Y-96534488D01*
X144777648Y-96550500D01*
X144777649Y-96550500D01*
X144982351Y-96550500D01*
X144982352Y-96550500D01*
X145184534Y-96518477D01*
X145379219Y-96455220D01*
X145561610Y-96362287D01*
X145657901Y-96292328D01*
X145727213Y-96241971D01*
X145727215Y-96241968D01*
X145727219Y-96241966D01*
X145871966Y-96097219D01*
X145871968Y-96097215D01*
X145871971Y-96097213D01*
X145924732Y-96024590D01*
X145992287Y-95931610D01*
X146085220Y-95749219D01*
X146148477Y-95554534D01*
X146180500Y-95352352D01*
X146180500Y-95147648D01*
X146148477Y-94945466D01*
X146085220Y-94750781D01*
X146085218Y-94750778D01*
X146085218Y-94750776D01*
X145992287Y-94568390D01*
X145922032Y-94471691D01*
X145922031Y-94471688D01*
X145871971Y-94402787D01*
X145871967Y-94402782D01*
X145871320Y-94402135D01*
X151199500Y-94402135D01*
X151199500Y-96097870D01*
X151199501Y-96097876D01*
X151205908Y-96157483D01*
X151256202Y-96292328D01*
X151256206Y-96292335D01*
X151342452Y-96407544D01*
X151342455Y-96407547D01*
X151457664Y-96493793D01*
X151457671Y-96493797D01*
X151592517Y-96544091D01*
X151592516Y-96544091D01*
X151599444Y-96544835D01*
X151652127Y-96550500D01*
X153347872Y-96550499D01*
X153407483Y-96544091D01*
X153542331Y-96493796D01*
X153657546Y-96407546D01*
X153743796Y-96292331D01*
X153794091Y-96157483D01*
X153800500Y-96097873D01*
X153800499Y-95147648D01*
X162389500Y-95147648D01*
X162389500Y-95352351D01*
X162421522Y-95554534D01*
X162484781Y-95749223D01*
X162577715Y-95931613D01*
X162698028Y-96097213D01*
X162842786Y-96241971D01*
X162956380Y-96324500D01*
X163008390Y-96362287D01*
X163113034Y-96415606D01*
X163190776Y-96455218D01*
X163190778Y-96455218D01*
X163190781Y-96455220D01*
X163295137Y-96489127D01*
X163385465Y-96518477D01*
X163486557Y-96534488D01*
X163587648Y-96550500D01*
X163587649Y-96550500D01*
X163792351Y-96550500D01*
X163792352Y-96550500D01*
X163994534Y-96518477D01*
X164189219Y-96455220D01*
X164371610Y-96362287D01*
X164467901Y-96292328D01*
X164537213Y-96241971D01*
X164537215Y-96241968D01*
X164537219Y-96241966D01*
X164681966Y-96097219D01*
X164681968Y-96097215D01*
X164681971Y-96097213D01*
X164734732Y-96024590D01*
X164802287Y-95931610D01*
X164895220Y-95749219D01*
X164958477Y-95554534D01*
X164990500Y-95352352D01*
X164990500Y-95147648D01*
X164958477Y-94945466D01*
X164895220Y-94750781D01*
X164895218Y-94750778D01*
X164895218Y-94750776D01*
X164829495Y-94621789D01*
X164802287Y-94568390D01*
X164784633Y-94544091D01*
X164681971Y-94402786D01*
X164537213Y-94258028D01*
X164371613Y-94137715D01*
X164371612Y-94137714D01*
X164371610Y-94137713D01*
X164314653Y-94108691D01*
X164189223Y-94044781D01*
X163994534Y-93981522D01*
X163819995Y-93953878D01*
X163792352Y-93949500D01*
X163587648Y-93949500D01*
X163563329Y-93953351D01*
X163385465Y-93981522D01*
X163190776Y-94044781D01*
X163008386Y-94137715D01*
X162842786Y-94258028D01*
X162698028Y-94402786D01*
X162577715Y-94568386D01*
X162484781Y-94750776D01*
X162421522Y-94945465D01*
X162389500Y-95147648D01*
X153800499Y-95147648D01*
X153800499Y-94402128D01*
X153794091Y-94342517D01*
X153775374Y-94292335D01*
X153743797Y-94207671D01*
X153743793Y-94207664D01*
X153657547Y-94092455D01*
X153657544Y-94092452D01*
X153542335Y-94006206D01*
X153542328Y-94006202D01*
X153407482Y-93955908D01*
X153407483Y-93955908D01*
X153347883Y-93949501D01*
X153347881Y-93949500D01*
X153347873Y-93949500D01*
X153347864Y-93949500D01*
X151652129Y-93949500D01*
X151652123Y-93949501D01*
X151592516Y-93955908D01*
X151457671Y-94006202D01*
X151457664Y-94006206D01*
X151342455Y-94092452D01*
X151342452Y-94092455D01*
X151256206Y-94207664D01*
X151256202Y-94207671D01*
X151205908Y-94342517D01*
X151199501Y-94402116D01*
X151199501Y-94402123D01*
X151199500Y-94402135D01*
X145871320Y-94402135D01*
X145727213Y-94258028D01*
X145561613Y-94137715D01*
X145561612Y-94137714D01*
X145561610Y-94137713D01*
X145504653Y-94108691D01*
X145379223Y-94044781D01*
X145184534Y-93981522D01*
X145009995Y-93953878D01*
X144982352Y-93949500D01*
X144777648Y-93949500D01*
X144753329Y-93953351D01*
X144575465Y-93981522D01*
X144380776Y-94044781D01*
X144198386Y-94137715D01*
X144032786Y-94258028D01*
X143888028Y-94402786D01*
X143767715Y-94568386D01*
X143674781Y-94750776D01*
X143611522Y-94945465D01*
X143579500Y-95147648D01*
X134920499Y-95147648D01*
X134920499Y-94402128D01*
X134914091Y-94342517D01*
X134895374Y-94292335D01*
X134863797Y-94207671D01*
X134863793Y-94207664D01*
X134777547Y-94092455D01*
X134777544Y-94092452D01*
X134662335Y-94006206D01*
X134662328Y-94006202D01*
X134527482Y-93955908D01*
X134527483Y-93955908D01*
X134467883Y-93949501D01*
X134467881Y-93949500D01*
X134467873Y-93949500D01*
X134467864Y-93949500D01*
X132772129Y-93949500D01*
X132772123Y-93949501D01*
X132712516Y-93955908D01*
X132577671Y-94006202D01*
X132577664Y-94006206D01*
X132462455Y-94092452D01*
X132462452Y-94092455D01*
X132376206Y-94207664D01*
X132376202Y-94207671D01*
X132325908Y-94342517D01*
X132319501Y-94402116D01*
X132319501Y-94402123D01*
X132319500Y-94402135D01*
X126991320Y-94402135D01*
X126847213Y-94258028D01*
X126681613Y-94137715D01*
X126681612Y-94137714D01*
X126681610Y-94137713D01*
X126624653Y-94108691D01*
X126499223Y-94044781D01*
X126304534Y-93981522D01*
X126129995Y-93953878D01*
X126102352Y-93949500D01*
X125897648Y-93949500D01*
X125873329Y-93953351D01*
X125695465Y-93981522D01*
X125500776Y-94044781D01*
X125318386Y-94137715D01*
X125152786Y-94258028D01*
X125008028Y-94402786D01*
X124887715Y-94568386D01*
X124794781Y-94750776D01*
X124731522Y-94945465D01*
X124699500Y-95147648D01*
X119268490Y-95147648D01*
X119304623Y-84199201D01*
X119461345Y-36712527D01*
X119478936Y-31382510D01*
X119499550Y-25136247D01*
X119519455Y-25069275D01*
X119572410Y-25023694D01*
X119623549Y-25012658D01*
X123715075Y-25012658D01*
X123715447Y-25012659D01*
G37*
G04 #@! TD.AperFunction*
G04 #@! TD*
M02*
