G04 #@! TF.GenerationSoftware,KiCad,Pcbnew,9.0.7*
G04 #@! TF.CreationDate,2026-02-07T16:10:57+01:00*
G04 #@! TF.ProjectId,keyboard,6b657962-6f61-4726-942e-6b696361645f,rev?*
G04 #@! TF.SameCoordinates,Original*
G04 #@! TF.FileFunction,Legend,Top*
G04 #@! TF.FilePolarity,Positive*
%FSLAX46Y46*%
G04 Gerber Fmt 4.6, Leading zero omitted, Abs format (unit mm)*
G04 Created by KiCad (PCBNEW 9.0.7) date 2026-02-07 16:10:57*
%MOMM*%
%LPD*%
G01*
G04 APERTURE LIST*
G04 Aperture macros list*
%AMRoundRect*
0 Rectangle with rounded corners*
0 $1 Rounding radius*
0 $2 $3 $4 $5 $6 $7 $8 $9 X,Y pos of 4 corners*
0 Add a 4 corners polygon primitive as box body*
4,1,4,$2,$3,$4,$5,$6,$7,$8,$9,$2,$3,0*
0 Add four circle primitives for the rounded corners*
1,1,$1+$1,$2,$3*
1,1,$1+$1,$4,$5*
1,1,$1+$1,$6,$7*
1,1,$1+$1,$8,$9*
0 Add four rect primitives between the rounded corners*
20,1,$1+$1,$2,$3,$4,$5,0*
20,1,$1+$1,$4,$5,$6,$7,0*
20,1,$1+$1,$6,$7,$8,$9,0*
20,1,$1+$1,$8,$9,$2,$3,0*%
G04 Aperture macros list end*
%ADD10C,0.150000*%
%ADD11C,0.101600*%
%ADD12C,0.120000*%
%ADD13C,0.100000*%
%ADD14C,0.127000*%
%ADD15C,0.504000*%
%ADD16R,2.000000X2.000000*%
%ADD17C,2.000000*%
%ADD18R,3.200000X2.000000*%
%ADD19C,1.700000*%
%ADD20C,4.000000*%
%ADD21C,2.200000*%
%ADD22R,0.850000X1.600000*%
%ADD23R,1.700000X1.700000*%
%ADD24O,1.700000X1.700000*%
%ADD25R,1.600000X0.850000*%
%ADD26RoundRect,0.152400X1.063600X0.609600X-1.063600X0.609600X-1.063600X-0.609600X1.063600X-0.609600X0*%
%ADD27C,1.524000*%
%ADD28RoundRect,0.152400X-1.063600X-0.609600X1.063600X-0.609600X1.063600X0.609600X-1.063600X0.609600X0*%
%ADD29R,1.600000X1.600000*%
%ADD30O,1.600000X1.600000*%
G04 APERTURE END LIST*
D10*
X178440476Y-76407200D02*
X178583333Y-76454819D01*
X178583333Y-76454819D02*
X178821428Y-76454819D01*
X178821428Y-76454819D02*
X178916666Y-76407200D01*
X178916666Y-76407200D02*
X178964285Y-76359580D01*
X178964285Y-76359580D02*
X179011904Y-76264342D01*
X179011904Y-76264342D02*
X179011904Y-76169104D01*
X179011904Y-76169104D02*
X178964285Y-76073866D01*
X178964285Y-76073866D02*
X178916666Y-76026247D01*
X178916666Y-76026247D02*
X178821428Y-75978628D01*
X178821428Y-75978628D02*
X178630952Y-75931009D01*
X178630952Y-75931009D02*
X178535714Y-75883390D01*
X178535714Y-75883390D02*
X178488095Y-75835771D01*
X178488095Y-75835771D02*
X178440476Y-75740533D01*
X178440476Y-75740533D02*
X178440476Y-75645295D01*
X178440476Y-75645295D02*
X178488095Y-75550057D01*
X178488095Y-75550057D02*
X178535714Y-75502438D01*
X178535714Y-75502438D02*
X178630952Y-75454819D01*
X178630952Y-75454819D02*
X178869047Y-75454819D01*
X178869047Y-75454819D02*
X179011904Y-75502438D01*
X179345238Y-75454819D02*
X179583333Y-76454819D01*
X179583333Y-76454819D02*
X179773809Y-75740533D01*
X179773809Y-75740533D02*
X179964285Y-76454819D01*
X179964285Y-76454819D02*
X180202381Y-75454819D01*
X181107142Y-76454819D02*
X180535714Y-76454819D01*
X180821428Y-76454819D02*
X180821428Y-75454819D01*
X180821428Y-75454819D02*
X180726190Y-75597676D01*
X180726190Y-75597676D02*
X180630952Y-75692914D01*
X180630952Y-75692914D02*
X180535714Y-75740533D01*
X182059523Y-76454819D02*
X181488095Y-76454819D01*
X181773809Y-76454819D02*
X181773809Y-75454819D01*
X181773809Y-75454819D02*
X181678571Y-75597676D01*
X181678571Y-75597676D02*
X181583333Y-75692914D01*
X181583333Y-75692914D02*
X181488095Y-75740533D01*
X128166667Y-83033200D02*
X128309524Y-83080819D01*
X128309524Y-83080819D02*
X128547619Y-83080819D01*
X128547619Y-83080819D02*
X128642857Y-83033200D01*
X128642857Y-83033200D02*
X128690476Y-82985580D01*
X128690476Y-82985580D02*
X128738095Y-82890342D01*
X128738095Y-82890342D02*
X128738095Y-82795104D01*
X128738095Y-82795104D02*
X128690476Y-82699866D01*
X128690476Y-82699866D02*
X128642857Y-82652247D01*
X128642857Y-82652247D02*
X128547619Y-82604628D01*
X128547619Y-82604628D02*
X128357143Y-82557009D01*
X128357143Y-82557009D02*
X128261905Y-82509390D01*
X128261905Y-82509390D02*
X128214286Y-82461771D01*
X128214286Y-82461771D02*
X128166667Y-82366533D01*
X128166667Y-82366533D02*
X128166667Y-82271295D01*
X128166667Y-82271295D02*
X128214286Y-82176057D01*
X128214286Y-82176057D02*
X128261905Y-82128438D01*
X128261905Y-82128438D02*
X128357143Y-82080819D01*
X128357143Y-82080819D02*
X128595238Y-82080819D01*
X128595238Y-82080819D02*
X128738095Y-82128438D01*
X129071429Y-82080819D02*
X129309524Y-83080819D01*
X129309524Y-83080819D02*
X129500000Y-82366533D01*
X129500000Y-82366533D02*
X129690476Y-83080819D01*
X129690476Y-83080819D02*
X129928572Y-82080819D01*
X130738095Y-82414152D02*
X130738095Y-83080819D01*
X130500000Y-82033200D02*
X130261905Y-82747485D01*
X130261905Y-82747485D02*
X130880952Y-82747485D01*
X166126667Y-63783200D02*
X166269524Y-63830819D01*
X166269524Y-63830819D02*
X166507619Y-63830819D01*
X166507619Y-63830819D02*
X166602857Y-63783200D01*
X166602857Y-63783200D02*
X166650476Y-63735580D01*
X166650476Y-63735580D02*
X166698095Y-63640342D01*
X166698095Y-63640342D02*
X166698095Y-63545104D01*
X166698095Y-63545104D02*
X166650476Y-63449866D01*
X166650476Y-63449866D02*
X166602857Y-63402247D01*
X166602857Y-63402247D02*
X166507619Y-63354628D01*
X166507619Y-63354628D02*
X166317143Y-63307009D01*
X166317143Y-63307009D02*
X166221905Y-63259390D01*
X166221905Y-63259390D02*
X166174286Y-63211771D01*
X166174286Y-63211771D02*
X166126667Y-63116533D01*
X166126667Y-63116533D02*
X166126667Y-63021295D01*
X166126667Y-63021295D02*
X166174286Y-62926057D01*
X166174286Y-62926057D02*
X166221905Y-62878438D01*
X166221905Y-62878438D02*
X166317143Y-62830819D01*
X166317143Y-62830819D02*
X166555238Y-62830819D01*
X166555238Y-62830819D02*
X166698095Y-62878438D01*
X167031429Y-62830819D02*
X167269524Y-63830819D01*
X167269524Y-63830819D02*
X167460000Y-63116533D01*
X167460000Y-63116533D02*
X167650476Y-63830819D01*
X167650476Y-63830819D02*
X167888572Y-62830819D01*
X168317143Y-63830819D02*
X168507619Y-63830819D01*
X168507619Y-63830819D02*
X168602857Y-63783200D01*
X168602857Y-63783200D02*
X168650476Y-63735580D01*
X168650476Y-63735580D02*
X168745714Y-63592723D01*
X168745714Y-63592723D02*
X168793333Y-63402247D01*
X168793333Y-63402247D02*
X168793333Y-63021295D01*
X168793333Y-63021295D02*
X168745714Y-62926057D01*
X168745714Y-62926057D02*
X168698095Y-62878438D01*
X168698095Y-62878438D02*
X168602857Y-62830819D01*
X168602857Y-62830819D02*
X168412381Y-62830819D01*
X168412381Y-62830819D02*
X168317143Y-62878438D01*
X168317143Y-62878438D02*
X168269524Y-62926057D01*
X168269524Y-62926057D02*
X168221905Y-63021295D01*
X168221905Y-63021295D02*
X168221905Y-63259390D01*
X168221905Y-63259390D02*
X168269524Y-63354628D01*
X168269524Y-63354628D02*
X168317143Y-63402247D01*
X168317143Y-63402247D02*
X168412381Y-63449866D01*
X168412381Y-63449866D02*
X168602857Y-63449866D01*
X168602857Y-63449866D02*
X168698095Y-63402247D01*
X168698095Y-63402247D02*
X168745714Y-63354628D01*
X168745714Y-63354628D02*
X168793333Y-63259390D01*
X200954819Y-66214285D02*
X200954819Y-66785713D01*
X200954819Y-66499999D02*
X199954819Y-66499999D01*
X199954819Y-66499999D02*
X200097676Y-66595237D01*
X200097676Y-66595237D02*
X200192914Y-66690475D01*
X200192914Y-66690475D02*
X200240533Y-66785713D01*
X130454819Y-33713333D02*
X131169104Y-33713333D01*
X131169104Y-33713333D02*
X131311961Y-33760952D01*
X131311961Y-33760952D02*
X131407200Y-33856190D01*
X131407200Y-33856190D02*
X131454819Y-33999047D01*
X131454819Y-33999047D02*
X131454819Y-34094285D01*
X131454819Y-32713333D02*
X131454819Y-33284761D01*
X131454819Y-32999047D02*
X130454819Y-32999047D01*
X130454819Y-32999047D02*
X130597676Y-33094285D01*
X130597676Y-33094285D02*
X130692914Y-33189523D01*
X130692914Y-33189523D02*
X130740533Y-33284761D01*
X193285714Y-99329819D02*
X192714286Y-99329819D01*
X193000000Y-99329819D02*
X193000000Y-98329819D01*
X193000000Y-98329819D02*
X192904762Y-98472676D01*
X192904762Y-98472676D02*
X192809524Y-98567914D01*
X192809524Y-98567914D02*
X192714286Y-98615533D01*
D11*
X190016190Y-34903479D02*
X190016190Y-35417526D01*
X190016190Y-35417526D02*
X190046428Y-35478002D01*
X190046428Y-35478002D02*
X190076666Y-35508241D01*
X190076666Y-35508241D02*
X190137142Y-35538479D01*
X190137142Y-35538479D02*
X190258095Y-35538479D01*
X190258095Y-35538479D02*
X190318571Y-35508241D01*
X190318571Y-35508241D02*
X190348809Y-35478002D01*
X190348809Y-35478002D02*
X190379047Y-35417526D01*
X190379047Y-35417526D02*
X190379047Y-34903479D01*
X191014047Y-35538479D02*
X190651190Y-35538479D01*
X190832618Y-35538479D02*
X190832618Y-34903479D01*
X190832618Y-34903479D02*
X190772142Y-34994193D01*
X190772142Y-34994193D02*
X190711666Y-35054669D01*
X190711666Y-35054669D02*
X190651190Y-35084907D01*
D10*
X128166667Y-44783200D02*
X128309524Y-44830819D01*
X128309524Y-44830819D02*
X128547619Y-44830819D01*
X128547619Y-44830819D02*
X128642857Y-44783200D01*
X128642857Y-44783200D02*
X128690476Y-44735580D01*
X128690476Y-44735580D02*
X128738095Y-44640342D01*
X128738095Y-44640342D02*
X128738095Y-44545104D01*
X128738095Y-44545104D02*
X128690476Y-44449866D01*
X128690476Y-44449866D02*
X128642857Y-44402247D01*
X128642857Y-44402247D02*
X128547619Y-44354628D01*
X128547619Y-44354628D02*
X128357143Y-44307009D01*
X128357143Y-44307009D02*
X128261905Y-44259390D01*
X128261905Y-44259390D02*
X128214286Y-44211771D01*
X128214286Y-44211771D02*
X128166667Y-44116533D01*
X128166667Y-44116533D02*
X128166667Y-44021295D01*
X128166667Y-44021295D02*
X128214286Y-43926057D01*
X128214286Y-43926057D02*
X128261905Y-43878438D01*
X128261905Y-43878438D02*
X128357143Y-43830819D01*
X128357143Y-43830819D02*
X128595238Y-43830819D01*
X128595238Y-43830819D02*
X128738095Y-43878438D01*
X129071429Y-43830819D02*
X129309524Y-44830819D01*
X129309524Y-44830819D02*
X129500000Y-44116533D01*
X129500000Y-44116533D02*
X129690476Y-44830819D01*
X129690476Y-44830819D02*
X129928572Y-43830819D01*
X130261905Y-43926057D02*
X130309524Y-43878438D01*
X130309524Y-43878438D02*
X130404762Y-43830819D01*
X130404762Y-43830819D02*
X130642857Y-43830819D01*
X130642857Y-43830819D02*
X130738095Y-43878438D01*
X130738095Y-43878438D02*
X130785714Y-43926057D01*
X130785714Y-43926057D02*
X130833333Y-44021295D01*
X130833333Y-44021295D02*
X130833333Y-44116533D01*
X130833333Y-44116533D02*
X130785714Y-44259390D01*
X130785714Y-44259390D02*
X130214286Y-44830819D01*
X130214286Y-44830819D02*
X130833333Y-44830819D01*
X201204819Y-89964285D02*
X201204819Y-90535713D01*
X201204819Y-90249999D02*
X200204819Y-90249999D01*
X200204819Y-90249999D02*
X200347676Y-90345237D01*
X200347676Y-90345237D02*
X200442914Y-90440475D01*
X200442914Y-90440475D02*
X200490533Y-90535713D01*
X128166667Y-63783200D02*
X128309524Y-63830819D01*
X128309524Y-63830819D02*
X128547619Y-63830819D01*
X128547619Y-63830819D02*
X128642857Y-63783200D01*
X128642857Y-63783200D02*
X128690476Y-63735580D01*
X128690476Y-63735580D02*
X128738095Y-63640342D01*
X128738095Y-63640342D02*
X128738095Y-63545104D01*
X128738095Y-63545104D02*
X128690476Y-63449866D01*
X128690476Y-63449866D02*
X128642857Y-63402247D01*
X128642857Y-63402247D02*
X128547619Y-63354628D01*
X128547619Y-63354628D02*
X128357143Y-63307009D01*
X128357143Y-63307009D02*
X128261905Y-63259390D01*
X128261905Y-63259390D02*
X128214286Y-63211771D01*
X128214286Y-63211771D02*
X128166667Y-63116533D01*
X128166667Y-63116533D02*
X128166667Y-63021295D01*
X128166667Y-63021295D02*
X128214286Y-62926057D01*
X128214286Y-62926057D02*
X128261905Y-62878438D01*
X128261905Y-62878438D02*
X128357143Y-62830819D01*
X128357143Y-62830819D02*
X128595238Y-62830819D01*
X128595238Y-62830819D02*
X128738095Y-62878438D01*
X129071429Y-62830819D02*
X129309524Y-63830819D01*
X129309524Y-63830819D02*
X129500000Y-63116533D01*
X129500000Y-63116533D02*
X129690476Y-63830819D01*
X129690476Y-63830819D02*
X129928572Y-62830819D01*
X130214286Y-62830819D02*
X130833333Y-62830819D01*
X130833333Y-62830819D02*
X130500000Y-63211771D01*
X130500000Y-63211771D02*
X130642857Y-63211771D01*
X130642857Y-63211771D02*
X130738095Y-63259390D01*
X130738095Y-63259390D02*
X130785714Y-63307009D01*
X130785714Y-63307009D02*
X130833333Y-63402247D01*
X130833333Y-63402247D02*
X130833333Y-63640342D01*
X130833333Y-63640342D02*
X130785714Y-63735580D01*
X130785714Y-63735580D02*
X130738095Y-63783200D01*
X130738095Y-63783200D02*
X130642857Y-63830819D01*
X130642857Y-63830819D02*
X130357143Y-63830819D01*
X130357143Y-63830819D02*
X130261905Y-63783200D01*
X130261905Y-63783200D02*
X130214286Y-63735580D01*
X200954819Y-55964285D02*
X200954819Y-56535713D01*
X200954819Y-56249999D02*
X199954819Y-56249999D01*
X199954819Y-56249999D02*
X200097676Y-56345237D01*
X200097676Y-56345237D02*
X200192914Y-56440475D01*
X200192914Y-56440475D02*
X200240533Y-56535713D01*
X165650476Y-83033200D02*
X165793333Y-83080819D01*
X165793333Y-83080819D02*
X166031428Y-83080819D01*
X166031428Y-83080819D02*
X166126666Y-83033200D01*
X166126666Y-83033200D02*
X166174285Y-82985580D01*
X166174285Y-82985580D02*
X166221904Y-82890342D01*
X166221904Y-82890342D02*
X166221904Y-82795104D01*
X166221904Y-82795104D02*
X166174285Y-82699866D01*
X166174285Y-82699866D02*
X166126666Y-82652247D01*
X166126666Y-82652247D02*
X166031428Y-82604628D01*
X166031428Y-82604628D02*
X165840952Y-82557009D01*
X165840952Y-82557009D02*
X165745714Y-82509390D01*
X165745714Y-82509390D02*
X165698095Y-82461771D01*
X165698095Y-82461771D02*
X165650476Y-82366533D01*
X165650476Y-82366533D02*
X165650476Y-82271295D01*
X165650476Y-82271295D02*
X165698095Y-82176057D01*
X165698095Y-82176057D02*
X165745714Y-82128438D01*
X165745714Y-82128438D02*
X165840952Y-82080819D01*
X165840952Y-82080819D02*
X166079047Y-82080819D01*
X166079047Y-82080819D02*
X166221904Y-82128438D01*
X166555238Y-82080819D02*
X166793333Y-83080819D01*
X166793333Y-83080819D02*
X166983809Y-82366533D01*
X166983809Y-82366533D02*
X167174285Y-83080819D01*
X167174285Y-83080819D02*
X167412381Y-82080819D01*
X168317142Y-83080819D02*
X167745714Y-83080819D01*
X168031428Y-83080819D02*
X168031428Y-82080819D01*
X168031428Y-82080819D02*
X167936190Y-82223676D01*
X167936190Y-82223676D02*
X167840952Y-82318914D01*
X167840952Y-82318914D02*
X167745714Y-82366533D01*
X168936190Y-82080819D02*
X169031428Y-82080819D01*
X169031428Y-82080819D02*
X169126666Y-82128438D01*
X169126666Y-82128438D02*
X169174285Y-82176057D01*
X169174285Y-82176057D02*
X169221904Y-82271295D01*
X169221904Y-82271295D02*
X169269523Y-82461771D01*
X169269523Y-82461771D02*
X169269523Y-82699866D01*
X169269523Y-82699866D02*
X169221904Y-82890342D01*
X169221904Y-82890342D02*
X169174285Y-82985580D01*
X169174285Y-82985580D02*
X169126666Y-83033200D01*
X169126666Y-83033200D02*
X169031428Y-83080819D01*
X169031428Y-83080819D02*
X168936190Y-83080819D01*
X168936190Y-83080819D02*
X168840952Y-83033200D01*
X168840952Y-83033200D02*
X168793333Y-82985580D01*
X168793333Y-82985580D02*
X168745714Y-82890342D01*
X168745714Y-82890342D02*
X168698095Y-82699866D01*
X168698095Y-82699866D02*
X168698095Y-82461771D01*
X168698095Y-82461771D02*
X168745714Y-82271295D01*
X168745714Y-82271295D02*
X168793333Y-82176057D01*
X168793333Y-82176057D02*
X168840952Y-82128438D01*
X168840952Y-82128438D02*
X168936190Y-82080819D01*
X179166667Y-51657200D02*
X179309524Y-51704819D01*
X179309524Y-51704819D02*
X179547619Y-51704819D01*
X179547619Y-51704819D02*
X179642857Y-51657200D01*
X179642857Y-51657200D02*
X179690476Y-51609580D01*
X179690476Y-51609580D02*
X179738095Y-51514342D01*
X179738095Y-51514342D02*
X179738095Y-51419104D01*
X179738095Y-51419104D02*
X179690476Y-51323866D01*
X179690476Y-51323866D02*
X179642857Y-51276247D01*
X179642857Y-51276247D02*
X179547619Y-51228628D01*
X179547619Y-51228628D02*
X179357143Y-51181009D01*
X179357143Y-51181009D02*
X179261905Y-51133390D01*
X179261905Y-51133390D02*
X179214286Y-51085771D01*
X179214286Y-51085771D02*
X179166667Y-50990533D01*
X179166667Y-50990533D02*
X179166667Y-50895295D01*
X179166667Y-50895295D02*
X179214286Y-50800057D01*
X179214286Y-50800057D02*
X179261905Y-50752438D01*
X179261905Y-50752438D02*
X179357143Y-50704819D01*
X179357143Y-50704819D02*
X179595238Y-50704819D01*
X179595238Y-50704819D02*
X179738095Y-50752438D01*
X180071429Y-50704819D02*
X180309524Y-51704819D01*
X180309524Y-51704819D02*
X180500000Y-50990533D01*
X180500000Y-50990533D02*
X180690476Y-51704819D01*
X180690476Y-51704819D02*
X180928572Y-50704819D01*
X181833333Y-51704819D02*
X181261905Y-51704819D01*
X181547619Y-51704819D02*
X181547619Y-50704819D01*
X181547619Y-50704819D02*
X181452381Y-50847676D01*
X181452381Y-50847676D02*
X181357143Y-50942914D01*
X181357143Y-50942914D02*
X181261905Y-50990533D01*
X166126667Y-44783200D02*
X166269524Y-44830819D01*
X166269524Y-44830819D02*
X166507619Y-44830819D01*
X166507619Y-44830819D02*
X166602857Y-44783200D01*
X166602857Y-44783200D02*
X166650476Y-44735580D01*
X166650476Y-44735580D02*
X166698095Y-44640342D01*
X166698095Y-44640342D02*
X166698095Y-44545104D01*
X166698095Y-44545104D02*
X166650476Y-44449866D01*
X166650476Y-44449866D02*
X166602857Y-44402247D01*
X166602857Y-44402247D02*
X166507619Y-44354628D01*
X166507619Y-44354628D02*
X166317143Y-44307009D01*
X166317143Y-44307009D02*
X166221905Y-44259390D01*
X166221905Y-44259390D02*
X166174286Y-44211771D01*
X166174286Y-44211771D02*
X166126667Y-44116533D01*
X166126667Y-44116533D02*
X166126667Y-44021295D01*
X166126667Y-44021295D02*
X166174286Y-43926057D01*
X166174286Y-43926057D02*
X166221905Y-43878438D01*
X166221905Y-43878438D02*
X166317143Y-43830819D01*
X166317143Y-43830819D02*
X166555238Y-43830819D01*
X166555238Y-43830819D02*
X166698095Y-43878438D01*
X167031429Y-43830819D02*
X167269524Y-44830819D01*
X167269524Y-44830819D02*
X167460000Y-44116533D01*
X167460000Y-44116533D02*
X167650476Y-44830819D01*
X167650476Y-44830819D02*
X167888572Y-43830819D01*
X168412381Y-44259390D02*
X168317143Y-44211771D01*
X168317143Y-44211771D02*
X168269524Y-44164152D01*
X168269524Y-44164152D02*
X168221905Y-44068914D01*
X168221905Y-44068914D02*
X168221905Y-44021295D01*
X168221905Y-44021295D02*
X168269524Y-43926057D01*
X168269524Y-43926057D02*
X168317143Y-43878438D01*
X168317143Y-43878438D02*
X168412381Y-43830819D01*
X168412381Y-43830819D02*
X168602857Y-43830819D01*
X168602857Y-43830819D02*
X168698095Y-43878438D01*
X168698095Y-43878438D02*
X168745714Y-43926057D01*
X168745714Y-43926057D02*
X168793333Y-44021295D01*
X168793333Y-44021295D02*
X168793333Y-44068914D01*
X168793333Y-44068914D02*
X168745714Y-44164152D01*
X168745714Y-44164152D02*
X168698095Y-44211771D01*
X168698095Y-44211771D02*
X168602857Y-44259390D01*
X168602857Y-44259390D02*
X168412381Y-44259390D01*
X168412381Y-44259390D02*
X168317143Y-44307009D01*
X168317143Y-44307009D02*
X168269524Y-44354628D01*
X168269524Y-44354628D02*
X168221905Y-44449866D01*
X168221905Y-44449866D02*
X168221905Y-44640342D01*
X168221905Y-44640342D02*
X168269524Y-44735580D01*
X168269524Y-44735580D02*
X168317143Y-44783200D01*
X168317143Y-44783200D02*
X168412381Y-44830819D01*
X168412381Y-44830819D02*
X168602857Y-44830819D01*
X168602857Y-44830819D02*
X168698095Y-44783200D01*
X168698095Y-44783200D02*
X168745714Y-44735580D01*
X168745714Y-44735580D02*
X168793333Y-44640342D01*
X168793333Y-44640342D02*
X168793333Y-44449866D01*
X168793333Y-44449866D02*
X168745714Y-44354628D01*
X168745714Y-44354628D02*
X168698095Y-44307009D01*
X168698095Y-44307009D02*
X168602857Y-44259390D01*
X147166667Y-83033200D02*
X147309524Y-83080819D01*
X147309524Y-83080819D02*
X147547619Y-83080819D01*
X147547619Y-83080819D02*
X147642857Y-83033200D01*
X147642857Y-83033200D02*
X147690476Y-82985580D01*
X147690476Y-82985580D02*
X147738095Y-82890342D01*
X147738095Y-82890342D02*
X147738095Y-82795104D01*
X147738095Y-82795104D02*
X147690476Y-82699866D01*
X147690476Y-82699866D02*
X147642857Y-82652247D01*
X147642857Y-82652247D02*
X147547619Y-82604628D01*
X147547619Y-82604628D02*
X147357143Y-82557009D01*
X147357143Y-82557009D02*
X147261905Y-82509390D01*
X147261905Y-82509390D02*
X147214286Y-82461771D01*
X147214286Y-82461771D02*
X147166667Y-82366533D01*
X147166667Y-82366533D02*
X147166667Y-82271295D01*
X147166667Y-82271295D02*
X147214286Y-82176057D01*
X147214286Y-82176057D02*
X147261905Y-82128438D01*
X147261905Y-82128438D02*
X147357143Y-82080819D01*
X147357143Y-82080819D02*
X147595238Y-82080819D01*
X147595238Y-82080819D02*
X147738095Y-82128438D01*
X148071429Y-82080819D02*
X148309524Y-83080819D01*
X148309524Y-83080819D02*
X148500000Y-82366533D01*
X148500000Y-82366533D02*
X148690476Y-83080819D01*
X148690476Y-83080819D02*
X148928572Y-82080819D01*
X149214286Y-82080819D02*
X149880952Y-82080819D01*
X149880952Y-82080819D02*
X149452381Y-83080819D01*
X201079819Y-78464285D02*
X201079819Y-79035713D01*
X201079819Y-78749999D02*
X200079819Y-78749999D01*
X200079819Y-78749999D02*
X200222676Y-78845237D01*
X200222676Y-78845237D02*
X200317914Y-78940475D01*
X200317914Y-78940475D02*
X200365533Y-79035713D01*
X147166667Y-63783200D02*
X147309524Y-63830819D01*
X147309524Y-63830819D02*
X147547619Y-63830819D01*
X147547619Y-63830819D02*
X147642857Y-63783200D01*
X147642857Y-63783200D02*
X147690476Y-63735580D01*
X147690476Y-63735580D02*
X147738095Y-63640342D01*
X147738095Y-63640342D02*
X147738095Y-63545104D01*
X147738095Y-63545104D02*
X147690476Y-63449866D01*
X147690476Y-63449866D02*
X147642857Y-63402247D01*
X147642857Y-63402247D02*
X147547619Y-63354628D01*
X147547619Y-63354628D02*
X147357143Y-63307009D01*
X147357143Y-63307009D02*
X147261905Y-63259390D01*
X147261905Y-63259390D02*
X147214286Y-63211771D01*
X147214286Y-63211771D02*
X147166667Y-63116533D01*
X147166667Y-63116533D02*
X147166667Y-63021295D01*
X147166667Y-63021295D02*
X147214286Y-62926057D01*
X147214286Y-62926057D02*
X147261905Y-62878438D01*
X147261905Y-62878438D02*
X147357143Y-62830819D01*
X147357143Y-62830819D02*
X147595238Y-62830819D01*
X147595238Y-62830819D02*
X147738095Y-62878438D01*
X148071429Y-62830819D02*
X148309524Y-63830819D01*
X148309524Y-63830819D02*
X148500000Y-63116533D01*
X148500000Y-63116533D02*
X148690476Y-63830819D01*
X148690476Y-63830819D02*
X148928572Y-62830819D01*
X149738095Y-62830819D02*
X149547619Y-62830819D01*
X149547619Y-62830819D02*
X149452381Y-62878438D01*
X149452381Y-62878438D02*
X149404762Y-62926057D01*
X149404762Y-62926057D02*
X149309524Y-63068914D01*
X149309524Y-63068914D02*
X149261905Y-63259390D01*
X149261905Y-63259390D02*
X149261905Y-63640342D01*
X149261905Y-63640342D02*
X149309524Y-63735580D01*
X149309524Y-63735580D02*
X149357143Y-63783200D01*
X149357143Y-63783200D02*
X149452381Y-63830819D01*
X149452381Y-63830819D02*
X149642857Y-63830819D01*
X149642857Y-63830819D02*
X149738095Y-63783200D01*
X149738095Y-63783200D02*
X149785714Y-63735580D01*
X149785714Y-63735580D02*
X149833333Y-63640342D01*
X149833333Y-63640342D02*
X149833333Y-63402247D01*
X149833333Y-63402247D02*
X149785714Y-63307009D01*
X149785714Y-63307009D02*
X149738095Y-63259390D01*
X149738095Y-63259390D02*
X149642857Y-63211771D01*
X149642857Y-63211771D02*
X149452381Y-63211771D01*
X149452381Y-63211771D02*
X149357143Y-63259390D01*
X149357143Y-63259390D02*
X149309524Y-63307009D01*
X149309524Y-63307009D02*
X149261905Y-63402247D01*
X147166667Y-44783200D02*
X147309524Y-44830819D01*
X147309524Y-44830819D02*
X147547619Y-44830819D01*
X147547619Y-44830819D02*
X147642857Y-44783200D01*
X147642857Y-44783200D02*
X147690476Y-44735580D01*
X147690476Y-44735580D02*
X147738095Y-44640342D01*
X147738095Y-44640342D02*
X147738095Y-44545104D01*
X147738095Y-44545104D02*
X147690476Y-44449866D01*
X147690476Y-44449866D02*
X147642857Y-44402247D01*
X147642857Y-44402247D02*
X147547619Y-44354628D01*
X147547619Y-44354628D02*
X147357143Y-44307009D01*
X147357143Y-44307009D02*
X147261905Y-44259390D01*
X147261905Y-44259390D02*
X147214286Y-44211771D01*
X147214286Y-44211771D02*
X147166667Y-44116533D01*
X147166667Y-44116533D02*
X147166667Y-44021295D01*
X147166667Y-44021295D02*
X147214286Y-43926057D01*
X147214286Y-43926057D02*
X147261905Y-43878438D01*
X147261905Y-43878438D02*
X147357143Y-43830819D01*
X147357143Y-43830819D02*
X147595238Y-43830819D01*
X147595238Y-43830819D02*
X147738095Y-43878438D01*
X148071429Y-43830819D02*
X148309524Y-44830819D01*
X148309524Y-44830819D02*
X148500000Y-44116533D01*
X148500000Y-44116533D02*
X148690476Y-44830819D01*
X148690476Y-44830819D02*
X148928572Y-43830819D01*
X149785714Y-43830819D02*
X149309524Y-43830819D01*
X149309524Y-43830819D02*
X149261905Y-44307009D01*
X149261905Y-44307009D02*
X149309524Y-44259390D01*
X149309524Y-44259390D02*
X149404762Y-44211771D01*
X149404762Y-44211771D02*
X149642857Y-44211771D01*
X149642857Y-44211771D02*
X149738095Y-44259390D01*
X149738095Y-44259390D02*
X149785714Y-44307009D01*
X149785714Y-44307009D02*
X149833333Y-44402247D01*
X149833333Y-44402247D02*
X149833333Y-44640342D01*
X149833333Y-44640342D02*
X149785714Y-44735580D01*
X149785714Y-44735580D02*
X149738095Y-44783200D01*
X149738095Y-44783200D02*
X149642857Y-44830819D01*
X149642857Y-44830819D02*
X149404762Y-44830819D01*
X149404762Y-44830819D02*
X149309524Y-44783200D01*
X149309524Y-44783200D02*
X149261905Y-44735580D01*
D12*
G04 #@! TO.C,SW11*
X180950000Y-77900000D02*
X181550000Y-77900000D01*
X181250000Y-78200000D02*
X180950000Y-77900000D01*
X181550000Y-77900000D02*
X181250000Y-78200000D01*
X182650000Y-76100000D02*
X182650000Y-87900000D01*
X186750000Y-76100000D02*
X182650000Y-76100000D01*
X186750000Y-87900000D02*
X182650000Y-87900000D01*
X188250000Y-82000000D02*
X189250000Y-82000000D01*
X188750000Y-81500000D02*
X188750000Y-82500000D01*
X190750000Y-76100000D02*
X194850000Y-76100000D01*
X194850000Y-76100000D02*
X194850000Y-78500000D01*
X194850000Y-80700000D02*
X194850000Y-83300000D01*
X194850000Y-85500000D02*
X194850000Y-87900000D01*
X194850000Y-87900000D02*
X190750000Y-87900000D01*
X191750000Y-82000000D02*
G75*
G02*
X185750000Y-82000000I-3000000J0D01*
G01*
X185750000Y-82000000D02*
G75*
G02*
X191750000Y-82000000I3000000J0D01*
G01*
G04 #@! TO.C,SW4*
X122515000Y-83515000D02*
X136485000Y-83515000D01*
X122515000Y-97485000D02*
X122515000Y-83515000D01*
X136485000Y-83515000D02*
X136485000Y-97485000D01*
X136485000Y-97485000D02*
X122515000Y-97485000D01*
G04 #@! TO.C,SW9*
X160475000Y-64265000D02*
X174445000Y-64265000D01*
X160475000Y-78235000D02*
X160475000Y-64265000D01*
X174445000Y-64265000D02*
X174445000Y-78235000D01*
X174445000Y-78235000D02*
X160475000Y-78235000D01*
G04 #@! TO.C,D17*
X197625000Y-67200000D02*
X197625000Y-72200000D01*
X198225000Y-72800000D02*
X197625000Y-72200000D01*
X198225000Y-72800000D02*
X201625000Y-72800000D01*
X201625000Y-67200000D02*
X197625000Y-67200000D01*
X201625000Y-67200000D02*
X201625000Y-72800000D01*
G04 #@! TO.C,J1*
D13*
X126000000Y-26380000D02*
X165000000Y-26380000D01*
X165000000Y-39380000D01*
X126000000Y-39380000D01*
X126000000Y-26380000D01*
D12*
G04 #@! TO.C,D20*
X186700000Y-96600000D02*
X186700000Y-100000000D01*
X186700000Y-96600000D02*
X187300000Y-96000000D01*
X192300000Y-96000000D02*
X187300000Y-96000000D01*
X192300000Y-100000000D02*
X186700000Y-100000000D01*
X192300000Y-100000000D02*
X192300000Y-96000000D01*
D14*
G04 #@! TO.C,U1*
X181230000Y-43639000D02*
X181230000Y-26494000D01*
X183135000Y-45544000D02*
X197105000Y-45544000D01*
X185625000Y-24589000D02*
X185628728Y-23678728D01*
X186128728Y-23179000D02*
X194124000Y-23179000D01*
X194624000Y-23679000D02*
X194624000Y-24589000D01*
D13*
X197105000Y-24589000D02*
X183135000Y-24589000D01*
D14*
X197105000Y-24589000D02*
X183135000Y-24589000D01*
X199010000Y-43639000D02*
X199010000Y-26494000D01*
X181230000Y-26494000D02*
G75*
G02*
X183135000Y-24589000I1905001J-1D01*
G01*
X183135000Y-45544000D02*
G75*
G02*
X181230000Y-43639000I1J1905001D01*
G01*
X185628728Y-23678728D02*
G75*
G02*
X186128728Y-23179001I500018J-291D01*
G01*
X194124000Y-23179000D02*
G75*
G02*
X194624000Y-23679000I0J-500000D01*
G01*
X197105000Y-24589000D02*
G75*
G02*
X199010000Y-26494000I0J-1905000D01*
G01*
X199010000Y-43639000D02*
G75*
G02*
X197105000Y-45544000I-1905000J0D01*
G01*
D15*
X181422000Y-24830000D02*
G75*
G02*
X180918000Y-24830000I-252000J0D01*
G01*
X180918000Y-24830000D02*
G75*
G02*
X181422000Y-24830000I252000J0D01*
G01*
X182565000Y-25710000D02*
G75*
G02*
X182061000Y-25710000I-252000J0D01*
G01*
X182061000Y-25710000D02*
G75*
G02*
X182565000Y-25710000I252000J0D01*
G01*
D12*
G04 #@! TO.C,SW2*
X122515000Y-45265000D02*
X136485000Y-45265000D01*
X122515000Y-59235000D02*
X122515000Y-45265000D01*
X136485000Y-45265000D02*
X136485000Y-59235000D01*
X136485000Y-59235000D02*
X122515000Y-59235000D01*
G04 #@! TO.C,D19*
X197875000Y-90950000D02*
X197875000Y-95950000D01*
X198475000Y-96550000D02*
X197875000Y-95950000D01*
X198475000Y-96550000D02*
X201875000Y-96550000D01*
X201875000Y-90950000D02*
X197875000Y-90950000D01*
X201875000Y-90950000D02*
X201875000Y-96550000D01*
G04 #@! TO.C,SW3*
X122515000Y-64265000D02*
X136485000Y-64265000D01*
X122515000Y-78235000D02*
X122515000Y-64265000D01*
X136485000Y-64265000D02*
X136485000Y-78235000D01*
X136485000Y-78235000D02*
X122515000Y-78235000D01*
G04 #@! TO.C,D16*
X197625000Y-56950000D02*
X197625000Y-61950000D01*
X198225000Y-62550000D02*
X197625000Y-61950000D01*
X198225000Y-62550000D02*
X201625000Y-62550000D01*
X201625000Y-56950000D02*
X197625000Y-56950000D01*
X201625000Y-56950000D02*
X201625000Y-62550000D01*
G04 #@! TO.C,SW10*
X160475000Y-83515000D02*
X174445000Y-83515000D01*
X160475000Y-97485000D02*
X160475000Y-83515000D01*
X174445000Y-83515000D02*
X174445000Y-97485000D01*
X174445000Y-97485000D02*
X160475000Y-97485000D01*
G04 #@! TO.C,SW1*
X180950000Y-52550000D02*
X181550000Y-52550000D01*
X181250000Y-52850000D02*
X180950000Y-52550000D01*
X181550000Y-52550000D02*
X181250000Y-52850000D01*
X182650000Y-50750000D02*
X182650000Y-62550000D01*
X186750000Y-50750000D02*
X182650000Y-50750000D01*
X186750000Y-62550000D02*
X182650000Y-62550000D01*
X188250000Y-56650000D02*
X189250000Y-56650000D01*
X188750000Y-56150000D02*
X188750000Y-57150000D01*
X190750000Y-50750000D02*
X194850000Y-50750000D01*
X194850000Y-50750000D02*
X194850000Y-53150000D01*
X194850000Y-55350000D02*
X194850000Y-57950000D01*
X194850000Y-60150000D02*
X194850000Y-62550000D01*
X194850000Y-62550000D02*
X190750000Y-62550000D01*
X191750000Y-56650000D02*
G75*
G02*
X185750000Y-56650000I-3000000J0D01*
G01*
X185750000Y-56650000D02*
G75*
G02*
X191750000Y-56650000I3000000J0D01*
G01*
G04 #@! TO.C,SW8*
X160475000Y-45265000D02*
X174445000Y-45265000D01*
X160475000Y-59235000D02*
X160475000Y-45265000D01*
X174445000Y-45265000D02*
X174445000Y-59235000D01*
X174445000Y-59235000D02*
X160475000Y-59235000D01*
G04 #@! TO.C,SW7*
X141515000Y-83515000D02*
X155485000Y-83515000D01*
X141515000Y-97485000D02*
X141515000Y-83515000D01*
X155485000Y-83515000D02*
X155485000Y-97485000D01*
X155485000Y-97485000D02*
X141515000Y-97485000D01*
G04 #@! TO.C,D18*
X197750000Y-79450000D02*
X197750000Y-84450000D01*
X198350000Y-85050000D02*
X197750000Y-84450000D01*
X198350000Y-85050000D02*
X201750000Y-85050000D01*
X201750000Y-79450000D02*
X197750000Y-79450000D01*
X201750000Y-79450000D02*
X201750000Y-85050000D01*
G04 #@! TO.C,SW6*
X141515000Y-64265000D02*
X155485000Y-64265000D01*
X141515000Y-78235000D02*
X141515000Y-64265000D01*
X155485000Y-64265000D02*
X155485000Y-78235000D01*
X155485000Y-78235000D02*
X141515000Y-78235000D01*
G04 #@! TO.C,SW5*
X141515000Y-45265000D02*
X155485000Y-45265000D01*
X141515000Y-59235000D02*
X141515000Y-45265000D01*
X155485000Y-45265000D02*
X155485000Y-59235000D01*
X155485000Y-59235000D02*
X141515000Y-59235000D01*
G04 #@! TD*
%LPC*%
D16*
G04 #@! TO.C,SW11*
X181250000Y-79500000D03*
D17*
X181250000Y-84500000D03*
X181250000Y-82000000D03*
D18*
X188750000Y-76400000D03*
X188750000Y-87600000D03*
D17*
X195750000Y-84500000D03*
X195750000Y-79500000D03*
G04 #@! TD*
D19*
G04 #@! TO.C,SW4*
X124420000Y-90500000D03*
D20*
X129500000Y-90500000D03*
D19*
X134580000Y-90500000D03*
D21*
X132040000Y-85420000D03*
X125690000Y-87960000D03*
G04 #@! TD*
D19*
G04 #@! TO.C,SW9*
X162380000Y-71250000D03*
D20*
X167460000Y-71250000D03*
D19*
X172540000Y-71250000D03*
D21*
X170000000Y-66170000D03*
X163650000Y-68710000D03*
G04 #@! TD*
D22*
G04 #@! TO.C,D17*
X200500000Y-68250000D03*
X198750000Y-68250000D03*
X198750000Y-71750000D03*
X200500000Y-71750000D03*
G04 #@! TD*
D23*
G04 #@! TO.C,J1*
X128000000Y-28880000D03*
D24*
X128000000Y-31420000D03*
X128000000Y-33960000D03*
X128000000Y-36500000D03*
G04 #@! TD*
D25*
G04 #@! TO.C,D20*
X191250000Y-98875000D03*
X191250000Y-97125000D03*
X187750000Y-97125000D03*
X187750000Y-98875000D03*
G04 #@! TD*
D26*
G04 #@! TO.C,U1*
X181665000Y-27510000D03*
D27*
X182500000Y-27510000D03*
D26*
X181665000Y-30050000D03*
D27*
X182500000Y-30050000D03*
D26*
X181665000Y-32590000D03*
D27*
X182500000Y-32590000D03*
D26*
X181665000Y-35130000D03*
D27*
X182500000Y-35130000D03*
D26*
X181665000Y-37670000D03*
D27*
X182500000Y-37670000D03*
D26*
X181665000Y-40210000D03*
D27*
X182500000Y-40210000D03*
D26*
X181665000Y-42750000D03*
D27*
X182500000Y-42750000D03*
X197740000Y-42750000D03*
D28*
X198575000Y-42750000D03*
D27*
X197740000Y-40210000D03*
D28*
X198575000Y-40210000D03*
D27*
X197740000Y-37670000D03*
D28*
X198575000Y-37670000D03*
D27*
X197740000Y-35130000D03*
D28*
X198575000Y-35130000D03*
D27*
X197740000Y-32590000D03*
D28*
X198575000Y-32590000D03*
D27*
X197740000Y-30050000D03*
D28*
X198575000Y-30050000D03*
D27*
X197740000Y-27510000D03*
D28*
X198575000Y-27510000D03*
G04 #@! TD*
D19*
G04 #@! TO.C,SW2*
X124420000Y-52250000D03*
D20*
X129500000Y-52250000D03*
D19*
X134580000Y-52250000D03*
D21*
X132040000Y-47170000D03*
X125690000Y-49710000D03*
G04 #@! TD*
D22*
G04 #@! TO.C,D19*
X200750000Y-92000000D03*
X199000000Y-92000000D03*
X199000000Y-95500000D03*
X200750000Y-95500000D03*
G04 #@! TD*
D19*
G04 #@! TO.C,SW3*
X124420000Y-71250000D03*
D20*
X129500000Y-71250000D03*
D19*
X134580000Y-71250000D03*
D21*
X132040000Y-66170000D03*
X125690000Y-68710000D03*
G04 #@! TD*
D22*
G04 #@! TO.C,D16*
X200500000Y-58000000D03*
X198750000Y-58000000D03*
X198750000Y-61500000D03*
X200500000Y-61500000D03*
G04 #@! TD*
D19*
G04 #@! TO.C,SW10*
X162380000Y-90500000D03*
D20*
X167460000Y-90500000D03*
D19*
X172540000Y-90500000D03*
D21*
X170000000Y-85420000D03*
X163650000Y-87960000D03*
G04 #@! TD*
D16*
G04 #@! TO.C,SW1*
X181250000Y-54150000D03*
D17*
X181250000Y-59150000D03*
X181250000Y-56650000D03*
D18*
X188750000Y-51050000D03*
X188750000Y-62250000D03*
D17*
X195750000Y-59150000D03*
X195750000Y-54150000D03*
G04 #@! TD*
D19*
G04 #@! TO.C,SW8*
X162380000Y-52250000D03*
D20*
X167460000Y-52250000D03*
D19*
X172540000Y-52250000D03*
D21*
X170000000Y-47170000D03*
X163650000Y-49710000D03*
G04 #@! TD*
D19*
G04 #@! TO.C,SW7*
X143420000Y-90500000D03*
D20*
X148500000Y-90500000D03*
D19*
X153580000Y-90500000D03*
D21*
X151040000Y-85420000D03*
X144690000Y-87960000D03*
G04 #@! TD*
D22*
G04 #@! TO.C,D18*
X200625000Y-80500000D03*
X198875000Y-80500000D03*
X198875000Y-84000000D03*
X200625000Y-84000000D03*
G04 #@! TD*
D19*
G04 #@! TO.C,SW6*
X143420000Y-71250000D03*
D20*
X148500000Y-71250000D03*
D19*
X153580000Y-71250000D03*
D21*
X151040000Y-66170000D03*
X144690000Y-68710000D03*
G04 #@! TD*
D19*
G04 #@! TO.C,SW5*
X143420000Y-52250000D03*
D20*
X148500000Y-52250000D03*
D19*
X153580000Y-52250000D03*
D21*
X151040000Y-47170000D03*
X144690000Y-49710000D03*
G04 #@! TD*
D29*
G04 #@! TO.C,D1*
X133500000Y-76250000D03*
D30*
X125880000Y-76250000D03*
G04 #@! TD*
D29*
G04 #@! TO.C,D15*
X185130000Y-73250000D03*
D30*
X192750000Y-73250000D03*
G04 #@! TD*
D29*
G04 #@! TO.C,D6*
X171370000Y-57000000D03*
D30*
X163750000Y-57000000D03*
G04 #@! TD*
D29*
G04 #@! TO.C,D2*
X133620000Y-95250000D03*
D30*
X126000000Y-95250000D03*
G04 #@! TD*
D29*
G04 #@! TO.C,D5*
X171250000Y-76000000D03*
D30*
X163630000Y-76000000D03*
G04 #@! TD*
D29*
G04 #@! TO.C,D14*
X185630000Y-93250000D03*
D30*
X193250000Y-93250000D03*
G04 #@! TD*
D29*
G04 #@! TO.C,D10*
X192620000Y-65250000D03*
D30*
X185000000Y-65250000D03*
G04 #@! TD*
D29*
G04 #@! TO.C,D12*
X199500000Y-47130000D03*
D30*
X199500000Y-54750000D03*
G04 #@! TD*
D29*
G04 #@! TO.C,D4*
X171310000Y-95250000D03*
D30*
X163690000Y-95250000D03*
G04 #@! TD*
D29*
G04 #@! TO.C,D7*
X152370000Y-57000000D03*
D30*
X144750000Y-57000000D03*
G04 #@! TD*
D29*
G04 #@! TO.C,D9*
X133620000Y-57000000D03*
D30*
X126000000Y-57000000D03*
G04 #@! TD*
D29*
G04 #@! TO.C,D13*
X193120000Y-90500000D03*
D30*
X185500000Y-90500000D03*
G04 #@! TD*
D29*
G04 #@! TO.C,D8*
X152250000Y-76000000D03*
D30*
X144630000Y-76000000D03*
G04 #@! TD*
D29*
G04 #@! TO.C,D3*
X152500000Y-95250000D03*
D30*
X144880000Y-95250000D03*
G04 #@! TD*
D29*
G04 #@! TO.C,D11*
X192631546Y-67971381D03*
D30*
X185011546Y-67971381D03*
G04 #@! TD*
%LPD*%
M02*
