%TF.GenerationSoftware,KiCad,Pcbnew,8.0.6*%
%TF.CreationDate,2026-01-30T19:09:08+01:00*%
%TF.ProjectId,keyboard,6b657962-6f61-4726-942e-6b696361645f,rev?*%
%TF.SameCoordinates,Original*%
%TF.FileFunction,Legend,Bot*%
%TF.FilePolarity,Positive*%
%FSLAX46Y46*%
G04 Gerber Fmt 4.6, Leading zero omitted, Abs format (unit mm)*
G04 Created by KiCad (PCBNEW 8.0.6) date 2026-01-30 19:09:08*
%MOMM*%
%LPD*%
G01*
G04 APERTURE LIST*
%ADD10C,0.150000*%
%ADD11C,0.120000*%
%ADD12O,1.700000X1.700000*%
%ADD13R,1.700000X1.700000*%
%ADD14C,1.524000*%
%ADD15R,2.000000X2.000000*%
%ADD16C,2.000000*%
%ADD17R,3.200000X2.000000*%
%ADD18C,1.700000*%
%ADD19C,4.000000*%
%ADD20C,2.200000*%
%ADD21R,1.600000X1.600000*%
%ADD22O,1.600000X1.600000*%
G04 APERTURE END LIST*
D10*
X190714285Y-73704819D02*
X190714285Y-72704819D01*
X190714285Y-72704819D02*
X190476190Y-72704819D01*
X190476190Y-72704819D02*
X190333333Y-72752438D01*
X190333333Y-72752438D02*
X190238095Y-72847676D01*
X190238095Y-72847676D02*
X190190476Y-72942914D01*
X190190476Y-72942914D02*
X190142857Y-73133390D01*
X190142857Y-73133390D02*
X190142857Y-73276247D01*
X190142857Y-73276247D02*
X190190476Y-73466723D01*
X190190476Y-73466723D02*
X190238095Y-73561961D01*
X190238095Y-73561961D02*
X190333333Y-73657200D01*
X190333333Y-73657200D02*
X190476190Y-73704819D01*
X190476190Y-73704819D02*
X190714285Y-73704819D01*
X189190476Y-73704819D02*
X189761904Y-73704819D01*
X189476190Y-73704819D02*
X189476190Y-72704819D01*
X189476190Y-72704819D02*
X189571428Y-72847676D01*
X189571428Y-72847676D02*
X189666666Y-72942914D01*
X189666666Y-72942914D02*
X189761904Y-72990533D01*
X188285714Y-72704819D02*
X188761904Y-72704819D01*
X188761904Y-72704819D02*
X188809523Y-73181009D01*
X188809523Y-73181009D02*
X188761904Y-73133390D01*
X188761904Y-73133390D02*
X188666666Y-73085771D01*
X188666666Y-73085771D02*
X188428571Y-73085771D01*
X188428571Y-73085771D02*
X188333333Y-73133390D01*
X188333333Y-73133390D02*
X188285714Y-73181009D01*
X188285714Y-73181009D02*
X188238095Y-73276247D01*
X188238095Y-73276247D02*
X188238095Y-73514342D01*
X188238095Y-73514342D02*
X188285714Y-73609580D01*
X188285714Y-73609580D02*
X188333333Y-73657200D01*
X188333333Y-73657200D02*
X188428571Y-73704819D01*
X188428571Y-73704819D02*
X188666666Y-73704819D01*
X188666666Y-73704819D02*
X188761904Y-73657200D01*
X188761904Y-73657200D02*
X188809523Y-73609580D01*
X185391904Y-75504819D02*
X185391904Y-74504819D01*
X184820476Y-75504819D02*
X185249047Y-74933390D01*
X184820476Y-74504819D02*
X185391904Y-75076247D01*
X191214285Y-93704819D02*
X191214285Y-92704819D01*
X191214285Y-92704819D02*
X190976190Y-92704819D01*
X190976190Y-92704819D02*
X190833333Y-92752438D01*
X190833333Y-92752438D02*
X190738095Y-92847676D01*
X190738095Y-92847676D02*
X190690476Y-92942914D01*
X190690476Y-92942914D02*
X190642857Y-93133390D01*
X190642857Y-93133390D02*
X190642857Y-93276247D01*
X190642857Y-93276247D02*
X190690476Y-93466723D01*
X190690476Y-93466723D02*
X190738095Y-93561961D01*
X190738095Y-93561961D02*
X190833333Y-93657200D01*
X190833333Y-93657200D02*
X190976190Y-93704819D01*
X190976190Y-93704819D02*
X191214285Y-93704819D01*
X189690476Y-93704819D02*
X190261904Y-93704819D01*
X189976190Y-93704819D02*
X189976190Y-92704819D01*
X189976190Y-92704819D02*
X190071428Y-92847676D01*
X190071428Y-92847676D02*
X190166666Y-92942914D01*
X190166666Y-92942914D02*
X190261904Y-92990533D01*
X188833333Y-93038152D02*
X188833333Y-93704819D01*
X189071428Y-92657200D02*
X189309523Y-93371485D01*
X189309523Y-93371485D02*
X188690476Y-93371485D01*
X185891904Y-95504819D02*
X185891904Y-94504819D01*
X185320476Y-95504819D02*
X185749047Y-94933390D01*
X185320476Y-94504819D02*
X185891904Y-95076247D01*
X190214285Y-90954819D02*
X190214285Y-89954819D01*
X190214285Y-89954819D02*
X189976190Y-89954819D01*
X189976190Y-89954819D02*
X189833333Y-90002438D01*
X189833333Y-90002438D02*
X189738095Y-90097676D01*
X189738095Y-90097676D02*
X189690476Y-90192914D01*
X189690476Y-90192914D02*
X189642857Y-90383390D01*
X189642857Y-90383390D02*
X189642857Y-90526247D01*
X189642857Y-90526247D02*
X189690476Y-90716723D01*
X189690476Y-90716723D02*
X189738095Y-90811961D01*
X189738095Y-90811961D02*
X189833333Y-90907200D01*
X189833333Y-90907200D02*
X189976190Y-90954819D01*
X189976190Y-90954819D02*
X190214285Y-90954819D01*
X188690476Y-90954819D02*
X189261904Y-90954819D01*
X188976190Y-90954819D02*
X188976190Y-89954819D01*
X188976190Y-89954819D02*
X189071428Y-90097676D01*
X189071428Y-90097676D02*
X189166666Y-90192914D01*
X189166666Y-90192914D02*
X189261904Y-90240533D01*
X188357142Y-89954819D02*
X187738095Y-89954819D01*
X187738095Y-89954819D02*
X188071428Y-90335771D01*
X188071428Y-90335771D02*
X187928571Y-90335771D01*
X187928571Y-90335771D02*
X187833333Y-90383390D01*
X187833333Y-90383390D02*
X187785714Y-90431009D01*
X187785714Y-90431009D02*
X187738095Y-90526247D01*
X187738095Y-90526247D02*
X187738095Y-90764342D01*
X187738095Y-90764342D02*
X187785714Y-90859580D01*
X187785714Y-90859580D02*
X187833333Y-90907200D01*
X187833333Y-90907200D02*
X187928571Y-90954819D01*
X187928571Y-90954819D02*
X188214285Y-90954819D01*
X188214285Y-90954819D02*
X188309523Y-90907200D01*
X188309523Y-90907200D02*
X188357142Y-90859580D01*
X193381904Y-89154819D02*
X193381904Y-88154819D01*
X192810476Y-89154819D02*
X193239047Y-88583390D01*
X192810476Y-88154819D02*
X193381904Y-88726247D01*
X199931115Y-50133709D02*
X198931115Y-50133709D01*
X198931115Y-50133709D02*
X198931115Y-50371804D01*
X198931115Y-50371804D02*
X198978734Y-50514661D01*
X198978734Y-50514661D02*
X199073972Y-50609899D01*
X199073972Y-50609899D02*
X199169210Y-50657518D01*
X199169210Y-50657518D02*
X199359686Y-50705137D01*
X199359686Y-50705137D02*
X199502543Y-50705137D01*
X199502543Y-50705137D02*
X199693019Y-50657518D01*
X199693019Y-50657518D02*
X199788257Y-50609899D01*
X199788257Y-50609899D02*
X199883496Y-50514661D01*
X199883496Y-50514661D02*
X199931115Y-50371804D01*
X199931115Y-50371804D02*
X199931115Y-50133709D01*
X199931115Y-51657518D02*
X199931115Y-51086090D01*
X199931115Y-51371804D02*
X198931115Y-51371804D01*
X198931115Y-51371804D02*
X199073972Y-51276566D01*
X199073972Y-51276566D02*
X199169210Y-51181328D01*
X199169210Y-51181328D02*
X199216829Y-51086090D01*
X199026353Y-52038471D02*
X198978734Y-52086090D01*
X198978734Y-52086090D02*
X198931115Y-52181328D01*
X198931115Y-52181328D02*
X198931115Y-52419423D01*
X198931115Y-52419423D02*
X198978734Y-52514661D01*
X198978734Y-52514661D02*
X199026353Y-52562280D01*
X199026353Y-52562280D02*
X199121591Y-52609899D01*
X199121591Y-52609899D02*
X199216829Y-52609899D01*
X199216829Y-52609899D02*
X199359686Y-52562280D01*
X199359686Y-52562280D02*
X199931115Y-51990852D01*
X199931115Y-51990852D02*
X199931115Y-52609899D01*
X198154819Y-46868095D02*
X197154819Y-46868095D01*
X198154819Y-47439523D02*
X197583390Y-47010952D01*
X197154819Y-47439523D02*
X197726247Y-46868095D01*
X189714285Y-68454819D02*
X189714285Y-67454819D01*
X189714285Y-67454819D02*
X189476190Y-67454819D01*
X189476190Y-67454819D02*
X189333333Y-67502438D01*
X189333333Y-67502438D02*
X189238095Y-67597676D01*
X189238095Y-67597676D02*
X189190476Y-67692914D01*
X189190476Y-67692914D02*
X189142857Y-67883390D01*
X189142857Y-67883390D02*
X189142857Y-68026247D01*
X189142857Y-68026247D02*
X189190476Y-68216723D01*
X189190476Y-68216723D02*
X189238095Y-68311961D01*
X189238095Y-68311961D02*
X189333333Y-68407200D01*
X189333333Y-68407200D02*
X189476190Y-68454819D01*
X189476190Y-68454819D02*
X189714285Y-68454819D01*
X188190476Y-68454819D02*
X188761904Y-68454819D01*
X188476190Y-68454819D02*
X188476190Y-67454819D01*
X188476190Y-67454819D02*
X188571428Y-67597676D01*
X188571428Y-67597676D02*
X188666666Y-67692914D01*
X188666666Y-67692914D02*
X188761904Y-67740533D01*
X187238095Y-68454819D02*
X187809523Y-68454819D01*
X187523809Y-68454819D02*
X187523809Y-67454819D01*
X187523809Y-67454819D02*
X187619047Y-67597676D01*
X187619047Y-67597676D02*
X187714285Y-67692914D01*
X187714285Y-67692914D02*
X187809523Y-67740533D01*
X192893450Y-66626200D02*
X192893450Y-65626200D01*
X192322022Y-66626200D02*
X192750593Y-66054771D01*
X192322022Y-65626200D02*
X192893450Y-66197628D01*
X189714285Y-65704819D02*
X189714285Y-64704819D01*
X189714285Y-64704819D02*
X189476190Y-64704819D01*
X189476190Y-64704819D02*
X189333333Y-64752438D01*
X189333333Y-64752438D02*
X189238095Y-64847676D01*
X189238095Y-64847676D02*
X189190476Y-64942914D01*
X189190476Y-64942914D02*
X189142857Y-65133390D01*
X189142857Y-65133390D02*
X189142857Y-65276247D01*
X189142857Y-65276247D02*
X189190476Y-65466723D01*
X189190476Y-65466723D02*
X189238095Y-65561961D01*
X189238095Y-65561961D02*
X189333333Y-65657200D01*
X189333333Y-65657200D02*
X189476190Y-65704819D01*
X189476190Y-65704819D02*
X189714285Y-65704819D01*
X188190476Y-65704819D02*
X188761904Y-65704819D01*
X188476190Y-65704819D02*
X188476190Y-64704819D01*
X188476190Y-64704819D02*
X188571428Y-64847676D01*
X188571428Y-64847676D02*
X188666666Y-64942914D01*
X188666666Y-64942914D02*
X188761904Y-64990533D01*
X187571428Y-64704819D02*
X187476190Y-64704819D01*
X187476190Y-64704819D02*
X187380952Y-64752438D01*
X187380952Y-64752438D02*
X187333333Y-64800057D01*
X187333333Y-64800057D02*
X187285714Y-64895295D01*
X187285714Y-64895295D02*
X187238095Y-65085771D01*
X187238095Y-65085771D02*
X187238095Y-65323866D01*
X187238095Y-65323866D02*
X187285714Y-65514342D01*
X187285714Y-65514342D02*
X187333333Y-65609580D01*
X187333333Y-65609580D02*
X187380952Y-65657200D01*
X187380952Y-65657200D02*
X187476190Y-65704819D01*
X187476190Y-65704819D02*
X187571428Y-65704819D01*
X187571428Y-65704819D02*
X187666666Y-65657200D01*
X187666666Y-65657200D02*
X187714285Y-65609580D01*
X187714285Y-65609580D02*
X187761904Y-65514342D01*
X187761904Y-65514342D02*
X187809523Y-65323866D01*
X187809523Y-65323866D02*
X187809523Y-65085771D01*
X187809523Y-65085771D02*
X187761904Y-64895295D01*
X187761904Y-64895295D02*
X187714285Y-64800057D01*
X187714285Y-64800057D02*
X187666666Y-64752438D01*
X187666666Y-64752438D02*
X187571428Y-64704819D01*
X192881904Y-63904819D02*
X192881904Y-62904819D01*
X192310476Y-63904819D02*
X192739047Y-63333390D01*
X192310476Y-62904819D02*
X192881904Y-63476247D01*
X130548094Y-55334819D02*
X130548094Y-54334819D01*
X130548094Y-54334819D02*
X130309999Y-54334819D01*
X130309999Y-54334819D02*
X130167142Y-54382438D01*
X130167142Y-54382438D02*
X130071904Y-54477676D01*
X130071904Y-54477676D02*
X130024285Y-54572914D01*
X130024285Y-54572914D02*
X129976666Y-54763390D01*
X129976666Y-54763390D02*
X129976666Y-54906247D01*
X129976666Y-54906247D02*
X130024285Y-55096723D01*
X130024285Y-55096723D02*
X130071904Y-55191961D01*
X130071904Y-55191961D02*
X130167142Y-55287200D01*
X130167142Y-55287200D02*
X130309999Y-55334819D01*
X130309999Y-55334819D02*
X130548094Y-55334819D01*
X129500475Y-55334819D02*
X129309999Y-55334819D01*
X129309999Y-55334819D02*
X129214761Y-55287200D01*
X129214761Y-55287200D02*
X129167142Y-55239580D01*
X129167142Y-55239580D02*
X129071904Y-55096723D01*
X129071904Y-55096723D02*
X129024285Y-54906247D01*
X129024285Y-54906247D02*
X129024285Y-54525295D01*
X129024285Y-54525295D02*
X129071904Y-54430057D01*
X129071904Y-54430057D02*
X129119523Y-54382438D01*
X129119523Y-54382438D02*
X129214761Y-54334819D01*
X129214761Y-54334819D02*
X129405237Y-54334819D01*
X129405237Y-54334819D02*
X129500475Y-54382438D01*
X129500475Y-54382438D02*
X129548094Y-54430057D01*
X129548094Y-54430057D02*
X129595713Y-54525295D01*
X129595713Y-54525295D02*
X129595713Y-54763390D01*
X129595713Y-54763390D02*
X129548094Y-54858628D01*
X129548094Y-54858628D02*
X129500475Y-54906247D01*
X129500475Y-54906247D02*
X129405237Y-54953866D01*
X129405237Y-54953866D02*
X129214761Y-54953866D01*
X129214761Y-54953866D02*
X129119523Y-54906247D01*
X129119523Y-54906247D02*
X129071904Y-54858628D01*
X129071904Y-54858628D02*
X129024285Y-54763390D01*
X133881904Y-55654819D02*
X133881904Y-54654819D01*
X133310476Y-55654819D02*
X133739047Y-55083390D01*
X133310476Y-54654819D02*
X133881904Y-55226247D01*
X149178094Y-74334819D02*
X149178094Y-73334819D01*
X149178094Y-73334819D02*
X148939999Y-73334819D01*
X148939999Y-73334819D02*
X148797142Y-73382438D01*
X148797142Y-73382438D02*
X148701904Y-73477676D01*
X148701904Y-73477676D02*
X148654285Y-73572914D01*
X148654285Y-73572914D02*
X148606666Y-73763390D01*
X148606666Y-73763390D02*
X148606666Y-73906247D01*
X148606666Y-73906247D02*
X148654285Y-74096723D01*
X148654285Y-74096723D02*
X148701904Y-74191961D01*
X148701904Y-74191961D02*
X148797142Y-74287200D01*
X148797142Y-74287200D02*
X148939999Y-74334819D01*
X148939999Y-74334819D02*
X149178094Y-74334819D01*
X148035237Y-73763390D02*
X148130475Y-73715771D01*
X148130475Y-73715771D02*
X148178094Y-73668152D01*
X148178094Y-73668152D02*
X148225713Y-73572914D01*
X148225713Y-73572914D02*
X148225713Y-73525295D01*
X148225713Y-73525295D02*
X148178094Y-73430057D01*
X148178094Y-73430057D02*
X148130475Y-73382438D01*
X148130475Y-73382438D02*
X148035237Y-73334819D01*
X148035237Y-73334819D02*
X147844761Y-73334819D01*
X147844761Y-73334819D02*
X147749523Y-73382438D01*
X147749523Y-73382438D02*
X147701904Y-73430057D01*
X147701904Y-73430057D02*
X147654285Y-73525295D01*
X147654285Y-73525295D02*
X147654285Y-73572914D01*
X147654285Y-73572914D02*
X147701904Y-73668152D01*
X147701904Y-73668152D02*
X147749523Y-73715771D01*
X147749523Y-73715771D02*
X147844761Y-73763390D01*
X147844761Y-73763390D02*
X148035237Y-73763390D01*
X148035237Y-73763390D02*
X148130475Y-73811009D01*
X148130475Y-73811009D02*
X148178094Y-73858628D01*
X148178094Y-73858628D02*
X148225713Y-73953866D01*
X148225713Y-73953866D02*
X148225713Y-74144342D01*
X148225713Y-74144342D02*
X148178094Y-74239580D01*
X148178094Y-74239580D02*
X148130475Y-74287200D01*
X148130475Y-74287200D02*
X148035237Y-74334819D01*
X148035237Y-74334819D02*
X147844761Y-74334819D01*
X147844761Y-74334819D02*
X147749523Y-74287200D01*
X147749523Y-74287200D02*
X147701904Y-74239580D01*
X147701904Y-74239580D02*
X147654285Y-74144342D01*
X147654285Y-74144342D02*
X147654285Y-73953866D01*
X147654285Y-73953866D02*
X147701904Y-73858628D01*
X147701904Y-73858628D02*
X147749523Y-73811009D01*
X147749523Y-73811009D02*
X147844761Y-73763390D01*
X152511904Y-74654819D02*
X152511904Y-73654819D01*
X151940476Y-74654819D02*
X152369047Y-74083390D01*
X151940476Y-73654819D02*
X152511904Y-74226247D01*
X149298094Y-55334819D02*
X149298094Y-54334819D01*
X149298094Y-54334819D02*
X149059999Y-54334819D01*
X149059999Y-54334819D02*
X148917142Y-54382438D01*
X148917142Y-54382438D02*
X148821904Y-54477676D01*
X148821904Y-54477676D02*
X148774285Y-54572914D01*
X148774285Y-54572914D02*
X148726666Y-54763390D01*
X148726666Y-54763390D02*
X148726666Y-54906247D01*
X148726666Y-54906247D02*
X148774285Y-55096723D01*
X148774285Y-55096723D02*
X148821904Y-55191961D01*
X148821904Y-55191961D02*
X148917142Y-55287200D01*
X148917142Y-55287200D02*
X149059999Y-55334819D01*
X149059999Y-55334819D02*
X149298094Y-55334819D01*
X148393332Y-54334819D02*
X147726666Y-54334819D01*
X147726666Y-54334819D02*
X148155237Y-55334819D01*
X152631904Y-55654819D02*
X152631904Y-54654819D01*
X152060476Y-55654819D02*
X152489047Y-55083390D01*
X152060476Y-54654819D02*
X152631904Y-55226247D01*
X168298094Y-55334819D02*
X168298094Y-54334819D01*
X168298094Y-54334819D02*
X168059999Y-54334819D01*
X168059999Y-54334819D02*
X167917142Y-54382438D01*
X167917142Y-54382438D02*
X167821904Y-54477676D01*
X167821904Y-54477676D02*
X167774285Y-54572914D01*
X167774285Y-54572914D02*
X167726666Y-54763390D01*
X167726666Y-54763390D02*
X167726666Y-54906247D01*
X167726666Y-54906247D02*
X167774285Y-55096723D01*
X167774285Y-55096723D02*
X167821904Y-55191961D01*
X167821904Y-55191961D02*
X167917142Y-55287200D01*
X167917142Y-55287200D02*
X168059999Y-55334819D01*
X168059999Y-55334819D02*
X168298094Y-55334819D01*
X166869523Y-54334819D02*
X167059999Y-54334819D01*
X167059999Y-54334819D02*
X167155237Y-54382438D01*
X167155237Y-54382438D02*
X167202856Y-54430057D01*
X167202856Y-54430057D02*
X167298094Y-54572914D01*
X167298094Y-54572914D02*
X167345713Y-54763390D01*
X167345713Y-54763390D02*
X167345713Y-55144342D01*
X167345713Y-55144342D02*
X167298094Y-55239580D01*
X167298094Y-55239580D02*
X167250475Y-55287200D01*
X167250475Y-55287200D02*
X167155237Y-55334819D01*
X167155237Y-55334819D02*
X166964761Y-55334819D01*
X166964761Y-55334819D02*
X166869523Y-55287200D01*
X166869523Y-55287200D02*
X166821904Y-55239580D01*
X166821904Y-55239580D02*
X166774285Y-55144342D01*
X166774285Y-55144342D02*
X166774285Y-54906247D01*
X166774285Y-54906247D02*
X166821904Y-54811009D01*
X166821904Y-54811009D02*
X166869523Y-54763390D01*
X166869523Y-54763390D02*
X166964761Y-54715771D01*
X166964761Y-54715771D02*
X167155237Y-54715771D01*
X167155237Y-54715771D02*
X167250475Y-54763390D01*
X167250475Y-54763390D02*
X167298094Y-54811009D01*
X167298094Y-54811009D02*
X167345713Y-54906247D01*
X171631904Y-55654819D02*
X171631904Y-54654819D01*
X171060476Y-55654819D02*
X171489047Y-55083390D01*
X171060476Y-54654819D02*
X171631904Y-55226247D01*
X167738094Y-76454819D02*
X167738094Y-75454819D01*
X167738094Y-75454819D02*
X167499999Y-75454819D01*
X167499999Y-75454819D02*
X167357142Y-75502438D01*
X167357142Y-75502438D02*
X167261904Y-75597676D01*
X167261904Y-75597676D02*
X167214285Y-75692914D01*
X167214285Y-75692914D02*
X167166666Y-75883390D01*
X167166666Y-75883390D02*
X167166666Y-76026247D01*
X167166666Y-76026247D02*
X167214285Y-76216723D01*
X167214285Y-76216723D02*
X167261904Y-76311961D01*
X167261904Y-76311961D02*
X167357142Y-76407200D01*
X167357142Y-76407200D02*
X167499999Y-76454819D01*
X167499999Y-76454819D02*
X167738094Y-76454819D01*
X166261904Y-75454819D02*
X166738094Y-75454819D01*
X166738094Y-75454819D02*
X166785713Y-75931009D01*
X166785713Y-75931009D02*
X166738094Y-75883390D01*
X166738094Y-75883390D02*
X166642856Y-75835771D01*
X166642856Y-75835771D02*
X166404761Y-75835771D01*
X166404761Y-75835771D02*
X166309523Y-75883390D01*
X166309523Y-75883390D02*
X166261904Y-75931009D01*
X166261904Y-75931009D02*
X166214285Y-76026247D01*
X166214285Y-76026247D02*
X166214285Y-76264342D01*
X166214285Y-76264342D02*
X166261904Y-76359580D01*
X166261904Y-76359580D02*
X166309523Y-76407200D01*
X166309523Y-76407200D02*
X166404761Y-76454819D01*
X166404761Y-76454819D02*
X166642856Y-76454819D01*
X166642856Y-76454819D02*
X166738094Y-76407200D01*
X166738094Y-76407200D02*
X166785713Y-76359580D01*
X171511904Y-74654819D02*
X171511904Y-73654819D01*
X170940476Y-74654819D02*
X171369047Y-74083390D01*
X170940476Y-73654819D02*
X171511904Y-74226247D01*
X168238094Y-93584819D02*
X168238094Y-92584819D01*
X168238094Y-92584819D02*
X167999999Y-92584819D01*
X167999999Y-92584819D02*
X167857142Y-92632438D01*
X167857142Y-92632438D02*
X167761904Y-92727676D01*
X167761904Y-92727676D02*
X167714285Y-92822914D01*
X167714285Y-92822914D02*
X167666666Y-93013390D01*
X167666666Y-93013390D02*
X167666666Y-93156247D01*
X167666666Y-93156247D02*
X167714285Y-93346723D01*
X167714285Y-93346723D02*
X167761904Y-93441961D01*
X167761904Y-93441961D02*
X167857142Y-93537200D01*
X167857142Y-93537200D02*
X167999999Y-93584819D01*
X167999999Y-93584819D02*
X168238094Y-93584819D01*
X166809523Y-92918152D02*
X166809523Y-93584819D01*
X167047618Y-92537200D02*
X167285713Y-93251485D01*
X167285713Y-93251485D02*
X166666666Y-93251485D01*
X171571904Y-93904819D02*
X171571904Y-92904819D01*
X171000476Y-93904819D02*
X171429047Y-93333390D01*
X171000476Y-92904819D02*
X171571904Y-93476247D01*
X149428094Y-93584819D02*
X149428094Y-92584819D01*
X149428094Y-92584819D02*
X149189999Y-92584819D01*
X149189999Y-92584819D02*
X149047142Y-92632438D01*
X149047142Y-92632438D02*
X148951904Y-92727676D01*
X148951904Y-92727676D02*
X148904285Y-92822914D01*
X148904285Y-92822914D02*
X148856666Y-93013390D01*
X148856666Y-93013390D02*
X148856666Y-93156247D01*
X148856666Y-93156247D02*
X148904285Y-93346723D01*
X148904285Y-93346723D02*
X148951904Y-93441961D01*
X148951904Y-93441961D02*
X149047142Y-93537200D01*
X149047142Y-93537200D02*
X149189999Y-93584819D01*
X149189999Y-93584819D02*
X149428094Y-93584819D01*
X148523332Y-92584819D02*
X147904285Y-92584819D01*
X147904285Y-92584819D02*
X148237618Y-92965771D01*
X148237618Y-92965771D02*
X148094761Y-92965771D01*
X148094761Y-92965771D02*
X147999523Y-93013390D01*
X147999523Y-93013390D02*
X147951904Y-93061009D01*
X147951904Y-93061009D02*
X147904285Y-93156247D01*
X147904285Y-93156247D02*
X147904285Y-93394342D01*
X147904285Y-93394342D02*
X147951904Y-93489580D01*
X147951904Y-93489580D02*
X147999523Y-93537200D01*
X147999523Y-93537200D02*
X148094761Y-93584819D01*
X148094761Y-93584819D02*
X148380475Y-93584819D01*
X148380475Y-93584819D02*
X148475713Y-93537200D01*
X148475713Y-93537200D02*
X148523332Y-93489580D01*
X152761904Y-93904819D02*
X152761904Y-92904819D01*
X152190476Y-93904819D02*
X152619047Y-93333390D01*
X152190476Y-92904819D02*
X152761904Y-93476247D01*
X130548094Y-93584819D02*
X130548094Y-92584819D01*
X130548094Y-92584819D02*
X130309999Y-92584819D01*
X130309999Y-92584819D02*
X130167142Y-92632438D01*
X130167142Y-92632438D02*
X130071904Y-92727676D01*
X130071904Y-92727676D02*
X130024285Y-92822914D01*
X130024285Y-92822914D02*
X129976666Y-93013390D01*
X129976666Y-93013390D02*
X129976666Y-93156247D01*
X129976666Y-93156247D02*
X130024285Y-93346723D01*
X130024285Y-93346723D02*
X130071904Y-93441961D01*
X130071904Y-93441961D02*
X130167142Y-93537200D01*
X130167142Y-93537200D02*
X130309999Y-93584819D01*
X130309999Y-93584819D02*
X130548094Y-93584819D01*
X129595713Y-92680057D02*
X129548094Y-92632438D01*
X129548094Y-92632438D02*
X129452856Y-92584819D01*
X129452856Y-92584819D02*
X129214761Y-92584819D01*
X129214761Y-92584819D02*
X129119523Y-92632438D01*
X129119523Y-92632438D02*
X129071904Y-92680057D01*
X129071904Y-92680057D02*
X129024285Y-92775295D01*
X129024285Y-92775295D02*
X129024285Y-92870533D01*
X129024285Y-92870533D02*
X129071904Y-93013390D01*
X129071904Y-93013390D02*
X129643332Y-93584819D01*
X129643332Y-93584819D02*
X129024285Y-93584819D01*
X133881904Y-93904819D02*
X133881904Y-92904819D01*
X133310476Y-93904819D02*
X133739047Y-93333390D01*
X133310476Y-92904819D02*
X133881904Y-93476247D01*
X130428094Y-74584819D02*
X130428094Y-73584819D01*
X130428094Y-73584819D02*
X130189999Y-73584819D01*
X130189999Y-73584819D02*
X130047142Y-73632438D01*
X130047142Y-73632438D02*
X129951904Y-73727676D01*
X129951904Y-73727676D02*
X129904285Y-73822914D01*
X129904285Y-73822914D02*
X129856666Y-74013390D01*
X129856666Y-74013390D02*
X129856666Y-74156247D01*
X129856666Y-74156247D02*
X129904285Y-74346723D01*
X129904285Y-74346723D02*
X129951904Y-74441961D01*
X129951904Y-74441961D02*
X130047142Y-74537200D01*
X130047142Y-74537200D02*
X130189999Y-74584819D01*
X130189999Y-74584819D02*
X130428094Y-74584819D01*
X128904285Y-74584819D02*
X129475713Y-74584819D01*
X129189999Y-74584819D02*
X129189999Y-73584819D01*
X129189999Y-73584819D02*
X129285237Y-73727676D01*
X129285237Y-73727676D02*
X129380475Y-73822914D01*
X129380475Y-73822914D02*
X129475713Y-73870533D01*
X133761904Y-74904819D02*
X133761904Y-73904819D01*
X133190476Y-74904819D02*
X133619047Y-74333390D01*
X133190476Y-73904819D02*
X133761904Y-74476247D01*
D11*
%TO.C,D15*%
X186820000Y-73250000D02*
X186170000Y-73250000D01*
X186820000Y-72130000D02*
X186820000Y-74370000D01*
X191060000Y-72130000D02*
X186820000Y-72130000D01*
X187420000Y-72130000D02*
X187420000Y-74370000D01*
X187540000Y-72130000D02*
X187540000Y-74370000D01*
X187660000Y-72130000D02*
X187660000Y-74370000D01*
X186820000Y-74370000D02*
X191060000Y-74370000D01*
X191060000Y-74370000D02*
X191060000Y-72130000D01*
X191060000Y-73250000D02*
X191710000Y-73250000D01*
%TO.C,D14*%
X187320000Y-93250000D02*
X186670000Y-93250000D01*
X187320000Y-92130000D02*
X187320000Y-94370000D01*
X191560000Y-92130000D02*
X187320000Y-92130000D01*
X187920000Y-92130000D02*
X187920000Y-94370000D01*
X188040000Y-92130000D02*
X188040000Y-94370000D01*
X188160000Y-92130000D02*
X188160000Y-94370000D01*
X187320000Y-94370000D02*
X191560000Y-94370000D01*
X191560000Y-94370000D02*
X191560000Y-92130000D01*
X191560000Y-93250000D02*
X192210000Y-93250000D01*
%TO.C,D13*%
X191430000Y-90500000D02*
X192080000Y-90500000D01*
X191430000Y-91620000D02*
X191430000Y-89380000D01*
X187190000Y-91620000D02*
X191430000Y-91620000D01*
X190830000Y-91620000D02*
X190830000Y-89380000D01*
X190710000Y-91620000D02*
X190710000Y-89380000D01*
X190590000Y-91620000D02*
X190590000Y-89380000D01*
X191430000Y-89380000D02*
X187190000Y-89380000D01*
X187190000Y-89380000D02*
X187190000Y-91620000D01*
X187190000Y-90500000D02*
X186540000Y-90500000D01*
%TO.C,D12*%
X199500000Y-48820000D02*
X199500000Y-48170000D01*
X200620000Y-48820000D02*
X198380000Y-48820000D01*
X200620000Y-53060000D02*
X200620000Y-48820000D01*
X200620000Y-49420000D02*
X198380000Y-49420000D01*
X200620000Y-49540000D02*
X198380000Y-49540000D01*
X200620000Y-49660000D02*
X198380000Y-49660000D01*
X198380000Y-48820000D02*
X198380000Y-53060000D01*
X198380000Y-53060000D02*
X200620000Y-53060000D01*
X199500000Y-53060000D02*
X199500000Y-53710000D01*
%TO.C,D11*%
X190941546Y-67971381D02*
X191591546Y-67971381D01*
X190941546Y-69091381D02*
X190941546Y-66851381D01*
X186701546Y-69091381D02*
X190941546Y-69091381D01*
X190341546Y-69091381D02*
X190341546Y-66851381D01*
X190221546Y-69091381D02*
X190221546Y-66851381D01*
X190101546Y-69091381D02*
X190101546Y-66851381D01*
X190941546Y-66851381D02*
X186701546Y-66851381D01*
X186701546Y-66851381D02*
X186701546Y-69091381D01*
X186701546Y-67971381D02*
X186051546Y-67971381D01*
%TO.C,D10*%
X190930000Y-65250000D02*
X191580000Y-65250000D01*
X190930000Y-66370000D02*
X190930000Y-64130000D01*
X186690000Y-66370000D02*
X190930000Y-66370000D01*
X190330000Y-66370000D02*
X190330000Y-64130000D01*
X190210000Y-66370000D02*
X190210000Y-64130000D01*
X190090000Y-66370000D02*
X190090000Y-64130000D01*
X190930000Y-64130000D02*
X186690000Y-64130000D01*
X186690000Y-64130000D02*
X186690000Y-66370000D01*
X186690000Y-65250000D02*
X186040000Y-65250000D01*
%TO.C,D9*%
X131930000Y-57000000D02*
X132580000Y-57000000D01*
X131930000Y-58120000D02*
X131930000Y-55880000D01*
X127690000Y-58120000D02*
X131930000Y-58120000D01*
X131330000Y-58120000D02*
X131330000Y-55880000D01*
X131210000Y-58120000D02*
X131210000Y-55880000D01*
X131090000Y-58120000D02*
X131090000Y-55880000D01*
X131930000Y-55880000D02*
X127690000Y-55880000D01*
X127690000Y-55880000D02*
X127690000Y-58120000D01*
X127690000Y-57000000D02*
X127040000Y-57000000D01*
%TO.C,D8*%
X150560000Y-76000000D02*
X151210000Y-76000000D01*
X150560000Y-77120000D02*
X150560000Y-74880000D01*
X146320000Y-77120000D02*
X150560000Y-77120000D01*
X149960000Y-77120000D02*
X149960000Y-74880000D01*
X149840000Y-77120000D02*
X149840000Y-74880000D01*
X149720000Y-77120000D02*
X149720000Y-74880000D01*
X150560000Y-74880000D02*
X146320000Y-74880000D01*
X146320000Y-74880000D02*
X146320000Y-77120000D01*
X146320000Y-76000000D02*
X145670000Y-76000000D01*
%TO.C,D7*%
X150680000Y-57000000D02*
X151330000Y-57000000D01*
X150680000Y-58120000D02*
X150680000Y-55880000D01*
X146440000Y-58120000D02*
X150680000Y-58120000D01*
X150080000Y-58120000D02*
X150080000Y-55880000D01*
X149960000Y-58120000D02*
X149960000Y-55880000D01*
X149840000Y-58120000D02*
X149840000Y-55880000D01*
X150680000Y-55880000D02*
X146440000Y-55880000D01*
X146440000Y-55880000D02*
X146440000Y-58120000D01*
X146440000Y-57000000D02*
X145790000Y-57000000D01*
%TO.C,D6*%
X169680000Y-57000000D02*
X170330000Y-57000000D01*
X169680000Y-58120000D02*
X169680000Y-55880000D01*
X165440000Y-58120000D02*
X169680000Y-58120000D01*
X169080000Y-58120000D02*
X169080000Y-55880000D01*
X168960000Y-58120000D02*
X168960000Y-55880000D01*
X168840000Y-58120000D02*
X168840000Y-55880000D01*
X169680000Y-55880000D02*
X165440000Y-55880000D01*
X165440000Y-55880000D02*
X165440000Y-58120000D01*
X165440000Y-57000000D02*
X164790000Y-57000000D01*
%TO.C,D5*%
X169560000Y-76000000D02*
X170210000Y-76000000D01*
X169560000Y-77120000D02*
X169560000Y-74880000D01*
X165320000Y-77120000D02*
X169560000Y-77120000D01*
X168960000Y-77120000D02*
X168960000Y-74880000D01*
X168840000Y-77120000D02*
X168840000Y-74880000D01*
X168720000Y-77120000D02*
X168720000Y-74880000D01*
X169560000Y-74880000D02*
X165320000Y-74880000D01*
X165320000Y-74880000D02*
X165320000Y-77120000D01*
X165320000Y-76000000D02*
X164670000Y-76000000D01*
%TO.C,D4*%
X169620000Y-95250000D02*
X170270000Y-95250000D01*
X169620000Y-96370000D02*
X169620000Y-94130000D01*
X165380000Y-96370000D02*
X169620000Y-96370000D01*
X169020000Y-96370000D02*
X169020000Y-94130000D01*
X168900000Y-96370000D02*
X168900000Y-94130000D01*
X168780000Y-96370000D02*
X168780000Y-94130000D01*
X169620000Y-94130000D02*
X165380000Y-94130000D01*
X165380000Y-94130000D02*
X165380000Y-96370000D01*
X165380000Y-95250000D02*
X164730000Y-95250000D01*
%TO.C,D3*%
X150810000Y-95250000D02*
X151460000Y-95250000D01*
X150810000Y-96370000D02*
X150810000Y-94130000D01*
X146570000Y-96370000D02*
X150810000Y-96370000D01*
X150210000Y-96370000D02*
X150210000Y-94130000D01*
X150090000Y-96370000D02*
X150090000Y-94130000D01*
X149970000Y-96370000D02*
X149970000Y-94130000D01*
X150810000Y-94130000D02*
X146570000Y-94130000D01*
X146570000Y-94130000D02*
X146570000Y-96370000D01*
X146570000Y-95250000D02*
X145920000Y-95250000D01*
%TO.C,D2*%
X131930000Y-95250000D02*
X132580000Y-95250000D01*
X131930000Y-96370000D02*
X131930000Y-94130000D01*
X127690000Y-96370000D02*
X131930000Y-96370000D01*
X131330000Y-96370000D02*
X131330000Y-94130000D01*
X131210000Y-96370000D02*
X131210000Y-94130000D01*
X131090000Y-96370000D02*
X131090000Y-94130000D01*
X131930000Y-94130000D02*
X127690000Y-94130000D01*
X127690000Y-94130000D02*
X127690000Y-96370000D01*
X127690000Y-95250000D02*
X127040000Y-95250000D01*
%TO.C,D1*%
X131810000Y-76250000D02*
X132460000Y-76250000D01*
X131810000Y-77370000D02*
X131810000Y-75130000D01*
X127570000Y-77370000D02*
X131810000Y-77370000D01*
X131210000Y-77370000D02*
X131210000Y-75130000D01*
X131090000Y-77370000D02*
X131090000Y-75130000D01*
X130970000Y-77370000D02*
X130970000Y-75130000D01*
X131810000Y-75130000D02*
X127570000Y-75130000D01*
X127570000Y-75130000D02*
X127570000Y-77370000D01*
X127570000Y-76250000D02*
X126920000Y-76250000D01*
%TD*%
%LPC*%
D12*
%TO.C,J1*%
X128000000Y-36500000D03*
X128000000Y-33960000D03*
X128000000Y-31420000D03*
D13*
X128000000Y-28880000D03*
%TD*%
D14*
%TO.C,U1*%
X182500000Y-27510000D03*
X182500000Y-30050000D03*
X182500000Y-32590000D03*
X182500000Y-35130000D03*
X182500000Y-37670000D03*
X182500000Y-40210000D03*
X182500000Y-42750000D03*
X197740000Y-42750000D03*
X197740000Y-40210000D03*
X197740000Y-37670000D03*
X197740000Y-35130000D03*
X197740000Y-32590000D03*
X197740000Y-30050000D03*
X197740000Y-27510000D03*
%TD*%
D15*
%TO.C,SW11*%
X181250000Y-79500000D03*
D16*
X181250000Y-84500000D03*
X181250000Y-82000000D03*
D17*
X188750000Y-76400000D03*
X188750000Y-87600000D03*
D16*
X195750000Y-84500000D03*
X195750000Y-79500000D03*
%TD*%
D18*
%TO.C,SW10*%
X162380000Y-90500000D03*
D19*
X167460000Y-90500000D03*
D18*
X172540000Y-90500000D03*
D20*
X170000000Y-85420000D03*
X163650000Y-87960000D03*
%TD*%
D18*
%TO.C,SW9*%
X162380000Y-71250000D03*
D19*
X167460000Y-71250000D03*
D18*
X172540000Y-71250000D03*
D20*
X170000000Y-66170000D03*
X163650000Y-68710000D03*
%TD*%
D18*
%TO.C,SW8*%
X162380000Y-52250000D03*
D19*
X167460000Y-52250000D03*
D18*
X172540000Y-52250000D03*
D20*
X170000000Y-47170000D03*
X163650000Y-49710000D03*
%TD*%
D18*
%TO.C,SW7*%
X143420000Y-90500000D03*
D19*
X148500000Y-90500000D03*
D18*
X153580000Y-90500000D03*
D20*
X151040000Y-85420000D03*
X144690000Y-87960000D03*
%TD*%
D18*
%TO.C,SW6*%
X143420000Y-71250000D03*
D19*
X148500000Y-71250000D03*
D18*
X153580000Y-71250000D03*
D20*
X151040000Y-66170000D03*
X144690000Y-68710000D03*
%TD*%
D18*
%TO.C,SW5*%
X143420000Y-52250000D03*
D19*
X148500000Y-52250000D03*
D18*
X153580000Y-52250000D03*
D20*
X151040000Y-47170000D03*
X144690000Y-49710000D03*
%TD*%
D18*
%TO.C,SW4*%
X124420000Y-90500000D03*
D19*
X129500000Y-90500000D03*
D18*
X134580000Y-90500000D03*
D20*
X132040000Y-85420000D03*
X125690000Y-87960000D03*
%TD*%
D18*
%TO.C,SW3*%
X124420000Y-71250000D03*
D19*
X129500000Y-71250000D03*
D18*
X134580000Y-71250000D03*
D20*
X132040000Y-66170000D03*
X125690000Y-68710000D03*
%TD*%
D18*
%TO.C,SW2*%
X124420000Y-52250000D03*
D19*
X129500000Y-52250000D03*
D18*
X134580000Y-52250000D03*
D20*
X132040000Y-47170000D03*
X125690000Y-49710000D03*
%TD*%
D16*
%TO.C,SW1*%
X195750000Y-54150000D03*
X195750000Y-59150000D03*
D17*
X188750000Y-62250000D03*
X188750000Y-51050000D03*
D16*
X181250000Y-56650000D03*
X181250000Y-59150000D03*
D15*
X181250000Y-54150000D03*
%TD*%
D21*
%TO.C,D15*%
X185130000Y-73250000D03*
D22*
X192750000Y-73250000D03*
%TD*%
D21*
%TO.C,D14*%
X185630000Y-93250000D03*
D22*
X193250000Y-93250000D03*
%TD*%
D21*
%TO.C,D13*%
X193120000Y-90500000D03*
D22*
X185500000Y-90500000D03*
%TD*%
D21*
%TO.C,D12*%
X199500000Y-47130000D03*
D22*
X199500000Y-54750000D03*
%TD*%
D21*
%TO.C,D11*%
X192631546Y-67971381D03*
D22*
X185011546Y-67971381D03*
%TD*%
D21*
%TO.C,D10*%
X192620000Y-65250000D03*
D22*
X185000000Y-65250000D03*
%TD*%
D21*
%TO.C,D9*%
X133620000Y-57000000D03*
D22*
X126000000Y-57000000D03*
%TD*%
D21*
%TO.C,D8*%
X152250000Y-76000000D03*
D22*
X144630000Y-76000000D03*
%TD*%
D21*
%TO.C,D7*%
X152370000Y-57000000D03*
D22*
X144750000Y-57000000D03*
%TD*%
D21*
%TO.C,D6*%
X171370000Y-57000000D03*
D22*
X163750000Y-57000000D03*
%TD*%
D21*
%TO.C,D5*%
X171250000Y-76000000D03*
D22*
X163630000Y-76000000D03*
%TD*%
D21*
%TO.C,D4*%
X171310000Y-95250000D03*
D22*
X163690000Y-95250000D03*
%TD*%
D21*
%TO.C,D3*%
X152500000Y-95250000D03*
D22*
X144880000Y-95250000D03*
%TD*%
D21*
%TO.C,D2*%
X133620000Y-95250000D03*
D22*
X126000000Y-95250000D03*
%TD*%
D21*
%TO.C,D1*%
X133500000Y-76250000D03*
D22*
X125880000Y-76250000D03*
%TD*%
%LPD*%
M02*
