%TF.GenerationSoftware,KiCad,Pcbnew,8.0.6*%
%TF.CreationDate,2026-01-30T19:09:08+01:00*%
%TF.ProjectId,keyboard,6b657962-6f61-4726-942e-6b696361645f,rev?*%
%TF.SameCoordinates,Original*%
%TF.FileFunction,Copper,L2,Bot*%
%TF.FilePolarity,Positive*%
%FSLAX46Y46*%
G04 Gerber Fmt 4.6, Leading zero omitted, Abs format (unit mm)*
G04 Created by KiCad (PCBNEW 8.0.6) date 2026-01-30 19:09:08*
%MOMM*%
%LPD*%
G01*
G04 APERTURE LIST*
%TA.AperFunction,ComponentPad*%
%ADD10O,1.700000X1.700000*%
%TD*%
%TA.AperFunction,ComponentPad*%
%ADD11R,1.700000X1.700000*%
%TD*%
%TA.AperFunction,ComponentPad*%
%ADD12C,1.524000*%
%TD*%
%TA.AperFunction,ComponentPad*%
%ADD13R,2.000000X2.000000*%
%TD*%
%TA.AperFunction,ComponentPad*%
%ADD14C,2.000000*%
%TD*%
%TA.AperFunction,ComponentPad*%
%ADD15R,3.200000X2.000000*%
%TD*%
%TA.AperFunction,ComponentPad*%
%ADD16C,2.200000*%
%TD*%
%TA.AperFunction,ComponentPad*%
%ADD17R,1.600000X1.600000*%
%TD*%
%TA.AperFunction,ComponentPad*%
%ADD18O,1.600000X1.600000*%
%TD*%
%TA.AperFunction,ViaPad*%
%ADD19C,0.600000*%
%TD*%
%TA.AperFunction,Conductor*%
%ADD20C,0.200000*%
%TD*%
G04 APERTURE END LIST*
D10*
%TO.P,J1,4,Pin_4*%
%TO.N,GND*%
X128000000Y-36500000D03*
%TO.P,J1,3,Pin_3*%
%TO.N,3V3*%
X128000000Y-33960000D03*
%TO.P,J1,2,Pin_2*%
%TO.N,SCL*%
X128000000Y-31420000D03*
D11*
%TO.P,J1,1,Pin_1*%
%TO.N,SDA*%
X128000000Y-28880000D03*
%TD*%
D12*
%TO.P,U1,1,GPIO26/ADC0/A0*%
%TO.N,C1*%
X182500000Y-27510000D03*
%TO.P,U1,2,GPIO27/ADC1/A1*%
%TO.N,C2*%
X182500000Y-30050000D03*
%TO.P,U1,3,GPIO28/ADC2/A2*%
%TO.N,C3*%
X182500000Y-32590000D03*
%TO.P,U1,4,GPIO29/ADC3/A3*%
%TO.N,C4*%
X182500000Y-35130000D03*
%TO.P,U1,5,GPIO6/SDA*%
%TO.N,R1*%
X182500000Y-37670000D03*
%TO.P,U1,6,GPIO7/SCL*%
%TO.N,R2*%
X182500000Y-40210000D03*
%TO.P,U1,7,GPIO0/TX*%
%TO.N,R3*%
X182500000Y-42750000D03*
%TO.P,U1,8,GPIO1/RX*%
%TO.N,R4*%
X197740000Y-42750000D03*
%TO.P,U1,9,GPIO2/SCK*%
%TO.N,SCK*%
X197740000Y-40210000D03*
%TO.P,U1,10,GPIO4/MISO*%
%TO.N,SCL*%
X197740000Y-37670000D03*
%TO.P,U1,11,GPIO3/MOSI*%
%TO.N,SDA*%
X197740000Y-35130000D03*
%TO.P,U1,12,3V3*%
%TO.N,3V3*%
X197740000Y-32590000D03*
%TO.P,U1,13,GND*%
%TO.N,GND*%
X197740000Y-30050000D03*
%TO.P,U1,14,VBUS*%
%TO.N,5V*%
X197740000Y-27510000D03*
%TD*%
D13*
%TO.P,SW11,A,A*%
%TO.N,Net-(D13-A)*%
X181250000Y-79500000D03*
D14*
%TO.P,SW11,B,B*%
%TO.N,Net-(D14-A)*%
X181250000Y-84500000D03*
%TO.P,SW11,C,C*%
%TO.N,C4*%
X181250000Y-82000000D03*
D15*
%TO.P,SW11,MP*%
%TO.N,N/C*%
X188750000Y-76400000D03*
X188750000Y-87600000D03*
D14*
%TO.P,SW11,S1,S1*%
%TO.N,C2*%
X195750000Y-84500000D03*
%TO.P,SW11,S2,S2*%
%TO.N,Net-(D15-A)*%
X195750000Y-79500000D03*
%TD*%
D16*
%TO.P,SW10,1,1*%
%TO.N,Net-(D4-A)*%
X170000000Y-85420000D03*
%TO.P,SW10,2,2*%
%TO.N,C3*%
X163650000Y-87960000D03*
%TD*%
%TO.P,SW9,1,1*%
%TO.N,Net-(D5-A)*%
X170000000Y-66170000D03*
%TO.P,SW9,2,2*%
%TO.N,C2*%
X163650000Y-68710000D03*
%TD*%
%TO.P,SW8,1,1*%
%TO.N,Net-(D6-A)*%
X170000000Y-47170000D03*
%TO.P,SW8,2,2*%
%TO.N,C1*%
X163650000Y-49710000D03*
%TD*%
%TO.P,SW7,1,1*%
%TO.N,Net-(D3-A)*%
X151040000Y-85420000D03*
%TO.P,SW7,2,2*%
%TO.N,C3*%
X144690000Y-87960000D03*
%TD*%
%TO.P,SW6,1,1*%
%TO.N,Net-(D8-A)*%
X151040000Y-66170000D03*
%TO.P,SW6,2,2*%
%TO.N,C2*%
X144690000Y-68710000D03*
%TD*%
%TO.P,SW5,1,1*%
%TO.N,Net-(D7-A)*%
X151040000Y-47170000D03*
%TO.P,SW5,2,2*%
%TO.N,C1*%
X144690000Y-49710000D03*
%TD*%
%TO.P,SW4,1,1*%
%TO.N,Net-(D2-A)*%
X132040000Y-85420000D03*
%TO.P,SW4,2,2*%
%TO.N,C3*%
X125690000Y-87960000D03*
%TD*%
%TO.P,SW3,1,1*%
%TO.N,Net-(D1-A)*%
X132040000Y-66170000D03*
%TO.P,SW3,2,2*%
%TO.N,C2*%
X125690000Y-68710000D03*
%TD*%
%TO.P,SW2,1,1*%
%TO.N,Net-(D9-A)*%
X132040000Y-47170000D03*
%TO.P,SW2,2,2*%
%TO.N,C1*%
X125690000Y-49710000D03*
%TD*%
D14*
%TO.P,SW1,S2,S2*%
%TO.N,Net-(D12-A)*%
X195750000Y-54150000D03*
%TO.P,SW1,S1,S1*%
%TO.N,C1*%
X195750000Y-59150000D03*
D15*
%TO.P,SW1,MP*%
%TO.N,N/C*%
X188750000Y-62250000D03*
X188750000Y-51050000D03*
D14*
%TO.P,SW1,C,C*%
%TO.N,C4*%
X181250000Y-56650000D03*
%TO.P,SW1,B,B*%
%TO.N,Net-(D11-A)*%
X181250000Y-59150000D03*
D13*
%TO.P,SW1,A,A*%
%TO.N,Net-(D10-A)*%
X181250000Y-54150000D03*
%TD*%
D17*
%TO.P,D15,1,K*%
%TO.N,R4*%
X185130000Y-73250000D03*
D18*
%TO.P,D15,2,A*%
%TO.N,Net-(D15-A)*%
X192750000Y-73250000D03*
%TD*%
D17*
%TO.P,D14,1,K*%
%TO.N,R3*%
X185630000Y-93250000D03*
D18*
%TO.P,D14,2,A*%
%TO.N,Net-(D14-A)*%
X193250000Y-93250000D03*
%TD*%
D17*
%TO.P,D13,1,K*%
%TO.N,R4*%
X193120000Y-90500000D03*
D18*
%TO.P,D13,2,A*%
%TO.N,Net-(D13-A)*%
X185500000Y-90500000D03*
%TD*%
D17*
%TO.P,D12,1,K*%
%TO.N,R4*%
X199500000Y-47130000D03*
D18*
%TO.P,D12,2,A*%
%TO.N,Net-(D12-A)*%
X199500000Y-54750000D03*
%TD*%
D17*
%TO.P,D11,1,K*%
%TO.N,R2*%
X192631546Y-67971381D03*
D18*
%TO.P,D11,2,A*%
%TO.N,Net-(D11-A)*%
X185011546Y-67971381D03*
%TD*%
D17*
%TO.P,D10,1,K*%
%TO.N,R1*%
X192620000Y-65250000D03*
D18*
%TO.P,D10,2,A*%
%TO.N,Net-(D10-A)*%
X185000000Y-65250000D03*
%TD*%
D17*
%TO.P,D9,1,K*%
%TO.N,R1*%
X133620000Y-57000000D03*
D18*
%TO.P,D9,2,A*%
%TO.N,Net-(D9-A)*%
X126000000Y-57000000D03*
%TD*%
D17*
%TO.P,D8,1,K*%
%TO.N,R2*%
X152250000Y-76000000D03*
D18*
%TO.P,D8,2,A*%
%TO.N,Net-(D8-A)*%
X144630000Y-76000000D03*
%TD*%
D17*
%TO.P,D7,1,K*%
%TO.N,R2*%
X152370000Y-57000000D03*
D18*
%TO.P,D7,2,A*%
%TO.N,Net-(D7-A)*%
X144750000Y-57000000D03*
%TD*%
D17*
%TO.P,D6,1,K*%
%TO.N,R3*%
X171370000Y-57000000D03*
D18*
%TO.P,D6,2,A*%
%TO.N,Net-(D6-A)*%
X163750000Y-57000000D03*
%TD*%
D17*
%TO.P,D5,1,K*%
%TO.N,R3*%
X171250000Y-76000000D03*
D18*
%TO.P,D5,2,A*%
%TO.N,Net-(D5-A)*%
X163630000Y-76000000D03*
%TD*%
D17*
%TO.P,D4,1,K*%
%TO.N,R3*%
X171310000Y-95250000D03*
D18*
%TO.P,D4,2,A*%
%TO.N,Net-(D4-A)*%
X163690000Y-95250000D03*
%TD*%
D17*
%TO.P,D3,1,K*%
%TO.N,R2*%
X152500000Y-95250000D03*
D18*
%TO.P,D3,2,A*%
%TO.N,Net-(D3-A)*%
X144880000Y-95250000D03*
%TD*%
D17*
%TO.P,D2,1,K*%
%TO.N,R1*%
X133620000Y-95250000D03*
D18*
%TO.P,D2,2,A*%
%TO.N,Net-(D2-A)*%
X126000000Y-95250000D03*
%TD*%
D17*
%TO.P,D1,1,K*%
%TO.N,R1*%
X133500000Y-76250000D03*
D18*
%TO.P,D1,2,A*%
%TO.N,Net-(D1-A)*%
X125880000Y-76250000D03*
%TD*%
D19*
%TO.N,Net-(D19-DOUT)*%
X189375000Y-97125000D03*
X193250000Y-98000000D03*
%TO.N,GND*%
X198750000Y-56500000D03*
%TO.N,Net-(D16-DOUT)*%
X200500000Y-59500000D03*
X198750000Y-70000000D03*
%TO.N,Net-(D18-DOUT)*%
X199000000Y-94000000D03*
X200625000Y-82125000D03*
%TO.N,R1*%
X171000000Y-37250000D03*
X167500000Y-37250000D03*
%TO.N,C4*%
X180000000Y-46000000D03*
%TO.N,C1*%
X173750000Y-44000000D03*
%TO.N,R2*%
X193750000Y-51500000D03*
%TO.N,C3*%
X178149052Y-32899052D03*
%TD*%
D20*
%TO.N,3V3*%
X191150000Y-26000000D02*
X139330000Y-26000000D01*
X131370000Y-33960000D02*
X128000000Y-33960000D01*
X197740000Y-32590000D02*
X191150000Y-26000000D01*
X139330000Y-26000000D02*
X131370000Y-33960000D01*
%TO.N,C3*%
X166548105Y-44500000D02*
X178149052Y-32899053D01*
X126500000Y-44500000D02*
X166548105Y-44500000D01*
X178149052Y-32899053D02*
X178149052Y-32899052D01*
X122500000Y-48500000D02*
X126500000Y-44500000D01*
X122250000Y-84520000D02*
X122500000Y-84270000D01*
X125690000Y-87960000D02*
X122250000Y-84520000D01*
X122500000Y-84270000D02*
X122500000Y-48500000D01*
%TO.N,Net-(D19-DOUT)*%
X190250000Y-98000000D02*
X193250000Y-98000000D01*
X189375000Y-97125000D02*
X190250000Y-98000000D01*
%TO.N,Net-(D16-DOUT)*%
X198750000Y-61250000D02*
X200500000Y-59500000D01*
X198750000Y-70000000D02*
X198750000Y-61250000D01*
%TO.N,Net-(D18-DOUT)*%
X200625000Y-92375000D02*
X199000000Y-94000000D01*
X200625000Y-82125000D02*
X200625000Y-92375000D01*
%TO.N,R1*%
X167500000Y-37250000D02*
X171000000Y-37250000D01*
%TO.N,C4*%
X180000000Y-37630000D02*
X180000000Y-46000000D01*
X182500000Y-35130000D02*
X180000000Y-37630000D01*
%TO.N,C1*%
X184350000Y-52850000D02*
X175500000Y-44000000D01*
X189450000Y-52850000D02*
X184350000Y-52850000D01*
X175500000Y-44000000D02*
X173750000Y-44000000D01*
X195750000Y-59150000D02*
X189450000Y-52850000D01*
%TO.N,R2*%
X193750000Y-51500000D02*
X193750000Y-51460000D01*
%TO.N,C3*%
X178149053Y-32899052D02*
X178250000Y-32798105D01*
X178149052Y-32899052D02*
X178149053Y-32899052D01*
%TO.N,C2*%
X194450000Y-83200000D02*
X195750000Y-84500000D01*
X194450000Y-79050000D02*
X194450000Y-83200000D01*
X184110000Y-68710000D02*
X194450000Y-79050000D01*
X163650000Y-68710000D02*
X184110000Y-68710000D01*
X125690000Y-68710000D02*
X163650000Y-68710000D01*
%TO.N,C1*%
X125690000Y-49710000D02*
X163650000Y-49710000D01*
%TO.N,R3*%
X184130000Y-94750000D02*
X171810000Y-94750000D01*
X171810000Y-94750000D02*
X171310000Y-95250000D01*
X185630000Y-93250000D02*
X184130000Y-94750000D01*
%TO.N,Net-(D14-A)*%
X182450000Y-84500000D02*
X181250000Y-84500000D01*
X193250000Y-93250000D02*
X191200000Y-93250000D01*
X191200000Y-93250000D02*
X182450000Y-84500000D01*
%TO.N,Net-(D15-A)*%
X192750000Y-76500000D02*
X195750000Y-79500000D01*
X192750000Y-73250000D02*
X192750000Y-76500000D01*
%TO.N,R4*%
X185130000Y-75980000D02*
X185130000Y-73250000D01*
X193120000Y-83970000D02*
X185130000Y-75980000D01*
X193120000Y-90500000D02*
X193120000Y-83970000D01*
%TO.N,R2*%
X193750000Y-51460000D02*
X182500000Y-40210000D01*
%TO.N,C3*%
X125690000Y-87960000D02*
X163650000Y-87960000D01*
%TO.N,C2*%
X170750000Y-54250000D02*
X170750000Y-50250000D01*
X168500000Y-56500000D02*
X170750000Y-54250000D01*
X170750000Y-50250000D02*
X172250000Y-48750000D01*
X172250000Y-40300000D02*
X182500000Y-30050000D01*
X168500000Y-63860000D02*
X168500000Y-56500000D01*
X163650000Y-68710000D02*
X168500000Y-63860000D01*
X172250000Y-48750000D02*
X172250000Y-40300000D01*
%TD*%
%TA.AperFunction,Conductor*%
%TO.N,GND*%
G36*
X123715447Y-25012659D02*
G01*
X138423408Y-25056827D01*
X138490385Y-25076711D01*
X138505414Y-25088146D01*
X138876819Y-25418284D01*
X138913847Y-25477535D01*
X138912964Y-25547399D01*
X138882121Y-25598643D01*
X138849480Y-25631284D01*
X138849478Y-25631286D01*
X131157584Y-33323181D01*
X131096261Y-33356666D01*
X131069903Y-33359500D01*
X129289091Y-33359500D01*
X129222052Y-33339815D01*
X129176711Y-33287909D01*
X129174037Y-33282175D01*
X129174034Y-33282170D01*
X129174033Y-33282169D01*
X129038495Y-33088599D01*
X129038494Y-33088597D01*
X128871402Y-32921506D01*
X128871396Y-32921501D01*
X128685842Y-32791575D01*
X128642217Y-32736998D01*
X128635023Y-32667500D01*
X128666546Y-32605145D01*
X128685842Y-32588425D01*
X128741390Y-32549530D01*
X128871401Y-32458495D01*
X129038495Y-32291401D01*
X129174035Y-32097830D01*
X129273903Y-31883663D01*
X129335063Y-31655408D01*
X129355659Y-31420000D01*
X129335063Y-31184592D01*
X129273903Y-30956337D01*
X129174035Y-30742171D01*
X129132895Y-30683417D01*
X129038496Y-30548600D01*
X128984396Y-30494500D01*
X128916567Y-30426671D01*
X128883084Y-30365351D01*
X128888068Y-30295659D01*
X128929939Y-30239725D01*
X128960915Y-30222810D01*
X129092331Y-30173796D01*
X129207546Y-30087546D01*
X129293796Y-29972331D01*
X129344091Y-29837483D01*
X129350500Y-29777873D01*
X129350499Y-27982128D01*
X129344091Y-27922517D01*
X129293796Y-27787669D01*
X129293795Y-27787668D01*
X129293793Y-27787664D01*
X129207547Y-27672455D01*
X129207544Y-27672452D01*
X129092335Y-27586206D01*
X129092328Y-27586202D01*
X128957482Y-27535908D01*
X128957483Y-27535908D01*
X128897883Y-27529501D01*
X128897881Y-27529500D01*
X128897873Y-27529500D01*
X128897864Y-27529500D01*
X127102129Y-27529500D01*
X127102123Y-27529501D01*
X127042516Y-27535908D01*
X126907671Y-27586202D01*
X126907664Y-27586206D01*
X126792455Y-27672452D01*
X126792452Y-27672455D01*
X126706206Y-27787664D01*
X126706202Y-27787671D01*
X126655908Y-27922517D01*
X126653658Y-27943450D01*
X126649501Y-27982123D01*
X126649500Y-27982135D01*
X126649500Y-29777870D01*
X126649501Y-29777876D01*
X126655908Y-29837483D01*
X126706202Y-29972328D01*
X126706206Y-29972335D01*
X126792452Y-30087544D01*
X126792455Y-30087547D01*
X126907664Y-30173793D01*
X126907671Y-30173797D01*
X127039081Y-30222810D01*
X127095015Y-30264681D01*
X127119432Y-30330145D01*
X127104580Y-30398418D01*
X127083430Y-30426673D01*
X126961503Y-30548600D01*
X126825965Y-30742169D01*
X126825964Y-30742171D01*
X126726098Y-30956335D01*
X126726094Y-30956344D01*
X126664938Y-31184586D01*
X126664936Y-31184596D01*
X126644341Y-31419999D01*
X126644341Y-31420000D01*
X126664936Y-31655403D01*
X126664938Y-31655413D01*
X126726094Y-31883655D01*
X126726096Y-31883659D01*
X126726097Y-31883663D01*
X126759987Y-31956340D01*
X126825965Y-32097830D01*
X126825967Y-32097834D01*
X126961501Y-32291395D01*
X126961506Y-32291402D01*
X127128597Y-32458493D01*
X127128603Y-32458498D01*
X127314158Y-32588425D01*
X127357783Y-32643002D01*
X127364977Y-32712500D01*
X127333454Y-32774855D01*
X127314158Y-32791575D01*
X127128597Y-32921505D01*
X126961505Y-33088597D01*
X126825965Y-33282169D01*
X126825964Y-33282171D01*
X126726098Y-33496335D01*
X126726094Y-33496344D01*
X126664938Y-33724586D01*
X126664936Y-33724596D01*
X126644341Y-33959999D01*
X126644341Y-33960000D01*
X126664936Y-34195403D01*
X126664938Y-34195413D01*
X126726094Y-34423655D01*
X126726096Y-34423659D01*
X126726097Y-34423663D01*
X126789906Y-34560501D01*
X126825965Y-34637830D01*
X126825967Y-34637834D01*
X126961501Y-34831395D01*
X126961506Y-34831402D01*
X127128597Y-34998493D01*
X127128603Y-34998498D01*
X127314594Y-35128730D01*
X127358219Y-35183307D01*
X127365413Y-35252805D01*
X127333890Y-35315160D01*
X127314595Y-35331880D01*
X127128922Y-35461890D01*
X127128920Y-35461891D01*
X126961891Y-35628920D01*
X126961886Y-35628926D01*
X126826400Y-35822420D01*
X126826399Y-35822422D01*
X126726570Y-36036507D01*
X126726567Y-36036513D01*
X126669364Y-36249999D01*
X126669364Y-36250000D01*
X127566988Y-36250000D01*
X127534075Y-36307007D01*
X127500000Y-36434174D01*
X127500000Y-36565826D01*
X127534075Y-36692993D01*
X127566988Y-36750000D01*
X126669364Y-36750000D01*
X126726567Y-36963486D01*
X126726570Y-36963492D01*
X126826399Y-37177578D01*
X126961894Y-37371082D01*
X127128917Y-37538105D01*
X127322421Y-37673600D01*
X127536507Y-37773429D01*
X127536516Y-37773433D01*
X127750000Y-37830634D01*
X127750000Y-36933012D01*
X127807007Y-36965925D01*
X127934174Y-37000000D01*
X128065826Y-37000000D01*
X128192993Y-36965925D01*
X128250000Y-36933012D01*
X128250000Y-37830633D01*
X128463483Y-37773433D01*
X128463492Y-37773429D01*
X128677578Y-37673600D01*
X128871082Y-37538105D01*
X129038105Y-37371082D01*
X129122892Y-37249996D01*
X166694435Y-37249996D01*
X166694435Y-37250003D01*
X166714630Y-37429249D01*
X166714631Y-37429254D01*
X166774211Y-37599523D01*
X166820757Y-37673600D01*
X166870184Y-37752262D01*
X166997738Y-37879816D01*
X167150478Y-37975789D01*
X167320745Y-38035368D01*
X167320750Y-38035369D01*
X167499996Y-38055565D01*
X167500000Y-38055565D01*
X167500004Y-38055565D01*
X167679249Y-38035369D01*
X167679252Y-38035368D01*
X167679255Y-38035368D01*
X167849522Y-37975789D01*
X168002262Y-37879816D01*
X168002267Y-37879810D01*
X168005097Y-37877555D01*
X168007275Y-37876665D01*
X168008158Y-37876111D01*
X168008255Y-37876265D01*
X168069783Y-37851145D01*
X168082412Y-37850500D01*
X170417588Y-37850500D01*
X170484627Y-37870185D01*
X170494903Y-37877555D01*
X170497736Y-37879814D01*
X170497738Y-37879816D01*
X170650478Y-37975789D01*
X170820745Y-38035368D01*
X170820750Y-38035369D01*
X170999996Y-38055565D01*
X171000000Y-38055565D01*
X171000004Y-38055565D01*
X171179249Y-38035369D01*
X171179252Y-38035368D01*
X171179255Y-38035368D01*
X171349522Y-37975789D01*
X171502262Y-37879816D01*
X171629816Y-37752262D01*
X171725789Y-37599522D01*
X171785368Y-37429255D01*
X171787157Y-37413376D01*
X171805565Y-37250003D01*
X171805565Y-37249996D01*
X171785369Y-37070750D01*
X171785368Y-37070745D01*
X171748690Y-36965925D01*
X171725789Y-36900478D01*
X171629816Y-36747738D01*
X171502262Y-36620184D01*
X171349523Y-36524211D01*
X171179254Y-36464631D01*
X171179249Y-36464630D01*
X171000004Y-36444435D01*
X170999996Y-36444435D01*
X170820750Y-36464630D01*
X170820745Y-36464631D01*
X170650476Y-36524211D01*
X170497736Y-36620185D01*
X170494903Y-36622445D01*
X170492724Y-36623334D01*
X170491842Y-36623889D01*
X170491744Y-36623734D01*
X170430217Y-36648855D01*
X170417588Y-36649500D01*
X168082412Y-36649500D01*
X168015373Y-36629815D01*
X168005097Y-36622445D01*
X168002263Y-36620185D01*
X168002262Y-36620184D01*
X167945496Y-36584515D01*
X167849523Y-36524211D01*
X167679254Y-36464631D01*
X167679249Y-36464630D01*
X167500004Y-36444435D01*
X167499996Y-36444435D01*
X167320750Y-36464630D01*
X167320745Y-36464631D01*
X167150476Y-36524211D01*
X166997737Y-36620184D01*
X166870184Y-36747737D01*
X166774211Y-36900476D01*
X166714631Y-37070745D01*
X166714630Y-37070750D01*
X166694435Y-37249996D01*
X129122892Y-37249996D01*
X129173600Y-37177578D01*
X129273429Y-36963492D01*
X129273432Y-36963486D01*
X129330636Y-36750000D01*
X128433012Y-36750000D01*
X128465925Y-36692993D01*
X128500000Y-36565826D01*
X128500000Y-36434174D01*
X128465925Y-36307007D01*
X128433012Y-36250000D01*
X129330636Y-36250000D01*
X129330635Y-36249999D01*
X129273432Y-36036513D01*
X129273429Y-36036507D01*
X129173600Y-35822422D01*
X129173599Y-35822420D01*
X129038113Y-35628926D01*
X129038108Y-35628920D01*
X128871078Y-35461890D01*
X128685405Y-35331879D01*
X128641780Y-35277302D01*
X128634588Y-35207804D01*
X128666110Y-35145449D01*
X128685406Y-35128730D01*
X128871401Y-34998495D01*
X129038495Y-34831401D01*
X129174035Y-34637830D01*
X129176707Y-34632097D01*
X129222878Y-34579658D01*
X129289091Y-34560500D01*
X131283331Y-34560500D01*
X131283347Y-34560501D01*
X131290943Y-34560501D01*
X131449054Y-34560501D01*
X131449057Y-34560501D01*
X131601785Y-34519577D01*
X131651904Y-34490639D01*
X131738716Y-34440520D01*
X131850520Y-34328716D01*
X131850520Y-34328714D01*
X131860728Y-34318507D01*
X131860729Y-34318504D01*
X139542416Y-26636819D01*
X139603739Y-26603334D01*
X139630097Y-26600500D01*
X181357409Y-26600500D01*
X181424448Y-26620185D01*
X181470203Y-26672989D01*
X181480147Y-26742147D01*
X181458984Y-26795623D01*
X181402466Y-26876338D01*
X181402465Y-26876340D01*
X181309107Y-27076548D01*
X181309104Y-27076554D01*
X181251930Y-27289929D01*
X181251929Y-27289937D01*
X181232677Y-27509997D01*
X181232677Y-27510002D01*
X181251929Y-27730062D01*
X181251930Y-27730070D01*
X181309104Y-27943445D01*
X181309105Y-27943447D01*
X181309106Y-27943450D01*
X181327145Y-27982135D01*
X181402466Y-28143662D01*
X181402468Y-28143666D01*
X181529170Y-28324615D01*
X181529175Y-28324621D01*
X181685378Y-28480824D01*
X181685384Y-28480829D01*
X181866333Y-28607531D01*
X181866335Y-28607532D01*
X181866338Y-28607534D01*
X181985748Y-28663215D01*
X181995189Y-28667618D01*
X182047628Y-28713790D01*
X182066780Y-28780984D01*
X182046564Y-28847865D01*
X181995189Y-28892382D01*
X181866340Y-28952465D01*
X181866338Y-28952466D01*
X181685377Y-29079175D01*
X181529175Y-29235377D01*
X181402466Y-29416338D01*
X181402465Y-29416340D01*
X181309107Y-29616548D01*
X181309104Y-29616554D01*
X181251930Y-29829929D01*
X181251929Y-29829937D01*
X181232677Y-30049997D01*
X181232677Y-30050002D01*
X181251929Y-30270062D01*
X181251932Y-30270076D01*
X181271178Y-30341906D01*
X181269515Y-30411755D01*
X181239084Y-30461679D01*
X179086029Y-32614734D01*
X179024706Y-32648219D01*
X178955014Y-32643235D01*
X178899081Y-32601363D01*
X178881306Y-32568008D01*
X178874841Y-32549530D01*
X178778868Y-32396790D01*
X178651314Y-32269236D01*
X178498575Y-32173263D01*
X178328306Y-32113683D01*
X178328301Y-32113682D01*
X178149056Y-32093487D01*
X178149048Y-32093487D01*
X177969802Y-32113682D01*
X177969797Y-32113683D01*
X177799528Y-32173263D01*
X177646789Y-32269236D01*
X177519236Y-32396789D01*
X177423262Y-32549530D01*
X177363682Y-32719802D01*
X177353889Y-32806720D01*
X177326822Y-32871134D01*
X177318350Y-32880517D01*
X166335689Y-43863181D01*
X166274366Y-43896666D01*
X166248008Y-43899500D01*
X126579057Y-43899500D01*
X126420942Y-43899500D01*
X126268215Y-43940423D01*
X126268214Y-43940423D01*
X126268212Y-43940424D01*
X126268209Y-43940425D01*
X126218096Y-43969359D01*
X126218095Y-43969360D01*
X126174689Y-43994420D01*
X126131285Y-44019479D01*
X126131282Y-44019481D01*
X122019479Y-48131284D01*
X122002822Y-48160135D01*
X121995782Y-48172331D01*
X121940423Y-48268215D01*
X121899499Y-48420943D01*
X121899499Y-48420945D01*
X121899499Y-48589046D01*
X121899500Y-48589059D01*
X121899500Y-83969903D01*
X121879815Y-84036942D01*
X121863181Y-84057584D01*
X121769483Y-84151281D01*
X121769481Y-84151284D01*
X121690423Y-84288214D01*
X121690423Y-84288215D01*
X121649499Y-84440943D01*
X121649499Y-84440945D01*
X121649499Y-84599054D01*
X121649498Y-84599054D01*
X121649499Y-84599057D01*
X121690423Y-84751785D01*
X121769481Y-84888716D01*
X121769483Y-84888718D01*
X124157707Y-87276943D01*
X124191192Y-87338266D01*
X124186208Y-87407958D01*
X124184588Y-87412075D01*
X124163126Y-87463889D01*
X124104317Y-87708848D01*
X124084551Y-87960000D01*
X124104317Y-88211151D01*
X124163126Y-88456110D01*
X124259533Y-88688859D01*
X124391160Y-88903653D01*
X124391161Y-88903656D01*
X124391164Y-88903659D01*
X124554776Y-89095224D01*
X124655400Y-89181165D01*
X124668783Y-89192595D01*
X124706976Y-89251102D01*
X124707474Y-89320970D01*
X124670121Y-89380016D01*
X124606774Y-89409494D01*
X124568854Y-89409358D01*
X124506611Y-89399500D01*
X124333389Y-89399500D01*
X124293728Y-89405781D01*
X124162302Y-89426597D01*
X123997552Y-89480128D01*
X123843211Y-89558768D01*
X123763256Y-89616859D01*
X123703072Y-89660586D01*
X123703070Y-89660588D01*
X123703069Y-89660588D01*
X123580588Y-89783069D01*
X123580588Y-89783070D01*
X123580586Y-89783072D01*
X123553250Y-89820697D01*
X123478768Y-89923211D01*
X123400128Y-90077552D01*
X123346597Y-90242302D01*
X123319500Y-90413389D01*
X123319500Y-90586610D01*
X123341686Y-90726692D01*
X123346598Y-90757701D01*
X123400127Y-90922445D01*
X123478768Y-91076788D01*
X123580586Y-91216928D01*
X123703072Y-91339414D01*
X123843212Y-91441232D01*
X123997555Y-91519873D01*
X124162299Y-91573402D01*
X124333389Y-91600500D01*
X124333390Y-91600500D01*
X124506610Y-91600500D01*
X124506611Y-91600500D01*
X124677701Y-91573402D01*
X124842445Y-91519873D01*
X124996788Y-91441232D01*
X125136928Y-91339414D01*
X125259414Y-91216928D01*
X125361232Y-91076788D01*
X125439873Y-90922445D01*
X125493402Y-90757701D01*
X125520500Y-90586611D01*
X125520500Y-90413389D01*
X125493402Y-90242299D01*
X125439873Y-90077555D01*
X125361232Y-89923212D01*
X125259414Y-89783072D01*
X125201232Y-89724890D01*
X125167747Y-89663567D01*
X125172731Y-89593875D01*
X125214603Y-89537942D01*
X125280067Y-89513525D01*
X125317856Y-89516634D01*
X125438852Y-89545683D01*
X125690000Y-89565449D01*
X125941148Y-89545683D01*
X126186111Y-89486873D01*
X126418859Y-89390466D01*
X126633659Y-89258836D01*
X126825224Y-89095224D01*
X126988836Y-88903659D01*
X127120466Y-88688859D01*
X127141927Y-88637048D01*
X127185767Y-88582644D01*
X127252061Y-88560579D01*
X127256488Y-88560500D01*
X127965462Y-88560500D01*
X128032501Y-88580185D01*
X128078256Y-88632989D01*
X128088200Y-88702147D01*
X128059175Y-88765703D01*
X128040948Y-88782876D01*
X128012959Y-88804352D01*
X128012952Y-88804358D01*
X127804358Y-89012952D01*
X127804352Y-89012959D01*
X127624761Y-89247006D01*
X127477258Y-89502489D01*
X127477254Y-89502499D01*
X127364364Y-89775038D01*
X127364361Y-89775048D01*
X127289750Y-90053504D01*
X127288008Y-90060004D01*
X127288006Y-90060015D01*
X127249500Y-90352486D01*
X127249500Y-90647513D01*
X127281571Y-90891113D01*
X127288007Y-90939993D01*
X127362212Y-91216930D01*
X127364361Y-91224951D01*
X127364364Y-91224961D01*
X127477254Y-91497500D01*
X127477258Y-91497510D01*
X127624761Y-91752993D01*
X127804352Y-91987040D01*
X127804358Y-91987047D01*
X128012952Y-92195641D01*
X128012959Y-92195647D01*
X128247006Y-92375238D01*
X128502489Y-92522741D01*
X128502490Y-92522741D01*
X128502493Y-92522743D01*
X128682410Y-92597267D01*
X128760987Y-92629815D01*
X128775048Y-92635639D01*
X129060007Y-92711993D01*
X129352494Y-92750500D01*
X129352501Y-92750500D01*
X129647499Y-92750500D01*
X129647506Y-92750500D01*
X129939993Y-92711993D01*
X130224952Y-92635639D01*
X130497507Y-92522743D01*
X130752994Y-92375238D01*
X130987042Y-92195646D01*
X131195646Y-91987042D01*
X131375238Y-91752994D01*
X131522743Y-91497507D01*
X131635639Y-91224952D01*
X131711993Y-90939993D01*
X131750500Y-90647506D01*
X131750500Y-90413389D01*
X133479500Y-90413389D01*
X133479500Y-90586610D01*
X133501686Y-90726692D01*
X133506598Y-90757701D01*
X133560127Y-90922445D01*
X133638768Y-91076788D01*
X133740586Y-91216928D01*
X133863072Y-91339414D01*
X134003212Y-91441232D01*
X134157555Y-91519873D01*
X134322299Y-91573402D01*
X134493389Y-91600500D01*
X134493390Y-91600500D01*
X134666610Y-91600500D01*
X134666611Y-91600500D01*
X134837701Y-91573402D01*
X135002445Y-91519873D01*
X135156788Y-91441232D01*
X135296928Y-91339414D01*
X135419414Y-91216928D01*
X135521232Y-91076788D01*
X135599873Y-90922445D01*
X135653402Y-90757701D01*
X135680500Y-90586611D01*
X135680500Y-90413389D01*
X135653402Y-90242299D01*
X135599873Y-90077555D01*
X135521232Y-89923212D01*
X135419414Y-89783072D01*
X135296928Y-89660586D01*
X135156788Y-89558768D01*
X135002445Y-89480127D01*
X134837701Y-89426598D01*
X134837699Y-89426597D01*
X134837698Y-89426597D01*
X134706271Y-89405781D01*
X134666611Y-89399500D01*
X134493389Y-89399500D01*
X134453728Y-89405781D01*
X134322302Y-89426597D01*
X134157552Y-89480128D01*
X134003211Y-89558768D01*
X133923256Y-89616859D01*
X133863072Y-89660586D01*
X133863070Y-89660588D01*
X133863069Y-89660588D01*
X133740588Y-89783069D01*
X133740588Y-89783070D01*
X133740586Y-89783072D01*
X133713250Y-89820697D01*
X133638768Y-89923211D01*
X133560128Y-90077552D01*
X133506597Y-90242302D01*
X133479500Y-90413389D01*
X131750500Y-90413389D01*
X131750500Y-90352494D01*
X131711993Y-90060007D01*
X131635639Y-89775048D01*
X131522743Y-89502493D01*
X131458064Y-89390466D01*
X131375238Y-89247006D01*
X131195647Y-89012959D01*
X131195641Y-89012952D01*
X130987047Y-88804358D01*
X130987040Y-88804352D01*
X130959052Y-88782876D01*
X130917849Y-88726448D01*
X130913694Y-88656702D01*
X130947906Y-88595782D01*
X131009624Y-88563029D01*
X131034538Y-88560500D01*
X143123512Y-88560500D01*
X143190551Y-88580185D01*
X143236306Y-88632989D01*
X143238073Y-88637048D01*
X143259532Y-88688856D01*
X143259533Y-88688858D01*
X143391160Y-88903653D01*
X143391161Y-88903656D01*
X143391164Y-88903659D01*
X143554776Y-89095224D01*
X143655400Y-89181165D01*
X143668783Y-89192595D01*
X143706976Y-89251102D01*
X143707474Y-89320970D01*
X143670121Y-89380016D01*
X143606774Y-89409494D01*
X143568854Y-89409358D01*
X143506611Y-89399500D01*
X143333389Y-89399500D01*
X143293728Y-89405781D01*
X143162302Y-89426597D01*
X142997552Y-89480128D01*
X142843211Y-89558768D01*
X142763256Y-89616859D01*
X142703072Y-89660586D01*
X142703070Y-89660588D01*
X142703069Y-89660588D01*
X142580588Y-89783069D01*
X142580588Y-89783070D01*
X142580586Y-89783072D01*
X142553250Y-89820697D01*
X142478768Y-89923211D01*
X142400128Y-90077552D01*
X142346597Y-90242302D01*
X142319500Y-90413389D01*
X142319500Y-90586610D01*
X142341686Y-90726692D01*
X142346598Y-90757701D01*
X142400127Y-90922445D01*
X142478768Y-91076788D01*
X142580586Y-91216928D01*
X142703072Y-91339414D01*
X142843212Y-91441232D01*
X142997555Y-91519873D01*
X143162299Y-91573402D01*
X143333389Y-91600500D01*
X143333390Y-91600500D01*
X143506610Y-91600500D01*
X143506611Y-91600500D01*
X143677701Y-91573402D01*
X143842445Y-91519873D01*
X143996788Y-91441232D01*
X144136928Y-91339414D01*
X144259414Y-91216928D01*
X144361232Y-91076788D01*
X144439873Y-90922445D01*
X144493402Y-90757701D01*
X144520500Y-90586611D01*
X144520500Y-90413389D01*
X144493402Y-90242299D01*
X144439873Y-90077555D01*
X144361232Y-89923212D01*
X144259414Y-89783072D01*
X144201232Y-89724890D01*
X144167747Y-89663567D01*
X144172731Y-89593875D01*
X144214603Y-89537942D01*
X144280067Y-89513525D01*
X144317856Y-89516634D01*
X144438852Y-89545683D01*
X144690000Y-89565449D01*
X144941148Y-89545683D01*
X145186111Y-89486873D01*
X145418859Y-89390466D01*
X145633659Y-89258836D01*
X145825224Y-89095224D01*
X145988836Y-88903659D01*
X146120466Y-88688859D01*
X146141927Y-88637048D01*
X146185767Y-88582644D01*
X146252061Y-88560579D01*
X146256488Y-88560500D01*
X146965462Y-88560500D01*
X147032501Y-88580185D01*
X147078256Y-88632989D01*
X147088200Y-88702147D01*
X147059175Y-88765703D01*
X147040948Y-88782876D01*
X147012959Y-88804352D01*
X147012952Y-88804358D01*
X146804358Y-89012952D01*
X146804352Y-89012959D01*
X146624761Y-89247006D01*
X146477258Y-89502489D01*
X146477254Y-89502499D01*
X146364364Y-89775038D01*
X146364361Y-89775048D01*
X146289750Y-90053504D01*
X146288008Y-90060004D01*
X146288006Y-90060015D01*
X146249500Y-90352486D01*
X146249500Y-90647513D01*
X146281571Y-90891113D01*
X146288007Y-90939993D01*
X146362212Y-91216930D01*
X146364361Y-91224951D01*
X146364364Y-91224961D01*
X146477254Y-91497500D01*
X146477258Y-91497510D01*
X146624761Y-91752993D01*
X146804352Y-91987040D01*
X146804358Y-91987047D01*
X147012952Y-92195641D01*
X147012959Y-92195647D01*
X147247006Y-92375238D01*
X147502489Y-92522741D01*
X147502490Y-92522741D01*
X147502493Y-92522743D01*
X147682410Y-92597267D01*
X147760987Y-92629815D01*
X147775048Y-92635639D01*
X148060007Y-92711993D01*
X148352494Y-92750500D01*
X148352501Y-92750500D01*
X148647499Y-92750500D01*
X148647506Y-92750500D01*
X148939993Y-92711993D01*
X149224952Y-92635639D01*
X149497507Y-92522743D01*
X149752994Y-92375238D01*
X149987042Y-92195646D01*
X150195646Y-91987042D01*
X150375238Y-91752994D01*
X150522743Y-91497507D01*
X150635639Y-91224952D01*
X150711993Y-90939993D01*
X150750500Y-90647506D01*
X150750500Y-90413389D01*
X152479500Y-90413389D01*
X152479500Y-90586610D01*
X152501686Y-90726692D01*
X152506598Y-90757701D01*
X152560127Y-90922445D01*
X152638768Y-91076788D01*
X152740586Y-91216928D01*
X152863072Y-91339414D01*
X153003212Y-91441232D01*
X153157555Y-91519873D01*
X153322299Y-91573402D01*
X153493389Y-91600500D01*
X153493390Y-91600500D01*
X153666610Y-91600500D01*
X153666611Y-91600500D01*
X153837701Y-91573402D01*
X154002445Y-91519873D01*
X154156788Y-91441232D01*
X154296928Y-91339414D01*
X154419414Y-91216928D01*
X154521232Y-91076788D01*
X154599873Y-90922445D01*
X154653402Y-90757701D01*
X154680500Y-90586611D01*
X154680500Y-90413389D01*
X154653402Y-90242299D01*
X154599873Y-90077555D01*
X154521232Y-89923212D01*
X154419414Y-89783072D01*
X154296928Y-89660586D01*
X154156788Y-89558768D01*
X154002445Y-89480127D01*
X153837701Y-89426598D01*
X153837699Y-89426597D01*
X153837698Y-89426597D01*
X153706271Y-89405781D01*
X153666611Y-89399500D01*
X153493389Y-89399500D01*
X153453728Y-89405781D01*
X153322302Y-89426597D01*
X153157552Y-89480128D01*
X153003211Y-89558768D01*
X152923256Y-89616859D01*
X152863072Y-89660586D01*
X152863070Y-89660588D01*
X152863069Y-89660588D01*
X152740588Y-89783069D01*
X152740588Y-89783070D01*
X152740586Y-89783072D01*
X152713250Y-89820697D01*
X152638768Y-89923211D01*
X152560128Y-90077552D01*
X152506597Y-90242302D01*
X152479500Y-90413389D01*
X150750500Y-90413389D01*
X150750500Y-90352494D01*
X150711993Y-90060007D01*
X150635639Y-89775048D01*
X150522743Y-89502493D01*
X150458064Y-89390466D01*
X150375238Y-89247006D01*
X150195647Y-89012959D01*
X150195641Y-89012952D01*
X149987047Y-88804358D01*
X149987040Y-88804352D01*
X149959052Y-88782876D01*
X149917849Y-88726448D01*
X149913694Y-88656702D01*
X149947906Y-88595782D01*
X150009624Y-88563029D01*
X150034538Y-88560500D01*
X162083512Y-88560500D01*
X162150551Y-88580185D01*
X162196306Y-88632989D01*
X162198073Y-88637048D01*
X162219532Y-88688856D01*
X162219533Y-88688858D01*
X162351160Y-88903653D01*
X162351161Y-88903656D01*
X162351164Y-88903659D01*
X162514776Y-89095224D01*
X162615400Y-89181165D01*
X162628783Y-89192595D01*
X162666976Y-89251102D01*
X162667474Y-89320970D01*
X162630121Y-89380016D01*
X162566774Y-89409494D01*
X162528854Y-89409358D01*
X162466611Y-89399500D01*
X162293389Y-89399500D01*
X162253728Y-89405781D01*
X162122302Y-89426597D01*
X161957552Y-89480128D01*
X161803211Y-89558768D01*
X161723256Y-89616859D01*
X161663072Y-89660586D01*
X161663070Y-89660588D01*
X161663069Y-89660588D01*
X161540588Y-89783069D01*
X161540588Y-89783070D01*
X161540586Y-89783072D01*
X161513250Y-89820697D01*
X161438768Y-89923211D01*
X161360128Y-90077552D01*
X161306597Y-90242302D01*
X161279500Y-90413389D01*
X161279500Y-90586610D01*
X161301686Y-90726692D01*
X161306598Y-90757701D01*
X161360127Y-90922445D01*
X161438768Y-91076788D01*
X161540586Y-91216928D01*
X161663072Y-91339414D01*
X161803212Y-91441232D01*
X161957555Y-91519873D01*
X162122299Y-91573402D01*
X162293389Y-91600500D01*
X162293390Y-91600500D01*
X162466610Y-91600500D01*
X162466611Y-91600500D01*
X162637701Y-91573402D01*
X162802445Y-91519873D01*
X162956788Y-91441232D01*
X163096928Y-91339414D01*
X163219414Y-91216928D01*
X163321232Y-91076788D01*
X163399873Y-90922445D01*
X163453402Y-90757701D01*
X163480500Y-90586611D01*
X163480500Y-90413389D01*
X163470854Y-90352486D01*
X165209500Y-90352486D01*
X165209500Y-90647513D01*
X165241571Y-90891113D01*
X165248007Y-90939993D01*
X165322212Y-91216930D01*
X165324361Y-91224951D01*
X165324364Y-91224961D01*
X165437254Y-91497500D01*
X165437258Y-91497510D01*
X165584761Y-91752993D01*
X165764352Y-91987040D01*
X165764358Y-91987047D01*
X165972952Y-92195641D01*
X165972959Y-92195647D01*
X166207006Y-92375238D01*
X166462489Y-92522741D01*
X166462490Y-92522741D01*
X166462493Y-92522743D01*
X166642410Y-92597267D01*
X166720987Y-92629815D01*
X166735048Y-92635639D01*
X167020007Y-92711993D01*
X167312494Y-92750500D01*
X167312501Y-92750500D01*
X167607499Y-92750500D01*
X167607506Y-92750500D01*
X167899993Y-92711993D01*
X168184952Y-92635639D01*
X168457507Y-92522743D01*
X168712994Y-92375238D01*
X168947042Y-92195646D01*
X169155646Y-91987042D01*
X169335238Y-91752994D01*
X169482743Y-91497507D01*
X169595639Y-91224952D01*
X169671993Y-90939993D01*
X169710500Y-90647506D01*
X169710500Y-90413389D01*
X171439500Y-90413389D01*
X171439500Y-90586610D01*
X171461686Y-90726692D01*
X171466598Y-90757701D01*
X171520127Y-90922445D01*
X171598768Y-91076788D01*
X171700586Y-91216928D01*
X171823072Y-91339414D01*
X171963212Y-91441232D01*
X172117555Y-91519873D01*
X172282299Y-91573402D01*
X172453389Y-91600500D01*
X172453390Y-91600500D01*
X172626610Y-91600500D01*
X172626611Y-91600500D01*
X172797701Y-91573402D01*
X172962445Y-91519873D01*
X173116788Y-91441232D01*
X173256928Y-91339414D01*
X173379414Y-91216928D01*
X173481232Y-91076788D01*
X173559873Y-90922445D01*
X173613402Y-90757701D01*
X173640500Y-90586611D01*
X173640500Y-90413389D01*
X173613402Y-90242299D01*
X173559873Y-90077555D01*
X173481232Y-89923212D01*
X173379414Y-89783072D01*
X173256928Y-89660586D01*
X173116788Y-89558768D01*
X172962445Y-89480127D01*
X172797701Y-89426598D01*
X172797699Y-89426597D01*
X172797698Y-89426597D01*
X172666271Y-89405781D01*
X172626611Y-89399500D01*
X172453389Y-89399500D01*
X172413728Y-89405781D01*
X172282302Y-89426597D01*
X172117552Y-89480128D01*
X171963211Y-89558768D01*
X171883256Y-89616859D01*
X171823072Y-89660586D01*
X171823070Y-89660588D01*
X171823069Y-89660588D01*
X171700588Y-89783069D01*
X171700588Y-89783070D01*
X171700586Y-89783072D01*
X171673250Y-89820697D01*
X171598768Y-89923211D01*
X171520128Y-90077552D01*
X171466597Y-90242302D01*
X171439500Y-90413389D01*
X169710500Y-90413389D01*
X169710500Y-90352494D01*
X169671993Y-90060007D01*
X169595639Y-89775048D01*
X169482743Y-89502493D01*
X169418064Y-89390466D01*
X169335238Y-89247006D01*
X169155647Y-89012959D01*
X169155641Y-89012952D01*
X168947047Y-88804358D01*
X168947040Y-88804352D01*
X168712993Y-88624761D01*
X168457510Y-88477258D01*
X168457500Y-88477254D01*
X168184961Y-88364364D01*
X168184954Y-88364362D01*
X168184952Y-88364361D01*
X167899993Y-88288007D01*
X167851113Y-88281571D01*
X167607513Y-88249500D01*
X167607506Y-88249500D01*
X167312494Y-88249500D01*
X167312486Y-88249500D01*
X167034085Y-88286153D01*
X167020007Y-88288007D01*
X166735048Y-88364361D01*
X166735038Y-88364364D01*
X166462499Y-88477254D01*
X166462489Y-88477258D01*
X166207006Y-88624761D01*
X165972959Y-88804352D01*
X165972952Y-88804358D01*
X165764358Y-89012952D01*
X165764352Y-89012959D01*
X165584761Y-89247006D01*
X165437258Y-89502489D01*
X165437254Y-89502499D01*
X165324364Y-89775038D01*
X165324361Y-89775048D01*
X165249750Y-90053504D01*
X165248008Y-90060004D01*
X165248006Y-90060015D01*
X165209500Y-90352486D01*
X163470854Y-90352486D01*
X163453402Y-90242299D01*
X163399873Y-90077555D01*
X163321232Y-89923212D01*
X163219414Y-89783072D01*
X163161232Y-89724890D01*
X163127747Y-89663567D01*
X163132731Y-89593875D01*
X163174603Y-89537942D01*
X163240067Y-89513525D01*
X163277856Y-89516634D01*
X163398852Y-89545683D01*
X163650000Y-89565449D01*
X163901148Y-89545683D01*
X164146111Y-89486873D01*
X164378859Y-89390466D01*
X164593659Y-89258836D01*
X164785224Y-89095224D01*
X164948836Y-88903659D01*
X165080466Y-88688859D01*
X165176873Y-88456111D01*
X165235683Y-88211148D01*
X165255449Y-87960000D01*
X165235683Y-87708852D01*
X165176873Y-87463889D01*
X165125480Y-87339815D01*
X165080466Y-87231140D01*
X164948839Y-87016346D01*
X164948838Y-87016343D01*
X164807165Y-86850466D01*
X164785224Y-86824776D01*
X164658571Y-86716604D01*
X164593656Y-86661161D01*
X164593653Y-86661160D01*
X164378859Y-86529533D01*
X164146110Y-86433126D01*
X163901151Y-86374317D01*
X163650000Y-86354551D01*
X163398848Y-86374317D01*
X163153889Y-86433126D01*
X162921140Y-86529533D01*
X162706346Y-86661160D01*
X162706343Y-86661161D01*
X162514776Y-86824776D01*
X162351161Y-87016343D01*
X162351160Y-87016346D01*
X162219533Y-87231141D01*
X162219532Y-87231143D01*
X162198073Y-87282952D01*
X162154233Y-87337356D01*
X162087939Y-87359421D01*
X162083512Y-87359500D01*
X146256488Y-87359500D01*
X146189449Y-87339815D01*
X146143694Y-87287011D01*
X146141927Y-87282952D01*
X146120467Y-87231143D01*
X146120466Y-87231141D01*
X145988839Y-87016346D01*
X145988838Y-87016343D01*
X145847165Y-86850466D01*
X145825224Y-86824776D01*
X145698571Y-86716604D01*
X145633656Y-86661161D01*
X145633653Y-86661160D01*
X145418859Y-86529533D01*
X145186110Y-86433126D01*
X144941151Y-86374317D01*
X144690000Y-86354551D01*
X144438848Y-86374317D01*
X144193889Y-86433126D01*
X143961140Y-86529533D01*
X143746346Y-86661160D01*
X143746343Y-86661161D01*
X143554776Y-86824776D01*
X143391161Y-87016343D01*
X143391160Y-87016346D01*
X143259533Y-87231141D01*
X143259532Y-87231143D01*
X143238073Y-87282952D01*
X143194233Y-87337356D01*
X143127939Y-87359421D01*
X143123512Y-87359500D01*
X127256488Y-87359500D01*
X127189449Y-87339815D01*
X127143694Y-87287011D01*
X127141927Y-87282952D01*
X127120467Y-87231143D01*
X127120466Y-87231141D01*
X126988839Y-87016346D01*
X126988838Y-87016343D01*
X126847165Y-86850466D01*
X126825224Y-86824776D01*
X126698571Y-86716604D01*
X126633656Y-86661161D01*
X126633653Y-86661160D01*
X126418859Y-86529533D01*
X126186110Y-86433126D01*
X125941151Y-86374317D01*
X125690000Y-86354551D01*
X125438848Y-86374317D01*
X125193889Y-86433126D01*
X125142075Y-86454588D01*
X125072606Y-86462055D01*
X125010127Y-86430780D01*
X125006943Y-86427707D01*
X123999236Y-85420000D01*
X130434551Y-85420000D01*
X130454317Y-85671151D01*
X130513126Y-85916110D01*
X130609533Y-86148859D01*
X130741160Y-86363653D01*
X130741161Y-86363656D01*
X130795866Y-86427707D01*
X130904776Y-86555224D01*
X131028811Y-86661160D01*
X131096343Y-86718838D01*
X131096346Y-86718839D01*
X131311140Y-86850466D01*
X131543889Y-86946873D01*
X131788852Y-87005683D01*
X132040000Y-87025449D01*
X132291148Y-87005683D01*
X132536111Y-86946873D01*
X132768859Y-86850466D01*
X132983659Y-86718836D01*
X133175224Y-86555224D01*
X133338836Y-86363659D01*
X133470466Y-86148859D01*
X133566873Y-85916111D01*
X133625683Y-85671148D01*
X133645449Y-85420000D01*
X149434551Y-85420000D01*
X149454317Y-85671151D01*
X149513126Y-85916110D01*
X149609533Y-86148859D01*
X149741160Y-86363653D01*
X149741161Y-86363656D01*
X149795866Y-86427707D01*
X149904776Y-86555224D01*
X150028811Y-86661160D01*
X150096343Y-86718838D01*
X150096346Y-86718839D01*
X150311140Y-86850466D01*
X150543889Y-86946873D01*
X150788852Y-87005683D01*
X151040000Y-87025449D01*
X151291148Y-87005683D01*
X151536111Y-86946873D01*
X151768859Y-86850466D01*
X151983659Y-86718836D01*
X152175224Y-86555224D01*
X152338836Y-86363659D01*
X152470466Y-86148859D01*
X152566873Y-85916111D01*
X152625683Y-85671148D01*
X152645449Y-85420000D01*
X168394551Y-85420000D01*
X168414317Y-85671151D01*
X168473126Y-85916110D01*
X168569533Y-86148859D01*
X168701160Y-86363653D01*
X168701161Y-86363656D01*
X168755866Y-86427707D01*
X168864776Y-86555224D01*
X168988811Y-86661160D01*
X169056343Y-86718838D01*
X169056346Y-86718839D01*
X169271140Y-86850466D01*
X169503889Y-86946873D01*
X169748852Y-87005683D01*
X170000000Y-87025449D01*
X170251148Y-87005683D01*
X170496111Y-86946873D01*
X170728859Y-86850466D01*
X170943659Y-86718836D01*
X171135224Y-86555224D01*
X171298836Y-86363659D01*
X171430466Y-86148859D01*
X171526873Y-85916111D01*
X171585683Y-85671148D01*
X171605449Y-85420000D01*
X171585683Y-85168852D01*
X171526873Y-84923889D01*
X171512304Y-84888715D01*
X171430466Y-84691140D01*
X171298839Y-84476346D01*
X171298838Y-84476343D01*
X171190125Y-84349057D01*
X171135224Y-84284776D01*
X170978925Y-84151284D01*
X170943656Y-84121161D01*
X170943653Y-84121160D01*
X170728859Y-83989533D01*
X170496110Y-83893126D01*
X170251151Y-83834317D01*
X170000000Y-83814551D01*
X169748848Y-83834317D01*
X169503889Y-83893126D01*
X169271140Y-83989533D01*
X169056346Y-84121160D01*
X169056343Y-84121161D01*
X168864776Y-84284776D01*
X168701161Y-84476343D01*
X168701160Y-84476346D01*
X168569533Y-84691140D01*
X168473126Y-84923889D01*
X168414317Y-85168848D01*
X168394551Y-85420000D01*
X152645449Y-85420000D01*
X152625683Y-85168852D01*
X152566873Y-84923889D01*
X152552304Y-84888715D01*
X152470466Y-84691140D01*
X152338839Y-84476346D01*
X152338838Y-84476343D01*
X152230125Y-84349057D01*
X152175224Y-84284776D01*
X152018925Y-84151284D01*
X151983656Y-84121161D01*
X151983653Y-84121160D01*
X151768859Y-83989533D01*
X151536110Y-83893126D01*
X151291151Y-83834317D01*
X151040000Y-83814551D01*
X150788848Y-83834317D01*
X150543889Y-83893126D01*
X150311140Y-83989533D01*
X150096346Y-84121160D01*
X150096343Y-84121161D01*
X149904776Y-84284776D01*
X149741161Y-84476343D01*
X149741160Y-84476346D01*
X149609533Y-84691140D01*
X149513126Y-84923889D01*
X149454317Y-85168848D01*
X149434551Y-85420000D01*
X133645449Y-85420000D01*
X133625683Y-85168852D01*
X133566873Y-84923889D01*
X133552304Y-84888715D01*
X133470466Y-84691140D01*
X133338839Y-84476346D01*
X133338838Y-84476343D01*
X133230125Y-84349057D01*
X133175224Y-84284776D01*
X133018925Y-84151284D01*
X132983656Y-84121161D01*
X132983653Y-84121160D01*
X132768859Y-83989533D01*
X132536110Y-83893126D01*
X132291151Y-83834317D01*
X132040000Y-83814551D01*
X131788848Y-83834317D01*
X131543889Y-83893126D01*
X131311140Y-83989533D01*
X131096346Y-84121160D01*
X131096343Y-84121161D01*
X130904776Y-84284776D01*
X130741161Y-84476343D01*
X130741160Y-84476346D01*
X130609533Y-84691140D01*
X130513126Y-84923889D01*
X130454317Y-85168848D01*
X130434551Y-85420000D01*
X123999236Y-85420000D01*
X123114731Y-84535495D01*
X123081246Y-84474172D01*
X123082636Y-84415722D01*
X123100500Y-84349057D01*
X123100500Y-76249998D01*
X124574532Y-76249998D01*
X124574532Y-76250001D01*
X124594364Y-76476686D01*
X124594366Y-76476697D01*
X124653258Y-76696488D01*
X124653261Y-76696497D01*
X124749431Y-76902732D01*
X124749432Y-76902734D01*
X124879954Y-77089141D01*
X125040858Y-77250045D01*
X125040861Y-77250047D01*
X125227266Y-77380568D01*
X125433504Y-77476739D01*
X125653308Y-77535635D01*
X125815230Y-77549801D01*
X125879998Y-77555468D01*
X125880000Y-77555468D01*
X125880002Y-77555468D01*
X125936807Y-77550498D01*
X126106692Y-77535635D01*
X126326496Y-77476739D01*
X126532734Y-77380568D01*
X126719139Y-77250047D01*
X126880047Y-77089139D01*
X127010568Y-76902734D01*
X127106739Y-76696496D01*
X127165635Y-76476692D01*
X127185468Y-76250000D01*
X127165635Y-76023308D01*
X127106739Y-75803504D01*
X127010568Y-75597266D01*
X126880047Y-75410861D01*
X126880045Y-75410858D01*
X126871322Y-75402135D01*
X132199500Y-75402135D01*
X132199500Y-77097870D01*
X132199501Y-77097876D01*
X132205908Y-77157483D01*
X132256202Y-77292328D01*
X132256206Y-77292335D01*
X132342452Y-77407544D01*
X132342455Y-77407547D01*
X132457664Y-77493793D01*
X132457671Y-77493797D01*
X132592517Y-77544091D01*
X132592516Y-77544091D01*
X132599444Y-77544835D01*
X132652127Y-77550500D01*
X134347872Y-77550499D01*
X134407483Y-77544091D01*
X134542331Y-77493796D01*
X134657546Y-77407546D01*
X134743796Y-77292331D01*
X134794091Y-77157483D01*
X134800500Y-77097873D01*
X134800499Y-75999998D01*
X143324532Y-75999998D01*
X143324532Y-76000001D01*
X143344364Y-76226686D01*
X143344366Y-76226695D01*
X143403258Y-76446488D01*
X143403261Y-76446497D01*
X143499431Y-76652732D01*
X143499432Y-76652734D01*
X143629954Y-76839141D01*
X143790858Y-77000045D01*
X143790861Y-77000047D01*
X143977266Y-77130568D01*
X144183504Y-77226739D01*
X144403308Y-77285635D01*
X144565230Y-77299801D01*
X144629998Y-77305468D01*
X144630000Y-77305468D01*
X144630002Y-77305468D01*
X144686807Y-77300498D01*
X144856692Y-77285635D01*
X145076496Y-77226739D01*
X145282734Y-77130568D01*
X145469139Y-77000047D01*
X145630047Y-76839139D01*
X145760568Y-76652734D01*
X145856739Y-76446496D01*
X145915635Y-76226692D01*
X145935468Y-76000000D01*
X145915635Y-75773308D01*
X145856739Y-75553504D01*
X145760568Y-75347266D01*
X145630047Y-75160861D01*
X145630045Y-75160858D01*
X145621322Y-75152135D01*
X150949500Y-75152135D01*
X150949500Y-76847870D01*
X150949501Y-76847876D01*
X150955908Y-76907483D01*
X151006202Y-77042328D01*
X151006206Y-77042335D01*
X151092452Y-77157544D01*
X151092455Y-77157547D01*
X151207664Y-77243793D01*
X151207671Y-77243797D01*
X151342517Y-77294091D01*
X151342516Y-77294091D01*
X151349444Y-77294835D01*
X151402127Y-77300500D01*
X153097872Y-77300499D01*
X153157483Y-77294091D01*
X153292331Y-77243796D01*
X153407546Y-77157546D01*
X153493796Y-77042331D01*
X153544091Y-76907483D01*
X153550500Y-76847873D01*
X153550499Y-75999998D01*
X162324532Y-75999998D01*
X162324532Y-76000001D01*
X162344364Y-76226686D01*
X162344366Y-76226695D01*
X162403258Y-76446488D01*
X162403261Y-76446497D01*
X162499431Y-76652732D01*
X162499432Y-76652734D01*
X162629954Y-76839141D01*
X162790858Y-77000045D01*
X162790861Y-77000047D01*
X162977266Y-77130568D01*
X163183504Y-77226739D01*
X163403308Y-77285635D01*
X163565230Y-77299801D01*
X163629998Y-77305468D01*
X163630000Y-77305468D01*
X163630002Y-77305468D01*
X163686807Y-77300498D01*
X163856692Y-77285635D01*
X164076496Y-77226739D01*
X164282734Y-77130568D01*
X164469139Y-77000047D01*
X164630047Y-76839139D01*
X164760568Y-76652734D01*
X164856739Y-76446496D01*
X164915635Y-76226692D01*
X164935468Y-76000000D01*
X164915635Y-75773308D01*
X164856739Y-75553504D01*
X164760568Y-75347266D01*
X164630047Y-75160861D01*
X164630045Y-75160858D01*
X164621322Y-75152135D01*
X169949500Y-75152135D01*
X169949500Y-76847870D01*
X169949501Y-76847876D01*
X169955908Y-76907483D01*
X170006202Y-77042328D01*
X170006206Y-77042335D01*
X170092452Y-77157544D01*
X170092455Y-77157547D01*
X170207664Y-77243793D01*
X170207671Y-77243797D01*
X170342517Y-77294091D01*
X170342516Y-77294091D01*
X170349444Y-77294835D01*
X170402127Y-77300500D01*
X172097872Y-77300499D01*
X172157483Y-77294091D01*
X172292331Y-77243796D01*
X172407546Y-77157546D01*
X172493796Y-77042331D01*
X172544091Y-76907483D01*
X172550500Y-76847873D01*
X172550499Y-75152128D01*
X172544091Y-75092517D01*
X172518260Y-75023261D01*
X172493797Y-74957671D01*
X172493793Y-74957664D01*
X172407547Y-74842455D01*
X172407544Y-74842452D01*
X172292335Y-74756206D01*
X172292328Y-74756202D01*
X172157482Y-74705908D01*
X172157483Y-74705908D01*
X172097883Y-74699501D01*
X172097881Y-74699500D01*
X172097873Y-74699500D01*
X172097864Y-74699500D01*
X170402129Y-74699500D01*
X170402123Y-74699501D01*
X170342516Y-74705908D01*
X170207671Y-74756202D01*
X170207664Y-74756206D01*
X170092455Y-74842452D01*
X170092452Y-74842455D01*
X170006206Y-74957664D01*
X170006202Y-74957671D01*
X169955908Y-75092517D01*
X169953015Y-75119431D01*
X169949501Y-75152123D01*
X169949500Y-75152135D01*
X164621322Y-75152135D01*
X164469141Y-74999954D01*
X164282734Y-74869432D01*
X164282732Y-74869431D01*
X164076497Y-74773261D01*
X164076488Y-74773258D01*
X163856697Y-74714366D01*
X163856693Y-74714365D01*
X163856692Y-74714365D01*
X163856691Y-74714364D01*
X163856686Y-74714364D01*
X163630002Y-74694532D01*
X163629998Y-74694532D01*
X163403313Y-74714364D01*
X163403302Y-74714366D01*
X163183511Y-74773258D01*
X163183502Y-74773261D01*
X162977267Y-74869431D01*
X162977265Y-74869432D01*
X162790858Y-74999954D01*
X162629954Y-75160858D01*
X162499432Y-75347265D01*
X162499431Y-75347267D01*
X162403261Y-75553502D01*
X162403258Y-75553511D01*
X162344366Y-75773302D01*
X162344364Y-75773313D01*
X162324532Y-75999998D01*
X153550499Y-75999998D01*
X153550499Y-75152128D01*
X153544091Y-75092517D01*
X153518260Y-75023261D01*
X153493797Y-74957671D01*
X153493793Y-74957664D01*
X153407547Y-74842455D01*
X153407544Y-74842452D01*
X153292335Y-74756206D01*
X153292328Y-74756202D01*
X153157482Y-74705908D01*
X153157483Y-74705908D01*
X153097883Y-74699501D01*
X153097881Y-74699500D01*
X153097873Y-74699500D01*
X153097864Y-74699500D01*
X151402129Y-74699500D01*
X151402123Y-74699501D01*
X151342516Y-74705908D01*
X151207671Y-74756202D01*
X151207664Y-74756206D01*
X151092455Y-74842452D01*
X151092452Y-74842455D01*
X151006206Y-74957664D01*
X151006202Y-74957671D01*
X150955908Y-75092517D01*
X150953015Y-75119431D01*
X150949501Y-75152123D01*
X150949500Y-75152135D01*
X145621322Y-75152135D01*
X145469141Y-74999954D01*
X145282734Y-74869432D01*
X145282732Y-74869431D01*
X145076497Y-74773261D01*
X145076488Y-74773258D01*
X144856697Y-74714366D01*
X144856693Y-74714365D01*
X144856692Y-74714365D01*
X144856691Y-74714364D01*
X144856686Y-74714364D01*
X144630002Y-74694532D01*
X144629998Y-74694532D01*
X144403313Y-74714364D01*
X144403302Y-74714366D01*
X144183511Y-74773258D01*
X144183502Y-74773261D01*
X143977267Y-74869431D01*
X143977265Y-74869432D01*
X143790858Y-74999954D01*
X143629954Y-75160858D01*
X143499432Y-75347265D01*
X143499431Y-75347267D01*
X143403261Y-75553502D01*
X143403258Y-75553511D01*
X143344366Y-75773302D01*
X143344364Y-75773313D01*
X143324532Y-75999998D01*
X134800499Y-75999998D01*
X134800499Y-75402128D01*
X134794091Y-75342517D01*
X134775442Y-75292517D01*
X134743797Y-75207671D01*
X134743793Y-75207664D01*
X134657547Y-75092455D01*
X134657544Y-75092452D01*
X134542335Y-75006206D01*
X134542328Y-75006202D01*
X134407482Y-74955908D01*
X134407483Y-74955908D01*
X134347883Y-74949501D01*
X134347881Y-74949500D01*
X134347873Y-74949500D01*
X134347864Y-74949500D01*
X132652129Y-74949500D01*
X132652123Y-74949501D01*
X132592516Y-74955908D01*
X132457671Y-75006202D01*
X132457664Y-75006206D01*
X132342455Y-75092452D01*
X132342452Y-75092455D01*
X132256206Y-75207664D01*
X132256202Y-75207671D01*
X132205908Y-75342517D01*
X132199501Y-75402116D01*
X132199501Y-75402123D01*
X132199500Y-75402135D01*
X126871322Y-75402135D01*
X126719141Y-75249954D01*
X126532734Y-75119432D01*
X126532732Y-75119431D01*
X126326497Y-75023261D01*
X126326488Y-75023258D01*
X126106697Y-74964366D01*
X126106693Y-74964365D01*
X126106692Y-74964365D01*
X126106691Y-74964364D01*
X126106686Y-74964364D01*
X125880002Y-74944532D01*
X125879998Y-74944532D01*
X125653313Y-74964364D01*
X125653302Y-74964366D01*
X125433511Y-75023258D01*
X125433502Y-75023261D01*
X125227267Y-75119431D01*
X125227265Y-75119432D01*
X125040858Y-75249954D01*
X124879954Y-75410858D01*
X124749432Y-75597265D01*
X124749431Y-75597267D01*
X124653261Y-75803502D01*
X124653258Y-75803511D01*
X124594366Y-76023302D01*
X124594364Y-76023313D01*
X124574532Y-76249998D01*
X123100500Y-76249998D01*
X123100500Y-71529467D01*
X123120185Y-71462428D01*
X123172989Y-71416673D01*
X123242147Y-71406729D01*
X123305703Y-71435754D01*
X123343477Y-71494532D01*
X123345377Y-71502980D01*
X123345460Y-71502961D01*
X123346597Y-71507697D01*
X123346598Y-71507701D01*
X123400127Y-71672445D01*
X123478768Y-71826788D01*
X123580586Y-71966928D01*
X123703072Y-72089414D01*
X123843212Y-72191232D01*
X123997555Y-72269873D01*
X124162299Y-72323402D01*
X124333389Y-72350500D01*
X124333390Y-72350500D01*
X124506610Y-72350500D01*
X124506611Y-72350500D01*
X124677701Y-72323402D01*
X124842445Y-72269873D01*
X124996788Y-72191232D01*
X125136928Y-72089414D01*
X125259414Y-71966928D01*
X125361232Y-71826788D01*
X125439873Y-71672445D01*
X125493402Y-71507701D01*
X125520500Y-71336611D01*
X125520500Y-71163389D01*
X125493402Y-70992299D01*
X125439873Y-70827555D01*
X125361232Y-70673212D01*
X125259414Y-70533072D01*
X125201232Y-70474890D01*
X125167747Y-70413567D01*
X125172731Y-70343875D01*
X125214603Y-70287942D01*
X125280067Y-70263525D01*
X125317856Y-70266634D01*
X125438852Y-70295683D01*
X125690000Y-70315449D01*
X125941148Y-70295683D01*
X126186111Y-70236873D01*
X126418859Y-70140466D01*
X126633659Y-70008836D01*
X126825224Y-69845224D01*
X126988836Y-69653659D01*
X127120466Y-69438859D01*
X127141927Y-69387048D01*
X127185767Y-69332644D01*
X127252061Y-69310579D01*
X127256488Y-69310500D01*
X127965462Y-69310500D01*
X128032501Y-69330185D01*
X128078256Y-69382989D01*
X128088200Y-69452147D01*
X128059175Y-69515703D01*
X128040948Y-69532876D01*
X128012959Y-69554352D01*
X128012952Y-69554358D01*
X127804358Y-69762952D01*
X127804352Y-69762959D01*
X127624761Y-69997006D01*
X127477258Y-70252489D01*
X127477254Y-70252499D01*
X127364364Y-70525038D01*
X127364361Y-70525048D01*
X127288008Y-70810004D01*
X127288006Y-70810015D01*
X127249500Y-71102486D01*
X127249500Y-71397513D01*
X127266873Y-71529467D01*
X127288007Y-71689993D01*
X127362212Y-71966930D01*
X127364361Y-71974951D01*
X127364364Y-71974961D01*
X127477254Y-72247500D01*
X127477258Y-72247510D01*
X127624761Y-72502993D01*
X127804352Y-72737040D01*
X127804358Y-72737047D01*
X128012952Y-72945641D01*
X128012959Y-72945647D01*
X128247006Y-73125238D01*
X128502489Y-73272741D01*
X128502490Y-73272741D01*
X128502493Y-73272743D01*
X128775048Y-73385639D01*
X129060007Y-73461993D01*
X129352494Y-73500500D01*
X129352501Y-73500500D01*
X129647499Y-73500500D01*
X129647506Y-73500500D01*
X129939993Y-73461993D01*
X130224952Y-73385639D01*
X130497507Y-73272743D01*
X130752994Y-73125238D01*
X130987042Y-72945646D01*
X131195646Y-72737042D01*
X131375238Y-72502994D01*
X131522743Y-72247507D01*
X131635639Y-71974952D01*
X131711993Y-71689993D01*
X131750500Y-71397506D01*
X131750500Y-71163389D01*
X133479500Y-71163389D01*
X133479500Y-71336610D01*
X133492180Y-71416673D01*
X133506598Y-71507701D01*
X133560127Y-71672445D01*
X133638768Y-71826788D01*
X133740586Y-71966928D01*
X133863072Y-72089414D01*
X134003212Y-72191232D01*
X134157555Y-72269873D01*
X134322299Y-72323402D01*
X134493389Y-72350500D01*
X134493390Y-72350500D01*
X134666610Y-72350500D01*
X134666611Y-72350500D01*
X134837701Y-72323402D01*
X135002445Y-72269873D01*
X135156788Y-72191232D01*
X135296928Y-72089414D01*
X135419414Y-71966928D01*
X135521232Y-71826788D01*
X135599873Y-71672445D01*
X135653402Y-71507701D01*
X135680500Y-71336611D01*
X135680500Y-71163389D01*
X135653402Y-70992299D01*
X135599873Y-70827555D01*
X135521232Y-70673212D01*
X135419414Y-70533072D01*
X135296928Y-70410586D01*
X135156788Y-70308768D01*
X135002445Y-70230127D01*
X134837701Y-70176598D01*
X134837699Y-70176597D01*
X134837698Y-70176597D01*
X134706271Y-70155781D01*
X134666611Y-70149500D01*
X134493389Y-70149500D01*
X134453728Y-70155781D01*
X134322302Y-70176597D01*
X134157552Y-70230128D01*
X134003211Y-70308768D01*
X133923256Y-70366859D01*
X133863072Y-70410586D01*
X133863070Y-70410588D01*
X133863069Y-70410588D01*
X133740588Y-70533069D01*
X133740588Y-70533070D01*
X133740586Y-70533072D01*
X133696859Y-70593256D01*
X133638768Y-70673211D01*
X133560128Y-70827552D01*
X133506597Y-70992302D01*
X133479500Y-71163389D01*
X131750500Y-71163389D01*
X131750500Y-71102494D01*
X131711993Y-70810007D01*
X131635639Y-70525048D01*
X131522743Y-70252493D01*
X131458064Y-70140466D01*
X131375238Y-69997006D01*
X131195647Y-69762959D01*
X131195641Y-69762952D01*
X130987047Y-69554358D01*
X130987040Y-69554352D01*
X130959052Y-69532876D01*
X130917849Y-69476448D01*
X130913694Y-69406702D01*
X130947906Y-69345782D01*
X131009624Y-69313029D01*
X131034538Y-69310500D01*
X143123512Y-69310500D01*
X143190551Y-69330185D01*
X143236306Y-69382989D01*
X143238073Y-69387048D01*
X143259532Y-69438856D01*
X143259533Y-69438858D01*
X143391160Y-69653653D01*
X143391161Y-69653656D01*
X143391164Y-69653659D01*
X143554776Y-69845224D01*
X143668783Y-69942595D01*
X143706976Y-70001102D01*
X143707474Y-70070970D01*
X143670121Y-70130016D01*
X143606774Y-70159494D01*
X143568854Y-70159358D01*
X143506611Y-70149500D01*
X143333389Y-70149500D01*
X143293728Y-70155781D01*
X143162302Y-70176597D01*
X142997552Y-70230128D01*
X142843211Y-70308768D01*
X142763256Y-70366859D01*
X142703072Y-70410586D01*
X142703070Y-70410588D01*
X142703069Y-70410588D01*
X142580588Y-70533069D01*
X142580588Y-70533070D01*
X142580586Y-70533072D01*
X142536859Y-70593256D01*
X142478768Y-70673211D01*
X142400128Y-70827552D01*
X142346597Y-70992302D01*
X142319500Y-71163389D01*
X142319500Y-71336610D01*
X142332180Y-71416673D01*
X142346598Y-71507701D01*
X142400127Y-71672445D01*
X142478768Y-71826788D01*
X142580586Y-71966928D01*
X142703072Y-72089414D01*
X142843212Y-72191232D01*
X142997555Y-72269873D01*
X143162299Y-72323402D01*
X143333389Y-72350500D01*
X143333390Y-72350500D01*
X143506610Y-72350500D01*
X143506611Y-72350500D01*
X143677701Y-72323402D01*
X143842445Y-72269873D01*
X143996788Y-72191232D01*
X144136928Y-72089414D01*
X144259414Y-71966928D01*
X144361232Y-71826788D01*
X144439873Y-71672445D01*
X144493402Y-71507701D01*
X144520500Y-71336611D01*
X144520500Y-71163389D01*
X144493402Y-70992299D01*
X144439873Y-70827555D01*
X144361232Y-70673212D01*
X144259414Y-70533072D01*
X144201232Y-70474890D01*
X144167747Y-70413567D01*
X144172731Y-70343875D01*
X144214603Y-70287942D01*
X144280067Y-70263525D01*
X144317856Y-70266634D01*
X144438852Y-70295683D01*
X144690000Y-70315449D01*
X144941148Y-70295683D01*
X145186111Y-70236873D01*
X145418859Y-70140466D01*
X145633659Y-70008836D01*
X145825224Y-69845224D01*
X145988836Y-69653659D01*
X146120466Y-69438859D01*
X146141927Y-69387048D01*
X146185767Y-69332644D01*
X146252061Y-69310579D01*
X146256488Y-69310500D01*
X146965462Y-69310500D01*
X147032501Y-69330185D01*
X147078256Y-69382989D01*
X147088200Y-69452147D01*
X147059175Y-69515703D01*
X147040948Y-69532876D01*
X147012959Y-69554352D01*
X147012952Y-69554358D01*
X146804358Y-69762952D01*
X146804352Y-69762959D01*
X146624761Y-69997006D01*
X146477258Y-70252489D01*
X146477254Y-70252499D01*
X146364364Y-70525038D01*
X146364361Y-70525048D01*
X146288008Y-70810004D01*
X146288006Y-70810015D01*
X146249500Y-71102486D01*
X146249500Y-71397513D01*
X146266873Y-71529467D01*
X146288007Y-71689993D01*
X146362212Y-71966930D01*
X146364361Y-71974951D01*
X146364364Y-71974961D01*
X146477254Y-72247500D01*
X146477258Y-72247510D01*
X146624761Y-72502993D01*
X146804352Y-72737040D01*
X146804358Y-72737047D01*
X147012952Y-72945641D01*
X147012959Y-72945647D01*
X147247006Y-73125238D01*
X147502489Y-73272741D01*
X147502490Y-73272741D01*
X147502493Y-73272743D01*
X147775048Y-73385639D01*
X148060007Y-73461993D01*
X148352494Y-73500500D01*
X148352501Y-73500500D01*
X148647499Y-73500500D01*
X148647506Y-73500500D01*
X148939993Y-73461993D01*
X149224952Y-73385639D01*
X149497507Y-73272743D01*
X149752994Y-73125238D01*
X149987042Y-72945646D01*
X150195646Y-72737042D01*
X150375238Y-72502994D01*
X150522743Y-72247507D01*
X150635639Y-71974952D01*
X150711993Y-71689993D01*
X150750500Y-71397506D01*
X150750500Y-71163389D01*
X152479500Y-71163389D01*
X152479500Y-71336610D01*
X152492180Y-71416673D01*
X152506598Y-71507701D01*
X152560127Y-71672445D01*
X152638768Y-71826788D01*
X152740586Y-71966928D01*
X152863072Y-72089414D01*
X153003212Y-72191232D01*
X153157555Y-72269873D01*
X153322299Y-72323402D01*
X153493389Y-72350500D01*
X153493390Y-72350500D01*
X153666610Y-72350500D01*
X153666611Y-72350500D01*
X153837701Y-72323402D01*
X154002445Y-72269873D01*
X154156788Y-72191232D01*
X154296928Y-72089414D01*
X154419414Y-71966928D01*
X154521232Y-71826788D01*
X154599873Y-71672445D01*
X154653402Y-71507701D01*
X154680500Y-71336611D01*
X154680500Y-71163389D01*
X154653402Y-70992299D01*
X154599873Y-70827555D01*
X154521232Y-70673212D01*
X154419414Y-70533072D01*
X154296928Y-70410586D01*
X154156788Y-70308768D01*
X154002445Y-70230127D01*
X153837701Y-70176598D01*
X153837699Y-70176597D01*
X153837698Y-70176597D01*
X153706271Y-70155781D01*
X153666611Y-70149500D01*
X153493389Y-70149500D01*
X153453728Y-70155781D01*
X153322302Y-70176597D01*
X153157552Y-70230128D01*
X153003211Y-70308768D01*
X152923256Y-70366859D01*
X152863072Y-70410586D01*
X152863070Y-70410588D01*
X152863069Y-70410588D01*
X152740588Y-70533069D01*
X152740588Y-70533070D01*
X152740586Y-70533072D01*
X152696859Y-70593256D01*
X152638768Y-70673211D01*
X152560128Y-70827552D01*
X152506597Y-70992302D01*
X152479500Y-71163389D01*
X150750500Y-71163389D01*
X150750500Y-71102494D01*
X150711993Y-70810007D01*
X150635639Y-70525048D01*
X150522743Y-70252493D01*
X150458064Y-70140466D01*
X150375238Y-69997006D01*
X150195647Y-69762959D01*
X150195641Y-69762952D01*
X149987047Y-69554358D01*
X149987040Y-69554352D01*
X149959052Y-69532876D01*
X149917849Y-69476448D01*
X149913694Y-69406702D01*
X149947906Y-69345782D01*
X150009624Y-69313029D01*
X150034538Y-69310500D01*
X162083512Y-69310500D01*
X162150551Y-69330185D01*
X162196306Y-69382989D01*
X162198073Y-69387048D01*
X162219532Y-69438856D01*
X162219533Y-69438858D01*
X162351160Y-69653653D01*
X162351161Y-69653656D01*
X162351164Y-69653659D01*
X162514776Y-69845224D01*
X162628783Y-69942595D01*
X162666976Y-70001102D01*
X162667474Y-70070970D01*
X162630121Y-70130016D01*
X162566774Y-70159494D01*
X162528854Y-70159358D01*
X162466611Y-70149500D01*
X162293389Y-70149500D01*
X162253728Y-70155781D01*
X162122302Y-70176597D01*
X161957552Y-70230128D01*
X161803211Y-70308768D01*
X161723256Y-70366859D01*
X161663072Y-70410586D01*
X161663070Y-70410588D01*
X161663069Y-70410588D01*
X161540588Y-70533069D01*
X161540588Y-70533070D01*
X161540586Y-70533072D01*
X161496859Y-70593256D01*
X161438768Y-70673211D01*
X161360128Y-70827552D01*
X161306597Y-70992302D01*
X161279500Y-71163389D01*
X161279500Y-71336610D01*
X161292180Y-71416673D01*
X161306598Y-71507701D01*
X161360127Y-71672445D01*
X161438768Y-71826788D01*
X161540586Y-71966928D01*
X161663072Y-72089414D01*
X161803212Y-72191232D01*
X161957555Y-72269873D01*
X162122299Y-72323402D01*
X162293389Y-72350500D01*
X162293390Y-72350500D01*
X162466610Y-72350500D01*
X162466611Y-72350500D01*
X162637701Y-72323402D01*
X162802445Y-72269873D01*
X162956788Y-72191232D01*
X163096928Y-72089414D01*
X163219414Y-71966928D01*
X163321232Y-71826788D01*
X163399873Y-71672445D01*
X163453402Y-71507701D01*
X163480500Y-71336611D01*
X163480500Y-71163389D01*
X163453402Y-70992299D01*
X163399873Y-70827555D01*
X163321232Y-70673212D01*
X163219414Y-70533072D01*
X163161232Y-70474890D01*
X163127747Y-70413567D01*
X163132731Y-70343875D01*
X163174603Y-70287942D01*
X163240067Y-70263525D01*
X163277856Y-70266634D01*
X163398852Y-70295683D01*
X163650000Y-70315449D01*
X163901148Y-70295683D01*
X164146111Y-70236873D01*
X164378859Y-70140466D01*
X164593659Y-70008836D01*
X164785224Y-69845224D01*
X164948836Y-69653659D01*
X165080466Y-69438859D01*
X165101927Y-69387048D01*
X165145767Y-69332644D01*
X165212061Y-69310579D01*
X165216488Y-69310500D01*
X165925462Y-69310500D01*
X165992501Y-69330185D01*
X166038256Y-69382989D01*
X166048200Y-69452147D01*
X166019175Y-69515703D01*
X166000948Y-69532876D01*
X165972959Y-69554352D01*
X165972952Y-69554358D01*
X165764358Y-69762952D01*
X165764352Y-69762959D01*
X165584761Y-69997006D01*
X165437258Y-70252489D01*
X165437254Y-70252499D01*
X165324364Y-70525038D01*
X165324361Y-70525048D01*
X165248008Y-70810004D01*
X165248006Y-70810015D01*
X165209500Y-71102486D01*
X165209500Y-71397513D01*
X165226873Y-71529467D01*
X165248007Y-71689993D01*
X165322212Y-71966930D01*
X165324361Y-71974951D01*
X165324364Y-71974961D01*
X165437254Y-72247500D01*
X165437258Y-72247510D01*
X165584761Y-72502993D01*
X165764352Y-72737040D01*
X165764358Y-72737047D01*
X165972952Y-72945641D01*
X165972959Y-72945647D01*
X166207006Y-73125238D01*
X166462489Y-73272741D01*
X166462490Y-73272741D01*
X166462493Y-73272743D01*
X166735048Y-73385639D01*
X167020007Y-73461993D01*
X167312494Y-73500500D01*
X167312501Y-73500500D01*
X167607499Y-73500500D01*
X167607506Y-73500500D01*
X167899993Y-73461993D01*
X168184952Y-73385639D01*
X168457507Y-73272743D01*
X168712994Y-73125238D01*
X168947042Y-72945646D01*
X169155646Y-72737042D01*
X169335238Y-72502994D01*
X169482743Y-72247507D01*
X169595639Y-71974952D01*
X169671993Y-71689993D01*
X169710500Y-71397506D01*
X169710500Y-71163389D01*
X171439500Y-71163389D01*
X171439500Y-71336610D01*
X171452180Y-71416673D01*
X171466598Y-71507701D01*
X171520127Y-71672445D01*
X171598768Y-71826788D01*
X171700586Y-71966928D01*
X171823072Y-72089414D01*
X171963212Y-72191232D01*
X172117555Y-72269873D01*
X172282299Y-72323402D01*
X172453389Y-72350500D01*
X172453390Y-72350500D01*
X172626610Y-72350500D01*
X172626611Y-72350500D01*
X172797701Y-72323402D01*
X172962445Y-72269873D01*
X173116788Y-72191232D01*
X173256928Y-72089414D01*
X173379414Y-71966928D01*
X173481232Y-71826788D01*
X173559873Y-71672445D01*
X173613402Y-71507701D01*
X173640500Y-71336611D01*
X173640500Y-71163389D01*
X173613402Y-70992299D01*
X173559873Y-70827555D01*
X173481232Y-70673212D01*
X173379414Y-70533072D01*
X173256928Y-70410586D01*
X173116788Y-70308768D01*
X172962445Y-70230127D01*
X172797701Y-70176598D01*
X172797699Y-70176597D01*
X172797698Y-70176597D01*
X172666271Y-70155781D01*
X172626611Y-70149500D01*
X172453389Y-70149500D01*
X172413728Y-70155781D01*
X172282302Y-70176597D01*
X172117552Y-70230128D01*
X171963211Y-70308768D01*
X171883256Y-70366859D01*
X171823072Y-70410586D01*
X171823070Y-70410588D01*
X171823069Y-70410588D01*
X171700588Y-70533069D01*
X171700588Y-70533070D01*
X171700586Y-70533072D01*
X171656859Y-70593256D01*
X171598768Y-70673211D01*
X171520128Y-70827552D01*
X171466597Y-70992302D01*
X171439500Y-71163389D01*
X169710500Y-71163389D01*
X169710500Y-71102494D01*
X169671993Y-70810007D01*
X169595639Y-70525048D01*
X169482743Y-70252493D01*
X169418064Y-70140466D01*
X169335238Y-69997006D01*
X169155647Y-69762959D01*
X169155641Y-69762952D01*
X168947047Y-69554358D01*
X168947040Y-69554352D01*
X168919052Y-69532876D01*
X168877849Y-69476448D01*
X168873694Y-69406702D01*
X168907906Y-69345782D01*
X168969624Y-69313029D01*
X168994538Y-69310500D01*
X183809903Y-69310500D01*
X183876942Y-69330185D01*
X183897584Y-69346819D01*
X189238584Y-74687819D01*
X189272069Y-74749142D01*
X189267085Y-74818834D01*
X189225213Y-74874767D01*
X189159749Y-74899184D01*
X189150903Y-74899500D01*
X187102129Y-74899500D01*
X187102123Y-74899501D01*
X187042516Y-74905908D01*
X186907671Y-74956202D01*
X186907664Y-74956206D01*
X186792455Y-75042452D01*
X186792452Y-75042455D01*
X186706206Y-75157664D01*
X186706202Y-75157671D01*
X186655908Y-75292517D01*
X186649501Y-75352116D01*
X186649500Y-75352135D01*
X186649500Y-76350903D01*
X186629815Y-76417942D01*
X186577011Y-76463697D01*
X186507853Y-76473641D01*
X186444297Y-76444616D01*
X186437819Y-76438584D01*
X185766819Y-75767584D01*
X185733334Y-75706261D01*
X185730500Y-75679903D01*
X185730500Y-74674499D01*
X185750185Y-74607460D01*
X185802989Y-74561705D01*
X185854500Y-74550499D01*
X185977871Y-74550499D01*
X185977872Y-74550499D01*
X186037483Y-74544091D01*
X186172331Y-74493796D01*
X186287546Y-74407546D01*
X186373796Y-74292331D01*
X186424091Y-74157483D01*
X186430500Y-74097873D01*
X186430499Y-72402128D01*
X186424091Y-72342517D01*
X186389567Y-72249954D01*
X186373797Y-72207671D01*
X186373793Y-72207664D01*
X186287547Y-72092455D01*
X186287544Y-72092452D01*
X186172335Y-72006206D01*
X186172328Y-72006202D01*
X186037482Y-71955908D01*
X186037483Y-71955908D01*
X185977883Y-71949501D01*
X185977881Y-71949500D01*
X185977873Y-71949500D01*
X185977864Y-71949500D01*
X184282129Y-71949500D01*
X184282123Y-71949501D01*
X184222516Y-71955908D01*
X184087671Y-72006202D01*
X184087664Y-72006206D01*
X183972455Y-72092452D01*
X183972452Y-72092455D01*
X183886206Y-72207664D01*
X183886202Y-72207671D01*
X183835908Y-72342517D01*
X183829501Y-72402116D01*
X183829501Y-72402123D01*
X183829500Y-72402135D01*
X183829500Y-74097870D01*
X183829501Y-74097876D01*
X183835908Y-74157483D01*
X183886202Y-74292328D01*
X183886206Y-74292335D01*
X183972452Y-74407544D01*
X183972455Y-74407547D01*
X184087664Y-74493793D01*
X184087671Y-74493797D01*
X184132618Y-74510561D01*
X184222517Y-74544091D01*
X184282127Y-74550500D01*
X184405500Y-74550499D01*
X184472539Y-74570183D01*
X184518294Y-74622987D01*
X184529500Y-74674499D01*
X184529500Y-75893330D01*
X184529499Y-75893348D01*
X184529499Y-76059054D01*
X184529498Y-76059054D01*
X184570423Y-76211785D01*
X184579030Y-76226692D01*
X184579031Y-76226695D01*
X184649475Y-76348709D01*
X184649481Y-76348717D01*
X184768349Y-76467585D01*
X184768355Y-76467590D01*
X192483181Y-84182416D01*
X192516666Y-84243739D01*
X192519500Y-84270097D01*
X192519500Y-89075500D01*
X192499815Y-89142539D01*
X192447011Y-89188294D01*
X192395501Y-89199500D01*
X192272130Y-89199500D01*
X192272123Y-89199501D01*
X192212516Y-89205908D01*
X192077671Y-89256202D01*
X192077664Y-89256206D01*
X191962455Y-89342452D01*
X191962452Y-89342455D01*
X191876206Y-89457664D01*
X191876202Y-89457671D01*
X191825908Y-89592517D01*
X191819501Y-89652116D01*
X191819501Y-89652123D01*
X191819500Y-89652135D01*
X191819500Y-91347870D01*
X191819501Y-91347876D01*
X191825908Y-91407483D01*
X191876202Y-91542328D01*
X191876206Y-91542335D01*
X191962452Y-91657544D01*
X191962455Y-91657547D01*
X192077664Y-91743793D01*
X192077671Y-91743797D01*
X192212517Y-91794091D01*
X192212516Y-91794091D01*
X192219444Y-91794835D01*
X192272127Y-91800500D01*
X192721891Y-91800499D01*
X192788928Y-91820183D01*
X192834683Y-91872987D01*
X192844627Y-91942146D01*
X192815602Y-92005702D01*
X192774295Y-92036881D01*
X192597264Y-92119433D01*
X192410858Y-92249954D01*
X192249954Y-92410858D01*
X192173450Y-92520118D01*
X192119881Y-92596624D01*
X192065307Y-92640248D01*
X192018308Y-92649500D01*
X191500098Y-92649500D01*
X191433059Y-92629815D01*
X191412417Y-92613181D01*
X188111416Y-89312180D01*
X188077931Y-89250857D01*
X188082915Y-89181165D01*
X188124787Y-89125232D01*
X188190251Y-89100815D01*
X188199097Y-89100499D01*
X190397871Y-89100499D01*
X190397872Y-89100499D01*
X190457483Y-89094091D01*
X190592331Y-89043796D01*
X190707546Y-88957546D01*
X190793796Y-88842331D01*
X190844091Y-88707483D01*
X190850500Y-88647873D01*
X190850499Y-86552128D01*
X190844091Y-86492517D01*
X190832729Y-86462055D01*
X190793797Y-86357671D01*
X190793793Y-86357664D01*
X190707547Y-86242455D01*
X190707544Y-86242452D01*
X190592335Y-86156206D01*
X190592328Y-86156202D01*
X190457482Y-86105908D01*
X190457483Y-86105908D01*
X190397883Y-86099501D01*
X190397881Y-86099500D01*
X190397873Y-86099500D01*
X190397864Y-86099500D01*
X187102129Y-86099500D01*
X187102123Y-86099501D01*
X187042516Y-86105908D01*
X186907671Y-86156202D01*
X186907664Y-86156206D01*
X186792455Y-86242452D01*
X186792452Y-86242455D01*
X186706206Y-86357664D01*
X186706202Y-86357671D01*
X186655908Y-86492517D01*
X186651929Y-86529533D01*
X186649501Y-86552123D01*
X186649500Y-86552135D01*
X186649500Y-87550903D01*
X186629815Y-87617942D01*
X186577011Y-87663697D01*
X186507853Y-87673641D01*
X186444297Y-87644616D01*
X186437819Y-87638584D01*
X182937590Y-84138355D01*
X182937588Y-84138352D01*
X182818717Y-84019481D01*
X182818716Y-84019480D01*
X182731904Y-83969360D01*
X182731904Y-83969359D01*
X182731900Y-83969358D01*
X182681785Y-83940423D01*
X182681783Y-83940422D01*
X182681781Y-83940421D01*
X182680514Y-83939896D01*
X182679609Y-83939167D01*
X182674746Y-83936359D01*
X182675184Y-83935600D01*
X182626114Y-83896050D01*
X182614421Y-83875149D01*
X182574173Y-83783393D01*
X182438166Y-83575217D01*
X182359239Y-83489480D01*
X182269744Y-83392262D01*
X182212685Y-83347851D01*
X182171874Y-83291143D01*
X182168199Y-83221370D01*
X182202830Y-83160687D01*
X182212675Y-83152156D01*
X182269744Y-83107738D01*
X182438164Y-82924785D01*
X182574173Y-82716607D01*
X182674063Y-82488881D01*
X182735108Y-82247821D01*
X182745285Y-82125003D01*
X182755643Y-82000005D01*
X182755643Y-81999994D01*
X182735109Y-81752187D01*
X182735107Y-81752175D01*
X182674063Y-81511118D01*
X182574173Y-81283393D01*
X182461916Y-81111570D01*
X182441729Y-81044681D01*
X182460909Y-80977495D01*
X182491414Y-80944482D01*
X182492329Y-80943796D01*
X182492331Y-80943796D01*
X182607546Y-80857546D01*
X182693796Y-80742331D01*
X182744091Y-80607483D01*
X182750500Y-80547873D01*
X182750499Y-78452128D01*
X182744091Y-78392517D01*
X182693796Y-78257669D01*
X182693795Y-78257668D01*
X182693793Y-78257664D01*
X182607547Y-78142455D01*
X182607544Y-78142452D01*
X182492335Y-78056206D01*
X182492328Y-78056202D01*
X182357482Y-78005908D01*
X182357483Y-78005908D01*
X182297883Y-77999501D01*
X182297881Y-77999500D01*
X182297873Y-77999500D01*
X182297864Y-77999500D01*
X180202129Y-77999500D01*
X180202123Y-77999501D01*
X180142516Y-78005908D01*
X180007671Y-78056202D01*
X180007664Y-78056206D01*
X179892455Y-78142452D01*
X179892452Y-78142455D01*
X179806206Y-78257664D01*
X179806202Y-78257671D01*
X179755908Y-78392517D01*
X179749501Y-78452116D01*
X179749501Y-78452123D01*
X179749500Y-78452135D01*
X179749500Y-80547870D01*
X179749501Y-80547876D01*
X179755908Y-80607483D01*
X179806202Y-80742328D01*
X179806206Y-80742335D01*
X179892452Y-80857544D01*
X179892453Y-80857544D01*
X179892454Y-80857546D01*
X179920882Y-80878827D01*
X180008586Y-80944483D01*
X180050456Y-81000417D01*
X180055440Y-81070108D01*
X180038083Y-81111570D01*
X179925826Y-81283393D01*
X179825936Y-81511118D01*
X179764892Y-81752175D01*
X179764890Y-81752187D01*
X179744357Y-81999994D01*
X179744357Y-82000005D01*
X179764890Y-82247812D01*
X179764892Y-82247824D01*
X179825936Y-82488881D01*
X179925826Y-82716606D01*
X180061833Y-82924782D01*
X180061836Y-82924785D01*
X180230256Y-83107738D01*
X180287312Y-83152147D01*
X180328125Y-83208857D01*
X180331800Y-83278630D01*
X180297169Y-83339313D01*
X180287317Y-83347848D01*
X180247283Y-83379008D01*
X180230257Y-83392261D01*
X180061833Y-83575217D01*
X179925826Y-83783393D01*
X179825936Y-84011118D01*
X179764892Y-84252175D01*
X179764890Y-84252187D01*
X179744357Y-84499994D01*
X179744357Y-84500005D01*
X179764890Y-84747812D01*
X179764892Y-84747824D01*
X179825936Y-84988881D01*
X179925826Y-85216606D01*
X180061833Y-85424782D01*
X180061836Y-85424785D01*
X180230256Y-85607738D01*
X180426491Y-85760474D01*
X180645190Y-85878828D01*
X180880386Y-85959571D01*
X181125665Y-86000500D01*
X181374335Y-86000500D01*
X181619614Y-85959571D01*
X181854810Y-85878828D01*
X182073509Y-85760474D01*
X182269744Y-85607738D01*
X182392524Y-85474363D01*
X182452408Y-85438375D01*
X182522246Y-85440475D01*
X182571432Y-85470667D01*
X186250311Y-89149547D01*
X186283796Y-89210870D01*
X186278812Y-89280562D01*
X186236940Y-89336495D01*
X186171476Y-89360912D01*
X186110226Y-89349610D01*
X186029958Y-89312180D01*
X185946497Y-89273261D01*
X185946488Y-89273258D01*
X185726697Y-89214366D01*
X185726693Y-89214365D01*
X185726692Y-89214365D01*
X185726691Y-89214364D01*
X185726686Y-89214364D01*
X185500002Y-89194532D01*
X185499998Y-89194532D01*
X185273313Y-89214364D01*
X185273302Y-89214366D01*
X185053511Y-89273258D01*
X185053502Y-89273261D01*
X184847267Y-89369431D01*
X184847265Y-89369432D01*
X184660858Y-89499954D01*
X184499954Y-89660858D01*
X184369432Y-89847265D01*
X184369431Y-89847267D01*
X184273261Y-90053502D01*
X184273258Y-90053511D01*
X184214366Y-90273302D01*
X184214364Y-90273313D01*
X184194532Y-90499998D01*
X184194532Y-90500001D01*
X184214364Y-90726686D01*
X184214366Y-90726697D01*
X184273258Y-90946488D01*
X184273261Y-90946497D01*
X184369431Y-91152732D01*
X184369432Y-91152734D01*
X184499954Y-91339141D01*
X184660858Y-91500045D01*
X184660861Y-91500047D01*
X184847266Y-91630568D01*
X185024298Y-91713120D01*
X185076735Y-91759290D01*
X185095887Y-91826484D01*
X185075671Y-91893365D01*
X185022506Y-91938699D01*
X184971892Y-91949500D01*
X184782130Y-91949500D01*
X184782123Y-91949501D01*
X184722516Y-91955908D01*
X184587671Y-92006202D01*
X184587664Y-92006206D01*
X184472455Y-92092452D01*
X184472452Y-92092455D01*
X184386206Y-92207664D01*
X184386202Y-92207671D01*
X184335908Y-92342517D01*
X184329501Y-92402116D01*
X184329501Y-92402123D01*
X184329500Y-92402135D01*
X184329500Y-93649902D01*
X184309815Y-93716941D01*
X184293181Y-93737583D01*
X183917584Y-94113181D01*
X183856261Y-94146666D01*
X183829903Y-94149500D01*
X172572320Y-94149500D01*
X172505281Y-94129815D01*
X172473052Y-94099809D01*
X172467548Y-94092457D01*
X172467546Y-94092454D01*
X172463118Y-94089139D01*
X172352335Y-94006206D01*
X172352328Y-94006202D01*
X172217482Y-93955908D01*
X172217483Y-93955908D01*
X172157883Y-93949501D01*
X172157881Y-93949500D01*
X172157873Y-93949500D01*
X172157864Y-93949500D01*
X170462129Y-93949500D01*
X170462123Y-93949501D01*
X170402516Y-93955908D01*
X170267671Y-94006202D01*
X170267664Y-94006206D01*
X170152455Y-94092452D01*
X170152452Y-94092455D01*
X170066206Y-94207664D01*
X170066202Y-94207671D01*
X170015908Y-94342517D01*
X170009501Y-94402116D01*
X170009501Y-94402123D01*
X170009500Y-94402135D01*
X170009500Y-96097870D01*
X170009501Y-96097876D01*
X170015908Y-96157483D01*
X170066202Y-96292328D01*
X170066206Y-96292335D01*
X170152452Y-96407544D01*
X170152455Y-96407547D01*
X170267664Y-96493793D01*
X170267671Y-96493797D01*
X170402517Y-96544091D01*
X170402516Y-96544091D01*
X170409444Y-96544835D01*
X170462127Y-96550500D01*
X172157872Y-96550499D01*
X172217483Y-96544091D01*
X172352331Y-96493796D01*
X172467546Y-96407546D01*
X172553796Y-96292331D01*
X172604091Y-96157483D01*
X172610500Y-96097873D01*
X172610500Y-95474500D01*
X172630185Y-95407461D01*
X172682989Y-95361706D01*
X172734500Y-95350500D01*
X184043331Y-95350500D01*
X184043347Y-95350501D01*
X184050943Y-95350501D01*
X184209054Y-95350501D01*
X184209057Y-95350501D01*
X184361785Y-95309577D01*
X184411904Y-95280639D01*
X184498716Y-95230520D01*
X184610520Y-95118716D01*
X184610520Y-95118714D01*
X184620728Y-95108507D01*
X184620730Y-95108504D01*
X185142416Y-94586818D01*
X185203739Y-94553333D01*
X185230097Y-94550499D01*
X186477871Y-94550499D01*
X186477872Y-94550499D01*
X186537483Y-94544091D01*
X186672331Y-94493796D01*
X186787546Y-94407546D01*
X186873796Y-94292331D01*
X186924091Y-94157483D01*
X186930500Y-94097873D01*
X186930499Y-92402128D01*
X186924091Y-92342517D01*
X186903887Y-92288348D01*
X186873797Y-92207671D01*
X186873793Y-92207664D01*
X186787547Y-92092455D01*
X186787544Y-92092452D01*
X186672335Y-92006206D01*
X186672328Y-92006202D01*
X186537482Y-91955908D01*
X186537483Y-91955908D01*
X186477883Y-91949501D01*
X186477881Y-91949500D01*
X186477873Y-91949500D01*
X186477865Y-91949500D01*
X186028110Y-91949500D01*
X185961071Y-91929815D01*
X185915316Y-91877011D01*
X185905372Y-91807853D01*
X185934397Y-91744297D01*
X185975703Y-91713119D01*
X186152734Y-91630568D01*
X186339139Y-91500047D01*
X186500047Y-91339139D01*
X186630568Y-91152734D01*
X186726739Y-90946496D01*
X186785635Y-90726692D01*
X186805468Y-90500000D01*
X186785635Y-90273308D01*
X186728484Y-90060015D01*
X186726741Y-90053511D01*
X186726738Y-90053502D01*
X186665982Y-89923212D01*
X186650388Y-89889771D01*
X186639897Y-89820697D01*
X186668416Y-89756913D01*
X186726893Y-89718673D01*
X186796760Y-89718118D01*
X186850453Y-89749688D01*
X190831284Y-93730520D01*
X190831286Y-93730521D01*
X190831290Y-93730524D01*
X190968209Y-93809573D01*
X190968216Y-93809577D01*
X191120943Y-93850501D01*
X191120945Y-93850501D01*
X191286654Y-93850501D01*
X191286670Y-93850500D01*
X192018308Y-93850500D01*
X192085347Y-93870185D01*
X192119880Y-93903374D01*
X192191882Y-94006204D01*
X192249954Y-94089141D01*
X192410858Y-94250045D01*
X192410861Y-94250047D01*
X192597266Y-94380568D01*
X192803504Y-94476739D01*
X193023308Y-94535635D01*
X193185230Y-94549801D01*
X193249998Y-94555468D01*
X193250000Y-94555468D01*
X193250002Y-94555468D01*
X193306807Y-94550498D01*
X193476692Y-94535635D01*
X193696496Y-94476739D01*
X193902734Y-94380568D01*
X194089139Y-94250047D01*
X194250047Y-94089139D01*
X194312465Y-93999996D01*
X198194435Y-93999996D01*
X198194435Y-94000003D01*
X198214630Y-94179249D01*
X198214631Y-94179254D01*
X198274211Y-94349523D01*
X198312751Y-94410858D01*
X198370184Y-94502262D01*
X198497738Y-94629816D01*
X198650478Y-94725789D01*
X198820745Y-94785368D01*
X198820750Y-94785369D01*
X198999996Y-94805565D01*
X199000000Y-94805565D01*
X199000004Y-94805565D01*
X199179249Y-94785369D01*
X199179252Y-94785368D01*
X199179255Y-94785368D01*
X199349522Y-94725789D01*
X199502262Y-94629816D01*
X199629816Y-94502262D01*
X199725789Y-94349522D01*
X199785368Y-94179255D01*
X199795161Y-94092329D01*
X199822226Y-94027918D01*
X199830690Y-94018543D01*
X200983506Y-92865728D01*
X200983511Y-92865724D01*
X200993714Y-92855520D01*
X200993716Y-92855520D01*
X201105520Y-92743716D01*
X201167918Y-92635639D01*
X201184577Y-92606785D01*
X201225501Y-92454057D01*
X201225501Y-92295943D01*
X201225501Y-92288348D01*
X201225500Y-92288330D01*
X201225500Y-82707412D01*
X201245185Y-82640373D01*
X201252555Y-82630097D01*
X201254810Y-82627267D01*
X201254816Y-82627262D01*
X201350789Y-82474522D01*
X201410368Y-82304255D01*
X201410369Y-82304249D01*
X201430565Y-82125003D01*
X201430565Y-82124996D01*
X201410369Y-81945750D01*
X201410368Y-81945745D01*
X201350788Y-81775476D01*
X201254815Y-81622737D01*
X201127262Y-81495184D01*
X200974523Y-81399211D01*
X200804254Y-81339631D01*
X200804249Y-81339630D01*
X200625004Y-81319435D01*
X200624996Y-81319435D01*
X200445750Y-81339630D01*
X200445745Y-81339631D01*
X200275476Y-81399211D01*
X200122737Y-81495184D01*
X199995184Y-81622737D01*
X199899211Y-81775476D01*
X199839631Y-81945745D01*
X199839630Y-81945750D01*
X199819435Y-82124996D01*
X199819435Y-82125003D01*
X199839630Y-82304249D01*
X199839631Y-82304254D01*
X199899211Y-82474523D01*
X199995185Y-82627263D01*
X199997445Y-82630097D01*
X199998334Y-82632275D01*
X199998889Y-82633158D01*
X199998734Y-82633255D01*
X200023855Y-82694783D01*
X200024500Y-82707412D01*
X200024500Y-92074902D01*
X200004815Y-92141941D01*
X199988181Y-92162583D01*
X198981465Y-93169298D01*
X198920142Y-93202783D01*
X198907668Y-93204837D01*
X198820750Y-93214630D01*
X198650478Y-93274210D01*
X198497737Y-93370184D01*
X198370184Y-93497737D01*
X198274211Y-93650476D01*
X198214631Y-93820745D01*
X198214630Y-93820750D01*
X198194435Y-93999996D01*
X194312465Y-93999996D01*
X194380568Y-93902734D01*
X194476739Y-93696496D01*
X194535635Y-93476692D01*
X194555468Y-93250000D01*
X194535635Y-93023308D01*
X194476739Y-92803504D01*
X194380568Y-92597266D01*
X194250047Y-92410861D01*
X194250045Y-92410858D01*
X194089141Y-92249954D01*
X193902734Y-92119432D01*
X193902732Y-92119431D01*
X193844880Y-92092454D01*
X193725701Y-92036880D01*
X193673264Y-91990709D01*
X193654112Y-91923515D01*
X193674328Y-91856634D01*
X193727493Y-91811299D01*
X193778107Y-91800499D01*
X193967872Y-91800499D01*
X194027483Y-91794091D01*
X194162331Y-91743796D01*
X194277546Y-91657546D01*
X194363796Y-91542331D01*
X194414091Y-91407483D01*
X194420500Y-91347873D01*
X194420499Y-89652128D01*
X194414091Y-89592517D01*
X194403995Y-89565449D01*
X194363797Y-89457671D01*
X194363793Y-89457664D01*
X194277547Y-89342455D01*
X194277544Y-89342452D01*
X194162335Y-89256206D01*
X194162328Y-89256202D01*
X194027482Y-89205908D01*
X194027483Y-89205908D01*
X193967883Y-89199501D01*
X193967881Y-89199500D01*
X193967873Y-89199500D01*
X193967865Y-89199500D01*
X193844500Y-89199500D01*
X193777461Y-89179815D01*
X193731706Y-89127011D01*
X193720500Y-89075500D01*
X193720500Y-83890945D01*
X193720500Y-83890943D01*
X193679577Y-83738216D01*
X193679573Y-83738209D01*
X193600524Y-83601290D01*
X193600521Y-83601286D01*
X193600520Y-83601284D01*
X193488716Y-83489480D01*
X193488715Y-83489479D01*
X193484385Y-83485149D01*
X193484374Y-83485139D01*
X188111415Y-78112180D01*
X188077930Y-78050857D01*
X188082914Y-77981165D01*
X188124786Y-77925232D01*
X188190250Y-77900815D01*
X188199096Y-77900499D01*
X190397871Y-77900499D01*
X190397872Y-77900499D01*
X190457483Y-77894091D01*
X190592331Y-77843796D01*
X190707546Y-77757546D01*
X190793796Y-77642331D01*
X190844091Y-77507483D01*
X190850500Y-77447873D01*
X190850499Y-76599095D01*
X190870183Y-76532057D01*
X190922987Y-76486302D01*
X190992146Y-76476358D01*
X191055702Y-76505383D01*
X191062180Y-76511415D01*
X193813181Y-79262416D01*
X193846666Y-79323739D01*
X193849500Y-79350097D01*
X193849500Y-83113330D01*
X193849499Y-83113348D01*
X193849499Y-83279054D01*
X193849498Y-83279054D01*
X193890423Y-83431785D01*
X193919358Y-83481900D01*
X193919359Y-83481904D01*
X193919360Y-83481904D01*
X193969479Y-83568714D01*
X193969481Y-83568717D01*
X194088349Y-83687585D01*
X194088355Y-83687590D01*
X194293482Y-83892717D01*
X194326967Y-83954040D01*
X194326007Y-84010838D01*
X194264892Y-84252174D01*
X194264890Y-84252187D01*
X194244357Y-84499994D01*
X194244357Y-84500005D01*
X194264890Y-84747812D01*
X194264892Y-84747824D01*
X194325936Y-84988881D01*
X194425826Y-85216606D01*
X194561833Y-85424782D01*
X194561836Y-85424785D01*
X194730256Y-85607738D01*
X194926491Y-85760474D01*
X195145190Y-85878828D01*
X195380386Y-85959571D01*
X195625665Y-86000500D01*
X195874335Y-86000500D01*
X196119614Y-85959571D01*
X196354810Y-85878828D01*
X196573509Y-85760474D01*
X196769744Y-85607738D01*
X196938164Y-85424785D01*
X197074173Y-85216607D01*
X197174063Y-84988881D01*
X197235108Y-84747821D01*
X197247435Y-84599057D01*
X197255643Y-84500005D01*
X197255643Y-84499994D01*
X197235109Y-84252187D01*
X197235107Y-84252175D01*
X197174063Y-84011118D01*
X197074173Y-83783393D01*
X196938166Y-83575217D01*
X196859239Y-83489480D01*
X196769744Y-83392262D01*
X196573509Y-83239526D01*
X196573507Y-83239525D01*
X196573506Y-83239524D01*
X196354811Y-83121172D01*
X196354802Y-83121169D01*
X196119616Y-83040429D01*
X195874335Y-82999500D01*
X195625665Y-82999500D01*
X195380383Y-83040429D01*
X195274395Y-83076815D01*
X195204596Y-83079965D01*
X195146450Y-83047215D01*
X195086818Y-82987582D01*
X195053334Y-82926258D01*
X195050500Y-82899901D01*
X195050500Y-81019993D01*
X195070185Y-80952954D01*
X195122989Y-80907199D01*
X195192147Y-80897255D01*
X195214758Y-80902710D01*
X195380386Y-80959571D01*
X195625665Y-81000500D01*
X195874335Y-81000500D01*
X196119614Y-80959571D01*
X196354810Y-80878828D01*
X196573509Y-80760474D01*
X196769744Y-80607738D01*
X196938164Y-80424785D01*
X197074173Y-80216607D01*
X197174063Y-79988881D01*
X197235108Y-79747821D01*
X197255643Y-79500000D01*
X197235956Y-79262416D01*
X197235109Y-79252187D01*
X197235107Y-79252175D01*
X197174063Y-79011118D01*
X197074173Y-78783393D01*
X196938166Y-78575217D01*
X196916557Y-78551744D01*
X196769744Y-78392262D01*
X196573509Y-78239526D01*
X196573507Y-78239525D01*
X196573506Y-78239524D01*
X196354811Y-78121172D01*
X196354802Y-78121169D01*
X196119616Y-78040429D01*
X195874335Y-77999500D01*
X195625665Y-77999500D01*
X195380386Y-78040428D01*
X195274392Y-78076815D01*
X195204593Y-78079964D01*
X195146450Y-78047214D01*
X193386819Y-76287583D01*
X193353334Y-76226260D01*
X193350500Y-76199902D01*
X193350500Y-74481692D01*
X193370185Y-74414653D01*
X193403374Y-74380119D01*
X193589139Y-74250047D01*
X193750047Y-74089139D01*
X193880568Y-73902734D01*
X193976739Y-73696496D01*
X194035635Y-73476692D01*
X194055468Y-73250000D01*
X194035635Y-73023308D01*
X193976739Y-72803504D01*
X193880568Y-72597266D01*
X193750047Y-72410861D01*
X193750045Y-72410858D01*
X193589141Y-72249954D01*
X193402734Y-72119432D01*
X193402732Y-72119431D01*
X193196497Y-72023261D01*
X193196488Y-72023258D01*
X192976697Y-71964366D01*
X192976693Y-71964365D01*
X192976692Y-71964365D01*
X192976691Y-71964364D01*
X192976686Y-71964364D01*
X192750002Y-71944532D01*
X192749998Y-71944532D01*
X192523313Y-71964364D01*
X192523302Y-71964366D01*
X192303511Y-72023258D01*
X192303502Y-72023261D01*
X192097267Y-72119431D01*
X192097265Y-72119432D01*
X191910858Y-72249954D01*
X191749954Y-72410858D01*
X191619432Y-72597265D01*
X191619431Y-72597267D01*
X191523261Y-72803502D01*
X191523258Y-72803511D01*
X191464366Y-73023302D01*
X191464364Y-73023313D01*
X191444532Y-73249998D01*
X191444532Y-73250001D01*
X191464364Y-73476686D01*
X191464366Y-73476697D01*
X191523258Y-73696488D01*
X191523261Y-73696497D01*
X191619431Y-73902732D01*
X191619432Y-73902734D01*
X191749954Y-74089141D01*
X191910858Y-74250045D01*
X191910861Y-74250047D01*
X192096624Y-74380118D01*
X192140248Y-74434693D01*
X192149500Y-74481692D01*
X192149500Y-75600903D01*
X192129815Y-75667942D01*
X192077011Y-75713697D01*
X192007853Y-75723641D01*
X191944297Y-75694616D01*
X191937819Y-75688584D01*
X186249231Y-69999996D01*
X197944435Y-69999996D01*
X197944435Y-70000003D01*
X197964630Y-70179249D01*
X197964631Y-70179254D01*
X198024211Y-70349523D01*
X198062580Y-70410586D01*
X198120184Y-70502262D01*
X198247738Y-70629816D01*
X198400478Y-70725789D01*
X198570745Y-70785368D01*
X198570750Y-70785369D01*
X198749996Y-70805565D01*
X198750000Y-70805565D01*
X198750004Y-70805565D01*
X198929249Y-70785369D01*
X198929252Y-70785368D01*
X198929255Y-70785368D01*
X199099522Y-70725789D01*
X199252262Y-70629816D01*
X199379816Y-70502262D01*
X199475789Y-70349522D01*
X199535368Y-70179255D01*
X199535369Y-70179249D01*
X199555565Y-70000003D01*
X199555565Y-69999996D01*
X199535369Y-69820750D01*
X199535368Y-69820745D01*
X199475788Y-69650476D01*
X199415389Y-69554352D01*
X199379816Y-69497738D01*
X199379814Y-69497736D01*
X199379813Y-69497734D01*
X199377550Y-69494896D01*
X199376659Y-69492715D01*
X199376111Y-69491842D01*
X199376264Y-69491745D01*
X199351144Y-69430209D01*
X199350500Y-69417587D01*
X199350500Y-61550097D01*
X199370185Y-61483058D01*
X199386819Y-61462416D01*
X199881141Y-60968094D01*
X200518536Y-60330698D01*
X200579857Y-60297215D01*
X200592310Y-60295163D01*
X200679255Y-60285368D01*
X200849522Y-60225789D01*
X201002262Y-60129816D01*
X201129816Y-60002262D01*
X201225789Y-59849522D01*
X201285368Y-59679255D01*
X201305565Y-59500000D01*
X201302419Y-59472081D01*
X201285369Y-59320750D01*
X201285368Y-59320745D01*
X201225788Y-59150476D01*
X201129815Y-58997737D01*
X201002262Y-58870184D01*
X200849523Y-58774211D01*
X200679254Y-58714631D01*
X200679249Y-58714630D01*
X200500004Y-58694435D01*
X200499996Y-58694435D01*
X200320750Y-58714630D01*
X200320745Y-58714631D01*
X200150476Y-58774211D01*
X199997737Y-58870184D01*
X199870184Y-58997737D01*
X199774210Y-59150478D01*
X199714630Y-59320750D01*
X199704837Y-59407667D01*
X199677770Y-59472081D01*
X199669298Y-59481464D01*
X198381286Y-60769478D01*
X198269481Y-60881282D01*
X198269479Y-60881285D01*
X198219361Y-60968094D01*
X198219359Y-60968096D01*
X198190425Y-61018209D01*
X198190424Y-61018210D01*
X198190423Y-61018215D01*
X198149499Y-61170943D01*
X198149499Y-61170945D01*
X198149499Y-61339046D01*
X198149500Y-61339059D01*
X198149500Y-69417587D01*
X198129815Y-69484626D01*
X198122450Y-69494896D01*
X198120186Y-69497734D01*
X198024211Y-69650476D01*
X197964631Y-69820745D01*
X197964630Y-69820750D01*
X197944435Y-69999996D01*
X186249231Y-69999996D01*
X185575974Y-69326739D01*
X185542489Y-69265416D01*
X185547473Y-69195724D01*
X185589345Y-69139791D01*
X185611240Y-69126681D01*
X185664280Y-69101949D01*
X185850685Y-68971428D01*
X186011593Y-68810520D01*
X186142114Y-68624115D01*
X186238285Y-68417877D01*
X186297181Y-68198073D01*
X186317014Y-67971381D01*
X186316705Y-67967853D01*
X186299872Y-67775448D01*
X186297181Y-67744689D01*
X186238285Y-67524885D01*
X186142114Y-67318647D01*
X186011593Y-67132242D01*
X186011591Y-67132239D01*
X185850687Y-66971335D01*
X185664280Y-66840813D01*
X185664278Y-66840812D01*
X185458043Y-66744642D01*
X185458036Y-66744640D01*
X185399361Y-66728918D01*
X185339701Y-66692552D01*
X185309172Y-66629705D01*
X185317467Y-66560330D01*
X185361953Y-66506452D01*
X185399362Y-66489368D01*
X185416551Y-66484762D01*
X185446486Y-66476742D01*
X185446489Y-66476740D01*
X185446496Y-66476739D01*
X185652734Y-66380568D01*
X185839139Y-66250047D01*
X186000047Y-66089139D01*
X186130568Y-65902734D01*
X186226739Y-65696496D01*
X186285635Y-65476692D01*
X186305468Y-65250000D01*
X186285635Y-65023308D01*
X186226739Y-64803504D01*
X186130568Y-64597266D01*
X186000047Y-64410861D01*
X186000045Y-64410858D01*
X185991322Y-64402135D01*
X191319500Y-64402135D01*
X191319500Y-66097870D01*
X191319501Y-66097876D01*
X191325908Y-66157483D01*
X191376202Y-66292328D01*
X191376206Y-66292335D01*
X191462452Y-66407544D01*
X191462455Y-66407547D01*
X191577664Y-66493793D01*
X191577666Y-66493794D01*
X191577669Y-66493796D01*
X191577672Y-66493797D01*
X191585347Y-66496660D01*
X191641282Y-66538529D01*
X191665702Y-66603992D01*
X191650853Y-66672266D01*
X191601449Y-66721673D01*
X191592838Y-66725606D01*
X191589210Y-66727587D01*
X191474001Y-66813833D01*
X191473998Y-66813836D01*
X191387752Y-66929045D01*
X191387748Y-66929052D01*
X191337454Y-67063898D01*
X191332105Y-67113656D01*
X191331047Y-67123504D01*
X191331046Y-67123516D01*
X191331046Y-68819251D01*
X191331047Y-68819257D01*
X191337454Y-68878864D01*
X191387748Y-69013709D01*
X191387752Y-69013716D01*
X191473998Y-69128925D01*
X191474001Y-69128928D01*
X191589210Y-69215174D01*
X191589217Y-69215178D01*
X191724063Y-69265472D01*
X191724062Y-69265472D01*
X191730990Y-69266216D01*
X191783673Y-69271881D01*
X193479418Y-69271880D01*
X193539029Y-69265472D01*
X193673877Y-69215177D01*
X193789092Y-69128927D01*
X193875342Y-69013712D01*
X193925637Y-68878864D01*
X193932046Y-68819254D01*
X193932045Y-67123509D01*
X193925637Y-67063898D01*
X193891113Y-66971335D01*
X193875343Y-66929052D01*
X193875339Y-66929045D01*
X193789093Y-66813836D01*
X193789090Y-66813833D01*
X193673881Y-66727587D01*
X193673874Y-66727583D01*
X193666194Y-66724719D01*
X193610260Y-66682848D01*
X193585843Y-66617384D01*
X193600695Y-66549111D01*
X193650100Y-66499705D01*
X193658705Y-66495775D01*
X193662326Y-66493797D01*
X193662331Y-66493796D01*
X193777546Y-66407546D01*
X193863796Y-66292331D01*
X193914091Y-66157483D01*
X193920500Y-66097873D01*
X193920499Y-64402128D01*
X193914091Y-64342517D01*
X193879567Y-64249954D01*
X193863797Y-64207671D01*
X193863793Y-64207664D01*
X193777547Y-64092455D01*
X193777544Y-64092452D01*
X193662335Y-64006206D01*
X193662328Y-64006202D01*
X193527482Y-63955908D01*
X193527483Y-63955908D01*
X193467883Y-63949501D01*
X193467881Y-63949500D01*
X193467873Y-63949500D01*
X193467864Y-63949500D01*
X191772129Y-63949500D01*
X191772123Y-63949501D01*
X191712516Y-63955908D01*
X191577671Y-64006202D01*
X191577664Y-64006206D01*
X191462455Y-64092452D01*
X191462452Y-64092455D01*
X191376206Y-64207664D01*
X191376202Y-64207671D01*
X191325908Y-64342517D01*
X191319501Y-64402116D01*
X191319501Y-64402123D01*
X191319500Y-64402135D01*
X185991322Y-64402135D01*
X185839141Y-64249954D01*
X185652734Y-64119432D01*
X185652732Y-64119431D01*
X185446497Y-64023261D01*
X185446488Y-64023258D01*
X185226697Y-63964366D01*
X185226693Y-63964365D01*
X185226692Y-63964365D01*
X185226691Y-63964364D01*
X185226686Y-63964364D01*
X185000002Y-63944532D01*
X184999998Y-63944532D01*
X184773313Y-63964364D01*
X184773302Y-63964366D01*
X184553511Y-64023258D01*
X184553502Y-64023261D01*
X184347267Y-64119431D01*
X184347265Y-64119432D01*
X184160858Y-64249954D01*
X183999954Y-64410858D01*
X183869432Y-64597265D01*
X183869431Y-64597267D01*
X183773261Y-64803502D01*
X183773258Y-64803511D01*
X183714366Y-65023302D01*
X183714364Y-65023313D01*
X183694532Y-65249998D01*
X183694532Y-65250001D01*
X183714364Y-65476686D01*
X183714366Y-65476697D01*
X183773258Y-65696488D01*
X183773261Y-65696497D01*
X183869431Y-65902732D01*
X183869432Y-65902734D01*
X183999954Y-66089141D01*
X184160858Y-66250045D01*
X184160861Y-66250047D01*
X184347266Y-66380568D01*
X184553504Y-66476739D01*
X184553509Y-66476740D01*
X184553511Y-66476741D01*
X184612183Y-66492462D01*
X184671844Y-66528827D01*
X184702373Y-66591673D01*
X184694079Y-66661049D01*
X184649593Y-66714927D01*
X184612184Y-66732012D01*
X184565055Y-66744640D01*
X184565048Y-66744642D01*
X184358813Y-66840812D01*
X184358811Y-66840813D01*
X184172404Y-66971335D01*
X184011500Y-67132239D01*
X183880978Y-67318646D01*
X183880977Y-67318648D01*
X183784807Y-67524883D01*
X183784804Y-67524892D01*
X183725912Y-67744683D01*
X183725910Y-67744694D01*
X183706078Y-67971376D01*
X183706078Y-67971381D01*
X183706367Y-67974689D01*
X183706078Y-67976130D01*
X183706078Y-67976795D01*
X183705944Y-67976795D01*
X183692604Y-68043188D01*
X183643991Y-68093373D01*
X183582840Y-68109500D01*
X165399097Y-68109500D01*
X165332058Y-68089815D01*
X165286303Y-68037011D01*
X165276359Y-67967853D01*
X165305384Y-67904297D01*
X165311416Y-67897819D01*
X167039235Y-66170000D01*
X168394551Y-66170000D01*
X168414317Y-66421151D01*
X168473126Y-66666110D01*
X168569533Y-66898859D01*
X168701160Y-67113653D01*
X168701161Y-67113656D01*
X168717033Y-67132239D01*
X168864776Y-67305224D01*
X168988811Y-67411160D01*
X169056343Y-67468838D01*
X169056346Y-67468839D01*
X169271140Y-67600466D01*
X169503889Y-67696873D01*
X169748852Y-67755683D01*
X170000000Y-67775449D01*
X170251148Y-67755683D01*
X170496111Y-67696873D01*
X170728859Y-67600466D01*
X170943659Y-67468836D01*
X171135224Y-67305224D01*
X171298836Y-67113659D01*
X171430466Y-66898859D01*
X171526873Y-66666111D01*
X171585683Y-66421148D01*
X171605449Y-66170000D01*
X171585683Y-65918852D01*
X171526873Y-65673889D01*
X171445192Y-65476692D01*
X171430466Y-65441140D01*
X171298839Y-65226346D01*
X171298838Y-65226343D01*
X171261875Y-65183066D01*
X171135224Y-65034776D01*
X171008571Y-64926604D01*
X170943656Y-64871161D01*
X170943653Y-64871160D01*
X170728859Y-64739533D01*
X170496110Y-64643126D01*
X170251151Y-64584317D01*
X170000000Y-64564551D01*
X169748848Y-64584317D01*
X169503889Y-64643126D01*
X169271140Y-64739533D01*
X169056346Y-64871160D01*
X169056343Y-64871161D01*
X168864776Y-65034776D01*
X168701161Y-65226343D01*
X168701160Y-65226346D01*
X168569533Y-65441140D01*
X168473126Y-65673889D01*
X168414317Y-65918848D01*
X168394551Y-66170000D01*
X167039235Y-66170000D01*
X167051753Y-66157482D01*
X168980520Y-64228716D01*
X169059577Y-64091784D01*
X169100501Y-63939057D01*
X169100501Y-63780942D01*
X169100501Y-63773347D01*
X169100500Y-63773329D01*
X169100500Y-61202135D01*
X186649500Y-61202135D01*
X186649500Y-63297870D01*
X186649501Y-63297876D01*
X186655908Y-63357483D01*
X186706202Y-63492328D01*
X186706206Y-63492335D01*
X186792452Y-63607544D01*
X186792455Y-63607547D01*
X186907664Y-63693793D01*
X186907671Y-63693797D01*
X187042517Y-63744091D01*
X187042516Y-63744091D01*
X187049444Y-63744835D01*
X187102127Y-63750500D01*
X190397872Y-63750499D01*
X190457483Y-63744091D01*
X190592331Y-63693796D01*
X190707546Y-63607546D01*
X190793796Y-63492331D01*
X190844091Y-63357483D01*
X190850500Y-63297873D01*
X190850499Y-61202128D01*
X190844091Y-61142517D01*
X190797729Y-61018215D01*
X190793797Y-61007671D01*
X190793793Y-61007664D01*
X190707547Y-60892455D01*
X190707544Y-60892452D01*
X190592335Y-60806206D01*
X190592328Y-60806202D01*
X190457482Y-60755908D01*
X190457483Y-60755908D01*
X190397883Y-60749501D01*
X190397881Y-60749500D01*
X190397873Y-60749500D01*
X190397864Y-60749500D01*
X187102129Y-60749500D01*
X187102123Y-60749501D01*
X187042516Y-60755908D01*
X186907671Y-60806202D01*
X186907664Y-60806206D01*
X186792455Y-60892452D01*
X186792452Y-60892455D01*
X186706206Y-61007664D01*
X186706202Y-61007671D01*
X186655908Y-61142517D01*
X186649501Y-61202116D01*
X186649501Y-61202123D01*
X186649500Y-61202135D01*
X169100500Y-61202135D01*
X169100500Y-56800097D01*
X169120185Y-56733058D01*
X169136819Y-56712416D01*
X169447060Y-56402175D01*
X169865893Y-55983341D01*
X169927214Y-55949858D01*
X169996905Y-55954842D01*
X170052839Y-55996714D01*
X170077256Y-56062178D01*
X170075467Y-56084667D01*
X170076738Y-56084804D01*
X170075909Y-56092516D01*
X170075909Y-56092517D01*
X170069501Y-56152123D01*
X170069500Y-56152135D01*
X170069500Y-57847870D01*
X170069501Y-57847876D01*
X170075908Y-57907483D01*
X170126202Y-58042328D01*
X170126206Y-58042335D01*
X170212452Y-58157544D01*
X170212455Y-58157547D01*
X170327664Y-58243793D01*
X170327671Y-58243797D01*
X170462517Y-58294091D01*
X170462516Y-58294091D01*
X170469444Y-58294835D01*
X170522127Y-58300500D01*
X172217872Y-58300499D01*
X172277483Y-58294091D01*
X172412331Y-58243796D01*
X172527546Y-58157546D01*
X172613796Y-58042331D01*
X172664091Y-57907483D01*
X172670500Y-57847873D01*
X172670499Y-56649994D01*
X179744357Y-56649994D01*
X179744357Y-56650005D01*
X179764890Y-56897812D01*
X179764892Y-56897824D01*
X179825936Y-57138881D01*
X179925826Y-57366606D01*
X180061833Y-57574782D01*
X180061836Y-57574785D01*
X180230256Y-57757738D01*
X180287312Y-57802147D01*
X180328125Y-57858857D01*
X180331800Y-57928630D01*
X180297169Y-57989313D01*
X180287317Y-57997848D01*
X180230256Y-58042262D01*
X180230189Y-58042335D01*
X180061833Y-58225217D01*
X179925826Y-58433393D01*
X179825936Y-58661118D01*
X179764892Y-58902175D01*
X179764890Y-58902187D01*
X179744357Y-59149994D01*
X179744357Y-59150005D01*
X179764890Y-59397812D01*
X179764892Y-59397824D01*
X179825936Y-59638881D01*
X179925826Y-59866606D01*
X180061833Y-60074782D01*
X180061836Y-60074785D01*
X180230256Y-60257738D01*
X180426491Y-60410474D01*
X180645190Y-60528828D01*
X180880386Y-60609571D01*
X181125665Y-60650500D01*
X181374335Y-60650500D01*
X181619614Y-60609571D01*
X181854810Y-60528828D01*
X182073509Y-60410474D01*
X182269744Y-60257738D01*
X182438164Y-60074785D01*
X182574173Y-59866607D01*
X182674063Y-59638881D01*
X182735108Y-59397821D01*
X182735109Y-59397812D01*
X182755643Y-59150005D01*
X182755643Y-59149994D01*
X182735109Y-58902187D01*
X182735107Y-58902175D01*
X182674063Y-58661118D01*
X182574173Y-58433393D01*
X182438166Y-58225217D01*
X182351034Y-58130567D01*
X182269744Y-58042262D01*
X182212685Y-57997851D01*
X182171874Y-57941143D01*
X182168199Y-57871370D01*
X182202830Y-57810687D01*
X182212675Y-57802156D01*
X182269744Y-57757738D01*
X182438164Y-57574785D01*
X182574173Y-57366607D01*
X182674063Y-57138881D01*
X182735108Y-56897821D01*
X182745425Y-56773313D01*
X182755643Y-56650005D01*
X182755643Y-56649994D01*
X182735109Y-56402187D01*
X182735107Y-56402175D01*
X182674063Y-56161118D01*
X182574173Y-55933393D01*
X182461916Y-55761570D01*
X182441729Y-55694681D01*
X182460909Y-55627495D01*
X182491414Y-55594482D01*
X182492329Y-55593796D01*
X182492331Y-55593796D01*
X182607546Y-55507546D01*
X182693796Y-55392331D01*
X182744091Y-55257483D01*
X182750500Y-55197873D01*
X182750499Y-53102128D01*
X182744091Y-53042517D01*
X182718894Y-52974961D01*
X182693797Y-52907671D01*
X182693793Y-52907664D01*
X182607547Y-52792455D01*
X182607544Y-52792452D01*
X182492335Y-52706206D01*
X182492328Y-52706202D01*
X182357482Y-52655908D01*
X182357483Y-52655908D01*
X182297883Y-52649501D01*
X182297881Y-52649500D01*
X182297873Y-52649500D01*
X182297864Y-52649500D01*
X180202129Y-52649500D01*
X180202123Y-52649501D01*
X180142516Y-52655908D01*
X180007671Y-52706202D01*
X180007664Y-52706206D01*
X179892455Y-52792452D01*
X179892452Y-52792455D01*
X179806206Y-52907664D01*
X179806202Y-52907671D01*
X179755908Y-53042517D01*
X179749501Y-53102116D01*
X179749501Y-53102123D01*
X179749500Y-53102135D01*
X179749500Y-55197870D01*
X179749501Y-55197876D01*
X179755908Y-55257483D01*
X179806202Y-55392328D01*
X179806206Y-55392335D01*
X179892452Y-55507544D01*
X179892453Y-55507544D01*
X179892454Y-55507546D01*
X179917156Y-55526038D01*
X180008586Y-55594483D01*
X180050456Y-55650417D01*
X180055440Y-55720108D01*
X180038083Y-55761570D01*
X179925826Y-55933393D01*
X179825936Y-56161118D01*
X179764892Y-56402175D01*
X179764890Y-56402187D01*
X179744357Y-56649994D01*
X172670499Y-56649994D01*
X172670499Y-56152128D01*
X172664091Y-56092517D01*
X172661214Y-56084804D01*
X172613797Y-55957671D01*
X172613793Y-55957664D01*
X172527547Y-55842455D01*
X172527544Y-55842452D01*
X172412335Y-55756206D01*
X172412328Y-55756202D01*
X172277482Y-55705908D01*
X172277483Y-55705908D01*
X172217883Y-55699501D01*
X172217881Y-55699500D01*
X172217873Y-55699500D01*
X172217864Y-55699500D01*
X170522129Y-55699500D01*
X170522123Y-55699501D01*
X170454804Y-55706738D01*
X170454450Y-55703450D01*
X170399710Y-55700487D01*
X170343059Y-55659590D01*
X170317513Y-55594558D01*
X170331180Y-55526038D01*
X170353342Y-55495893D01*
X171230520Y-54618716D01*
X171309577Y-54481784D01*
X171350501Y-54329057D01*
X171350501Y-54170942D01*
X171350501Y-54163347D01*
X171350500Y-54163329D01*
X171350500Y-52856031D01*
X171370185Y-52788992D01*
X171422989Y-52743237D01*
X171492147Y-52733293D01*
X171555703Y-52762318D01*
X171584984Y-52799736D01*
X171598768Y-52826788D01*
X171700586Y-52966928D01*
X171823072Y-53089414D01*
X171963212Y-53191232D01*
X172117555Y-53269873D01*
X172282299Y-53323402D01*
X172453389Y-53350500D01*
X172453390Y-53350500D01*
X172626610Y-53350500D01*
X172626611Y-53350500D01*
X172797701Y-53323402D01*
X172962445Y-53269873D01*
X173116788Y-53191232D01*
X173256928Y-53089414D01*
X173379414Y-52966928D01*
X173481232Y-52826788D01*
X173559873Y-52672445D01*
X173613402Y-52507701D01*
X173640500Y-52336611D01*
X173640500Y-52163389D01*
X173613402Y-51992299D01*
X173559873Y-51827555D01*
X173481232Y-51673212D01*
X173379414Y-51533072D01*
X173256928Y-51410586D01*
X173116788Y-51308768D01*
X172962445Y-51230127D01*
X172797701Y-51176598D01*
X172797699Y-51176597D01*
X172797698Y-51176597D01*
X172666271Y-51155781D01*
X172626611Y-51149500D01*
X172453389Y-51149500D01*
X172413728Y-51155781D01*
X172282302Y-51176597D01*
X172117552Y-51230128D01*
X171963211Y-51308768D01*
X171883256Y-51366859D01*
X171823072Y-51410586D01*
X171823070Y-51410588D01*
X171823069Y-51410588D01*
X171700588Y-51533069D01*
X171700588Y-51533070D01*
X171700586Y-51533072D01*
X171699347Y-51534778D01*
X171598768Y-51673211D01*
X171584985Y-51700263D01*
X171537011Y-51751059D01*
X171469190Y-51767854D01*
X171403055Y-51745317D01*
X171359603Y-51690602D01*
X171350500Y-51643968D01*
X171350500Y-50550096D01*
X171370185Y-50483057D01*
X171386814Y-50462420D01*
X172608506Y-49240727D01*
X172608511Y-49240724D01*
X172618714Y-49230520D01*
X172618716Y-49230520D01*
X172730520Y-49118716D01*
X172809577Y-48981784D01*
X172850500Y-48829057D01*
X172850500Y-44503476D01*
X172870185Y-44436437D01*
X172922989Y-44390682D01*
X172992147Y-44380738D01*
X173055703Y-44409763D01*
X173079493Y-44437503D01*
X173120184Y-44502262D01*
X173247738Y-44629816D01*
X173400478Y-44725789D01*
X173570745Y-44785368D01*
X173570750Y-44785369D01*
X173749996Y-44805565D01*
X173750000Y-44805565D01*
X173750004Y-44805565D01*
X173929249Y-44785369D01*
X173929252Y-44785368D01*
X173929255Y-44785368D01*
X174099522Y-44725789D01*
X174252262Y-44629816D01*
X174252267Y-44629810D01*
X174255097Y-44627555D01*
X174257275Y-44626665D01*
X174258158Y-44626111D01*
X174258255Y-44626265D01*
X174319783Y-44601145D01*
X174332412Y-44600500D01*
X175199903Y-44600500D01*
X175266942Y-44620185D01*
X175287584Y-44636819D01*
X183865139Y-53214374D01*
X183865149Y-53214385D01*
X183869479Y-53218715D01*
X183869480Y-53218716D01*
X183981284Y-53330520D01*
X184068095Y-53380639D01*
X184068097Y-53380641D01*
X184106151Y-53402611D01*
X184118215Y-53409577D01*
X184270943Y-53450501D01*
X184270946Y-53450501D01*
X184436653Y-53450501D01*
X184436669Y-53450500D01*
X189149903Y-53450500D01*
X189216942Y-53470185D01*
X189237584Y-53486819D01*
X194293482Y-58542717D01*
X194326967Y-58604040D01*
X194326007Y-58660838D01*
X194264892Y-58902174D01*
X194264890Y-58902187D01*
X194244357Y-59149994D01*
X194244357Y-59150005D01*
X194264890Y-59397812D01*
X194264892Y-59397824D01*
X194325936Y-59638881D01*
X194425826Y-59866606D01*
X194561833Y-60074782D01*
X194561836Y-60074785D01*
X194730256Y-60257738D01*
X194926491Y-60410474D01*
X195145190Y-60528828D01*
X195380386Y-60609571D01*
X195625665Y-60650500D01*
X195874335Y-60650500D01*
X196119614Y-60609571D01*
X196354810Y-60528828D01*
X196573509Y-60410474D01*
X196769744Y-60257738D01*
X196938164Y-60074785D01*
X197074173Y-59866607D01*
X197174063Y-59638881D01*
X197235108Y-59397821D01*
X197235109Y-59397812D01*
X197255643Y-59150005D01*
X197255643Y-59149994D01*
X197235109Y-58902187D01*
X197235107Y-58902175D01*
X197174063Y-58661118D01*
X197074173Y-58433393D01*
X196938166Y-58225217D01*
X196851034Y-58130567D01*
X196769744Y-58042262D01*
X196573509Y-57889526D01*
X196573507Y-57889525D01*
X196573506Y-57889524D01*
X196354811Y-57771172D01*
X196354802Y-57771169D01*
X196119616Y-57690429D01*
X195874335Y-57649500D01*
X195625665Y-57649500D01*
X195380382Y-57690429D01*
X195380380Y-57690429D01*
X195274393Y-57726815D01*
X195204595Y-57729965D01*
X195146450Y-57697215D01*
X191599229Y-54149994D01*
X194244357Y-54149994D01*
X194244357Y-54150005D01*
X194264890Y-54397812D01*
X194264892Y-54397824D01*
X194325936Y-54638881D01*
X194425826Y-54866606D01*
X194561833Y-55074782D01*
X194561836Y-55074785D01*
X194730256Y-55257738D01*
X194926491Y-55410474D01*
X194926493Y-55410475D01*
X195140034Y-55526038D01*
X195145190Y-55528828D01*
X195380386Y-55609571D01*
X195625665Y-55650500D01*
X195874335Y-55650500D01*
X196119614Y-55609571D01*
X196354810Y-55528828D01*
X196573509Y-55410474D01*
X196769744Y-55257738D01*
X196938164Y-55074785D01*
X197074173Y-54866607D01*
X197125323Y-54749998D01*
X198194532Y-54749998D01*
X198194532Y-54750001D01*
X198214364Y-54976686D01*
X198214366Y-54976697D01*
X198273258Y-55196488D01*
X198273261Y-55196497D01*
X198369431Y-55402732D01*
X198369432Y-55402734D01*
X198499954Y-55589141D01*
X198660858Y-55750045D01*
X198660861Y-55750047D01*
X198847266Y-55880568D01*
X199053504Y-55976739D01*
X199053509Y-55976740D01*
X199053511Y-55976741D01*
X199106415Y-55990916D01*
X199273308Y-56035635D01*
X199435230Y-56049801D01*
X199499998Y-56055468D01*
X199500000Y-56055468D01*
X199500002Y-56055468D01*
X199556673Y-56050509D01*
X199726692Y-56035635D01*
X199946496Y-55976739D01*
X200152734Y-55880568D01*
X200339139Y-55750047D01*
X200500047Y-55589139D01*
X200630568Y-55402734D01*
X200726739Y-55196496D01*
X200785635Y-54976692D01*
X200805468Y-54750000D01*
X200785635Y-54523308D01*
X200726739Y-54303504D01*
X200630568Y-54097266D01*
X200524404Y-53945647D01*
X200500045Y-53910858D01*
X200339141Y-53749954D01*
X200152734Y-53619432D01*
X200152732Y-53619431D01*
X199946497Y-53523261D01*
X199946488Y-53523258D01*
X199726697Y-53464366D01*
X199726693Y-53464365D01*
X199726692Y-53464365D01*
X199726691Y-53464364D01*
X199726686Y-53464364D01*
X199500002Y-53444532D01*
X199499998Y-53444532D01*
X199273313Y-53464364D01*
X199273302Y-53464366D01*
X199053511Y-53523258D01*
X199053502Y-53523261D01*
X198847267Y-53619431D01*
X198847265Y-53619432D01*
X198660858Y-53749954D01*
X198499954Y-53910858D01*
X198369432Y-54097265D01*
X198369431Y-54097267D01*
X198273261Y-54303502D01*
X198273258Y-54303511D01*
X198214366Y-54523302D01*
X198214364Y-54523313D01*
X198194532Y-54749998D01*
X197125323Y-54749998D01*
X197174063Y-54638881D01*
X197235108Y-54397821D01*
X197235109Y-54397812D01*
X197255643Y-54150005D01*
X197255643Y-54149994D01*
X197235109Y-53902187D01*
X197235107Y-53902175D01*
X197174063Y-53661118D01*
X197074173Y-53433393D01*
X196938166Y-53225217D01*
X196906880Y-53191232D01*
X196769744Y-53042262D01*
X196573509Y-52889526D01*
X196573507Y-52889525D01*
X196573506Y-52889524D01*
X196354811Y-52771172D01*
X196354802Y-52771169D01*
X196119616Y-52690429D01*
X195874335Y-52649500D01*
X195625665Y-52649500D01*
X195380383Y-52690429D01*
X195145197Y-52771169D01*
X195145188Y-52771172D01*
X194926493Y-52889524D01*
X194730257Y-53042261D01*
X194561833Y-53225217D01*
X194425826Y-53433393D01*
X194325936Y-53661118D01*
X194264892Y-53902175D01*
X194264890Y-53902187D01*
X194244357Y-54149994D01*
X191599229Y-54149994D01*
X190211415Y-52762180D01*
X190177930Y-52700857D01*
X190182914Y-52631165D01*
X190224786Y-52575232D01*
X190290250Y-52550815D01*
X190299096Y-52550499D01*
X190397871Y-52550499D01*
X190397872Y-52550499D01*
X190457483Y-52544091D01*
X190592331Y-52493796D01*
X190707546Y-52407546D01*
X190793796Y-52292331D01*
X190844091Y-52157483D01*
X190850500Y-52097873D01*
X190850499Y-50002128D01*
X190844091Y-49942517D01*
X190793796Y-49807669D01*
X190793795Y-49807668D01*
X190793793Y-49807664D01*
X190707547Y-49692455D01*
X190707544Y-49692452D01*
X190592335Y-49606206D01*
X190592328Y-49606202D01*
X190457482Y-49555908D01*
X190457483Y-49555908D01*
X190397883Y-49549501D01*
X190397881Y-49549500D01*
X190397873Y-49549500D01*
X190397864Y-49549500D01*
X187102129Y-49549500D01*
X187102123Y-49549501D01*
X187042516Y-49555908D01*
X186907671Y-49606202D01*
X186907664Y-49606206D01*
X186792455Y-49692452D01*
X186792452Y-49692455D01*
X186706206Y-49807664D01*
X186706202Y-49807671D01*
X186655908Y-49942517D01*
X186649782Y-49999500D01*
X186649501Y-50002123D01*
X186649500Y-50002135D01*
X186649500Y-52097870D01*
X186649501Y-52097878D01*
X186651046Y-52112248D01*
X186638639Y-52181007D01*
X186591027Y-52232143D01*
X186527756Y-52249500D01*
X184650097Y-52249500D01*
X184583058Y-52229815D01*
X184562416Y-52213181D01*
X175987590Y-43638355D01*
X175987588Y-43638352D01*
X175868717Y-43519481D01*
X175868709Y-43519475D01*
X175766936Y-43460717D01*
X175766934Y-43460716D01*
X175731790Y-43440425D01*
X175731789Y-43440424D01*
X175719263Y-43437067D01*
X175579057Y-43399499D01*
X175420943Y-43399499D01*
X175413347Y-43399499D01*
X175413331Y-43399500D01*
X174332412Y-43399500D01*
X174265373Y-43379815D01*
X174255097Y-43372445D01*
X174252263Y-43370185D01*
X174252262Y-43370184D01*
X174195496Y-43334515D01*
X174099523Y-43274211D01*
X173929254Y-43214631D01*
X173929249Y-43214630D01*
X173750004Y-43194435D01*
X173749996Y-43194435D01*
X173570750Y-43214630D01*
X173570745Y-43214631D01*
X173400476Y-43274211D01*
X173247737Y-43370184D01*
X173120182Y-43497739D01*
X173079493Y-43562496D01*
X173027158Y-43608787D01*
X172958105Y-43619434D01*
X172894257Y-43591059D01*
X172855885Y-43532669D01*
X172850500Y-43496523D01*
X172850500Y-40600096D01*
X172870185Y-40533057D01*
X172886814Y-40512420D01*
X181032375Y-32366858D01*
X181093696Y-32333375D01*
X181163388Y-32338359D01*
X181219321Y-32380231D01*
X181243738Y-32445695D01*
X181243582Y-32465348D01*
X181232677Y-32589997D01*
X181232677Y-32590002D01*
X181251929Y-32810062D01*
X181251930Y-32810070D01*
X181309104Y-33023445D01*
X181309105Y-33023447D01*
X181309106Y-33023450D01*
X181402466Y-33223662D01*
X181402468Y-33223666D01*
X181529170Y-33404615D01*
X181529175Y-33404621D01*
X181685378Y-33560824D01*
X181685384Y-33560829D01*
X181866333Y-33687531D01*
X181866335Y-33687532D01*
X181866338Y-33687534D01*
X181945818Y-33724596D01*
X181995189Y-33747618D01*
X182047628Y-33793790D01*
X182066780Y-33860984D01*
X182046564Y-33927865D01*
X181995189Y-33972382D01*
X181866340Y-34032465D01*
X181866338Y-34032466D01*
X181685377Y-34159175D01*
X181529175Y-34315377D01*
X181402466Y-34496338D01*
X181402465Y-34496340D01*
X181309107Y-34696548D01*
X181309104Y-34696554D01*
X181251930Y-34909929D01*
X181251929Y-34909937D01*
X181232677Y-35129997D01*
X181232677Y-35130002D01*
X181251929Y-35350062D01*
X181251932Y-35350076D01*
X181271178Y-35421906D01*
X181269515Y-35491755D01*
X181239084Y-35541679D01*
X179631286Y-37149478D01*
X179519481Y-37261282D01*
X179519479Y-37261285D01*
X179480353Y-37329055D01*
X179480352Y-37329057D01*
X179440423Y-37398214D01*
X179435025Y-37418360D01*
X179399499Y-37550943D01*
X179399499Y-37550945D01*
X179399499Y-37719046D01*
X179399500Y-37719059D01*
X179399500Y-45417587D01*
X179379815Y-45484626D01*
X179372450Y-45494896D01*
X179370186Y-45497734D01*
X179274211Y-45650476D01*
X179214631Y-45820745D01*
X179214630Y-45820750D01*
X179194435Y-45999996D01*
X179194435Y-46000003D01*
X179214630Y-46179249D01*
X179214631Y-46179254D01*
X179274211Y-46349523D01*
X179320814Y-46423690D01*
X179370184Y-46502262D01*
X179497738Y-46629816D01*
X179650478Y-46725789D01*
X179820745Y-46785368D01*
X179820750Y-46785369D01*
X179999996Y-46805565D01*
X180000000Y-46805565D01*
X180000004Y-46805565D01*
X180179249Y-46785369D01*
X180179252Y-46785368D01*
X180179255Y-46785368D01*
X180349522Y-46725789D01*
X180502262Y-46629816D01*
X180629816Y-46502262D01*
X180725789Y-46349522D01*
X180785368Y-46179255D01*
X180805565Y-46000000D01*
X180802461Y-45972455D01*
X180785369Y-45820750D01*
X180785368Y-45820745D01*
X180725788Y-45650476D01*
X180629813Y-45497734D01*
X180627550Y-45494896D01*
X180626659Y-45492715D01*
X180626111Y-45491842D01*
X180626264Y-45491745D01*
X180601144Y-45430209D01*
X180600500Y-45417587D01*
X180600500Y-37930096D01*
X180620185Y-37863057D01*
X180636815Y-37842419D01*
X181032373Y-37446860D01*
X181093696Y-37413376D01*
X181163388Y-37418360D01*
X181219321Y-37460232D01*
X181243738Y-37525696D01*
X181243582Y-37545349D01*
X181232677Y-37669997D01*
X181232677Y-37670002D01*
X181251929Y-37890062D01*
X181251930Y-37890070D01*
X181309104Y-38103445D01*
X181309105Y-38103447D01*
X181309106Y-38103450D01*
X181402466Y-38303662D01*
X181402468Y-38303666D01*
X181529170Y-38484615D01*
X181529175Y-38484621D01*
X181685378Y-38640824D01*
X181685384Y-38640829D01*
X181866333Y-38767531D01*
X181866335Y-38767532D01*
X181866338Y-38767534D01*
X181985748Y-38823215D01*
X181995189Y-38827618D01*
X182047628Y-38873790D01*
X182066780Y-38940984D01*
X182046564Y-39007865D01*
X181995189Y-39052382D01*
X181866340Y-39112465D01*
X181866338Y-39112466D01*
X181685377Y-39239175D01*
X181529175Y-39395377D01*
X181402466Y-39576338D01*
X181402465Y-39576340D01*
X181309107Y-39776548D01*
X181309104Y-39776554D01*
X181251930Y-39989929D01*
X181251929Y-39989937D01*
X181232677Y-40209997D01*
X181232677Y-40210002D01*
X181251929Y-40430062D01*
X181251930Y-40430070D01*
X181309104Y-40643445D01*
X181309105Y-40643447D01*
X181309106Y-40643450D01*
X181402466Y-40843662D01*
X181402468Y-40843666D01*
X181529170Y-41024615D01*
X181529175Y-41024621D01*
X181685378Y-41180824D01*
X181685384Y-41180829D01*
X181866333Y-41307531D01*
X181866335Y-41307532D01*
X181866338Y-41307534D01*
X181985748Y-41363215D01*
X181995189Y-41367618D01*
X182047628Y-41413790D01*
X182066780Y-41480984D01*
X182046564Y-41547865D01*
X181995189Y-41592382D01*
X181866340Y-41652465D01*
X181866338Y-41652466D01*
X181685377Y-41779175D01*
X181529175Y-41935377D01*
X181402466Y-42116338D01*
X181402465Y-42116340D01*
X181309107Y-42316548D01*
X181309104Y-42316554D01*
X181251930Y-42529929D01*
X181251929Y-42529937D01*
X181232677Y-42749997D01*
X181232677Y-42750002D01*
X181251929Y-42970062D01*
X181251930Y-42970070D01*
X181309104Y-43183445D01*
X181309105Y-43183447D01*
X181309106Y-43183450D01*
X181396181Y-43370184D01*
X181402466Y-43383662D01*
X181402468Y-43383666D01*
X181529170Y-43564615D01*
X181529175Y-43564621D01*
X181685378Y-43720824D01*
X181685384Y-43720829D01*
X181866333Y-43847531D01*
X181866335Y-43847532D01*
X181866338Y-43847534D01*
X182066550Y-43940894D01*
X182279932Y-43998070D01*
X182437123Y-44011822D01*
X182499998Y-44017323D01*
X182500000Y-44017323D01*
X182500002Y-44017323D01*
X182555017Y-44012509D01*
X182720068Y-43998070D01*
X182933450Y-43940894D01*
X183133662Y-43847534D01*
X183314620Y-43720826D01*
X183470826Y-43564620D01*
X183597534Y-43383662D01*
X183690894Y-43183450D01*
X183748070Y-42970068D01*
X183767323Y-42750000D01*
X183756417Y-42625347D01*
X183770183Y-42556850D01*
X183818798Y-42506667D01*
X183886827Y-42490733D01*
X183952671Y-42514108D01*
X183967625Y-42526860D01*
X188610764Y-47170000D01*
X192914219Y-51473455D01*
X192947704Y-51534778D01*
X192949758Y-51547252D01*
X192964630Y-51679247D01*
X192964631Y-51679252D01*
X193024210Y-51849521D01*
X193100247Y-51970532D01*
X193120184Y-52002262D01*
X193247738Y-52129816D01*
X193291768Y-52157482D01*
X193380412Y-52213181D01*
X193400478Y-52225789D01*
X193570745Y-52285368D01*
X193570750Y-52285369D01*
X193749996Y-52305565D01*
X193750000Y-52305565D01*
X193750004Y-52305565D01*
X193929249Y-52285369D01*
X193929252Y-52285368D01*
X193929255Y-52285368D01*
X194099522Y-52225789D01*
X194252262Y-52129816D01*
X194379816Y-52002262D01*
X194475789Y-51849522D01*
X194535368Y-51679255D01*
X194550241Y-51547252D01*
X194555565Y-51500003D01*
X194555565Y-51499996D01*
X194535369Y-51320750D01*
X194535368Y-51320745D01*
X194511488Y-51252499D01*
X194475789Y-51150478D01*
X194475174Y-51149500D01*
X194386791Y-51008839D01*
X194379816Y-50997738D01*
X194252262Y-50870184D01*
X194099521Y-50774210D01*
X193929249Y-50714630D01*
X193887409Y-50709916D01*
X193822995Y-50682849D01*
X193813613Y-50674377D01*
X189421371Y-46282135D01*
X198199500Y-46282135D01*
X198199500Y-47977870D01*
X198199501Y-47977876D01*
X198205908Y-48037483D01*
X198256202Y-48172328D01*
X198256206Y-48172335D01*
X198342452Y-48287544D01*
X198342455Y-48287547D01*
X198457664Y-48373793D01*
X198457671Y-48373797D01*
X198592517Y-48424091D01*
X198592516Y-48424091D01*
X198599444Y-48424835D01*
X198652127Y-48430500D01*
X200347872Y-48430499D01*
X200407483Y-48424091D01*
X200542331Y-48373796D01*
X200657546Y-48287546D01*
X200743796Y-48172331D01*
X200794091Y-48037483D01*
X200800500Y-47977873D01*
X200800499Y-46282128D01*
X200794091Y-46222517D01*
X200777955Y-46179255D01*
X200743797Y-46087671D01*
X200743793Y-46087664D01*
X200657547Y-45972455D01*
X200657544Y-45972452D01*
X200542335Y-45886206D01*
X200542328Y-45886202D01*
X200407482Y-45835908D01*
X200407483Y-45835908D01*
X200347883Y-45829501D01*
X200347881Y-45829500D01*
X200347873Y-45829500D01*
X200347864Y-45829500D01*
X198652129Y-45829500D01*
X198652123Y-45829501D01*
X198592516Y-45835908D01*
X198457671Y-45886202D01*
X198457664Y-45886206D01*
X198342455Y-45972452D01*
X198342452Y-45972455D01*
X198256206Y-46087664D01*
X198256202Y-46087671D01*
X198205908Y-46222517D01*
X198199501Y-46282116D01*
X198199501Y-46282123D01*
X198199500Y-46282135D01*
X189421371Y-46282135D01*
X188789712Y-45650476D01*
X183760913Y-40621678D01*
X183727429Y-40560356D01*
X183728821Y-40501902D01*
X183748069Y-40430072D01*
X183748069Y-40430070D01*
X183748070Y-40430068D01*
X183767323Y-40210000D01*
X183748070Y-39989932D01*
X183690894Y-39776550D01*
X183597534Y-39576339D01*
X183470826Y-39395380D01*
X183314620Y-39239174D01*
X183314616Y-39239171D01*
X183314615Y-39239170D01*
X183133666Y-39112468D01*
X183133658Y-39112464D01*
X183004811Y-39052382D01*
X182952371Y-39006210D01*
X182933219Y-38939017D01*
X182953435Y-38872135D01*
X183004811Y-38827618D01*
X183010802Y-38824824D01*
X183133662Y-38767534D01*
X183314620Y-38640826D01*
X183470826Y-38484620D01*
X183597534Y-38303662D01*
X183690894Y-38103450D01*
X183748070Y-37890068D01*
X183767323Y-37670000D01*
X183748070Y-37449932D01*
X183690894Y-37236550D01*
X183597534Y-37036339D01*
X183502402Y-36900476D01*
X183470827Y-36855381D01*
X183422453Y-36807007D01*
X183314620Y-36699174D01*
X183314616Y-36699171D01*
X183314615Y-36699170D01*
X183133666Y-36572468D01*
X183133658Y-36572464D01*
X183004811Y-36512382D01*
X182952371Y-36466210D01*
X182933219Y-36399017D01*
X182953435Y-36332135D01*
X183004811Y-36287618D01*
X183010802Y-36284824D01*
X183133662Y-36227534D01*
X183314620Y-36100826D01*
X183470826Y-35944620D01*
X183597534Y-35763662D01*
X183690894Y-35563450D01*
X183748070Y-35350068D01*
X183762659Y-35183307D01*
X183767323Y-35130002D01*
X183767323Y-35129997D01*
X183748070Y-34909937D01*
X183748070Y-34909932D01*
X183690894Y-34696550D01*
X183597534Y-34496339D01*
X183473016Y-34318507D01*
X183470827Y-34315381D01*
X183470823Y-34315377D01*
X183314620Y-34159174D01*
X183314616Y-34159171D01*
X183314615Y-34159170D01*
X183133666Y-34032468D01*
X183133658Y-34032464D01*
X183004811Y-33972382D01*
X182952371Y-33926210D01*
X182933219Y-33859017D01*
X182953435Y-33792135D01*
X183004811Y-33747618D01*
X183010802Y-33744824D01*
X183133662Y-33687534D01*
X183314620Y-33560826D01*
X183470826Y-33404620D01*
X183597534Y-33223662D01*
X183690894Y-33023450D01*
X183748070Y-32810068D01*
X183767323Y-32590000D01*
X183763782Y-32549530D01*
X183760103Y-32507474D01*
X183748070Y-32369932D01*
X183690894Y-32156550D01*
X183597534Y-31956339D01*
X183470826Y-31775380D01*
X183314620Y-31619174D01*
X183314616Y-31619171D01*
X183314615Y-31619170D01*
X183133666Y-31492468D01*
X183133658Y-31492464D01*
X183004811Y-31432382D01*
X182952371Y-31386210D01*
X182933219Y-31319017D01*
X182953435Y-31252135D01*
X183004811Y-31207618D01*
X183010802Y-31204824D01*
X183133662Y-31147534D01*
X183314620Y-31020826D01*
X183470826Y-30864620D01*
X183597534Y-30683662D01*
X183690894Y-30483450D01*
X183748070Y-30270068D01*
X183767323Y-30050000D01*
X183748070Y-29829932D01*
X183690894Y-29616550D01*
X183597534Y-29416339D01*
X183470826Y-29235380D01*
X183314620Y-29079174D01*
X183314616Y-29079171D01*
X183314615Y-29079170D01*
X183133666Y-28952468D01*
X183133658Y-28952464D01*
X183004811Y-28892382D01*
X182952371Y-28846210D01*
X182933219Y-28779017D01*
X182953435Y-28712135D01*
X183004811Y-28667618D01*
X183010802Y-28664824D01*
X183133662Y-28607534D01*
X183314620Y-28480826D01*
X183470826Y-28324620D01*
X183597534Y-28143662D01*
X183690894Y-27943450D01*
X183748070Y-27730068D01*
X183767323Y-27510000D01*
X183748070Y-27289932D01*
X183690894Y-27076550D01*
X183597534Y-26876339D01*
X183541015Y-26795621D01*
X183518689Y-26729417D01*
X183535699Y-26661650D01*
X183586647Y-26613837D01*
X183642591Y-26600500D01*
X190849903Y-26600500D01*
X190916942Y-26620185D01*
X190937584Y-26636819D01*
X196479084Y-32178319D01*
X196512569Y-32239642D01*
X196511178Y-32298092D01*
X196491932Y-32369923D01*
X196491929Y-32369937D01*
X196472677Y-32589997D01*
X196472677Y-32590002D01*
X196491929Y-32810062D01*
X196491930Y-32810070D01*
X196549104Y-33023445D01*
X196549105Y-33023447D01*
X196549106Y-33023450D01*
X196642466Y-33223662D01*
X196642468Y-33223666D01*
X196769170Y-33404615D01*
X196769175Y-33404621D01*
X196925378Y-33560824D01*
X196925384Y-33560829D01*
X197106333Y-33687531D01*
X197106335Y-33687532D01*
X197106338Y-33687534D01*
X197185818Y-33724596D01*
X197235189Y-33747618D01*
X197287628Y-33793790D01*
X197306780Y-33860984D01*
X197286564Y-33927865D01*
X197235189Y-33972382D01*
X197106340Y-34032465D01*
X197106338Y-34032466D01*
X196925377Y-34159175D01*
X196769175Y-34315377D01*
X196642466Y-34496338D01*
X196642465Y-34496340D01*
X196549107Y-34696548D01*
X196549104Y-34696554D01*
X196491930Y-34909929D01*
X196491929Y-34909937D01*
X196472677Y-35129997D01*
X196472677Y-35130002D01*
X196491929Y-35350062D01*
X196491930Y-35350070D01*
X196549104Y-35563445D01*
X196549105Y-35563447D01*
X196549106Y-35563450D01*
X196579635Y-35628920D01*
X196642466Y-35763662D01*
X196642468Y-35763666D01*
X196769170Y-35944615D01*
X196769175Y-35944621D01*
X196925378Y-36100824D01*
X196925384Y-36100829D01*
X197106333Y-36227531D01*
X197106335Y-36227532D01*
X197106338Y-36227534D01*
X197154515Y-36249999D01*
X197235189Y-36287618D01*
X197287628Y-36333790D01*
X197306780Y-36400984D01*
X197286564Y-36467865D01*
X197235189Y-36512382D01*
X197106340Y-36572465D01*
X197106338Y-36572466D01*
X196925377Y-36699175D01*
X196769175Y-36855377D01*
X196642466Y-37036338D01*
X196642465Y-37036340D01*
X196549107Y-37236548D01*
X196549104Y-37236554D01*
X196491930Y-37449929D01*
X196491929Y-37449937D01*
X196472677Y-37669997D01*
X196472677Y-37670002D01*
X196491929Y-37890062D01*
X196491930Y-37890070D01*
X196549104Y-38103445D01*
X196549105Y-38103447D01*
X196549106Y-38103450D01*
X196642466Y-38303662D01*
X196642468Y-38303666D01*
X196769170Y-38484615D01*
X196769175Y-38484621D01*
X196925378Y-38640824D01*
X196925384Y-38640829D01*
X197106333Y-38767531D01*
X197106335Y-38767532D01*
X197106338Y-38767534D01*
X197225748Y-38823215D01*
X197235189Y-38827618D01*
X197287628Y-38873790D01*
X197306780Y-38940984D01*
X197286564Y-39007865D01*
X197235189Y-39052382D01*
X197106340Y-39112465D01*
X197106338Y-39112466D01*
X196925377Y-39239175D01*
X196769175Y-39395377D01*
X196642466Y-39576338D01*
X196642465Y-39576340D01*
X196549107Y-39776548D01*
X196549104Y-39776554D01*
X196491930Y-39989929D01*
X196491929Y-39989937D01*
X196472677Y-40209997D01*
X196472677Y-40210002D01*
X196491929Y-40430062D01*
X196491930Y-40430070D01*
X196549104Y-40643445D01*
X196549105Y-40643447D01*
X196549106Y-40643450D01*
X196642466Y-40843662D01*
X196642468Y-40843666D01*
X196769170Y-41024615D01*
X196769175Y-41024621D01*
X196925378Y-41180824D01*
X196925384Y-41180829D01*
X197106333Y-41307531D01*
X197106335Y-41307532D01*
X197106338Y-41307534D01*
X197225748Y-41363215D01*
X197235189Y-41367618D01*
X197287628Y-41413790D01*
X197306780Y-41480984D01*
X197286564Y-41547865D01*
X197235189Y-41592382D01*
X197106340Y-41652465D01*
X197106338Y-41652466D01*
X196925377Y-41779175D01*
X196769175Y-41935377D01*
X196642466Y-42116338D01*
X196642465Y-42116340D01*
X196549107Y-42316548D01*
X196549104Y-42316554D01*
X196491930Y-42529929D01*
X196491929Y-42529937D01*
X196472677Y-42749997D01*
X196472677Y-42750002D01*
X196491929Y-42970062D01*
X196491930Y-42970070D01*
X196549104Y-43183445D01*
X196549105Y-43183447D01*
X196549106Y-43183450D01*
X196636181Y-43370184D01*
X196642466Y-43383662D01*
X196642468Y-43383666D01*
X196769170Y-43564615D01*
X196769175Y-43564621D01*
X196925378Y-43720824D01*
X196925384Y-43720829D01*
X197106333Y-43847531D01*
X197106335Y-43847532D01*
X197106338Y-43847534D01*
X197306550Y-43940894D01*
X197519932Y-43998070D01*
X197677123Y-44011822D01*
X197739998Y-44017323D01*
X197740000Y-44017323D01*
X197740002Y-44017323D01*
X197795017Y-44012509D01*
X197960068Y-43998070D01*
X198173450Y-43940894D01*
X198373662Y-43847534D01*
X198554620Y-43720826D01*
X198710826Y-43564620D01*
X198837534Y-43383662D01*
X198930894Y-43183450D01*
X198988070Y-42970068D01*
X199007323Y-42750000D01*
X198988070Y-42529932D01*
X198930894Y-42316550D01*
X198837534Y-42116339D01*
X198710826Y-41935380D01*
X198554620Y-41779174D01*
X198554616Y-41779171D01*
X198554615Y-41779170D01*
X198373666Y-41652468D01*
X198373658Y-41652464D01*
X198244811Y-41592382D01*
X198192371Y-41546210D01*
X198173219Y-41479017D01*
X198193435Y-41412135D01*
X198244811Y-41367618D01*
X198250802Y-41364824D01*
X198373662Y-41307534D01*
X198554620Y-41180826D01*
X198710826Y-41024620D01*
X198837534Y-40843662D01*
X198930894Y-40643450D01*
X198988070Y-40430068D01*
X199007323Y-40210000D01*
X198988070Y-39989932D01*
X198930894Y-39776550D01*
X198837534Y-39576339D01*
X198710826Y-39395380D01*
X198554620Y-39239174D01*
X198554616Y-39239171D01*
X198554615Y-39239170D01*
X198373666Y-39112468D01*
X198373658Y-39112464D01*
X198244811Y-39052382D01*
X198192371Y-39006210D01*
X198173219Y-38939017D01*
X198193435Y-38872135D01*
X198244811Y-38827618D01*
X198250802Y-38824824D01*
X198373662Y-38767534D01*
X198554620Y-38640826D01*
X198710826Y-38484620D01*
X198837534Y-38303662D01*
X198930894Y-38103450D01*
X198988070Y-37890068D01*
X199007323Y-37670000D01*
X198988070Y-37449932D01*
X198930894Y-37236550D01*
X198837534Y-37036339D01*
X198742402Y-36900476D01*
X198710827Y-36855381D01*
X198662453Y-36807007D01*
X198554620Y-36699174D01*
X198554616Y-36699171D01*
X198554615Y-36699170D01*
X198373666Y-36572468D01*
X198373658Y-36572464D01*
X198244811Y-36512382D01*
X198192371Y-36466210D01*
X198173219Y-36399017D01*
X198193435Y-36332135D01*
X198244811Y-36287618D01*
X198250802Y-36284824D01*
X198373662Y-36227534D01*
X198554620Y-36100826D01*
X198710826Y-35944620D01*
X198837534Y-35763662D01*
X198930894Y-35563450D01*
X198988070Y-35350068D01*
X199002659Y-35183307D01*
X199007323Y-35130002D01*
X199007323Y-35129997D01*
X198988070Y-34909937D01*
X198988070Y-34909932D01*
X198930894Y-34696550D01*
X198837534Y-34496339D01*
X198713016Y-34318507D01*
X198710827Y-34315381D01*
X198710823Y-34315377D01*
X198554620Y-34159174D01*
X198554616Y-34159171D01*
X198554615Y-34159170D01*
X198373666Y-34032468D01*
X198373658Y-34032464D01*
X198244811Y-33972382D01*
X198192371Y-33926210D01*
X198173219Y-33859017D01*
X198193435Y-33792135D01*
X198244811Y-33747618D01*
X198250802Y-33744824D01*
X198373662Y-33687534D01*
X198554620Y-33560826D01*
X198710826Y-33404620D01*
X198837534Y-33223662D01*
X198930894Y-33023450D01*
X198988070Y-32810068D01*
X199007323Y-32590000D01*
X199003782Y-32549530D01*
X199000103Y-32507474D01*
X198988070Y-32369932D01*
X198930894Y-32156550D01*
X198837534Y-31956339D01*
X198710826Y-31775380D01*
X198554620Y-31619174D01*
X198554616Y-31619171D01*
X198554615Y-31619170D01*
X198373666Y-31492468D01*
X198373662Y-31492466D01*
X198244218Y-31432105D01*
X198191779Y-31385932D01*
X198172627Y-31318739D01*
X198192843Y-31251858D01*
X198244219Y-31207340D01*
X198373416Y-31147095D01*
X198373417Y-31147094D01*
X198438188Y-31101741D01*
X197824094Y-30487647D01*
X197911571Y-30464208D01*
X198012930Y-30405689D01*
X198095689Y-30322930D01*
X198154208Y-30221571D01*
X198177647Y-30134094D01*
X198791741Y-30748188D01*
X198837094Y-30683417D01*
X198837100Y-30683407D01*
X198930419Y-30483284D01*
X198930424Y-30483270D01*
X198987573Y-30269986D01*
X198987575Y-30269976D01*
X199006821Y-30050000D01*
X199006821Y-30049999D01*
X198987575Y-29830023D01*
X198987573Y-29830013D01*
X198930424Y-29616729D01*
X198930420Y-29616720D01*
X198837096Y-29416586D01*
X198791741Y-29351811D01*
X198791740Y-29351810D01*
X198177647Y-29965904D01*
X198154208Y-29878429D01*
X198095689Y-29777070D01*
X198012930Y-29694311D01*
X197911571Y-29635792D01*
X197824095Y-29612352D01*
X198438188Y-28998259D01*
X198438187Y-28998258D01*
X198373411Y-28952901D01*
X198373405Y-28952898D01*
X198244219Y-28892658D01*
X198191779Y-28846486D01*
X198172627Y-28779293D01*
X198192843Y-28712411D01*
X198244219Y-28667894D01*
X198244811Y-28667618D01*
X198373662Y-28607534D01*
X198554620Y-28480826D01*
X198710826Y-28324620D01*
X198837534Y-28143662D01*
X198930894Y-27943450D01*
X198988070Y-27730068D01*
X199007323Y-27510000D01*
X198988070Y-27289932D01*
X198930894Y-27076550D01*
X198837534Y-26876339D01*
X198774180Y-26785859D01*
X198710827Y-26695381D01*
X198635631Y-26620185D01*
X198554620Y-26539174D01*
X198554616Y-26539171D01*
X198554615Y-26539170D01*
X198373666Y-26412468D01*
X198373662Y-26412466D01*
X198373660Y-26412465D01*
X198173450Y-26319106D01*
X198173447Y-26319105D01*
X198173445Y-26319104D01*
X197960070Y-26261930D01*
X197960062Y-26261929D01*
X197740002Y-26242677D01*
X197739998Y-26242677D01*
X197519937Y-26261929D01*
X197519929Y-26261930D01*
X197306554Y-26319104D01*
X197306548Y-26319107D01*
X197106340Y-26412465D01*
X197106338Y-26412466D01*
X196925377Y-26539175D01*
X196769175Y-26695377D01*
X196642466Y-26876338D01*
X196642465Y-26876340D01*
X196549107Y-27076548D01*
X196549104Y-27076554D01*
X196491930Y-27289929D01*
X196491929Y-27289937D01*
X196472677Y-27509997D01*
X196472677Y-27510002D01*
X196491929Y-27730062D01*
X196491930Y-27730070D01*
X196549104Y-27943445D01*
X196549105Y-27943447D01*
X196549106Y-27943450D01*
X196567145Y-27982135D01*
X196642466Y-28143662D01*
X196642468Y-28143666D01*
X196769170Y-28324615D01*
X196769175Y-28324621D01*
X196925378Y-28480824D01*
X196925384Y-28480829D01*
X197106333Y-28607531D01*
X197106335Y-28607532D01*
X197106338Y-28607534D01*
X197235189Y-28667618D01*
X197235781Y-28667894D01*
X197288220Y-28714066D01*
X197307372Y-28781260D01*
X197287156Y-28848141D01*
X197235781Y-28892658D01*
X197106590Y-28952901D01*
X197041811Y-28998258D01*
X197655905Y-29612352D01*
X197568429Y-29635792D01*
X197467070Y-29694311D01*
X197384311Y-29777070D01*
X197325792Y-29878429D01*
X197302352Y-29965905D01*
X196688258Y-29351811D01*
X196642901Y-29416590D01*
X196549579Y-29616720D01*
X196549575Y-29616729D01*
X196492426Y-29830013D01*
X196492424Y-29830023D01*
X196473179Y-30049999D01*
X196473179Y-30050002D01*
X196484132Y-30175200D01*
X196470365Y-30243700D01*
X196421750Y-30293883D01*
X196353721Y-30309816D01*
X196287878Y-30286440D01*
X196272923Y-30273688D01*
X191637590Y-25638355D01*
X191637588Y-25638352D01*
X191518717Y-25519481D01*
X191518716Y-25519480D01*
X191431904Y-25469360D01*
X191431904Y-25469358D01*
X191431901Y-25469358D01*
X191393991Y-25447470D01*
X191345776Y-25396903D01*
X191332554Y-25328295D01*
X191358522Y-25263431D01*
X191415437Y-25222903D01*
X191456362Y-25216085D01*
X202626374Y-25249628D01*
X202693352Y-25269513D01*
X202738949Y-25322454D01*
X202750000Y-25373627D01*
X202750000Y-100875500D01*
X202730315Y-100942539D01*
X202677511Y-100988294D01*
X202626000Y-100999500D01*
X202583037Y-100999500D01*
X202582666Y-100999499D01*
X119374129Y-100750371D01*
X119307149Y-100730486D01*
X119261552Y-100677546D01*
X119250500Y-100626372D01*
X119250500Y-100598500D01*
X119250501Y-100598091D01*
X119256681Y-98725788D01*
X119261964Y-97124996D01*
X188569435Y-97124996D01*
X188569435Y-97125003D01*
X188589630Y-97304249D01*
X188589631Y-97304254D01*
X188649211Y-97474523D01*
X188745184Y-97627262D01*
X188872738Y-97754816D01*
X189025478Y-97850789D01*
X189195745Y-97910368D01*
X189282669Y-97920161D01*
X189347080Y-97947226D01*
X189356465Y-97955700D01*
X189765139Y-98364374D01*
X189765149Y-98364385D01*
X189769479Y-98368715D01*
X189769480Y-98368716D01*
X189881284Y-98480520D01*
X189968095Y-98530639D01*
X189968097Y-98530641D01*
X190006151Y-98552611D01*
X190018215Y-98559577D01*
X190170943Y-98600501D01*
X190170946Y-98600501D01*
X190336653Y-98600501D01*
X190336669Y-98600500D01*
X192667588Y-98600500D01*
X192734627Y-98620185D01*
X192744903Y-98627555D01*
X192747736Y-98629814D01*
X192747738Y-98629816D01*
X192900478Y-98725789D01*
X193070745Y-98785368D01*
X193070750Y-98785369D01*
X193249996Y-98805565D01*
X193250000Y-98805565D01*
X193250004Y-98805565D01*
X193429249Y-98785369D01*
X193429252Y-98785368D01*
X193429255Y-98785368D01*
X193599522Y-98725789D01*
X193752262Y-98629816D01*
X193879816Y-98502262D01*
X193975789Y-98349522D01*
X194035368Y-98179255D01*
X194055565Y-98000000D01*
X194046569Y-97920160D01*
X194035369Y-97820750D01*
X194035368Y-97820745D01*
X193975788Y-97650476D01*
X193879815Y-97497737D01*
X193752262Y-97370184D01*
X193599523Y-97274211D01*
X193429254Y-97214631D01*
X193429249Y-97214630D01*
X193250004Y-97194435D01*
X193249996Y-97194435D01*
X193070750Y-97214630D01*
X193070745Y-97214631D01*
X192900476Y-97274211D01*
X192747736Y-97370185D01*
X192744903Y-97372445D01*
X192742724Y-97373334D01*
X192741842Y-97373889D01*
X192741744Y-97373734D01*
X192680217Y-97398855D01*
X192667588Y-97399500D01*
X190550097Y-97399500D01*
X190483058Y-97379815D01*
X190462416Y-97363181D01*
X190205700Y-97106465D01*
X190172215Y-97045142D01*
X190170163Y-97032686D01*
X190160368Y-96945745D01*
X190100789Y-96775478D01*
X190004816Y-96622738D01*
X189877262Y-96495184D01*
X189847907Y-96476739D01*
X189724523Y-96399211D01*
X189554254Y-96339631D01*
X189554249Y-96339630D01*
X189375004Y-96319435D01*
X189374996Y-96319435D01*
X189195750Y-96339630D01*
X189195745Y-96339631D01*
X189025476Y-96399211D01*
X188872737Y-96495184D01*
X188745184Y-96622737D01*
X188649211Y-96775476D01*
X188589631Y-96945745D01*
X188589630Y-96945750D01*
X188569435Y-97124996D01*
X119261964Y-97124996D01*
X119268152Y-95249998D01*
X124694532Y-95249998D01*
X124694532Y-95250001D01*
X124714364Y-95476686D01*
X124714366Y-95476697D01*
X124773258Y-95696488D01*
X124773261Y-95696497D01*
X124869431Y-95902732D01*
X124869432Y-95902734D01*
X124999954Y-96089141D01*
X125160858Y-96250045D01*
X125160861Y-96250047D01*
X125347266Y-96380568D01*
X125553504Y-96476739D01*
X125773308Y-96535635D01*
X125935230Y-96549801D01*
X125999998Y-96555468D01*
X126000000Y-96555468D01*
X126000002Y-96555468D01*
X126056807Y-96550498D01*
X126226692Y-96535635D01*
X126446496Y-96476739D01*
X126652734Y-96380568D01*
X126839139Y-96250047D01*
X127000047Y-96089139D01*
X127130568Y-95902734D01*
X127226739Y-95696496D01*
X127285635Y-95476692D01*
X127305468Y-95250000D01*
X127285635Y-95023308D01*
X127226739Y-94803504D01*
X127130568Y-94597266D01*
X127000047Y-94410861D01*
X127000045Y-94410858D01*
X126991322Y-94402135D01*
X132319500Y-94402135D01*
X132319500Y-96097870D01*
X132319501Y-96097876D01*
X132325908Y-96157483D01*
X132376202Y-96292328D01*
X132376206Y-96292335D01*
X132462452Y-96407544D01*
X132462455Y-96407547D01*
X132577664Y-96493793D01*
X132577671Y-96493797D01*
X132712517Y-96544091D01*
X132712516Y-96544091D01*
X132719444Y-96544835D01*
X132772127Y-96550500D01*
X134467872Y-96550499D01*
X134527483Y-96544091D01*
X134662331Y-96493796D01*
X134777546Y-96407546D01*
X134863796Y-96292331D01*
X134914091Y-96157483D01*
X134920500Y-96097873D01*
X134920499Y-95249998D01*
X143574532Y-95249998D01*
X143574532Y-95250001D01*
X143594364Y-95476686D01*
X143594366Y-95476697D01*
X143653258Y-95696488D01*
X143653261Y-95696497D01*
X143749431Y-95902732D01*
X143749432Y-95902734D01*
X143879954Y-96089141D01*
X144040858Y-96250045D01*
X144040861Y-96250047D01*
X144227266Y-96380568D01*
X144433504Y-96476739D01*
X144653308Y-96535635D01*
X144815230Y-96549801D01*
X144879998Y-96555468D01*
X144880000Y-96555468D01*
X144880002Y-96555468D01*
X144936807Y-96550498D01*
X145106692Y-96535635D01*
X145326496Y-96476739D01*
X145532734Y-96380568D01*
X145719139Y-96250047D01*
X145880047Y-96089139D01*
X146010568Y-95902734D01*
X146106739Y-95696496D01*
X146165635Y-95476692D01*
X146185468Y-95250000D01*
X146165635Y-95023308D01*
X146106739Y-94803504D01*
X146010568Y-94597266D01*
X145880047Y-94410861D01*
X145880045Y-94410858D01*
X145871322Y-94402135D01*
X151199500Y-94402135D01*
X151199500Y-96097870D01*
X151199501Y-96097876D01*
X151205908Y-96157483D01*
X151256202Y-96292328D01*
X151256206Y-96292335D01*
X151342452Y-96407544D01*
X151342455Y-96407547D01*
X151457664Y-96493793D01*
X151457671Y-96493797D01*
X151592517Y-96544091D01*
X151592516Y-96544091D01*
X151599444Y-96544835D01*
X151652127Y-96550500D01*
X153347872Y-96550499D01*
X153407483Y-96544091D01*
X153542331Y-96493796D01*
X153657546Y-96407546D01*
X153743796Y-96292331D01*
X153794091Y-96157483D01*
X153800500Y-96097873D01*
X153800499Y-95249998D01*
X162384532Y-95249998D01*
X162384532Y-95250001D01*
X162404364Y-95476686D01*
X162404366Y-95476697D01*
X162463258Y-95696488D01*
X162463261Y-95696497D01*
X162559431Y-95902732D01*
X162559432Y-95902734D01*
X162689954Y-96089141D01*
X162850858Y-96250045D01*
X162850861Y-96250047D01*
X163037266Y-96380568D01*
X163243504Y-96476739D01*
X163463308Y-96535635D01*
X163625230Y-96549801D01*
X163689998Y-96555468D01*
X163690000Y-96555468D01*
X163690002Y-96555468D01*
X163746807Y-96550498D01*
X163916692Y-96535635D01*
X164136496Y-96476739D01*
X164342734Y-96380568D01*
X164529139Y-96250047D01*
X164690047Y-96089139D01*
X164820568Y-95902734D01*
X164916739Y-95696496D01*
X164975635Y-95476692D01*
X164995468Y-95250000D01*
X164975635Y-95023308D01*
X164916739Y-94803504D01*
X164820568Y-94597266D01*
X164690047Y-94410861D01*
X164690045Y-94410858D01*
X164529141Y-94249954D01*
X164342734Y-94119432D01*
X164342732Y-94119431D01*
X164136497Y-94023261D01*
X164136488Y-94023258D01*
X163916697Y-93964366D01*
X163916693Y-93964365D01*
X163916692Y-93964365D01*
X163916691Y-93964364D01*
X163916686Y-93964364D01*
X163690002Y-93944532D01*
X163689998Y-93944532D01*
X163463313Y-93964364D01*
X163463302Y-93964366D01*
X163243511Y-94023258D01*
X163243502Y-94023261D01*
X163037267Y-94119431D01*
X163037265Y-94119432D01*
X162850858Y-94249954D01*
X162689954Y-94410858D01*
X162559432Y-94597265D01*
X162559431Y-94597267D01*
X162463261Y-94803502D01*
X162463258Y-94803511D01*
X162404366Y-95023302D01*
X162404364Y-95023313D01*
X162384532Y-95249998D01*
X153800499Y-95249998D01*
X153800499Y-94402128D01*
X153794091Y-94342517D01*
X153775374Y-94292335D01*
X153743797Y-94207671D01*
X153743793Y-94207664D01*
X153657547Y-94092455D01*
X153657544Y-94092452D01*
X153542335Y-94006206D01*
X153542328Y-94006202D01*
X153407482Y-93955908D01*
X153407483Y-93955908D01*
X153347883Y-93949501D01*
X153347881Y-93949500D01*
X153347873Y-93949500D01*
X153347864Y-93949500D01*
X151652129Y-93949500D01*
X151652123Y-93949501D01*
X151592516Y-93955908D01*
X151457671Y-94006202D01*
X151457664Y-94006206D01*
X151342455Y-94092452D01*
X151342452Y-94092455D01*
X151256206Y-94207664D01*
X151256202Y-94207671D01*
X151205908Y-94342517D01*
X151199501Y-94402116D01*
X151199501Y-94402123D01*
X151199500Y-94402135D01*
X145871322Y-94402135D01*
X145719141Y-94249954D01*
X145532734Y-94119432D01*
X145532732Y-94119431D01*
X145326497Y-94023261D01*
X145326488Y-94023258D01*
X145106697Y-93964366D01*
X145106693Y-93964365D01*
X145106692Y-93964365D01*
X145106691Y-93964364D01*
X145106686Y-93964364D01*
X144880002Y-93944532D01*
X144879998Y-93944532D01*
X144653313Y-93964364D01*
X144653302Y-93964366D01*
X144433511Y-94023258D01*
X144433502Y-94023261D01*
X144227267Y-94119431D01*
X144227265Y-94119432D01*
X144040858Y-94249954D01*
X143879954Y-94410858D01*
X143749432Y-94597265D01*
X143749431Y-94597267D01*
X143653261Y-94803502D01*
X143653258Y-94803511D01*
X143594366Y-95023302D01*
X143594364Y-95023313D01*
X143574532Y-95249998D01*
X134920499Y-95249998D01*
X134920499Y-94402128D01*
X134914091Y-94342517D01*
X134895374Y-94292335D01*
X134863797Y-94207671D01*
X134863793Y-94207664D01*
X134777547Y-94092455D01*
X134777544Y-94092452D01*
X134662335Y-94006206D01*
X134662328Y-94006202D01*
X134527482Y-93955908D01*
X134527483Y-93955908D01*
X134467883Y-93949501D01*
X134467881Y-93949500D01*
X134467873Y-93949500D01*
X134467864Y-93949500D01*
X132772129Y-93949500D01*
X132772123Y-93949501D01*
X132712516Y-93955908D01*
X132577671Y-94006202D01*
X132577664Y-94006206D01*
X132462455Y-94092452D01*
X132462452Y-94092455D01*
X132376206Y-94207664D01*
X132376202Y-94207671D01*
X132325908Y-94342517D01*
X132319501Y-94402116D01*
X132319501Y-94402123D01*
X132319500Y-94402135D01*
X126991322Y-94402135D01*
X126839141Y-94249954D01*
X126652734Y-94119432D01*
X126652732Y-94119431D01*
X126446497Y-94023261D01*
X126446488Y-94023258D01*
X126226697Y-93964366D01*
X126226693Y-93964365D01*
X126226692Y-93964365D01*
X126226691Y-93964364D01*
X126226686Y-93964364D01*
X126000002Y-93944532D01*
X125999998Y-93944532D01*
X125773313Y-93964364D01*
X125773302Y-93964366D01*
X125553511Y-94023258D01*
X125553502Y-94023261D01*
X125347267Y-94119431D01*
X125347265Y-94119432D01*
X125160858Y-94249954D01*
X124999954Y-94410858D01*
X124869432Y-94597265D01*
X124869431Y-94597267D01*
X124773261Y-94803502D01*
X124773258Y-94803511D01*
X124714366Y-95023302D01*
X124714364Y-95023313D01*
X124694532Y-95249998D01*
X119268152Y-95249998D01*
X119499550Y-25136247D01*
X119519455Y-25069275D01*
X119572410Y-25023694D01*
X119623549Y-25012658D01*
X123715075Y-25012658D01*
X123715447Y-25012659D01*
G37*
%TD.AperFunction*%
%TD*%
M02*
