M48
INCH
T1C0.0669
T2C0.1575
%
G90
G05
T1
X4.8984Y-2.0571
X4.8984Y-2.8051
X4.8984Y-3.563
X5.2984Y-2.0571
X5.2984Y-2.8051
X5.2984Y-3.563
X5.6465Y-2.0571
X5.6465Y-2.8051
X5.6465Y-3.563
X6.0465Y-2.0571
X6.0465Y-2.8051
X6.0465Y-3.563
X6.3929Y-2.0571
X6.3929Y-2.8051
X6.3929Y-3.563
X6.7929Y-2.0571
X6.7929Y-2.8051
X6.7929Y-3.563
T2
X5.0984Y-2.0571
X5.0984Y-2.8051
X5.0984Y-3.563
X5.8465Y-2.0571
X5.8465Y-2.8051
X5.8465Y-3.563
X6.5929Y-2.0571
X6.5929Y-2.8051
X6.5929Y-3.563
M30
