M48
INCH
T1C0.0118
T2C0.0315
T3C0.0350
T4C0.0394
T5C0.0591
%
G90
G05
T1
X6.5945Y-1.4665
X6.7323Y-1.4665
X6.8406Y-1.7323
X7.0137Y-1.2952
X7.0866Y-1.811
X7.4557Y-3.8238
X7.6083Y-3.8583
X7.628Y-2.0276
X7.8248Y-2.2244
X7.8248Y-2.7559
X7.8346Y-3.7008
X7.8937Y-2.3425
X7.8986Y-3.2333
T2
X4.9559Y-3.002
X4.9606Y-2.2441
X4.9606Y-3.75
X5.2559Y-3.002
X5.2606Y-2.2441
X5.2606Y-3.75
X5.6941Y-2.9921
X5.6988Y-2.2441
X5.7039Y-3.75
X5.9941Y-2.9921
X5.9988Y-2.2441
X6.0039Y-3.75
X6.4421Y-2.9921
X6.4445Y-3.75
X6.4469Y-2.2441
X6.7421Y-2.9921
X6.7445Y-3.75
X6.7469Y-2.2441
X7.2835Y-2.5689
X7.2839Y-2.676
X7.2886Y-2.8839
X7.3031Y-3.563
X7.3083Y-3.6713
X7.5835Y-2.5689
X7.5839Y-2.676
X7.5886Y-2.8839
X7.6031Y-3.563
X7.6083Y-3.6713
X7.8543Y-1.8555
X7.8543Y-2.1555
T3
X7.185Y-1.0831
X7.185Y-1.1831
X7.185Y-1.2831
X7.185Y-1.3831
X7.185Y-1.4831
X7.185Y-1.5831
X7.185Y-1.6831
X7.785Y-1.0831
X7.785Y-1.1831
X7.785Y-1.2831
X7.785Y-1.3831
X7.785Y-1.4831
X7.785Y-1.5831
X7.785Y-1.6831
T4
X5.0394Y-1.137
X5.0394Y-1.237
X5.0394Y-1.337
X5.0394Y-1.437
X7.1358Y-2.1319
X7.1358Y-2.2303
X7.1358Y-2.3287
X7.1358Y-3.1299
X7.1358Y-3.2283
X7.1358Y-3.3268
X7.7067Y-2.1319
X7.7067Y-2.3287
X7.7067Y-3.1299
X7.7067Y-3.3268
T5
X4.9484Y-1.9571
X4.9484Y-2.7051
X4.9484Y-3.463
X5.1984Y-1.8571
X5.1984Y-2.6051
X5.1984Y-3.363
X5.6965Y-1.9571
X5.6965Y-2.7051
X5.6965Y-3.463
X5.9465Y-1.8571
X5.9465Y-2.6051
X5.9465Y-3.363
X6.4429Y-1.9571
X6.4429Y-2.7051
X6.4429Y-3.463
X6.6929Y-1.8571
X6.6929Y-2.6051
X6.6929Y-3.363
T5
G00X7.4055Y-2.0098
M15
G01X7.4567Y-2.0098
M16
G05
G00X7.4055Y-2.4508
M15
G01X7.4567Y-2.4508
M16
G05
G00X7.4055Y-3.0079
M15
G01X7.4567Y-3.0079
M16
G05
G00X7.4055Y-3.4488
M15
G01X7.4567Y-3.4488
M16
G05
M30
